<svg viewBox="0 0 384 532" fill="none" xmlns="http://www.w3.org/2000/svg">
<path d="M0.521336 7.85242L383.574 0.0890303L371.812 531.069L15.9995 521.069L0.521336 7.85242Z" fill="#FAD008"/>
<path d="M313.092 78.5135C298.117 49.2084 243.424 34.5353 193.291 32.1583C185.78 31.8022 189.44 32.1583 174.037 32.1583C154.783 32.1583 95.952 47.61 72.4195 67.8571C48.887 88.1042 59.0488 103.023 68.6757 113.68C78.3026 124.336 163.875 127 186.873 127C209.87 127 282.947 122.456 297.047 119.541C325.393 113.68 320.923 93.8372 313.092 78.5135Z" stroke="black" stroke-width="5" stroke-linecap="round"/>
<path d="M204.468 143.553L187.978 138.14C186.028 138.501 178.935 139.007 166.169 138.14C150.211 137.058 134.785 142.472 129.466 146.262C124.146 150.051 108.189 141.931 105.529 142.472C102.869 143.014 92.2306 148.969 85.3155 146.262C78.4004 143.555 79.9968 144.637 67.2305 148.969C57.0174 152.433 57.3011 159.435 58.7196 162.503C61.9118 166.836 69.8895 167.916 81.06 164.126C92.2306 160.336 102.337 166.833 108.189 167.916C114.04 168.999 105.529 183.616 110.848 187.947C116.167 192.278 118.295 182.533 122.019 171.706C125.742 160.878 126.274 173.33 132.657 169.54C139.041 165.75 159.254 169.54 169.361 173.33C179.467 177.12 208.192 169.54 218.83 165.209C229.469 160.878 247.554 172.247 257.661 169.54C267.768 166.833 283.194 178.744 288.513 178.744C293.832 178.744 294.364 169.54 299.684 165.209C305.003 160.878 319.365 162.503 324.152 159.254C328.94 156.004 326.812 156.005 324.152 154.923C321.493 153.84 317.237 150.592 309.79 143.553C302.343 136.515 275.747 141.388 270.959 143.553C266.172 145.719 240.639 140.305 228.405 139.764C218.617 139.331 208.369 142.11 204.468 143.553ZM204.468 143.553L184.787 148.426" stroke="black" stroke-width="5" stroke-linecap="round"/>
<path d="M63.464 464.221C63.464 472.166 65.279 489.356 72.5389 494.557C81.6138 501.057 159.551 505.932 197.986 504.849C236.421 503.765 319.163 500.515 323.968 491.306C328.772 482.097 327.171 463.138 323.968 459.888M63.464 464.221C61.3287 459.346 66.6669 459.888 77.3433 452.846C88.0197 445.804 163.822 448.512 194.784 448.512C225.745 448.512 320.765 456.638 323.968 459.888M63.464 464.221C63.4843 465.124 65.3278 467.255 72.5389 468.555C79.7501 469.855 157.04 473.791 194.784 475.597C221.476 477.764 311.158 486.973 317.563 475.597C322.687 466.496 323.968 461.332 323.968 459.888" stroke="black" stroke-width="4" stroke-linecap="round"/>
<path d="M248.032 405.077C270.157 409.139 310.036 426.048 329.954 435.234C330.858 435.651 330.687 436.969 329.701 437.104C265.193 445.912 141.008 460.703 135.155 452.707C127.713 442.539 75.4682 421.269 79.1895 418.594C82.9107 415.918 218.883 399.725 248.032 405.077Z" fill="#FAD008" stroke="black" stroke-width="5" stroke-linecap="round"/>
<path d="M211 257C211.817 258.696 215.413 262.087 223.258 262.087C233.065 262.087 243.688 265.217 249 266" stroke="black" stroke-width="4" stroke-linecap="round"/>
<path d="M171 257.686C174.706 257.168 183.512 259.258 184.5 260.499C185.735 262.052 191.676 266.224 199.5 267" stroke="black" stroke-width="4" stroke-linecap="round"/>
<path d="M129.681 258.352C131.859 257.776 137.194 257.489 141.114 260.94C146.013 265.254 149 260.94 155.5 267.843M248.087 258.352C255.709 259.215 272.259 261.631 277.485 264.392C282.711 267.153 290.006 267.843 293 267.843M106 260.94C108.314 262.522 113.887 264.274 116.5 266" stroke="black" stroke-width="4" stroke-linecap="round"/>
<path d="M149.027 189.919C130.008 193.913 95.7264 210.541 78.6099 219.572C77.7626 220.019 77.9502 221.267 78.8968 221.415C134.357 230.076 241.013 244.603 246.041 236.745C252.437 226.749 311.072 208.86 307.874 206.229C304.676 203.598 174.08 184.657 149.027 189.919Z" fill="#FAD008" stroke="black" stroke-width="5" stroke-linecap="round"/>
<path d="M186.464 312.156C186.464 312.156 186.464 312.158 186.463 312.162C186.463 312.158 186.464 312.156 186.464 312.156ZM185.895 311.82C186.223 312.011 186.374 312.154 186.44 312.23C186.4 312.323 186.298 312.504 186.042 312.784C185.531 313.343 184.633 314.033 183.268 314.82C180.557 316.384 176.429 318.089 171.127 319.813C160.552 323.253 145.663 326.658 128.978 329.192C112.293 331.726 97.0642 332.894 85.9455 332.749C80.3699 332.677 75.9227 332.274 72.8692 331.586C71.3319 331.24 70.2697 330.847 69.616 330.465C69.288 330.274 69.137 330.131 69.0717 330.054C69.1113 329.962 69.2132 329.781 69.4695 329.501C69.9804 328.942 70.8781 328.251 72.2432 327.464C74.9547 325.9 79.082 324.196 84.3846 322.471C94.959 319.032 109.848 315.627 126.533 313.093C143.218 310.559 158.447 309.39 169.566 309.535C175.141 309.608 179.589 310.01 182.642 310.698C184.179 311.045 185.242 311.438 185.895 311.82ZM69.0265 329.99C69.0267 329.99 69.0278 329.992 69.0295 329.997C69.0272 329.992 69.0264 329.99 69.0265 329.99ZM69.0476 330.129C69.0474 330.129 69.0476 330.127 69.0486 330.122C69.0482 330.127 69.0477 330.129 69.0476 330.129ZM186.482 312.288C186.484 312.292 186.485 312.294 186.485 312.294C186.485 312.294 186.483 312.292 186.482 312.288Z" stroke="black" stroke-width="4"/>
<path d="M69.7827 330.487L71.1473 336.216C71.2252 336.543 71.4534 336.808 71.7737 336.91C78.8362 339.173 104.06 342.018 129.261 338.191C163.035 333.062 183.87 324.499 185.42 320.484C186.66 317.273 186.244 314.06 185.882 312.856" stroke="black" stroke-width="5" stroke-linecap="round"/>
<path d="M191.688 368.596C191.688 368.596 191.687 368.598 191.685 368.602C191.687 368.598 191.688 368.596 191.688 368.596ZM191.22 368.13C191.49 368.396 191.602 368.572 191.646 368.662C191.585 368.742 191.441 368.892 191.124 369.101C190.491 369.516 189.451 369.965 187.934 370.391C184.921 371.239 180.501 371.874 174.937 372.24C163.841 372.969 148.572 372.601 131.777 370.947C114.982 369.294 99.9344 366.675 89.1939 363.796C83.808 362.352 79.5969 360.867 76.8071 359.448C75.4024 358.733 74.4698 358.091 73.9302 357.56C73.6595 357.294 73.5483 357.118 73.5039 357.028C73.565 356.948 73.7083 356.798 74.0258 356.589C74.6586 356.174 75.6986 355.725 77.2157 355.299C80.2288 354.451 84.6487 353.816 90.2128 353.45C101.309 352.721 116.578 353.089 133.373 354.743C150.168 356.396 165.215 359.015 175.956 361.894C181.342 363.338 185.553 364.823 188.343 366.242C189.747 366.957 190.68 367.599 191.22 368.13ZM73.4758 356.955C73.4759 356.955 73.4765 356.957 73.4772 356.961C73.476 356.957 73.4757 356.955 73.4758 356.955ZM73.4621 357.094C73.4619 357.094 73.4627 357.092 73.4647 357.088C73.4632 357.092 73.4622 357.094 73.4621 357.094ZM191.673 368.729C191.674 368.733 191.674 368.735 191.674 368.735C191.674 368.735 191.673 368.733 191.673 368.729Z" stroke="black" stroke-width="4"/>
<path d="M173.104 365.838C173.323 366.018 173.416 366.139 173.454 366.203C173.404 366.257 173.29 366.358 173.04 366.491C172.565 366.745 171.811 367 170.755 367.231C168.656 367.689 165.6 368.001 161.785 368.145C154.169 368.434 143.694 368.048 132.172 366.913C120.649 365.778 110.3 364.114 102.888 362.345C99.1741 361.46 96.2379 360.557 94.2684 359.699C93.2769 359.266 92.5876 358.87 92.1715 358.528C91.9522 358.348 91.8596 358.227 91.8213 358.164C91.8712 358.109 91.9857 358.008 92.2358 357.875C92.7106 357.621 93.4641 357.366 94.5208 357.135C96.62 356.677 99.6758 356.365 103.491 356.221C111.106 355.932 121.581 356.318 133.104 357.453C144.626 358.588 154.975 360.253 162.388 362.021C166.101 362.907 169.038 363.809 171.007 364.667C171.999 365.1 172.688 365.497 173.104 365.838Z" stroke="black" stroke-width="2"/>
<path d="M74.0864 357.622L73.998 363.51C73.9929 363.846 74.1488 364.159 74.4339 364.337C80.7215 368.27 104.468 377.241 129.835 379.739C163.832 383.087 186.134 379.919 188.625 376.41C190.618 373.603 191.006 370.387 190.951 369.13" stroke="black" stroke-width="5" stroke-linecap="round"/>
<path d="M188.233 384.314C188.232 384.314 188.233 384.316 188.235 384.32C188.234 384.316 188.233 384.314 188.233 384.314ZM188.713 383.86C188.435 384.12 188.319 384.292 188.273 384.381C188.332 384.463 188.471 384.617 188.783 384.833C189.405 385.265 190.433 385.74 191.939 386.205C194.929 387.13 199.331 387.879 204.884 388.388C215.957 389.402 231.231 389.428 248.063 388.206C264.895 386.985 280.005 384.755 290.816 382.153C296.237 380.849 300.485 379.472 303.311 378.125C304.733 377.447 305.682 376.829 306.235 376.312C306.513 376.053 306.628 375.88 306.675 375.791C306.616 375.71 306.477 375.556 306.165 375.339C305.543 374.907 304.514 374.433 303.009 373.967C300.019 373.042 295.616 372.293 290.064 371.785C278.99 370.771 263.717 370.745 246.885 371.966C230.053 373.187 214.943 375.417 204.132 378.019C198.71 379.324 194.463 380.7 191.637 382.047C190.214 382.725 189.266 383.343 188.713 383.86ZM306.705 375.719C306.705 375.719 306.704 375.721 306.703 375.725C306.705 375.721 306.705 375.719 306.705 375.719ZM306.715 375.858C306.715 375.858 306.715 375.856 306.713 375.852C306.714 375.856 306.715 375.858 306.715 375.858ZM188.244 384.447C188.243 384.451 188.243 384.454 188.243 384.454C188.243 384.454 188.243 384.451 188.244 384.447Z" stroke="black" stroke-width="4"/>
<path d="M206.879 382.037C206.655 382.211 206.559 382.33 206.519 382.392C206.568 382.448 206.68 382.551 206.926 382.692C207.394 382.958 208.141 383.232 209.192 383.489C211.278 384.001 214.325 384.392 218.135 384.635C225.74 385.119 236.222 385.003 247.77 384.165C259.318 383.327 269.706 381.929 277.162 380.352C280.897 379.562 283.855 378.736 285.846 377.928C286.849 377.522 287.548 377.143 287.973 376.812C288.197 376.637 288.292 376.519 288.332 376.457C288.284 376.401 288.172 376.297 287.925 376.157C287.457 375.891 286.71 375.617 285.66 375.359C283.573 374.847 280.527 374.457 276.717 374.214C269.111 373.73 258.63 373.846 247.082 374.684C235.534 375.522 225.145 376.92 217.69 378.496C213.955 379.286 210.996 380.113 209.005 380.921C208.003 381.327 207.304 381.706 206.879 382.037Z" stroke="black" stroke-width="2"/>
<path d="M306.077 376.37L306.014 382.258C306.01 382.594 305.847 382.903 305.557 383.074C299.17 386.844 275.201 395.2 249.778 397.045C215.706 399.517 193.493 395.776 191.093 392.204C189.173 389.347 188.868 386.122 188.955 384.867" stroke="black" stroke-width="5" stroke-linecap="round"/>
<path d="M197.722 320.139C197.722 320.139 197.723 320.142 197.725 320.149C197.724 320.142 197.723 320.139 197.722 320.139ZM198.139 320.075C197.974 320.163 197.864 320.236 197.793 320.291C197.839 320.369 197.913 320.478 198.034 320.621C198.453 321.117 199.213 321.755 200.402 322.505C202.76 323.992 206.385 325.661 211.073 327.394C220.42 330.849 233.639 334.429 248.504 337.293C263.368 340.156 276.971 341.743 286.933 342.008C291.93 342.141 295.915 341.938 298.657 341.433C300.039 341.178 300.982 340.869 301.555 340.564C301.72 340.476 301.83 340.402 301.902 340.347C301.856 340.269 301.781 340.16 301.66 340.017C301.241 339.521 300.481 338.883 299.293 338.134C296.935 336.647 293.31 334.977 288.621 333.244C279.274 329.789 266.055 326.21 251.19 323.346C236.326 320.483 222.723 318.895 212.762 318.631C207.765 318.498 203.779 318.701 201.037 319.206C199.655 319.46 198.712 319.77 198.139 320.075ZM302.023 340.232C302.023 340.232 302.021 340.234 302.018 340.24C302.022 340.235 302.024 340.232 302.023 340.232ZM301.972 340.5C301.972 340.5 301.972 340.496 301.97 340.489C301.971 340.496 301.972 340.5 301.972 340.5ZM197.677 320.398C197.672 320.404 197.671 320.407 197.671 320.407C197.671 320.407 197.673 320.404 197.677 320.398Z" stroke="black" stroke-width="4"/>
<path d="M301.5 340.758L300.087 345.793C299.996 346.117 299.754 346.374 299.43 346.462C292.941 348.234 270.287 349.868 247.89 345.553C217.786 339.754 199.406 331.335 198.159 327.68C197.161 324.756 197.648 321.89 198.017 320.823" stroke="black" stroke-width="5" stroke-linecap="round"/>
<path d="M150 317C147.429 317 147.429 317 147 317" stroke="black" stroke-width="4" stroke-linecap="round"/>
<path d="M271.427 333.106C268.24 332.482 268.428 331.982 267.366 333.294" stroke="black" stroke-width="4" stroke-linecap="round"/>
<path d="M130 320C128.342 322.222 127.789 322.222 127.789 322.778M111.543 322.222C109.333 326.111 109.22 322.778 109 325" stroke="black" stroke-width="4" stroke-linecap="round"/>
<path d="M250.624 329.3C248.376 330.737 247.876 330.55 247.688 331.049M233.182 325.043C229.871 327.793 230.893 324.755 229.945 326.68" stroke="black" stroke-width="4" stroke-linecap="round"/>
<path d="M67.6933 256.611C59.2767 262.162 61.3169 277.105 62.7478 281.09C62.8315 281.323 62.9959 281.499 63.2213 281.601C77.6547 288.168 122.589 301 189.991 301C274.905 301 332.582 297.829 334.718 288.318C336.854 278.806 336.32 261.368 333.116 261.368C329.912 261.368 267.962 247.1 196.934 249.214C125.905 251.327 72.5005 253.44 67.6933 256.611ZM67.6933 256.611C62.8862 259.781 60.7516 271.407 98.669 273.52C136.586 275.634 164.891 273.52 207.615 273.52C250.339 273.52 333.116 280.919 333.116 270.35" stroke="black" stroke-width="4" stroke-linecap="round"/>
<ellipse cx="121.5" cy="59.5" rx="4.5" ry="2.5" fill="black"/>
<ellipse cx="116.5" cy="73" rx="3.5" ry="2" fill="black"/>
<ellipse cx="142.077" cy="53.8638" rx="4.5" ry="2.5" transform="rotate(19.5845 142.077 53.8638)" fill="black"/>
<ellipse rx="3.56399" ry="1.48591" transform="matrix(0.971511 0.236994 -0.460574 0.887621 138.147 66.1636)" fill="black"/>
<ellipse cx="102.849" cy="66.2047" rx="4.5" ry="2.5" transform="rotate(-9.43921 102.849 66.2047)" fill="black"/>
<ellipse cx="106.849" cy="55.2047" rx="4.5" ry="2.5" transform="rotate(-9.43921 106.849 55.2047)" fill="black"/>
<ellipse cx="88.8491" cy="62.2047" rx="4.5" ry="2.5" transform="rotate(-9.43921 88.8491 62.2047)" fill="black"/>
<ellipse cx="145.849" cy="43.2047" rx="4.5" ry="2.5" transform="rotate(-9.43921 145.849 43.2047)" fill="black"/>
<ellipse cx="175.849" cy="38.2047" rx="4.5" ry="2.5" transform="rotate(-9.43921 175.849 38.2047)" fill="black"/>
<ellipse cx="273.849" cy="54.2047" rx="4.5" ry="2.5" transform="rotate(-9.43921 273.849 54.2047)" fill="black"/>
<ellipse cx="231.849" cy="43.2047" rx="4.5" ry="2.5" transform="rotate(-9.43921 231.849 43.2047)" fill="black"/>
<ellipse rx="3.64878" ry="1.42097" transform="matrix(0.993566 -0.113259 0.235642 0.97184 97.9601 86.7939)" fill="black"/>
<ellipse cx="80.8491" cy="74.2047" rx="4.5" ry="2.5" transform="rotate(-9.43921 80.8491 74.2047)" fill="black"/>
<ellipse rx="3.64878" ry="1.42097" transform="matrix(0.993566 -0.113259 0.235642 0.97184 64.9601 86.7939)" fill="black"/>
<ellipse cx="163" cy="47.854" rx="4.42412" ry="2.4819" transform="rotate(-12.9397 163 47.854)" fill="black"/>
<ellipse rx="3.56477" ry="1.42851" transform="matrix(0.987817 -0.155618 0.317729 0.948182 170.975 60.9091)" fill="black"/>
<ellipse cx="187.61" cy="47.8328" rx="4.42412" ry="2.4819" transform="rotate(4.65614 187.61 47.8328)" fill="black"/>
<ellipse rx="3.60678" ry="1.39493" transform="matrix(0.998444 0.0557564 -0.117953 0.993019 194.765 66.5863)" fill="black"/>
<ellipse cx="212.88" cy="46.4064" rx="4.42412" ry="2.4819" transform="rotate(-4.96085 212.88 46.4064)" fill="black"/>
<ellipse rx="3.60593" ry="1.39562" transform="matrix(0.998234 -0.0594104 0.125591 0.992082 214.775 74.5981)" fill="black"/>
<ellipse cx="234.743" cy="52.1089" rx="4.42412" ry="2.4819" transform="rotate(8.50443 234.743 52.1089)" fill="black"/>
<ellipse rx="3.59209" ry="1.4068" transform="matrix(0.994785 0.101992 -0.213074 0.977036 232.873 66.7409)" fill="black"/>
<ellipse cx="257.219" cy="56.7932" rx="4.42412" ry="2.4819" transform="rotate(7.79307 257.219 56.7932)" fill="black"/>
<ellipse rx="3.59545" ry="1.40411" transform="matrix(0.995626 0.0934289 -0.195742 0.980656 249.854 82.7129)" fill="black"/>
<ellipse cx="278.721" cy="65.0581" rx="4.42412" ry="2.4819" transform="rotate(5.79011 278.721 65.0581)" fill="black"/>
<ellipse rx="3.60333" ry="1.39773" transform="matrix(0.997592 0.0693598 -0.146298 0.989241 262.798 72.6326)" fill="black"/>
<ellipse cx="296.651" cy="70.9156" rx="4.42412" ry="2.4819" transform="rotate(5.79011 296.651 70.9156)" fill="black"/>
<ellipse rx="3.60333" ry="1.39773" transform="matrix(0.997592 0.0693598 -0.146298 0.989241 286.798 79.6326)" fill="black"/>
</svg>
