<svg width="177" viewBox="0 0 274 199" fill="none" xmlns="http://www.w3.org/2000/svg">
<path d="M118.938 147.366L151.647 122.463L151.877 118.971L111.366 117.804C101.888 119.684 82.7272 123.533 81.9026 123.879C81.078 124.226 106.249 139.681 118.938 147.366Z" fill="#FAD008"/>
<path d="M49.0314 151.276C48.2068 151.623 71.125 178.455 83.8137 186.14L111.638 166.927L148.678 152.332L115.585 152.656L76.0716 151.555C66.5941 153.436 49.856 150.93 49.0314 151.276Z" fill="#FAD008"/>
<path fill-rule="evenodd" clip-rule="evenodd" d="M140.435 34.2699C146.546 34.8524 153.296 36.2227 155.008 37.2282C155.892 37.7469 159.538 39.2817 163.112 40.6384C177.575 46.1297 185.272 51.0783 192.205 59.3431C201.447 70.3589 206.209 87.2131 203.572 99.57C203.293 100.877 202.972 102.204 202.859 102.518C202.48 103.573 205.86 104.26 214.9 104.966L223.336 105.625L223.364 107.282C223.418 110.47 223.008 111.235 219.622 114.267C217.881 115.826 215.228 117.844 213.726 118.752L210.994 120.403L211.96 122.534C212.844 124.487 212.922 125.085 212.88 129.657C212.819 136.305 211.9 142.377 210.569 144.925C210.012 145.99 208.635 147.741 207.509 148.815L205.461 150.768L206.097 151.974C209.717 158.84 210.204 161.222 209.747 169.799C209.448 175.417 209.35 176.022 208.462 177.681C206.583 181.196 201.033 184.969 192.375 188.619C178.2 194.594 165.887 197.048 147.68 197.527C145.043 197.596 140.641 197.775 137.898 197.925C135.156 198.076 128.601 198.22 123.333 198.246C118.065 198.272 112.174 198.395 110.243 198.52C107.768 198.679 99.2038 198.268 81.2217 197.128C42.7401 194.687 32.8657 193.673 26.7174 191.532C24.0344 190.597 23.317 190.129 19.9566 187.122C14.9653 182.654 14.7044 181.915 14.7777 172.447C14.8135 167.781 14.6658 165.176 14.2829 163.729C13.868 162.164 13.8086 160.651 14.0361 157.454C14.3646 152.836 14.3592 152.814 11.9168 149.549C11.2034 148.595 10.116 146.702 9.50035 145.341C8.46926 143.063 8.37935 142.509 8.36042 138.326C8.34061 133.85 8.35574 133.76 9.40856 132.16L10.4767 130.537L9.39815 129.292L8.31925 128.047L0.0604056 117.256C0.00568788 112.697 8.24881 111.359 8.40584 111.227C8.56325 111.094 9.01915 110.944 9.41926 110.894C9.99588 110.821 8.82407 108.517 8.82407 108.517L8.6415 106.843L8.31191 103.478L8.04009 99.2197L8.79979 94.4025L9.10633 88.7002C9.10633 88.7002 10.1034 84.8637 10.2092 82.7508C10.3328 80.2834 11.2674 76.5138 11.2674 76.5138L14.4326 69.4584C14.4326 69.4584 17.5385 63.7569 20.3514 60.7636C25.1416 55.6661 35.6448 51.439 35.6448 51.439C35.6448 51.439 45.6965 46.1919 47.3818 45.5706C48.1051 45.304 51.3279 44.0686 54.5438 42.8251C64.6319 38.9239 68.7948 37.7475 76.7229 36.5579C85.2811 35.2735 99.8857 33.5128 105.675 33.0669C109.653 32.7604 133.127 33.573 140.435 34.2699ZM116.143 37.5768C107.053 37.7306 84.5742 39.8595 74.8621 41.4861C68.4968 42.5522 60.3683 45.2288 50.8595 49.39C46.4563 51.3168 45.9418 51.7148 44.7097 54.149C44.0438 55.4642 43.9318 56.0118 44.2082 56.6047C44.4037 57.0246 44.7192 57.3762 44.9095 57.3865C45.0997 57.3967 45.5037 57.8345 45.8074 58.3593C46.3176 59.241 46.3105 59.3804 45.7123 60.1974C44.9399 61.2528 43.706 61.5618 42.4665 61.0107C41.1787 60.4382 41.0803 53.2797 38.5018 56.6015C31.7995 59.4495 31.693 59.3221 28.0573 62.1792C23.3342 65.891 21.099 68.796 18.435 74.18C15.624 79.861 13.6899 89.948 13.6899 89.948C13.6899 89.948 11.8348 97.2573 14.1814 99.9889L17.9269 98.999L22.9567 96.8174C37.5052 90.5077 57.2811 84.5352 69.9479 82.6251C81.7763 80.842 105.21 78.3753 116.923 77.6806C123.804 77.2724 146.912 78.3926 154.761 79.515C161.099 80.4212 168.979 81.9764 173.529 83.2192C181.858 85.4943 190.943 89.861 196.26 94.1451C197.777 95.3668 199.09 96.3704 199.179 96.3752C199.267 96.38 199.425 94.8004 199.529 92.8652C199.835 87.1682 198.832 82.2336 195.855 74.7943C191.971 65.0865 185.215 57.1134 176.312 51.7312C172.323 49.3197 168.155 47.4924 159.513 44.3647C143.532 38.5814 135.067 37.2565 116.143 37.5768ZM129.629 38.9483C130.882 40.4983 129.729 42.7152 127.726 42.6075C126.85 42.5604 125.327 41.2595 125.363 40.5899C125.371 40.4409 125.833 39.8315 126.389 39.2356C127.538 38.0049 128.778 37.8947 129.629 38.9483ZM142.038 42.4357C143.194 43.7274 143.052 45.0841 141.629 46.3678C140.751 47.1587 140.272 47.3415 139.655 47.1204C137.629 46.3958 137.447 44.011 139.297 42.4533C140.754 41.2272 140.957 41.2259 142.038 42.4357ZM102.821 40.4066C103.073 40.5244 103.507 41.1295 103.786 41.7521C104.245 42.7757 104.234 42.9655 103.662 43.7459C103.269 44.2842 102.68 44.5895 102.097 44.5582C99.8038 44.4349 99.1471 42.7842 100.69 41.0191C101.489 40.1042 101.914 39.9821 102.821 40.4066ZM112.579 42.3313C113.048 42.8558 113.418 43.5414 113.401 43.8548C113.351 44.7837 111.903 45.825 110.747 45.7628C108.667 45.651 107.892 43.3993 109.45 41.9948C110.485 41.0612 111.545 41.1751 112.579 42.3313ZM119.069 42.9113C120.423 43.804 119.253 46.9598 117.602 46.871C116.103 46.7904 115.005 43.7931 116.11 42.7966C116.672 42.2895 118.216 42.3492 119.069 42.9113ZM158.965 45.8367C160.283 46.4113 161.44 47.7616 161.391 48.6702C161.329 49.8152 159.673 51.1131 158.73 50.7554C157.648 50.3455 155.871 48.5872 155.904 47.9596C155.941 47.2851 157.031 45.7779 157.619 45.5884C157.864 45.5095 158.47 45.6215 158.965 45.8367ZM132.257 46.9276C133.171 47.3425 134.13 48.7784 134.083 49.6616C134.045 50.3578 132.316 51.7301 131.53 51.6878C131.254 51.673 130.707 51.3011 130.314 50.8617C128.799 49.1678 130.336 46.0563 132.257 46.9276ZM80.0103 44.5628C81.1482 46.3962 80.0563 48.9207 78.1694 48.8193C76.8591 48.7488 76.2316 47.9111 76.356 46.3974C76.4211 45.6051 76.7856 44.9564 77.4585 44.4356C78.724 43.4563 79.3429 43.487 80.0103 44.5628ZM168.029 51.3133C169.157 52.5748 169.023 53.5477 167.618 54.2991C166.668 54.8079 166.475 54.8027 165.596 54.2451C164.271 53.4057 164.161 51.5392 165.391 50.7699C166.576 50.0278 166.948 50.1043 168.029 51.3133ZM152.414 50.4362C153.281 51.6751 153.288 52.0616 152.461 53.1207C151.966 53.7557 151.545 53.8895 150.501 53.745C149.427 53.5963 149.114 53.362 148.873 52.5277C148.095 49.8353 150.853 48.2062 152.414 50.4362ZM90.3856 47.0621C91.0332 47.9376 90.775 50.2943 89.9741 50.8185C87.4878 52.4464 85.3735 49.2861 87.6034 47.2757C88.6775 46.3068 89.7648 46.2236 90.3856 47.0621ZM178.904 55.9306C181.326 57.7431 181.641 58.6643 180.241 59.8394C178.967 60.9092 177.547 60.6513 175.976 59.0646C174.307 57.3787 174.048 56.3803 175.048 55.4792C176.064 54.5633 177.265 54.7041 178.904 55.9306ZM125.371 52.9521C126.755 54.6017 125.799 56.9271 123.78 56.8186C122.841 56.7681 120.567 54.4336 120.614 53.5681C120.709 51.7944 124.037 51.3634 125.371 52.9521ZM105.758 52.19C107.107 53.5136 107.261 54.5559 106.293 55.7961C105.575 56.7164 104.623 56.7477 103.182 55.8984C101.156 54.7041 100.527 52.5497 101.881 51.4457C102.963 50.5637 104.379 50.8355 105.758 52.19ZM64.4201 49.2636C64.9826 49.8926 64.8586 51.5002 64.1834 52.33C63.7753 52.8314 63.2335 52.9683 62.0858 52.8604C58.0511 52.4812 58.4548 48.4991 62.5059 48.7169C63.3293 48.7612 64.1908 49.0072 64.4201 49.2636ZM90.3928 53.2727C91.8928 54.1517 92.6478 55.6535 92.1852 56.8383C91.8521 57.6914 91.5437 57.8793 90.4207 57.914C87.8784 57.9926 86.0185 54.718 87.7868 53.2768C88.6231 52.595 89.2349 52.5939 90.3928 53.2727ZM147.164 57.7095C148.323 58.2522 149.075 59.7927 148.865 61.1919C148.692 62.3435 148.596 62.4119 147.1 62.4395C145.714 62.4656 145.37 62.3032 144.317 61.1249C142.951 59.5981 142.795 58.0875 143.947 57.5459C144.817 57.137 146.079 57.2011 147.164 57.7095ZM53.2334 54.7248C53.7058 55.9344 52.9521 57.3273 51.4125 58.0892C50.4787 58.5512 50.3209 58.5257 49.4133 57.7665C48.0574 56.6326 48.0578 55.893 49.4152 54.6689C50.9465 53.2882 52.6824 53.3139 53.2334 54.7248ZM168.38 62.0398C169.697 63.9217 169.004 65.5368 166.926 65.4251C164.673 65.304 163.475 62.5524 165.205 61.4704C166.449 60.6915 167.578 60.8939 168.38 62.0398ZM73.7759 57.6701C74.4895 58.4681 74.4164 59.2926 73.5257 60.5025C71.9241 62.6775 70.4915 62.9977 69.3914 61.4263C68.4224 60.0425 68.5272 59.5255 70.0565 58.1466C71.4956 56.8489 72.8823 56.6712 73.7759 57.6701ZM185.264 66.4393C186.281 67.7955 186.346 68.7512 185.472 69.5393C184.283 70.6108 181.924 69.7432 181.113 67.9367C180.675 66.9612 180.69 66.7527 181.254 65.9823C182.206 64.6818 184.108 64.8986 185.264 66.4393ZM51.3057 61.4042C51.8753 62.6271 51.5827 64.6987 50.732 65.4658C49.1794 66.8657 47.2498 65.8385 47.3662 63.6743C47.4961 61.2567 50.4452 59.5572 51.3057 61.4042ZM194.137 74.1161C194.609 74.9333 194.619 75.31 194.198 76.4852C193.63 78.073 192.876 78.4756 191.75 77.7926C189.895 76.6688 189.656 74.8837 191.213 73.7844C192.556 72.8359 193.455 72.9382 194.137 74.1161ZM39.4914 69.1208C40.0562 69.8842 39.9072 72.4776 39.2575 73.1827C38.9263 73.5421 38.291 73.6714 37.4381 73.5534C36.1274 73.3716 36.1271 73.3709 36.1207 71.3997C36.117 70.2638 36.3096 69.2157 36.5748 68.9278C37.183 68.2675 38.9464 68.3844 39.4914 69.1208ZM115.582 82.6689C109.394 82.6413 106.189 82.8733 95.0607 84.1538C66.793 87.4064 59.9181 88.758 43.1011 94.3692C31.5567 98.2209 21.4925 102.218 18.9329 103.969C16.6192 105.552 15.29 108.32 16.5689 108.894C18.116 109.587 19.0257 109.219 21.8372 106.761L24.6824 104.274L29.2996 105.952C32.5888 107.146 34.4469 107.628 35.759 107.623C36.772 107.62 40.4355 107.738 43.9001 107.885L50.1992 108.152L52.5083 106.169C53.7784 105.078 55.2656 104.098 55.8132 103.991C57.2172 103.716 59.3467 104.245 61.7306 105.461C63.0756 106.146 64.1198 106.447 64.7794 106.339C65.3308 106.248 67.6368 105.118 69.9038 103.828C73.0948 102.013 74.3312 101.5 75.3826 101.556C76.2347 101.601 78.4068 102.481 81.2178 103.92C86.4876 106.617 86.3303 106.638 89.1508 102.85C90.1699 101.481 91.525 99.8477 92.162 99.2207C93.765 97.6434 95.1773 97.7837 98.9904 99.8999C101.487 101.286 102.268 101.555 103.491 101.452C104.305 101.384 106.137 101.222 107.562 101.093C108.987 100.965 111.558 100.926 113.275 101.008C118.964 101.28 127.315 100.249 131.556 98.7523C134.82 97.6008 137.329 97.8089 142.095 99.6254C147.504 101.687 150.035 101.782 153.84 100.064C157.615 98.361 159.408 98.4555 164.226 100.613L167.744 102.188L170.84 100.915C173.37 99.8736 174.339 99.6628 176.145 99.7598C178.138 99.867 178.614 100.062 181.021 101.754L183.688 103.63L188.684 102.988C193.775 102.333 196.044 101.884 196.61 101.417C197.283 100.863 191.012 96.0183 185.577 92.8929C182.219 90.9616 176.112 88.8663 166.366 86.3013L158.558 84.2462L140.736 83.4738C130.934 83.0493 119.615 82.6871 115.582 82.6689ZM170.11 105.998C167.6 106.735 165.981 106.461 161.651 104.563L158.543 103.201L155.787 104.436C152.541 105.892 149.166 106.436 146.456 105.941C145.391 105.746 142.839 104.912 140.784 104.086C136.632 102.417 136.131 102.394 131.821 103.683C127.83 104.876 122.542 105.527 116.158 105.613C112.915 105.656 108.925 105.879 107.292 106.109C101.997 106.853 101.475 106.82 99.3872 105.612C98.3416 105.008 96.8845 104.262 96.1489 103.956L94.8116 103.4L93.3629 105.287C91.4556 107.77 87.5708 111.086 86.6277 111.035C85.8285 110.992 82.1677 109.606 78.1786 107.836C76.834 107.239 75.414 106.734 75.0233 106.713C74.6322 106.692 73.0676 107.418 71.5463 108.326C67.0386 111.017 65.6879 111.506 63.7156 111.163C62.7724 110.999 60.9154 110.299 59.5895 109.607L57.1784 108.349L55.0582 110.094C53.8921 111.055 52.4916 112.037 51.9461 112.276C51.2845 112.568 48.3825 112.671 43.2267 112.587C32.9481 112.419 32.7183 112.39 28.8374 110.795L25.4754 109.412L24.6224 110.476C24.1534 111.061 23.0692 112.23 22.2132 113.073L20.6567 114.608L17.4791 114.194C14.3248 113.784 14.2922 113.789 12.9894 114.818C12.2678 115.389 8.98568 115.527 8.43775 115.703C7.88981 115.879 3.57062 117.16 3.55536 117.444C3.5401 117.728 6.24884 119.352 6.87204 120.948C7.49526 122.543 8.93847 124.372 10.7324 125.78C11.8852 126.685 13.4172 126.454 14.6273 126.519C15.3277 126.556 16.5224 126.017 18.1194 124.94C19.4546 124.041 21.5231 122.875 22.716 122.348C27.0526 120.435 27.3923 120.425 48.2935 121.548C68.2979 122.624 74.5878 122.672 80.5007 121.794C83.8945 121.29 85.6386 120.897 95.4847 118.415C105.048 116.004 108.866 115.771 131.398 116.22C150.06 116.591 151.799 116.524 161.875 115.036C171.536 113.609 175.093 113.624 183.232 115.124C188.32 116.062 190.362 116.282 193.302 116.213C195.33 116.165 199.16 116.193 201.813 116.274C207.119 116.437 209.459 115.917 212.83 113.823C214.776 112.614 217.613 110.042 217.339 109.735C217.233 109.616 216.413 109.648 215.517 109.806C213.009 110.246 209.832 109.961 205.847 108.938C198.482 107.046 193.196 106.912 186.17 108.436L183.747 108.962L179.877 106.506L176.006 104.05L174.08 104.724C173.02 105.095 171.234 105.668 170.11 105.998ZM167.916 119.133C163.893 119.38 157.329 120.317 155.782 120.865C155.042 121.127 154.278 121.814 153.784 122.661C152.685 124.547 151.05 125.853 146.608 128.398C140.864 131.688 137.669 134.167 130.731 140.719C125.402 145.751 124.017 146.861 121.971 147.739C119.775 148.682 119.326 148.748 117.324 148.429C114.608 147.995 111.025 145.954 103.954 140.812C98.7785 137.049 93.8624 134.13 85.399 129.794L80.3862 127.226L71.5399 127.252C66.5194 127.267 54.8319 126.869 44.5136 126.33L26.3332 125.382L22.3315 127.883C16.3648 131.612 14.4924 133.159 13.261 135.375C11.9659 137.707 12.0066 139.019 13.4874 142.66C15.421 147.415 16.9304 148.736 21.5858 149.751C25.3707 150.576 49.3709 151.884 55.3099 151.589C57.8488 151.463 64.5798 151.118 70.2676 150.823C84.4594 150.087 96.4046 149.756 106.231 149.825C119.696 149.92 124.041 149.718 139.434 148.273C154.464 146.862 158.548 146.759 179.148 147.271C192.145 147.593 198.838 147.62 200.121 147.356C204.462 146.463 206.903 143.17 207.91 136.849C208.688 131.965 208.453 126.374 207.378 124.185C205.972 121.322 206.162 121.372 193.801 120.636C187.743 120.275 181.638 119.76 180.235 119.49C177.476 118.959 172.903 118.827 167.916 119.133ZM113.51 120.627C109.833 120.688 106.461 121 103.445 121.557C98.6254 122.449 90.3174 124.6 88.7934 125.352C87.9199 125.783 87.9097 125.822 88.5627 126.218C88.939 126.446 90.7019 127.313 92.4803 128.145C96.4481 130.002 101.013 132.88 107.598 137.679C113.269 141.81 115.542 143.081 118.169 143.586C119.803 143.9 120.138 143.837 121.416 142.975C122.199 142.446 125.159 139.797 127.994 137.088C130.828 134.38 134.446 131.107 136.035 129.817C138.778 127.587 139.888 126.879 145.495 123.781C146.99 122.954 147.799 122.294 147.65 122.02C147.365 121.497 122.417 120.479 113.51 120.627ZM183.808 152.36C176.17 152.195 175.955 152.21 177.522 152.82C182.467 154.744 186.831 156.865 194.193 160.925C199.575 163.892 202.849 165.486 203.704 165.555L205.008 165.661L205.068 163.63C205.133 161.449 204.234 158.13 203.019 156.066C201.697 153.819 197.939 152.399 193.561 152.492C192.547 152.513 188.159 152.454 183.808 152.36ZM138.278 153.188C126.669 154.308 120.987 154.552 107.637 154.503C90.8041 154.441 67.0293 155.299 55.6154 156.381L52.8826 156.641L55.2236 158.833C56.5115 160.04 58.9014 162.371 60.5349 164.014C67.0183 170.535 78.4507 180.303 82.294 182.605C85.1572 184.32 86.2174 184.241 89.1006 182.094C90.4304 181.103 93.1694 178.873 95.1872 177.137C105.386 168.36 105.481 168.308 122.691 162.232C141.375 155.636 151.692 151.493 147.63 152.217C147.169 152.299 142.961 152.736 138.278 153.188ZM157.47 155.343C154.336 155.797 149.06 157.486 139.885 160.975C135.852 162.508 129.86 164.75 126.569 165.956C123.278 167.163 120.513 168.336 120.426 168.563C120.201 169.15 124.425 170.76 126.479 170.87C127.557 170.928 130.045 170.431 133.202 169.526L138.213 168.09L142.424 168.548C146.419 168.983 146.75 168.963 148.89 168.163C156.074 165.474 157.668 165.672 160.957 169.665C165.975 175.755 166.184 175.963 167.333 176.025C169.165 176.124 170.31 174.925 172.911 170.182C176.57 163.511 179.085 161.444 182.614 162.207C184.594 162.635 186.401 163.744 188.644 165.908C191.324 168.495 193.267 169.539 194.498 169.054C195.023 168.846 195.467 168.432 195.483 168.133C195.548 166.931 189.683 163.367 181.395 159.57C172.406 155.453 165.337 154.204 157.47 155.343ZM29.5077 155.883C28.6411 156.665 28.6552 158.368 29.5592 161.989C30.0965 164.142 30.3446 166.364 30.3387 168.969L30.3296 172.789L32.5882 172.671C36.3249 172.474 38.549 171.805 40.688 170.233C44.2833 167.59 44.1082 167.627 46.8435 168.931C48.1675 169.563 49.2914 170.032 49.3412 169.976C49.3907 169.919 50.0996 168.927 50.9163 167.772C52.8962 164.973 53.2566 164.1 52.8197 163.162C52.365 162.186 47.1045 158.341 45.2444 157.624C44.4611 157.322 40.9302 156.716 37.3982 156.277C33.8661 155.838 30.7831 155.447 30.5462 155.407C30.3096 155.367 29.8425 155.582 29.5077 155.883ZM19.4232 155.291C18.9094 155.573 18.2763 159.889 18.4825 161.705C18.6967 163.593 19.3502 164.372 20.7846 164.449C23.7931 164.611 24.7096 162.108 23.8897 155.97C23.7487 154.914 23.716 154.899 21.7646 154.995C20.6745 155.05 19.621 155.183 19.4232 155.291ZM180.137 167.93C179.699 168.364 178.468 170.227 177.401 172.07C173.569 178.689 170.859 181.023 167.233 180.828C164.31 180.67 162.023 178.957 159.167 174.784C157.669 172.595 156.182 171.358 154.971 171.293C154.642 171.275 153.159 171.721 151.677 172.284C149.208 173.223 148.518 173.308 143.457 173.305C139.181 173.302 137.216 173.479 134.76 174.087C128.647 175.601 127.842 175.743 125.917 175.643C123.479 175.518 120.326 174.272 116.575 171.952L113.658 170.147L111.087 171.28C107.227 172.981 104.588 174.88 97.3475 181.168C89.9332 187.606 88.2231 188.607 84.9615 188.412C81.3911 188.199 76.7464 185.062 66.3447 175.837C64.0245 173.78 61.0424 171.03 59.718 169.727L57.3103 167.358L56.2015 168.555C55.5915 169.213 54.8232 170.249 54.4937 170.856C54.1645 171.464 53.2768 172.5 52.5214 173.158C51.3417 174.186 50.8421 174.36 48.981 174.395C47.3488 174.426 46.5833 174.266 45.879 173.746C44.8531 172.989 44.9625 172.954 42.141 174.966C39.815 176.626 35.831 177.571 31.8901 177.4L28.4655 177.251L27.3006 175.831C25.9446 174.178 25.3442 171.829 25.7135 169.618C25.8569 168.759 25.8705 168.055 25.7435 168.053C25.6166 168.051 24.4098 168.527 23.0617 169.111C19.7864 170.529 19.1131 171.632 19.1992 175.437C19.2777 178.922 20.0605 180.811 22.4906 183.38C24.83 185.854 27.4333 187.264 31.3466 188.176C35.147 189.062 50.0163 190.407 65.1488 191.233C71.6121 191.585 82.0562 192.332 88.3581 192.892C100.929 194.009 103.131 194.03 130.966 193.29C164.073 192.41 171.17 191.503 185.249 186.356C195.095 182.755 201.902 179.062 203.913 176.227C205.645 173.786 205.448 171.528 203.419 170.553C202.048 169.895 200.734 170.311 198.103 172.237C194.042 175.209 191.091 174.582 185.798 169.622C182.953 166.957 181.543 166.535 180.137 167.93Z" fill="black"/>
<path d="M215.925 59.8633C216.897 64.5827 208.225 79.9209 203.767 87C202.349 86.6067 197.689 84.5223 190.394 79.3309C181.276 72.8417 183.708 45.1151 186.747 36.2662C189.178 29.187 190.192 12.4724 190.394 5C191.813 6.3765 196.838 11.9612 205.591 23.2878C216.532 37.446 214.709 53.964 215.925 59.8633Z" fill="#32AF72"/>
<path d="M223.788 84.0479C220.248 84.4906 211.579 94.2528 207.687 99.0786C208.302 99.9823 210.88 102.763 216.266 106.654C222.998 111.518 241.844 103.188 247.316 98.9369C251.693 95.5363 263.163 90.8328 268.35 88.9061C267.046 88.2371 261.928 86.036 251.893 82.5835C239.35 78.2678 228.213 83.4945 223.788 84.0479Z" fill="#32AF72"/>
<path fill-rule="evenodd" clip-rule="evenodd" d="M189.072 0.770652C187.731 0.553769 187.705 0.567409 187.63 1.55577C187.579 2.22557 187.676 2.65489 188.045 3.39085C189.277 5.84501 189.772 8.06038 189.821 11.342C189.892 16.0841 189.177 21.211 187.482 28.1115C186.124 33.6411 185.775 35.3022 184.927 40.2789C183.267 50.0157 182.718 56.3916 183.129 61.1598C183.493 65.3867 184.529 70.4234 185.681 73.5684C186.541 75.914 188.566 78.9337 191.015 81.5195C192.053 82.6155 192.861 83.2681 196.989 86.3436L201.764 89.9003L200.836 92.1384C198.049 98.858 194.189 105.943 189.5 112.944C188.309 114.721 187.244 116.303 187.133 116.46C186.933 116.74 186.956 116.764 188.507 117.89L190.085 119.036L190.427 118.564C191.647 116.88 203.769 103.346 204.773 102.546C205.033 102.339 205.539 102.107 205.897 102.03L206.548 101.889L209.996 104.265C211.893 105.571 213.92 106.881 214.501 107.176C215.948 107.91 218.365 108.748 219.639 108.956C222.936 109.495 228.11 109.104 231.847 108.034C237.366 106.453 247.02 101.783 253.263 97.675C257.774 94.7062 260.946 93.149 265.066 91.8797C267.234 91.2118 269.04 91.0325 272.029 91.1887C273.095 91.2444 273.322 91.2002 273.544 90.8941C273.874 90.4399 273.666 89.5062 273.101 88.9083C272.043 87.7874 263.637 84.166 258.26 82.5143C245.492 78.592 235.418 78.3857 225.778 81.8496C219.681 84.0407 214.602 87.43 210.428 92.0945C209.056 93.6277 206.698 96.8735 205.802 98.4641C205.017 99.857 205.349 99.53 199.909 104.27C198.024 105.913 196.404 107.271 196.308 107.289C196.212 107.306 196.291 107.018 196.483 106.647C196.995 105.663 200.582 97.8629 201.77 95.1524C203.383 91.4707 203.689 90.9603 207.296 85.9192C210.824 80.9894 211.648 79.6198 213.488 75.6215C217.368 67.1882 218.6 57.6818 217.06 48.0425C215.522 38.4089 211.7 29.0776 205.414 19.6118C202.093 14.6102 196.623 7.96114 191.534 2.74062C189.724 0.882854 189.713 0.874378 189.072 0.770652ZM194.484 10.2431C207.659 25.3582 214.524 40.4328 214.832 54.9239C214.887 57.4999 214.667 60.108 214.132 63.2128C213.286 68.1256 211.833 72.4464 209.484 77.0298C208.333 79.2752 206.573 82.2203 206.522 81.9844C206.508 81.92 206.704 80.9251 206.956 79.7734C209.181 69.6059 209.5 57.7883 207.816 47.8477C207.376 45.2446 206.777 42.601 206.599 42.4718C206.549 42.4359 206.619 43.1562 206.753 44.0724C207.347 48.1239 207.565 50.324 207.75 54.1293C208.254 64.4803 207.031 73.997 203.943 83.7644L202.931 86.9672L199.411 84.4688C194.341 80.8696 192.204 78.8916 190.323 76.0564C188.326 73.0464 187.481 70.7064 186.725 66.0893C185.827 60.6059 185.707 56.9749 186.249 51.7779C187.07 43.9151 188.244 37.1618 190.087 29.7148C192.291 20.8073 192.912 16.1596 192.691 10.2157C192.652 9.16132 192.642 8.26831 192.669 8.23121C192.696 8.1941 192.796 8.26509 192.891 8.38905C192.987 8.51315 193.704 9.34735 194.484 10.2431ZM265.471 88.5307C264.854 88.689 253.683 94.2148 246.628 97.8519C237.607 102.502 233.58 104.465 231.912 105.025C229.063 105.981 223.069 106.564 220.502 106.134C219.054 105.892 217.665 105.405 216.09 104.589C214.673 103.855 208.497 99.892 208.466 99.6966C208.456 99.6383 209.249 99.0103 210.226 98.3011C218.234 92.4905 226.814 88.8693 237.303 86.8732C238.734 86.6009 239.821 86.3527 239.718 86.3216C239.313 86.1984 234.761 86.757 232.724 87.1803C226.112 88.5536 221.545 90.1527 214.35 93.6149C211.946 94.7718 211.942 94.769 213.689 93.0356C219.616 87.1518 226.259 83.7743 234.078 82.6694C238.361 82.0639 242.709 82.1613 247.669 82.9734C252.938 83.8358 257.62 85.1421 263.149 87.2926C265.301 88.1298 265.864 88.4299 265.471 88.5307Z" fill="black"/>
</svg>
