<svg width="160" viewBox="0 0 224 166" fill="none" xmlns="http://www.w3.org/2000/svg">
<path fill-rule="evenodd" clip-rule="evenodd" d="M85.7583 0.471231C79.6331 0.877266 72.8464 2.05222 71.1057 3.00793C70.2074 3.50088 66.518 4.92984 62.9071 6.18286C48.2917 11.2546 40.4553 15.9791 33.2861 24.0404C23.7308 34.785 18.484 51.4948 20.7637 63.9227C21.0049 65.2373 21.2872 66.5727 21.3911 66.89C21.7395 67.9552 18.3408 68.5447 9.28448 68.9896L0.833298 69.4051L0.757096 71.0608C0.611113 74.2458 0.998663 75.0218 4.29622 78.1508C5.99097 79.7588 8.58477 81.8524 10.0605 82.8035L12.7434 84.5325L11.7167 86.6356C10.776 88.5618 10.6816 89.1578 10.5914 93.7281C10.4601 100.376 11.2036 106.472 12.4609 109.057C12.9866 110.138 14.3125 111.927 15.4076 113.033L17.3982 115.044L16.728 116.232C12.9114 122.991 12.3551 125.357 12.5645 133.945C12.7017 139.569 12.7826 140.176 13.6217 141.861C15.3986 145.427 20.8378 149.36 29.387 153.258C43.3839 159.64 55.6209 162.448 73.8061 163.451C76.4402 163.596 80.8349 163.902 83.5722 164.132C86.3095 164.361 92.857 164.695 98.1223 164.872C103.388 165.051 109.272 165.344 111.199 165.524C113.668 165.754 122.241 165.591 140.248 164.969C178.784 163.64 188.684 162.912 194.891 160.949C197.6 160.092 198.331 159.645 201.777 156.735C206.895 152.413 207.177 151.682 207.377 142.216C207.476 137.551 207.698 134.952 208.123 133.517C208.583 131.963 208.686 130.453 208.55 127.251C208.355 122.625 208.361 122.604 210.897 119.41C211.638 118.477 212.779 116.616 213.434 115.274C214.53 113.027 214.636 112.475 214.776 108.294C214.925 103.821 214.912 103.731 213.906 102.101L212.885 100.448L213.999 99.2343L215.113 98.0211L223.68 87.4725C223.866 82.9168 215.665 81.3419 215.512 81.205C215.359 81.0677 214.907 80.9049 214.509 80.8432C213.934 80.754 215.172 78.4843 215.172 78.4843L215.403 76.8162L215.83 73.4625L216.224 69.2137L215.604 64.3766L215.462 58.6678C215.462 58.6678 214.576 54.8042 214.531 52.6891C214.479 50.2192 213.653 46.4242 213.653 46.4242L210.693 39.2803C210.693 39.2803 207.753 33.4916 205.027 30.4184C200.386 25.1848 190.009 20.6565 190.009 20.6565C190.009 20.6565 180.113 15.1216 178.447 14.4519C177.731 14.1646 174.545 12.8367 171.367 11.5009C161.395 7.3103 157.268 6.01431 149.378 4.59649C140.86 3.06571 126.312 0.884313 120.538 0.271661C116.571 -0.149487 93.0831 -0.0144892 85.7583 0.471231ZM109.944 4.47767C119.026 4.89359 141.434 7.67014 151.096 9.57626C157.427 10.8256 165.475 13.7356 174.86 18.1694C179.206 20.2224 179.709 20.6351 180.87 23.1038C181.498 24.4376 181.594 24.9883 181.3 25.5729C181.093 25.987 180.767 26.3294 180.577 26.3342C180.387 26.3389 179.97 26.7648 179.651 27.2807C179.116 28.1473 179.119 28.2869 179.693 29.1208C180.435 30.198 181.659 30.5425 182.914 30.0274C184.218 29.4922 184.523 22.3396 187.005 25.7344C193.622 28.7746 193.732 28.6503 197.284 31.6112C201.898 35.4576 204.048 38.4259 206.556 43.8846C209.202 49.6443 210.844 59.7829 210.844 59.7829C210.844 59.7829 212.488 67.1427 210.063 69.8054L206.348 68.7078L201.383 66.382C187.023 59.6552 167.427 53.1147 154.821 50.84C143.049 48.7163 119.696 45.5746 108.008 44.5423C101.142 43.9357 78.011 44.3887 70.1331 45.2842C63.7711 46.0072 55.8499 47.3345 51.2653 48.4454C42.8749 50.4792 33.6674 54.5821 28.2289 58.7109C26.6777 59.8884 25.3361 60.8537 25.2471 60.856C25.1585 60.8582 25.0463 59.2747 24.9981 57.3373C24.8564 51.6338 26.0015 46.7303 29.1916 39.3799C33.3543 29.7882 40.3379 22.0133 49.3924 16.8903C53.4494 14.5948 57.6679 12.8885 66.3968 10.0115C82.5382 4.69159 91.038 3.61147 109.944 4.47767ZM96.4242 5.45946C95.1271 6.97266 96.2157 9.22189 98.2217 9.17203C99.0982 9.15024 100.658 7.89389 100.642 7.22346C100.638 7.07431 100.194 6.45182 99.655 5.84018C98.5416 4.57677 97.3055 4.43092 96.4242 5.45946ZM83.9201 8.58737C82.7278 9.84529 82.83 11.2055 84.216 12.5297C85.0699 13.3456 85.5439 13.5421 86.1676 13.339C88.2127 12.6731 88.4641 10.2945 86.6592 8.68404C85.239 7.41645 85.0361 7.4093 83.9201 8.58737ZM123.179 7.69059C122.925 7.80109 122.473 8.39339 122.176 9.00771C121.687 10.0176 121.694 10.2077 122.242 11.0042C122.62 11.5537 123.199 11.8758 123.783 11.8613C126.079 11.8043 126.783 10.1732 125.292 8.36432C124.519 7.42676 124.098 7.29243 123.179 7.69059ZM113.37 9.33299C112.886 9.84372 112.496 10.5183 112.504 10.8321C112.527 11.7621 113.945 12.8447 115.102 12.8159C117.185 12.7642 118.024 10.5357 116.507 9.08692C115.499 8.12381 114.436 8.20712 113.37 9.33299ZM106.866 9.72553C105.487 10.5788 106.565 13.7669 108.218 13.7259C109.719 13.6885 110.903 10.7242 109.827 9.69626C109.279 9.17312 107.735 9.18825 106.866 9.72553ZM66.9024 11.4987C65.5678 12.035 64.3729 13.3514 64.3955 14.261C64.424 15.4073 66.0419 16.7524 66.995 16.4221C68.0889 16.0436 69.9157 14.3373 69.9001 13.709C69.8833 13.0337 68.8371 11.4957 68.2544 11.2893C68.0116 11.2033 67.4029 11.2979 66.9024 11.4987ZM93.5678 13.3597C92.6419 13.748 91.6417 15.1556 91.6637 16.0398C91.681 16.7368 93.3696 18.1584 94.1568 18.1389C94.4329 18.132 94.9906 17.7761 95.3961 17.3482C96.9591 15.6987 95.5128 12.5441 93.5678 13.3597ZM145.861 12.5032C144.67 14.303 145.689 16.8579 147.578 16.811C148.89 16.7784 149.541 15.9591 149.461 14.4425C149.418 13.6486 149.073 12.9896 148.415 12.4496C147.178 11.4342 146.559 11.447 145.861 12.5032ZM57.6839 16.7115C56.5199 17.9399 56.6254 18.9162 58.0082 19.7079C58.9438 20.2439 59.1362 20.2443 60.0317 19.7122C61.3796 18.9115 61.5433 17.0489 60.3369 16.2444C59.1731 15.4684 58.7991 15.5342 57.6839 16.7115ZM73.3179 16.2852C72.415 17.4986 72.3971 17.8848 73.1929 18.9673C73.67 19.6163 74.0864 19.7622 75.1346 19.6479C76.2125 19.5302 76.5318 19.3051 76.7971 18.478C77.6523 15.8092 74.9426 14.1012 73.3179 16.2852ZM135.418 14.7021C134.745 15.5585 134.935 17.9217 135.721 18.4688C138.159 20.1677 140.364 17.0697 138.193 14.9959C137.147 13.9964 136.062 13.8819 135.418 14.7021ZM46.6801 21.0131C44.2067 22.755 43.8651 23.6667 45.2307 24.8817C46.4738 25.9878 47.9009 25.771 49.517 24.2303C51.2338 22.5932 51.5208 21.6027 50.5478 20.6731C49.5589 19.7284 48.3538 19.8344 46.6801 21.0131ZM100.277 19.5803C98.8456 21.1892 99.7348 23.5413 101.756 23.4911C102.696 23.4677 105.036 21.1998 105.014 20.3333C104.97 18.5575 101.657 18.0307 100.277 19.5803ZM119.903 19.3843C118.517 20.6685 118.333 21.706 119.265 22.9735C119.956 23.9142 120.907 23.9729 122.372 23.1656C124.431 22.0302 125.122 19.8948 123.801 18.7522C122.744 17.8394 121.321 18.0702 119.903 19.3843ZM161.309 17.6518C160.728 18.2643 160.806 19.8748 161.457 20.7238C161.85 21.2367 162.388 21.3892 163.538 21.3145C167.582 21.0518 167.294 17.0598 163.238 17.1606C162.414 17.1811 161.545 17.4021 161.309 17.6518ZM135.231 20.9099C133.706 21.7453 132.909 23.2247 133.337 24.4224C133.645 25.2847 133.948 25.4814 135.07 25.5485C137.608 25.7004 139.562 22.4808 137.836 20.9892C137.02 20.2836 136.408 20.2648 135.231 20.9099ZM78.3556 23.707C77.1818 24.216 76.3851 25.7342 76.5547 27.1389C76.6945 28.295 76.789 28.3661 78.2829 28.4369C79.6682 28.5029 80.0161 28.3506 81.1034 27.2031C82.5123 25.7163 82.7118 24.2108 81.5758 23.6362C80.7181 23.2024 79.4551 23.2301 78.3556 23.707ZM172.333 23.4335C171.826 24.6289 172.539 26.043 174.056 26.849C174.977 27.3378 175.135 27.3169 176.064 26.5841C177.452 25.4898 177.473 24.7505 176.152 23.4878C174.661 22.0635 172.925 22.039 172.333 23.4335ZM57.0238 27.4234C55.6525 29.2665 56.299 30.9009 58.3793 30.8492C60.6345 30.7931 61.9113 28.0773 60.214 26.9459C58.9926 26.1314 57.8586 26.3011 57.0238 27.4234ZM151.714 25.7849C150.978 26.562 151.027 27.3882 151.883 28.6233C153.421 30.8436 154.844 31.205 155.989 29.666C156.997 28.3107 156.907 27.791 155.418 26.3685C154.017 25.0298 152.636 24.8122 151.714 25.7849ZM40.0199 31.334C38.9636 32.6602 38.8717 33.6137 39.7223 34.4267C40.8795 35.532 43.2631 34.7328 44.1257 32.9504C44.5914 31.988 44.5825 31.7791 44.0409 30.9928C43.1269 29.6654 41.22 29.8273 40.0199 31.334ZM174.067 30.1657C173.463 31.3717 173.696 33.4508 174.524 34.2422C176.035 35.6863 177.994 34.7152 177.94 32.5485C177.88 30.1282 174.981 28.3443 174.067 30.1657ZM30.9294 38.7516C30.4336 39.5548 30.4127 39.931 30.7991 41.1179C31.3213 42.7215 32.0632 43.1456 33.2092 42.4954C35.096 41.4256 35.3862 39.6482 33.8616 38.5043C32.5465 37.5175 31.6448 37.5938 30.9294 38.7516ZM185.654 38.22C185.068 38.9668 185.142 41.5633 185.771 42.2869C186.092 42.6557 186.723 42.8033 187.579 42.71C188.894 42.5661 188.895 42.5653 188.958 40.5952C188.994 39.4598 188.832 38.4066 188.575 38.1112C187.986 37.4336 186.22 37.4996 185.654 38.22ZM109.205 49.5671C115.391 49.7181 118.588 50.0424 129.674 51.6434C157.836 55.7103 164.67 57.2597 181.318 63.3537C192.746 67.5369 202.691 71.8231 205.199 73.6469C207.466 75.2957 208.715 78.1014 207.42 78.6374C205.853 79.2863 204.955 78.8919 202.215 76.3542L199.443 73.7859L194.779 75.3296C191.457 76.4288 189.586 76.8562 188.274 76.8141C187.262 76.782 183.596 76.7941 180.129 76.8408L173.825 76.9262L171.574 74.8769C170.336 73.7499 168.878 72.7271 168.333 72.6043C166.938 72.2891 164.794 72.7565 162.376 73.9031C161.012 74.5498 159.959 74.8205 159.303 74.6928C158.754 74.586 156.482 73.3902 154.253 72.0355C151.116 70.1287 149.895 69.5802 148.842 69.606C147.989 69.6264 145.793 70.4435 142.941 71.8006C137.596 74.3446 137.752 74.3707 135.042 70.502C134.063 69.1041 132.756 67.4329 132.137 66.7878C130.58 65.1649 129.165 65.2643 125.292 67.2697C122.756 68.5828 121.968 68.8296 120.748 68.6915C119.937 68.5997 118.11 68.3854 116.69 68.2153C115.269 68.0456 112.7 67.9329 110.981 67.9653C105.287 68.0725 96.9689 66.8016 92.7726 65.183C89.5439 63.9378 87.0295 64.0734 82.2135 65.7517C76.7469 67.6563 74.2145 67.6778 70.4604 65.8517C66.7361 64.04 64.9415 64.0828 60.0626 66.1006L56.5013 67.5733L53.4433 66.2112C50.9442 65.0975 49.9813 64.8587 48.1739 64.9037C46.1782 64.9533 45.6967 65.1341 43.242 66.7566L40.522 68.5548L35.547 67.7687C30.4763 66.9671 28.2219 66.4524 27.6691 65.9697C27.0129 65.3968 33.4208 60.7348 38.9438 57.7675C42.3564 55.9339 48.5213 54.0156 58.337 51.7329L66.2012 49.9039L84.0375 49.646C93.8475 49.5045 105.173 49.469 109.205 49.5671ZM54.0256 71.3137C56.5139 72.1229 58.1399 71.8952 62.5234 70.1232L65.6689 68.8511L68.3879 70.1655C71.5913 71.7138 74.9489 72.3551 77.6719 71.9387C78.7421 71.7751 81.3176 71.0144 83.3955 70.2479C87.5937 68.6995 88.0953 68.6915 92.3659 70.1036C96.3209 71.4113 101.588 72.215 107.966 72.4849C111.207 72.6216 115.189 72.96 116.814 73.2365C122.086 74.1328 122.608 74.115 124.731 72.9681C125.793 72.3939 127.271 71.6911 128.015 71.4063L129.368 70.8891L130.762 72.8167C132.597 75.354 136.384 78.7803 137.328 78.7568C138.128 78.737 141.828 77.457 145.866 75.8029C147.228 75.2452 148.661 74.7811 149.053 74.7714C149.444 74.7616 150.987 75.5323 152.482 76.484C156.91 79.3037 158.246 79.8317 160.227 79.546C161.175 79.4094 163.051 78.7628 164.396 78.1095L166.843 76.9213L168.912 78.7272C170.05 79.7207 171.421 80.7428 171.96 80.9983C172.613 81.3087 175.51 81.4956 180.666 81.5599C190.946 81.6886 191.176 81.6666 195.101 80.1837L198.502 78.8986L199.324 79.9864C199.776 80.5847 200.826 81.7847 201.657 82.6528L203.169 84.2314L206.357 83.9098C209.522 83.5907 209.554 83.5965 210.827 84.6631C211.532 85.254 214.808 85.487 215.351 85.6789C215.894 85.8708 220.174 87.2752 220.181 87.5595C220.188 87.8437 217.434 89.3891 216.765 90.9665C216.096 92.5435 214.6 94.3301 212.767 95.6857C211.588 96.5569 210.063 96.2811 208.852 96.3113C208.151 96.3287 206.972 95.7547 205.407 94.633C204.098 93.6954 202.064 92.4697 200.887 91.9094C196.607 89.8721 196.268 89.8517 175.343 90.3718C155.316 90.8696 149.027 90.7359 143.142 89.6883C139.765 89.0866 138.032 88.6432 128.262 85.8779C118.772 83.1922 114.962 82.8488 92.4272 82.6475C73.7624 82.4805 72.0256 82.363 61.9972 80.585C52.3809 78.8802 48.8248 78.7924 40.6464 80.057C35.5329 80.8475 33.4863 81.0092 30.5492 80.855C28.5232 80.7484 24.6939 80.6655 22.0397 80.6705C16.7309 80.6806 14.4074 80.093 11.0983 77.9026C9.18763 76.638 6.42614 73.9849 6.70935 73.686C6.81832 73.5706 7.63679 73.6264 8.52797 73.8096C11.0225 74.322 14.2058 74.1287 18.219 73.2207C25.6352 71.5429 30.9238 71.5607 37.9029 73.2874L40.309 73.8826L44.2486 71.5398L48.1886 69.1966L50.0948 69.9257C51.1433 70.3266 52.9122 70.9513 54.0256 71.3137ZM55.8406 84.5063C59.8548 84.8694 66.3886 85.9952 67.919 86.5873C68.6512 86.8706 69.395 87.5794 69.8641 88.4403C70.9092 90.3578 72.5048 91.7104 76.8719 94.382C82.5192 97.8364 85.641 100.407 92.3874 107.157C97.5685 112.34 98.9207 113.489 100.941 114.426C103.109 115.431 103.555 115.511 105.566 115.249C108.294 114.894 111.934 112.958 119.151 108.022C124.432 104.41 129.43 101.633 138.015 97.5437L143.1 95.1211L151.942 95.4026C156.96 95.5623 168.654 95.5011 178.984 95.2609L197.184 94.8377L201.112 97.453C206.968 101.353 208.795 102.953 209.962 105.204C211.19 107.571 211.111 108.882 209.526 112.479C207.456 117.176 205.909 118.453 201.226 119.333C197.419 120.049 173.391 120.664 167.463 120.198C164.929 119.998 158.211 119.46 152.534 119C138.369 117.855 126.438 117.179 116.614 116.965C103.152 116.672 98.8147 116.344 83.4694 114.456C68.4868 112.612 64.4077 112.391 43.8007 112.308C30.8 112.255 24.1094 112.09 22.8345 111.789C18.5211 110.771 16.1761 107.408 15.3521 101.061C14.7151 96.1564 15.1109 90.5744 16.2485 88.418C17.7368 85.5968 17.5455 85.6411 29.923 85.2617C35.9886 85.0759 42.1055 84.7366 43.5162 84.5072C46.2892 84.0567 50.8639 84.0563 55.8406 84.5063ZM110.181 87.5693C113.854 87.7362 117.216 88.1451 120.215 88.7894C125.006 89.8195 133.249 92.2098 134.75 93.0051C135.611 93.461 135.62 93.5003 134.956 93.8773C134.573 94.0944 132.786 94.9109 130.985 95.6912C126.965 97.4328 122.319 100.178 115.598 104.784C109.81 108.751 107.502 109.955 104.862 110.384C103.218 110.651 102.886 110.579 101.633 109.68C100.865 109.128 97.9829 106.395 95.2279 103.606C92.473 100.816 88.9504 97.4412 87.3996 96.1052C84.7218 93.7976 83.6332 93.0581 78.1177 89.7989C76.6474 88.9296 75.8581 88.2459 76.0148 87.9768C76.314 87.4625 101.282 87.1647 110.181 87.5693ZM38.9959 117.26C46.6355 117.316 46.8505 117.338 45.266 117.902C40.2676 119.683 35.8447 121.677 28.3687 125.522C22.9029 128.333 19.5843 129.832 18.7278 129.877L17.4217 129.945L17.4201 127.913C17.4181 125.731 18.4123 122.439 19.6863 120.411C21.0725 118.204 24.87 116.892 29.2431 117.111C30.256 117.162 34.6448 117.229 38.9959 117.26ZM84.4837 119.402C96.0548 120.856 101.727 121.264 115.073 121.6C131.901 122.024 155.642 123.568 167.019 124.979L169.744 125.317L167.34 127.441C166.018 128.61 163.562 130.871 161.882 132.466C155.213 138.798 143.503 148.232 139.595 150.422C136.684 152.054 135.626 151.944 132.806 149.715C131.506 148.686 128.832 146.378 126.865 144.584C116.924 135.517 116.83 135.462 99.8032 128.892C81.3167 121.76 71.1235 117.32 75.1637 118.162C75.6215 118.257 79.8153 118.815 84.4837 119.402ZM65.2368 121.002C68.3564 121.546 73.5818 123.388 82.6527 127.14C86.6393 128.789 92.5642 131.202 95.8193 132.503C99.0743 133.804 101.804 135.056 101.884 135.286C102.092 135.879 97.8234 137.366 95.7671 137.418C94.688 137.444 92.2159 136.876 89.0862 135.88L84.1183 134.3L79.8959 134.636C75.8898 134.956 75.5594 134.926 73.4436 134.064C66.3401 131.169 64.7413 131.322 61.3381 135.218C56.1473 141.16 55.9323 141.363 54.7816 141.392C52.9473 141.437 51.838 140.206 49.3741 135.39C45.909 128.616 43.4554 126.477 39.9059 127.138C37.9141 127.509 36.0762 128.565 33.7717 130.664C31.0175 133.172 29.0455 134.16 27.8295 133.639C27.3101 133.417 26.8786 132.99 26.8711 132.691C26.8412 131.487 32.8057 128.093 41.2002 124.538C50.3042 120.682 57.4065 119.637 65.2368 121.002ZM193.131 125.234C193.974 126.041 193.911 127.743 192.903 131.336C192.304 133.473 191.992 135.687 191.923 138.29L191.821 142.11L189.567 141.926C185.838 141.622 183.634 140.889 181.541 139.256C178.023 136.51 178.197 136.552 175.426 137.777C174.084 138.37 172.947 138.807 172.899 138.749C172.851 138.69 172.171 137.679 171.388 136.501C169.49 133.645 169.155 132.763 169.618 131.838C170.101 130.875 175.47 127.183 177.35 126.521C178.142 126.242 181.689 125.737 185.232 125.4C188.775 125.064 191.868 124.761 192.106 124.728C192.344 124.695 192.805 124.923 193.131 125.234ZM203.228 124.933C203.733 125.23 204.242 129.563 203.983 131.372C203.715 133.253 203.039 134.012 201.603 134.048C198.591 134.123 197.747 131.595 198.744 125.483C198.915 124.431 198.948 124.417 200.896 124.57C201.984 124.656 203.033 124.819 203.228 124.933ZM42.2167 132.93C42.6417 133.377 43.8183 135.275 44.8317 137.148C48.4718 143.875 51.1124 146.285 54.7428 146.195C57.669 146.122 60.0046 144.475 62.9797 140.387C64.5403 138.241 66.0624 137.048 67.275 137.018C67.6048 137.009 69.0738 137.498 70.539 138.104C72.9801 139.114 73.667 139.219 78.7257 139.362C83.0007 139.482 84.9592 139.715 87.3968 140.394C93.4642 142.084 94.264 142.248 96.191 142.205C98.6317 142.15 101.82 140.995 105.636 138.785L108.604 137.065L111.141 138.271C114.95 140.083 117.533 142.057 124.59 148.551C131.815 155.201 133.496 156.25 136.761 156.15C140.336 156.04 145.07 153.038 155.733 144.117C158.112 142.128 161.172 139.465 162.533 138.201L165.009 135.902L166.082 137.13C166.673 137.806 167.411 138.863 167.723 139.48C168.035 140.097 168.892 141.158 169.628 141.838C170.778 142.899 171.272 143.088 173.131 143.177C174.762 143.254 175.532 143.116 176.251 142.617C177.298 141.89 177.19 141.852 179.952 143.945C182.229 145.671 186.184 146.731 190.128 146.673L193.556 146.623L194.761 145.238C196.164 143.625 196.832 141.293 196.527 139.073C196.408 138.21 196.415 137.506 196.542 137.507C196.669 137.509 197.862 138.019 199.192 138.642C202.425 140.154 203.067 141.276 202.871 145.077C202.692 148.558 201.855 150.424 199.352 152.922C196.942 155.328 194.299 156.661 190.361 157.461C186.536 158.236 171.635 159.152 156.485 159.541C150.014 159.707 139.552 160.152 133.237 160.53C120.639 161.284 118.437 161.241 90.6359 159.698C57.5679 157.864 50.5 156.753 36.5752 151.201C26.8367 147.318 20.1393 143.43 18.2114 140.538C16.5503 138.048 16.8118 135.797 18.8684 134.881C20.2576 134.262 21.5591 134.716 24.1333 136.717C28.1075 139.806 31.0751 139.264 36.5093 134.458C39.4295 131.876 40.8515 131.495 42.2167 132.93Z" fill="black"/>
</svg>
