<svg viewBox="0 0 1428 711" fill="none" xmlns="http://www.w3.org/2000/svg">
<path d="M268.5 28.5002C249.7 33.7002 244.167 511.333 138.5 726C212.667 759.833 391.3 791.2 418.5 756C445.7 720.8 701.5 593 826 533.5L955.75 574.75L1028.5 726L1317 740.5L1339 140.001C1080.5 110.834 287.3 23.3002 268.5 28.5002Z" fill="white"/>
<path d="M808 300H725.5L720.5 304.5C729.5 311.667 748.1 326.7 750.5 329.5C752.9 332.3 775.833 355.333 787 366.5L808 377.5C814.5 374.5 827.8 368.5 829 368.5C830.2 368.5 878.5 338.833 902.5 324L876.5 310.5L808 300Z" fill="#FAD008"/>
<path d="M903 398L806 393L715.5 384.5C724.5 391.667 829.6 435.7 832 438.5C834.4 441.3 857.333 464.333 868.5 475.5L889.5 486.5C896 483.5 909.3 477.5 910.5 477.5C911.7 477.5 967 425.833 991 411L963 406L903 398Z" fill="#FAD008"/>
<path fill-rule="evenodd" clip-rule="evenodd" d="M559.058 3.28501C554.52 5.40331 544.435 12.2659 536.645 18.5352C528.857 24.8046 515.036 34.3179 505.935 39.6745C461.732 65.6912 438.449 87.0282 415.644 122.416C397.035 151.292 382.596 189.119 377.258 222.991C373.62 246.079 371.115 254.366 367.78 254.366C363.101 254.366 347.813 235.014 340.182 219.433C327.677 193.902 326.77 187.644 326.331 123.735L325.94 67.066L320.846 56.193C318.045 50.2127 311.726 41.0113 306.803 35.7459C287.198 14.7759 264.207 17.6225 253.469 42.3461C249.161 52.2664 247.752 94.7465 250.694 126.12C251.865 138.611 254.151 165.014 255.776 184.793C257.401 204.571 260.824 232.381 263.382 246.593C284.85 365.822 289.364 399.262 289.59 440.716C289.78 475.593 289.716 476.179 281.92 509.393C270.118 559.687 256.362 587.932 229.826 616.36C216.798 630.319 173.909 669.889 151.092 689.007C139.263 698.918 83.7162 741.72 63.5231 756.483C57.1715 761.127 42.2049 772.285 30.2639 781.279C18.3229 790.271 6.62903 798.646 4.27618 799.885C1.16122 801.526 0 803.842 0 808.412C0 811.859 0.524546 815.208 1.16502 815.849C2.42887 817.113 2.14759 817.313 63.6675 771.513C146.074 710.166 178.319 683.563 224.898 638.495C269.198 595.635 284.174 564.528 299.513 483.5C302.58 467.297 302.911 424.393 300.161 399.283C297.546 375.385 287.028 308.843 278.611 262.923C274.968 243.052 271.098 217.382 270.013 205.877C268.926 194.373 266.596 169.986 264.834 151.684C260.877 110.565 260.33 58.454 263.753 48.8056C265.089 45.0368 268.263 39.9997 270.806 37.6113C280.88 28.1417 298.739 38.6914 309.403 60.4106L314.537 70.869L314.027 120.309C313.514 170.127 314.865 187.792 320.462 204.423C327.842 226.353 345.888 255.087 356.802 262.288C363.186 266.5 372.138 266.772 377.636 262.917C382.598 259.439 384.622 253.197 388.526 229.344C394.579 192.35 406.068 160.482 423.199 133.167C446.589 95.8722 466.489 77.4331 514.092 48.9444C523.499 43.314 537.202 33.7893 544.542 27.7766C558.125 16.6508 568.735 10.971 575.944 10.971C578.149 10.971 582.452 13.4715 585.508 16.5291C593.176 24.2018 592.903 32.907 584.44 50.5778C576.545 67.0603 566.079 77.8001 542.451 93.6645C509.652 115.69 494.533 133.418 485.399 160.568C481.192 173.078 480.23 179.958 479.379 203.689C478.316 233.349 479.284 237.33 486.612 233.408C489.107 232.071 489.989 227.454 490.947 210.681C492.123 190.119 492.325 189.376 499.632 178.739C513.489 158.565 553.166 117.745 574.659 101.552C603.391 79.9032 662.671 59.7432 705.32 57.1172C720.243 56.1987 722.06 56.4688 725.751 60.1615C735.06 69.4752 729.195 74.9326 701.223 82.9912C635.814 101.835 601.236 134.224 584.354 192.458C580.918 204.309 579.838 227.644 582.18 239.428L583.558 246.357L574.336 248.57C569.266 249.787 556.629 250.521 546.256 250.198L527.395 249.612L526.814 256.62C526.327 262.469 527.407 264.927 533.355 271.516C537.274 275.857 544.378 282.041 549.143 285.26C553.906 288.478 558.085 291.326 558.431 291.589C558.775 291.851 557.492 294.458 555.58 297.381C552.674 301.823 552.106 306.616 552.121 326.544C552.142 352.523 554.426 360.135 565.218 370.213C569.581 374.288 569.832 375.172 567.392 377.87C565.875 379.547 562.445 385.701 559.773 391.544C555.84 400.135 554.922 405.034 554.968 417.163C555 425.41 554.953 435.021 554.865 438.518C554.539 451.606 570.282 465.453 602.652 480.547C639.414 497.687 670.649 505.407 718.398 509.153C732.509 510.26 745.917 511.574 748.196 512.072C750.473 512.571 768.342 513.812 787.904 514.831C807.464 515.853 823.989 517.208 824.624 517.845C828.288 521.529 807.276 532.213 766.531 547.384C739.695 557.374 715.846 568.504 702.213 577.399C698.013 580.137 693.174 583.235 691.458 584.281C689.742 585.327 666.7 600.657 640.25 618.347C613.803 636.037 578.02 658.573 560.73 668.429C523.874 689.439 484.293 715.304 429.828 753.971C408.229 769.305 386.194 784.888 380.863 788.602C345.278 813.373 308.674 846.998 273.115 887.574C251.329 912.433 201.193 978.313 180.5 1009.27C173.86 1019.21 160.898 1037.81 151.698 1050.62C142.499 1063.43 130.102 1081.4 124.15 1090.55C118.199 1099.71 109.221 1112.87 104.2 1119.8C93.1637 1135.02 74.1204 1165.15 74.1204 1167.39C74.1204 1168.28 77.0909 1169 80.7228 1169C86.2572 1169 87.8384 1168 90.4858 1162.82C92.2229 1159.42 103.662 1142.09 115.907 1124.31C128.152 1106.53 145.354 1081.54 154.132 1068.76C209.93 987.585 251.766 930.591 276.673 901.819C302.782 871.658 347.878 828.157 370.602 811.211C399.712 789.501 483.351 731.037 513.086 711.613C526.183 703.058 550.154 688.53 566.356 679.332C582.558 670.135 621.899 645.297 653.78 624.137C727.577 575.159 733.465 571.959 781.077 554.933C798.324 548.766 797.055 548.477 833.38 566.808C846.968 573.665 868.338 583.651 880.868 589C905.474 599.503 917.962 606.736 926.011 615.139C928.826 618.079 936.371 630.307 942.779 642.315C949.188 654.322 959.953 672.274 966.701 682.209C973.45 692.145 983.937 707.547 990.005 716.437C996.072 725.327 1007.13 744.462 1014.59 758.959C1032.45 793.692 1051.83 822.863 1078.03 854.459C1103.72 885.439 1118.42 905.745 1134.31 932.199C1140.83 943.066 1150.98 959.077 1156.87 967.779C1181.04 1003.55 1185.96 1011.38 1200.27 1036.84C1222.88 1077.07 1232.07 1095.36 1242.8 1121.46C1248.18 1134.53 1255.32 1150.37 1258.69 1156.64C1264.02 1166.6 1265.59 1168.13 1270.98 1168.64C1274.37 1168.97 1277.15 1168.4 1277.15 1167.37C1277.15 1166.34 1272.89 1156.92 1267.69 1146.44C1262.48 1135.96 1255.12 1119.85 1251.33 1110.64C1240.35 1083.98 1237.44 1077.92 1225.89 1057.76C1219.89 1047.3 1209.21 1028.48 1202.15 1015.93C1195.09 1003.38 1183.54 984.98 1176.49 975.044C1169.43 965.109 1156.34 945 1147.4 930.358C1129.19 900.554 1103.6 865.167 1083.15 841.519C1064.16 819.547 1040.62 783.314 1023.59 749.847C1015.65 734.231 1004.71 715.406 999.29 708.013C981.603 683.888 965.673 658.826 954.802 638.024C936.781 603.541 929.029 596.972 881.499 575.901C851.794 562.731 813.424 543.969 813.424 542.611C813.424 542.196 817.155 539.669 821.716 536.996C826.275 534.322 832.718 529.045 836.031 525.271L842.054 518.408L927.041 517.495C1016.41 516.535 1037.71 515.117 1053.62 509.066C1061.19 506.187 1068.18 505.366 1085.2 505.354C1113.69 505.333 1129.03 502.785 1143.76 495.632C1164.69 485.461 1170.1 472.804 1177.6 416.53C1180.93 391.537 1180.92 391.261 1176.71 368.041C1174.39 355.197 1171.28 334.27 1169.81 321.538C1168.11 306.795 1165.78 295.717 1163.39 291.033C1161.33 286.989 1152.52 276.39 1143.8 267.481C1129.11 252.461 1117.54 238.021 1107.58 222.263L1103.51 215.832L1108.13 218.285C1123.31 226.342 1152.27 245.941 1157.05 251.381C1161.49 256.441 1163.75 262.472 1167.89 280.314C1171.13 294.31 1176.93 311.505 1183.19 325.673C1191.97 345.56 1193.9 348.57 1198.15 349.093C1202.26 349.6 1203.03 348.937 1203.03 344.921C1203.03 342.295 1199.95 333.466 1196.19 325.303C1186.88 305.114 1183.02 293.652 1179.22 274.971C1175.45 256.452 1171.56 248.091 1162.81 239.78C1153.75 231.166 1120.59 210.597 1093.85 197.005C1075.03 187.436 1068.74 183.089 1058.59 172.633C1051.8 165.632 1042.55 153.422 1038.04 145.496C1018.67 111.457 1033.55 104.083 1078.1 125.648C1090.4 131.602 1100.83 136.472 1101.3 136.472C1103.73 136.472 1130.26 150.022 1146.02 159.309C1155.95 165.164 1166.8 171.058 1170.14 172.412C1174.19 174.057 1179.55 179.678 1186.29 189.361C1200.36 209.57 1201.44 211.403 1217.36 242.215C1231.18 268.966 1231.54 270.002 1231.54 283.479C1231.54 291.081 1232.84 302.294 1234.43 308.394L1237.31 319.486L1227.09 342.546C1214.41 371.141 1207.91 390.183 1209.44 394.187C1210.15 396.041 1212.29 397.007 1214.87 396.638C1218.32 396.144 1220.23 392.98 1224.97 379.867C1228.18 370.977 1234.27 356.003 1238.51 346.59C1249.43 322.346 1251.53 314.972 1259.18 274.332C1267.71 228.983 1273.69 211.004 1291.71 176.506C1309.59 142.279 1310.47 140.959 1316.72 138.776C1328.94 134.517 1336.07 144.11 1336.07 164.795C1336.07 175.394 1334.13 184.386 1326.5 209.099C1309.82 263.138 1306.48 279.297 1299.88 338.033C1297.71 357.381 1294.7 379.201 1293.19 386.522C1289.18 406.078 1289.48 410.291 1294.92 410.291C1297.66 410.291 1300.09 408.703 1301.22 406.165C1302.86 402.486 1303.66 403.463 1308.63 415.197C1313.33 426.277 1314.19 430.759 1314.04 443.568C1313.89 456.968 1312.72 461.84 1304.25 484.451C1298.96 498.57 1288.86 531.086 1281.81 556.709C1274.76 582.332 1267.81 607.575 1266.37 612.804C1261.2 631.617 1258.15 654.55 1258.18 674.377C1258.26 714.322 1263.6 732.543 1284.27 763.268C1309.05 800.119 1343 839.137 1400.69 897.084C1415.84 912.309 1432.88 929.661 1438.56 935.643C1444.23 941.627 1449.57 946.521 1450.44 946.521C1451.3 946.521 1452 943.525 1452 939.862C1452 934.186 1449.66 930.611 1436.11 915.618C1427.37 905.947 1414.76 892.997 1408.08 886.842C1356.57 839.376 1290.92 758.752 1277.37 726.308C1271.5 712.271 1268.56 676.636 1271.24 652.068C1273.32 633.042 1299.77 533.369 1311.52 500.279C1326.35 458.522 1326.95 455.977 1326.16 438.641C1325.49 423.764 1324.6 420.582 1316.18 403.01L1306.93 383.717L1310.28 352.793C1317.32 287.964 1321.21 267.926 1336.02 220.139C1348.2 180.861 1350.68 166.027 1347.59 151.199C1342.38 126.302 1319.43 117.055 1303.26 133.332C1299.87 136.736 1293.3 146.824 1288.65 155.749L1280.19 171.981L1273.3 163.258C1269.51 158.461 1254.07 142.123 1239 126.953C1223.92 111.78 1204.79 91.7744 1196.5 82.4949C1188.2 73.2136 1178.6 64.4476 1175.18 63.0157C1159.12 56.3052 1145.93 62.9035 1142.4 79.4107C1138.93 95.5927 1146.62 129.371 1157.96 147.79L1162 154.352L1151.63 148.147C1133.08 137.048 1064.84 105.239 1053.02 102.187C1038.36 98.3993 1021.64 103.815 1018.45 113.387C1017.86 115.159 1016.33 115.051 1012 112.927C994.88 104.528 965.371 92.3068 954.344 89.0476C947.396 86.9921 920.756 81.702 895.147 77.2905C849.021 69.344 848.13 69.2679 800.12 69.1177C773.466 69.0359 749.304 69.6254 746.431 70.4298C741.636 71.7722 741.204 71.4566 741.197 66.6267C741.187 58.7031 734.429 49.1536 726.483 45.8316C705.843 37.2025 617.963 59.2868 581.638 82.2287L573.973 87.07L584.297 73.7023C597.853 56.1474 603.049 42.3766 602.069 26.5958C601.402 15.856 600.632 13.9526 594.431 7.74789C588.55 1.86457 586.044 0.744571 577.421 0.139886C570.091 -0.373526 565.035 0.493569 559.058 3.28501ZM1173.67 76.7542C1177.8 79.4696 1187.16 88.8955 1194.47 97.7014C1201.78 106.505 1219.59 125.464 1234.06 139.828C1248.52 154.192 1263.39 170.054 1267.09 175.078L1273.82 184.209L1268.04 196.946C1259.95 214.742 1254.68 232.607 1249.79 258.829L1245.58 281.356L1243.26 271.286C1239.24 253.878 1211.58 203.234 1188.83 171.65C1163.21 136.07 1156.22 120.531 1154.23 94.7275C1153.2 81.3255 1153.47 79.5704 1157.16 75.8852C1162.39 70.6504 1164.56 70.7644 1173.67 76.7542ZM830.753 81.3274C856.119 83.1567 925.804 94.041 946.461 99.4014C958.704 102.577 972.682 108.143 998.161 119.989C1014.44 127.559 1016.94 129.381 1019.52 135.555C1022.32 142.258 1022.27 142.693 1018.19 146.046C1014.7 148.91 1014.32 150.17 1016.09 152.99C1018.26 156.451 1020.99 156.917 1026.28 154.736C1028.26 153.922 1030.88 156.339 1034.82 162.587C1043.03 175.599 1061.66 193.765 1073.94 200.726C1085.31 207.163 1086.18 208.481 1093.78 230.498C1099.31 246.532 1099.01 249.447 1091.04 257.089L1085.51 262.381L1076.33 257.492C1049.51 243.214 989.479 220.285 960.891 213.4C930.762 206.144 841.894 191.823 812.521 189.49C797.69 188.313 768.163 187.805 745.955 188.349C676.913 190.036 631.305 201.508 599.14 225.275L592.963 229.84V218.734C592.963 203.325 597.239 187.91 607.082 167.847C617.374 146.867 632.508 129.611 651.484 117.215C667.15 106.983 676.626 103.092 711.596 92.5388C753.945 79.7586 777.85 77.5092 830.753 81.3274ZM790.886 83.8564C786.007 89.7379 794.54 97.2337 799.951 91.82C802.207 89.5629 802.416 88.0835 800.835 85.5697C798.119 81.2552 793.678 80.4907 790.886 83.8564ZM756.361 91.8428C752.666 96.2981 756.998 104.596 762.604 103.8C767.891 103.049 769.22 96.319 764.927 92.0235C761.087 88.1824 759.426 88.1463 756.361 91.8428ZM861.26 94.1627C858.791 98.9679 860.586 102.244 865.688 102.244C868.127 102.244 870.506 101.176 870.976 99.8673C872.192 96.4712 868.895 90.835 865.688 90.835C864.195 90.835 862.201 92.3315 861.26 94.1627ZM836.43 95.3474C833.285 99.1409 835.924 104.146 841.073 104.146C846.427 104.146 848.291 101.609 846.678 96.5225C845.296 92.1661 839.61 91.5139 836.43 95.3474ZM562.555 95.3569C562.555 95.7505 561.057 97.2489 559.229 98.6845C556.215 101.048 556.148 100.982 558.511 97.9658C560.995 94.7978 562.555 93.7919 562.555 95.3569ZM817.913 97.4904C816.233 101.868 818.592 106.047 822.739 106.047C826.597 106.047 829.78 99.9434 827.689 96.5567C825.88 93.6284 819.147 94.2711 817.913 97.4904ZM706.807 100.16C703.154 103.159 702.65 104.574 704.279 107.241C707.263 112.123 709.673 112.328 714.785 108.131C718.438 105.133 718.941 103.718 717.313 101.05C714.329 96.1688 711.919 95.9635 706.807 100.16ZM531.772 124.587C518.571 137.921 505.518 151.399 502.765 154.536L497.759 160.241L502.793 149.94C509.12 136.991 523.551 121.56 540.522 109.595C547.742 104.507 554.126 100.343 554.71 100.343C555.293 100.343 544.971 111.254 531.772 124.587ZM779.158 108.055C777.365 111.408 777.529 112.781 780.015 115.27C784.046 119.303 789.668 116.026 789.668 109.643C789.668 103.419 782.238 102.297 779.158 108.055ZM924.384 106.888C922.626 111.47 924.447 116.424 928.155 117.137C933.163 118.103 935.736 114.718 934.313 109.038C932.956 103.632 926.195 102.166 924.384 106.888ZM685.194 111.018C681.341 114.872 681.53 116.916 685.958 119.288C690.287 121.606 696.086 117.154 694.413 112.794C692.832 108.671 688.394 107.816 685.194 111.018ZM727.977 110.71C724.324 115.114 726.354 120.309 731.728 120.309C735.261 120.309 736.614 119.164 737.093 115.77C738.046 109.04 732.099 105.739 727.977 110.71ZM895.876 112.592C895.299 114.098 895.124 116.88 895.487 118.772C896.388 123.448 905.307 123.463 906.206 118.791C907.513 111.999 898.239 106.433 895.876 112.592ZM652.642 123.79C647.997 127.789 647.603 128.854 649.798 131.499C653.261 135.675 657.921 135.355 663.03 130.594C672.301 121.953 662.35 115.437 652.642 123.79ZM800.196 122.119C796.935 126.051 798.524 131.619 803.095 132.277C807.852 132.961 814.302 126.293 812.765 122.281C811.345 118.58 803.218 118.476 800.196 122.119ZM853.409 123.087C850.251 126.247 849.855 127.814 851.457 130.811C853.894 135.363 856.788 135.553 862.522 131.533C868.007 127.69 867.408 120.554 861.528 119.717C859.2 119.385 855.627 120.868 853.409 123.087ZM966.2 122.089C964.394 126.799 966.865 130.769 971.584 130.739C977.745 130.697 981.153 128.036 980.366 123.884C979.473 119.172 967.881 117.702 966.2 122.089ZM892.322 130.062C890.62 131.765 889.703 134.403 890.285 135.922C890.868 137.441 891.346 139.043 891.346 139.48C891.346 139.917 893.453 140.275 896.03 140.275C901.118 140.275 905.637 134.186 903.904 129.668C902.509 126.027 896.139 126.243 892.322 130.062ZM738.829 132.821C735.029 135.034 734.292 143.964 737.878 144.302C743.126 144.8 746.106 143.686 749.186 140.073C755.266 132.944 747.704 127.649 738.829 132.821ZM997.222 135.757C994.533 138.447 995.967 143.994 999.898 146.097C1005.38 149.035 1011.15 143.846 1008 138.812C1005.81 135.312 999.464 133.513 997.222 135.757ZM685.703 137.864C681.786 138.776 679.276 145.627 681.896 148.25C684.525 150.88 690.029 149.472 692.505 145.54C695.033 141.524 690.747 136.688 685.703 137.864ZM939.497 143.252C938.085 146.938 940.408 151.427 945.273 154.409C947.867 155.998 949.177 155.639 951.319 152.752C953.639 149.626 953.662 148.474 951.465 145.146C948.114 140.071 941.141 138.968 939.497 143.252ZM636.05 149.423C632.272 153.599 633.636 159.29 638.416 159.29C643.529 159.29 648.557 154.631 647.792 150.608C646.845 145.65 640.081 144.968 636.05 149.423ZM1000.42 156.299C999.843 157.792 999.656 161.001 1000 163.43C1000.89 169.707 1009.86 169.735 1010.75 163.464C1011.83 155.816 1002.96 149.664 1000.42 156.299ZM611.416 168.083C608.966 170.534 610.017 178.404 612.944 179.528C616.982 181.08 621.764 176.55 621.087 171.817C620.527 167.881 614.097 165.4 611.416 168.083ZM1030.87 178.984C1030.27 180.551 1030.06 183.82 1030.41 186.248C1030.87 189.524 1032.26 190.665 1035.79 190.665C1039.95 190.665 1040.54 189.842 1040.54 184.01C1040.54 178.552 1039.76 177.244 1036.25 176.746C1033.75 176.39 1031.51 177.324 1030.87 178.984ZM850.484 205.518C859.892 207.142 880.845 210.717 897.047 213.461C948.905 222.248 971.321 227.756 1001.58 239.144C1032.72 250.869 1065.46 264.884 1077.41 271.605C1086.29 276.599 1092.69 286.289 1088.76 288.782C1084.11 291.727 1081.38 290.634 1074.02 282.891L1066.78 275.287L1057.46 278.274C1039.35 284.076 1033.92 284.945 1029.76 282.716C1027.15 281.317 1020.89 281.047 1011.49 281.927L997.199 283.268L990.933 276.424C983.673 268.495 978.156 267.781 966.184 273.222C957.531 277.152 958.345 277.415 938.65 264.357C930.363 258.861 928.881 258.949 914.456 265.777C907.829 268.913 901.551 271.48 900.508 271.48C898.104 271.48 892.191 264.633 888.191 257.219C882.692 247.026 877.799 246.245 864.35 253.408C856.857 257.399 854.593 257.827 850.112 256.098C847.181 254.969 838.368 254.081 830.529 254.127C815.021 254.216 786.803 249.681 779.215 245.88C769.349 240.938 762.342 240.947 748.223 245.923C733.138 251.236 725.494 250.953 715.323 244.699C707.631 239.97 700.824 240.099 688.516 245.203L678.515 249.35L669.581 244.885C658.047 239.122 652.613 239.259 643.111 245.549L635.368 250.675L616.975 247.416C606.147 245.496 598.836 243.322 599.199 242.13C600.299 238.519 625.882 222.411 638.576 217.334C645.37 214.619 663.758 209.893 679.437 206.834L707.945 201.274L770.662 201.918C816.21 202.388 838.062 203.373 850.484 205.518ZM1119.41 259.293C1123.07 264.015 1131.36 272.925 1137.84 279.092C1144.32 285.26 1150.92 292.811 1152.5 295.873C1154.08 298.934 1156.71 313.31 1158.35 327.818C1159.98 342.327 1162.58 360.492 1164.12 368.186C1167.62 385.642 1167.62 400.215 1164.12 424.553C1159.18 458.944 1155.74 470.79 1148.64 477.898C1139.21 487.332 1122.12 492.057 1097.44 492.057H1077.77L1080.64 483.975C1082.44 478.91 1083.39 470.218 1083.19 460.682C1082.98 451.009 1083.9 442.739 1085.72 437.97C1087.63 432.956 1088.24 426.84 1087.58 419.5C1086.65 409.255 1086.98 408.08 1092.53 401.752C1106.36 385.999 1111.49 366.134 1104.72 354.645L1100.93 348.22L1105.42 344.221C1107.89 342.023 1109.91 338.444 1109.91 336.269C1109.91 334.093 1111.59 329.18 1113.64 325.348C1118.6 316.08 1120.56 302.73 1117.49 299.035C1116.2 297.476 1112.76 296.2 1109.84 296.2C1105.08 296.2 1104.4 295.376 1103.21 288.118C1102.47 283.673 1100.6 277.846 1099.04 275.169C1096.35 270.542 1096.57 269.808 1103.53 260.434C1107.56 255.007 1111.28 250.599 1111.81 250.637C1112.33 250.675 1115.75 254.57 1119.41 259.293ZM665.183 256.268C674.568 261.058 681.52 261.067 693.592 256.306L703.139 252.543L712.001 257.257C723.136 263.18 737.276 263.522 749.757 258.169C760.388 253.609 765.117 253.433 774.26 257.257C784.726 261.632 808.943 265.775 824.05 265.775C831.462 265.775 841.725 267.046 846.856 268.599C855.941 271.347 856.456 271.284 866.481 266.224C873.483 262.691 877.018 261.75 877.529 263.284C879.384 268.852 891.914 282.959 895.89 283.958C898.649 284.65 905.774 282.758 915.015 278.877C924.742 274.792 930.529 273.294 932.062 274.463C942.01 282.047 953.601 288.594 957.079 288.594C959.373 288.594 964.94 286.941 969.449 284.922L977.646 281.248L985.022 287.915C992.227 294.428 992.761 294.58 1007.92 294.437C1016.45 294.357 1027.73 294.791 1032.98 295.401C1040.14 296.232 1045.14 295.511 1052.94 292.522L1063.34 288.537L1066.77 292.844C1076.1 304.563 1075.44 304.198 1084.91 302.895C1092.51 301.849 1094.44 302.262 1097.44 305.586C1099.39 307.744 1102.14 309.51 1103.55 309.51C1107.05 309.51 1106.76 312.176 1102.3 320.92C1100.21 325.019 1098.5 329.71 1098.5 331.344C1098.5 332.975 1096.42 335.263 1093.87 336.425C1089.85 338.258 1088.23 337.744 1081.67 332.542C1069.08 322.57 1057.45 318.387 1042.44 318.432C1035.12 318.455 1009.46 318.645 985.408 318.856C933.446 319.313 915.492 317.383 888.103 308.402C847.858 295.201 840.668 294.158 778.264 292.442C727.847 291.056 718.622 290.309 698.547 285.983C665.664 278.9 657.368 278.35 634.619 281.754C618.575 284.156 611.313 284.363 598.701 282.781C590.008 281.691 581.71 281.254 580.26 281.809C574.276 284.106 559.508 278.852 550.642 271.269C545.695 267.038 541.649 262.908 541.649 262.088C541.649 261.269 545.502 261.48 550.209 262.558C556.878 264.085 562.034 263.817 573.534 261.343C592.467 257.274 609.859 257.31 622.978 261.447L633.372 264.726L644.051 258.736C649.926 255.441 655.405 252.681 656.232 252.605C657.057 252.527 661.086 254.176 665.183 256.268ZM690.407 296.474C710.271 300.433 710.969 300.743 713.916 306.957C715.864 311.066 720.66 315.567 727.294 319.516C745.783 330.524 758.989 341.648 773.568 358.496C791.437 379.146 800.375 383.788 814.595 379.804C819.608 378.401 832.958 370.939 844.416 363.139C856.695 354.778 872.593 345.989 883.369 341.603C893.385 337.524 903.507 332.926 905.862 331.38C909.53 328.976 915.102 328.855 944.574 330.532C963.51 331.608 996.802 332.239 1018.56 331.933L1058.11 331.378L1071.18 340.292C1096.68 357.67 1099.99 364.885 1090.72 382.896C1082.6 398.694 1079.26 399.725 1033.69 400.497C998.923 401.084 987.613 400.405 932.957 394.446C898.512 390.688 855.606 387.243 835.559 386.623C810.094 385.836 788.653 383.841 761.439 379.728C703.253 370.934 700.599 370.705 639.958 369.315C586.184 368.085 583.069 367.815 577.24 363.894C567.494 357.338 563.642 347.37 563.568 328.526C563.494 309.482 564.898 303.429 570.655 297.993C574.688 294.184 576.239 294.036 600.565 295.114C614.677 295.74 629.216 295.473 632.874 294.519C644.758 291.423 669.233 292.254 690.407 296.474ZM842.882 308.324C861.72 312.226 894.001 322.874 892.041 324.538C891.136 325.308 884.068 328.356 876.337 331.313C868.604 334.268 852.066 343.521 839.587 351.875C822.147 363.544 814.952 367.279 808.505 368.007C799.166 369.061 803.078 372.173 770.391 337.672C762.923 329.792 751.378 320.083 744.733 316.097C721.857 302.376 719.206 303.319 777.314 304.504C811.596 305.202 834.155 306.517 842.882 308.324ZM635.725 381.827L652.83 381.913L636.675 387.218C627.79 390.137 610.161 397.804 597.5 404.26C573.517 416.486 568.851 417.859 567.071 413.214C565.702 409.647 571.337 392.586 575.642 387.27C579.846 382.075 590.565 379.848 606.267 380.907C613.061 381.365 626.318 381.78 635.725 381.827ZM762.11 392.394C783.421 395.646 807.781 397.728 838.131 398.894C875.079 400.312 934.681 405.741 974.741 411.337L983.065 412.499L975.715 418.527C971.675 421.841 962.798 429.605 955.988 435.781C940.022 450.263 902.954 478.039 896.129 480.636C893.221 481.741 889.044 482.074 886.843 481.376C884.644 480.678 872.998 470.602 860.964 458.986C837.154 436.004 839.522 437.386 787.767 416.249C745.131 398.835 715.456 384.946 724.099 386.45C727.758 387.087 744.863 389.762 762.11 392.394ZM697.118 393.25C704.579 394.461 719.991 400.097 737.979 408.194C753.864 415.346 773.916 424.043 782.541 427.527C791.165 431.008 798.22 434.519 798.22 435.327C798.22 436.137 794.158 437.993 789.192 439.453C779.648 442.26 778.015 441.99 756.458 434.06C750.232 431.771 745.038 431.273 737.061 432.199C727.625 433.294 724.723 432.781 715.393 428.365C700.294 421.217 694.259 422.636 683.736 435.808C672.713 449.607 669.897 451.258 663.99 447.386C661.416 445.7 658.497 442.178 657.503 439.56C651.916 424.857 644.958 413.56 639.864 410.926C632.188 406.954 622.824 409.093 614.23 416.779C605.25 424.813 599.704 427.685 595.951 426.243C589.069 423.602 593.632 419.221 612.444 410.409C649.534 393.031 670.104 388.863 697.118 393.25ZM1047.82 416.313C1048.41 418.58 1047.23 425.182 1045.19 430.984C1043.16 436.787 1041.49 445.69 1041.49 450.769V460.005L1030.56 458.664C1021.91 457.601 1018.15 455.991 1012.5 450.921C1004.23 443.496 1005.24 443.73 996.718 447.293L990.083 450.067L984.545 441.164C978.179 430.932 978.35 430.516 992.634 421.33C1001.56 415.591 1004.06 414.952 1021.47 413.963C1031.96 413.368 1041.93 412.725 1043.64 412.537C1045.4 412.341 1047.21 413.976 1047.82 416.313ZM1075.35 421.548C1076.23 433.912 1074.53 438.814 1069.37 438.814C1060.81 438.814 1058.59 435.131 1059.87 423.028L1061.04 411.997L1067.89 412.569C1074.54 413.126 1074.77 413.4 1075.35 421.548ZM642.377 436.293C650.513 452.977 656.226 459.305 664.569 460.87C673.988 462.638 681.63 458.537 690.282 447.072C698.809 435.774 701.512 435.007 712.696 440.716C718.291 443.572 723.898 444.519 735.2 444.519C746.78 444.519 753.267 445.656 763.309 449.451C779.245 455.472 787.968 454.774 804.07 446.188L815.243 440.229L825.772 445.384C832.982 448.913 842.086 456.462 854.671 469.345C886.788 502.224 891.021 502.217 934.318 469.183C945.701 460.497 958.107 450.476 961.891 446.913L968.767 440.432L972.819 445.584C975.047 448.417 976.869 451.315 976.869 452.022C976.869 452.73 978.614 455.183 980.744 457.47C985.036 462.079 995.506 463.142 999.291 459.354C1001.06 457.584 1002.95 458.358 1007.75 462.821C1015.35 469.883 1037.93 474.58 1046.19 470.815C1051.48 468.404 1055.85 456.567 1053.82 450.157C1052.67 446.54 1052.8 446.536 1060.85 449.951C1070.65 454.108 1072.97 459.202 1071.03 472.266C1069.9 479.88 1068.13 483.053 1061.43 489.49C1047.58 502.804 1038.79 504.033 953.113 504.63C913.392 504.907 874.478 505.672 866.639 506.326C852.368 507.52 839.241 506.758 748.806 499.498C672.742 493.39 652.684 489.269 612.601 471.517C581.954 457.942 566.356 446.274 566.356 436.92C566.356 426.163 576.902 424.049 585.361 433.11C592.587 440.849 602.738 440.965 613.109 433.427C617.186 430.463 621.73 426.57 623.208 424.773C624.797 422.843 627.906 421.742 630.81 422.079C634.824 422.547 636.945 425.152 642.377 436.293ZM1118.88 557.315C1117.34 558.549 1114.75 563.606 1113.12 568.551C1109.65 579.109 1100.61 593.29 1083.11 615.656C1065.88 637.676 1047.95 665.769 1043.07 678.406C1036.86 694.48 1037.36 726.709 1044.18 749.714C1051.03 772.817 1056.63 783.941 1061.42 783.941C1067.06 783.941 1067.12 778.453 1061.66 763.292C1050.49 732.311 1048.02 705.4 1054.44 684.756C1058.34 672.236 1076.27 643.856 1096.08 618.872C1113.27 597.188 1125.33 576.042 1126.51 565.511C1127.52 556.555 1124.23 553.022 1118.88 557.315ZM297.183 620.374C295.991 623.481 310.891 657.607 317.672 667.309C324.148 676.571 336.664 680.949 357.127 681.114C373.175 681.242 375.376 680.859 375.958 677.84C377.288 670.941 372.868 668.899 356.591 668.895C339.162 668.893 329.484 665.341 325.514 657.49C324.191 654.875 319.419 645.035 314.909 635.622C308.685 622.635 305.703 618.362 302.537 617.9C300.022 617.533 297.896 618.516 297.183 620.374Z" fill="black"/>
</svg>
