<svg width="145"  viewBox="0 0 227 172" fill="none" xmlns="http://www.w3.org/2000/svg">
<path d="M104.5 117.5L73.5 90.5V87L114 88.5C123.333 91 142.2 96.1 143 96.5C143.8 96.9 117.667 110.667 104.5 117.5Z" fill="#FAD008"/>
<path d="M174 126C174.8 126.4 150.167 151.667 137 158.5L110.5 137.499L74.5 120.499L107.5 122.999L147 124.499C156.333 126.999 173.2 125.6 174 126Z" fill="#FAD008"/>
<path fill-rule="evenodd" clip-rule="evenodd" d="M86.7583 3.47123C80.6331 3.87727 73.8464 5.05222 72.1057 6.00793C71.2074 6.50088 67.518 7.92984 63.9071 9.18286C49.2917 14.2546 41.4553 18.9791 34.2861 27.0404C24.7308 37.785 19.484 54.4948 21.7637 66.9227C22.0049 68.2373 22.2872 69.5727 22.3911 69.89C22.7395 70.9552 19.3408 71.5447 10.2845 71.9896L1.8333 72.4051L1.7571 74.0608C1.61111 77.2458 1.99866 78.0218 5.29622 81.1508C6.99097 82.7588 9.58477 84.8524 11.0605 85.8035L13.7434 87.5325L12.7167 89.6356C11.776 91.5618 11.6816 92.1578 11.5914 96.7281C11.4601 103.376 12.2036 109.472 13.4609 112.057C13.9866 113.138 15.3125 114.927 16.4076 116.033L18.3982 118.044L17.728 119.232C13.9114 125.991 13.3551 128.357 13.5645 136.945C13.7017 142.569 13.7826 143.176 14.6217 144.861C16.3986 148.427 21.8378 152.36 30.387 156.258C44.3839 162.64 56.6209 165.448 74.8061 166.451C77.4402 166.596 81.8349 166.902 84.5722 167.132C87.3095 167.361 93.857 167.695 99.1223 167.872C104.388 168.051 110.272 168.344 112.199 168.524C114.668 168.754 123.241 168.591 141.248 167.969C179.784 166.64 189.684 165.912 195.891 163.949C198.6 163.092 199.331 162.645 202.777 159.735C207.895 155.413 208.177 154.682 208.377 145.216C208.476 140.551 208.698 137.952 209.123 136.517C209.583 134.963 209.686 133.453 209.55 130.251C209.355 125.625 209.361 125.604 211.897 122.41C212.638 121.477 213.779 119.616 214.434 118.274C215.53 116.027 215.636 115.475 215.776 111.294C215.925 106.821 215.912 106.731 214.906 105.101L213.885 103.448L214.999 102.234L216.113 101.021L224.68 90.4725C224.866 85.9168 216.665 84.3419 216.512 84.205C216.359 84.0677 215.907 83.9049 215.509 83.8432C214.934 83.754 216.172 81.4843 216.172 81.4843L216.403 79.8162L216.83 76.4625L217.224 72.2137L216.604 67.3766L216.462 61.6678C216.462 61.6678 215.576 57.8042 215.531 55.6891C215.479 53.2192 214.653 49.4242 214.653 49.4242L211.693 42.2803C211.693 42.2803 208.753 36.4916 206.027 33.4184C201.386 28.1848 191.009 23.6565 191.009 23.6565C191.009 23.6565 181.113 18.1216 179.447 17.4519C178.731 17.1646 175.545 15.8367 172.367 14.5009C162.395 10.3103 158.268 9.01431 150.378 7.59649C141.86 6.06571 127.312 3.88431 121.538 3.27166C117.571 2.85051 94.0831 2.98551 86.7583 3.47123ZM110.944 7.47767C120.026 7.89359 142.434 10.6701 152.096 12.5763C158.427 13.8256 166.475 16.7356 175.86 21.1694C180.206 23.2224 180.709 23.6351 181.87 26.1038C182.498 27.4376 182.594 27.9883 182.3 28.5729C182.093 28.987 181.767 29.3294 181.577 29.3342C181.387 29.3389 180.97 29.7648 180.651 30.2807C180.116 31.1473 180.119 31.2869 180.693 32.1208C181.435 33.198 182.659 33.5425 183.914 33.0274C185.218 32.4922 185.523 25.3396 188.005 28.7344C194.622 31.7746 194.732 31.6503 198.284 34.6112C202.898 38.4576 205.048 41.4259 207.556 46.8846C210.202 52.6443 211.844 62.7829 211.844 62.7829C211.844 62.7829 213.488 70.1427 211.063 72.8054L207.348 71.7078L202.383 69.382C188.023 62.6552 168.427 56.1147 155.821 53.84C144.049 51.7163 120.696 48.5746 109.008 47.5423C102.142 46.9357 79.011 47.3887 71.1331 48.2842C64.7711 49.0072 56.8499 50.3345 52.2653 51.4454C43.8749 53.4792 34.6674 57.5821 29.2289 61.7109C27.6777 62.8884 26.3361 63.8537 26.2471 63.856C26.1585 63.8582 26.0463 62.2747 25.9981 60.3373C25.8564 54.6338 27.0015 49.7303 30.1916 42.3799C34.3543 32.7882 41.3379 25.0133 50.3924 19.8903C54.4494 17.5948 58.6679 15.8885 67.3968 13.0115C83.5382 7.69159 92.038 6.61147 110.944 7.47767ZM97.4242 8.45946C96.1271 9.97266 97.2157 12.2219 99.2217 12.172C100.098 12.1502 101.658 10.8939 101.642 10.2235C101.638 10.0743 101.194 9.45182 100.655 8.84018C99.5416 7.57677 98.3055 7.43092 97.4242 8.45946ZM84.9201 11.5874C83.7278 12.8453 83.83 14.2055 85.216 15.5297C86.0699 16.3456 86.5439 16.5421 87.1676 16.339C89.2127 15.6731 89.4641 13.2945 87.6592 11.684C86.239 10.4164 86.0361 10.4093 84.9201 11.5874ZM124.179 10.6906C123.925 10.8011 123.473 11.3934 123.176 12.0077C122.687 13.0176 122.694 13.2077 123.242 14.0042C123.62 14.5537 124.199 14.8758 124.783 14.8613C127.079 14.8043 127.783 13.1732 126.292 11.3643C125.519 10.4268 125.098 10.2924 124.179 10.6906ZM114.37 12.333C113.886 12.8437 113.496 13.5183 113.504 13.8321C113.527 14.7621 114.945 15.8447 116.102 15.8159C118.185 15.7642 119.024 13.5357 117.507 12.0869C116.499 11.1238 115.436 11.2071 114.37 12.333ZM107.866 12.7255C106.487 13.5788 107.565 16.7669 109.218 16.7259C110.719 16.6885 111.903 13.7242 110.827 12.6963C110.279 12.1731 108.735 12.1882 107.866 12.7255ZM67.9024 14.4987C66.5678 15.035 65.3729 16.3514 65.3955 17.261C65.424 18.4073 67.0419 19.7524 67.995 19.4221C69.0889 19.0436 70.9157 17.3373 70.9001 16.709C70.8833 16.0337 69.8371 14.4957 69.2544 14.2893C69.0116 14.2033 68.4029 14.2979 67.9024 14.4987ZM94.5678 16.3597C93.6419 16.748 92.6417 18.1556 92.6637 19.0398C92.681 19.7368 94.3696 21.1584 95.1568 21.1389C95.4329 21.132 95.9906 20.7761 96.3961 20.3482C97.9591 18.6987 96.5128 15.5441 94.5678 16.3597ZM146.861 15.5032C145.67 17.303 146.689 19.8579 148.578 19.811C149.89 19.7784 150.541 18.9591 150.461 17.4425C150.418 16.6486 150.073 15.9896 149.415 15.4496C148.178 14.4342 147.559 14.447 146.861 15.5032ZM58.6839 19.7115C57.5199 20.9399 57.6254 21.9162 59.0082 22.7079C59.9438 23.2439 60.1362 23.2443 61.0317 22.7122C62.3796 21.9115 62.5433 20.0489 61.3369 19.2444C60.1731 18.4684 59.7991 18.5342 58.6839 19.7115ZM74.3179 19.2852C73.415 20.4986 73.3971 20.8848 74.1929 21.9673C74.67 22.6163 75.0864 22.7622 76.1346 22.6479C77.2125 22.5302 77.5318 22.3051 77.7971 21.478C78.6523 18.8092 75.9426 17.1012 74.3179 19.2852ZM136.418 17.7021C135.745 18.5585 135.935 20.9217 136.721 21.4688C139.159 23.1677 141.364 20.0697 139.193 17.9959C138.147 16.9964 137.062 16.8819 136.418 17.7021ZM47.6801 24.0131C45.2067 25.755 44.8651 26.6667 46.2307 27.8817C47.4738 28.9878 48.9009 28.771 50.517 27.2303C52.2338 25.5932 52.5208 24.6027 51.5478 23.6731C50.5589 22.7284 49.3538 22.8344 47.6801 24.0131ZM101.277 22.5803C99.8456 24.1892 100.735 26.5413 102.756 26.4911C103.696 26.4677 106.036 24.1998 106.014 23.3333C105.97 21.5575 102.657 21.0307 101.277 22.5803ZM120.903 22.3843C119.517 23.6685 119.333 24.706 120.265 25.9735C120.956 26.9142 121.907 26.9729 123.372 26.1656C125.431 25.0302 126.122 22.8948 124.801 21.7522C123.744 20.8394 122.321 21.0702 120.903 22.3843ZM162.309 20.6518C161.728 21.2643 161.806 22.8748 162.457 23.7238C162.85 24.2367 163.388 24.3892 164.538 24.3145C168.582 24.0518 168.294 20.0598 164.238 20.1606C163.414 20.1811 162.545 20.4021 162.309 20.6518ZM136.231 23.9099C134.706 24.7453 133.909 26.2247 134.337 27.4224C134.645 28.2847 134.948 28.4814 136.07 28.5485C138.608 28.7004 140.562 25.4808 138.836 23.9892C138.02 23.2836 137.408 23.2648 136.231 23.9099ZM79.3556 26.707C78.1818 27.216 77.3851 28.7342 77.5547 30.1389C77.6945 31.295 77.789 31.3661 79.2829 31.4369C80.6682 31.5029 81.0161 31.3506 82.1034 30.2031C83.5123 28.7163 83.7118 27.2108 82.5758 26.6362C81.7181 26.2024 80.4551 26.2301 79.3556 26.707ZM173.333 26.4335C172.826 27.6289 173.539 29.043 175.056 29.849C175.977 30.3378 176.135 30.3169 177.064 29.5841C178.452 28.4898 178.473 27.7505 177.152 26.4878C175.661 25.0635 173.925 25.039 173.333 26.4335ZM58.0238 30.4234C56.6525 32.2665 57.299 33.9009 59.3793 33.8492C61.6345 33.7931 62.9113 31.0773 61.214 29.9459C59.9926 29.1314 58.8586 29.3011 58.0238 30.4234ZM152.714 28.7849C151.978 29.562 152.027 30.3882 152.883 31.6233C154.421 33.8436 155.844 34.205 156.989 32.666C157.997 31.3107 157.907 30.791 156.418 29.3685C155.017 28.0298 153.636 27.8122 152.714 28.7849ZM41.0199 34.334C39.9636 35.6602 39.8717 36.6137 40.7223 37.4267C41.8795 38.532 44.2631 37.7328 45.1257 35.9504C45.5914 34.988 45.5825 34.7791 45.0409 33.9928C44.1269 32.6654 42.22 32.8273 41.0199 34.334ZM175.067 33.1657C174.463 34.3717 174.696 36.4508 175.524 37.2422C177.035 38.6863 178.994 37.7152 178.94 35.5485C178.88 33.1282 175.981 31.3443 175.067 33.1657ZM31.9294 41.7516C31.4336 42.5548 31.4127 42.931 31.7991 44.1179C32.3213 45.7215 33.0632 46.1456 34.2092 45.4954C36.096 44.4256 36.3862 42.6482 34.8616 41.5043C33.5465 40.5175 32.6448 40.5938 31.9294 41.7516ZM186.654 41.22C186.068 41.9668 186.142 44.5633 186.771 45.2869C187.092 45.6557 187.723 45.8033 188.579 45.71C189.894 45.5661 189.895 45.5653 189.958 43.5952C189.994 42.4598 189.832 41.4066 189.575 41.1112C188.986 40.4336 187.22 40.4996 186.654 41.22ZM110.205 52.5671C116.391 52.7181 119.588 53.0424 130.674 54.6434C158.836 58.7103 165.67 60.2597 182.318 66.3537C193.746 70.5369 203.691 74.8231 206.199 76.6469C208.466 78.2957 209.715 81.1014 208.42 81.6374C206.853 82.2863 205.955 81.8919 203.215 79.3542L200.443 76.7859L195.779 78.3296C192.457 79.4288 190.586 79.8562 189.274 79.8141C188.262 79.782 184.596 79.7941 181.129 79.8408L174.825 79.9262L172.574 77.8769C171.336 76.7499 169.878 75.7271 169.333 75.6043C167.938 75.2891 165.794 75.7565 163.376 76.9031C162.012 77.5498 160.959 77.8205 160.303 77.6928C159.754 77.586 157.482 76.3902 155.253 75.0355C152.116 73.1287 150.895 72.5802 149.842 72.606C148.989 72.6264 146.793 73.4435 143.941 74.8006C138.596 77.3446 138.752 77.3707 136.042 73.502C135.063 72.1041 133.756 70.4329 133.137 69.7878C131.58 68.1649 130.165 68.2643 126.292 70.2697C123.756 71.5828 122.968 71.8296 121.748 71.6915C120.937 71.5997 119.11 71.3854 117.69 71.2153C116.269 71.0456 113.7 70.9329 111.981 70.9653C106.287 71.0725 97.9689 69.8016 93.7726 68.183C90.5439 66.9378 88.0295 67.0734 83.2135 68.7517C77.7469 70.6563 75.2145 70.6778 71.4604 68.8517C67.7361 67.04 65.9415 67.0828 61.0626 69.1006L57.5013 70.5733L54.4433 69.2112C51.9442 68.0975 50.9813 67.8587 49.1739 67.9037C47.1782 67.9533 46.6967 68.1341 44.242 69.7566L41.522 71.5548L36.547 70.7687C31.4763 69.9671 29.2219 69.4524 28.6691 68.9697C28.0129 68.3968 34.4208 63.7348 39.9438 60.7675C43.3564 58.9339 49.5213 57.0156 59.337 54.7329L67.2012 52.9039L85.0375 52.646C94.8475 52.5045 106.173 52.469 110.205 52.5671ZM55.0256 74.3137C57.5139 75.1229 59.1399 74.8952 63.5234 73.1232L66.6689 71.8511L69.3879 73.1655C72.5913 74.7138 75.9489 75.3551 78.6719 74.9387C79.7421 74.7751 82.3176 74.0144 84.3955 73.2479C88.5937 71.6995 89.0953 71.6915 93.3659 73.1036C97.3209 74.4113 102.588 75.215 108.966 75.4849C112.207 75.6216 116.189 75.96 117.814 76.2365C123.086 77.1328 123.608 77.115 125.731 75.9681C126.793 75.3939 128.271 74.6911 129.015 74.4063L130.368 73.8891L131.762 75.8167C133.597 78.354 137.384 81.7803 138.328 81.7568C139.128 81.737 142.828 80.457 146.866 78.8029C148.228 78.2452 149.661 77.7811 150.053 77.7714C150.444 77.7616 151.987 78.5323 153.482 79.484C157.91 82.3037 159.246 82.8317 161.227 82.546C162.175 82.4094 164.051 81.7628 165.396 81.1095L167.843 79.9213L169.912 81.7272C171.05 82.7207 172.421 83.7428 172.96 83.9983C173.613 84.3087 176.51 84.4956 181.666 84.5599C191.946 84.6886 192.176 84.6666 196.101 83.1837L199.502 81.8986L200.324 82.9864C200.776 83.5847 201.826 84.7847 202.657 85.6528L204.169 87.2314L207.357 86.9098C210.522 86.5907 210.554 86.5965 211.827 87.6631C212.532 88.254 215.808 88.487 216.351 88.6789C216.894 88.8708 221.174 90.2752 221.181 90.5595C221.188 90.8437 218.434 92.3891 217.765 93.9665C217.096 95.5435 215.6 97.3301 213.767 98.6857C212.588 99.5569 211.063 99.2811 209.852 99.3113C209.151 99.3287 207.972 98.7547 206.407 97.633C205.098 96.6954 203.064 95.4697 201.887 94.9094C197.607 92.8721 197.268 92.8517 176.343 93.3718C156.316 93.8696 150.027 93.7359 144.142 92.6883C140.765 92.0866 139.032 91.6432 129.262 88.8779C119.772 86.1922 115.962 85.8488 93.4272 85.6475C74.7624 85.4805 73.0256 85.363 62.9972 83.585C53.3809 81.8802 49.8248 81.7924 41.6464 83.057C36.5329 83.8475 34.4863 84.0092 31.5492 83.855C29.5232 83.7484 25.6939 83.6655 23.0397 83.6705C17.7309 83.6806 15.4074 83.093 12.0983 80.9026C10.1876 79.638 7.42614 76.9849 7.70935 76.686C7.81832 76.5706 8.63679 76.6264 9.52797 76.8096C12.0225 77.322 15.2058 77.1287 19.219 76.2207C26.6352 74.5429 31.9238 74.5607 38.9029 76.2874L41.309 76.8826L45.2486 74.5398L49.1886 72.1966L51.0948 72.9257C52.1433 73.3266 53.9122 73.9513 55.0256 74.3137ZM56.8406 87.5063C60.8548 87.8694 67.3886 88.9952 68.919 89.5873C69.6512 89.8706 70.395 90.5794 70.8641 91.4403C71.9092 93.3578 73.5048 94.7104 77.8719 97.382C83.5192 100.836 86.641 103.407 93.3874 110.157C98.5685 115.34 99.9207 116.489 101.941 117.426C104.109 118.431 104.555 118.511 106.566 118.249C109.294 117.894 112.934 115.958 120.151 111.022C125.432 107.41 130.43 104.633 139.015 100.544L144.1 98.1211L152.942 98.4026C157.96 98.5623 169.654 98.5011 179.984 98.2609L198.184 97.8377L202.112 100.453C207.968 104.353 209.795 105.953 210.962 108.204C212.19 110.571 212.111 111.882 210.526 115.479C208.456 120.176 206.909 121.453 202.226 122.333C198.419 123.049 174.391 123.664 168.463 123.198C165.929 122.998 159.211 122.46 153.534 122C139.369 120.855 127.438 120.179 117.614 119.965C104.152 119.672 99.8147 119.344 84.4694 117.456C69.4868 115.612 65.4077 115.391 44.8007 115.308C31.8 115.255 25.1094 115.09 23.8345 114.789C19.5211 113.771 17.1761 110.408 16.3521 104.061C15.7151 99.1564 16.1109 93.5744 17.2485 91.418C18.7368 88.5968 18.5455 88.6411 30.923 88.2617C36.9886 88.0759 43.1055 87.7366 44.5162 87.5072C47.2892 87.0567 51.8639 87.0563 56.8406 87.5063ZM111.181 90.5693C114.854 90.7362 118.216 91.1451 121.215 91.7894C126.006 92.8195 134.249 95.2098 135.75 96.0051C136.611 96.461 136.62 96.5003 135.956 96.8773C135.573 97.0944 133.786 97.9109 131.985 98.6912C127.965 100.433 123.319 103.178 116.598 107.784C110.81 111.751 108.502 112.955 105.862 113.384C104.218 113.651 103.886 113.579 102.633 112.68C101.865 112.128 98.9829 109.395 96.2279 106.606C93.473 103.816 89.9504 100.441 88.3996 99.1052C85.7218 96.7976 84.6332 96.0581 79.1177 92.7989C77.6474 91.9296 76.8581 91.2459 77.0148 90.9768C77.314 90.4625 102.282 90.1647 111.181 90.5693ZM39.9959 120.26C47.6355 120.316 47.8505 120.338 46.266 120.902C41.2676 122.683 36.8447 124.677 29.3687 128.522C23.9029 131.333 20.5843 132.832 19.7278 132.877L18.4217 132.945L18.4201 130.913C18.4181 128.731 19.4123 125.439 20.6863 123.411C22.0725 121.204 25.87 119.892 30.2431 120.111C31.256 120.162 35.6448 120.229 39.9959 120.26ZM85.4837 122.402C97.0548 123.856 102.727 124.264 116.073 124.6C132.901 125.024 156.642 126.568 168.019 127.979L170.744 128.317L168.34 130.441C167.018 131.61 164.562 133.871 162.882 135.466C156.213 141.798 144.503 151.232 140.595 153.422C137.684 155.054 136.626 154.944 133.806 152.715C132.506 151.686 129.832 149.378 127.865 147.584C117.924 138.517 117.83 138.462 100.803 131.892C82.3167 124.76 72.1235 120.32 76.1637 121.162C76.6215 121.257 80.8153 121.815 85.4837 122.402ZM66.2368 124.002C69.3564 124.546 74.5818 126.388 83.6527 130.14C87.6393 131.789 93.5642 134.202 96.8193 135.503C100.074 136.804 102.804 138.056 102.884 138.286C103.092 138.879 98.8234 140.366 96.7671 140.418C95.688 140.444 93.2159 139.876 90.0862 138.88L85.1183 137.3L80.8959 137.636C76.8898 137.956 76.5594 137.926 74.4436 137.064C67.3401 134.169 65.7413 134.322 62.3381 138.218C57.1473 144.16 56.9323 144.363 55.7816 144.392C53.9473 144.437 52.838 143.206 50.3741 138.39C46.909 131.616 44.4554 129.477 40.9059 130.138C38.9141 130.509 37.0762 131.565 34.7717 133.664C32.0175 136.172 30.0455 137.16 28.8295 136.639C28.3101 136.417 27.8786 135.99 27.8711 135.691C27.8412 134.487 33.8057 131.093 42.2002 127.538C51.3042 123.682 58.4065 122.637 66.2368 124.002ZM194.131 128.234C194.974 129.041 194.911 130.743 193.903 134.336C193.304 136.473 192.992 138.687 192.923 141.29L192.821 145.11L190.567 144.926C186.838 144.622 184.634 143.889 182.541 142.256C179.023 139.51 179.197 139.552 176.426 140.777C175.084 141.37 173.947 141.807 173.899 141.749C173.851 141.69 173.171 140.679 172.388 139.501C170.49 136.645 170.155 135.763 170.618 134.838C171.101 133.875 176.47 130.183 178.35 129.521C179.142 129.242 182.689 128.737 186.232 128.4C189.775 128.064 192.868 127.761 193.106 127.728C193.344 127.695 193.805 127.923 194.131 128.234ZM204.228 127.933C204.733 128.23 205.242 132.563 204.983 134.372C204.715 136.253 204.039 137.012 202.603 137.048C199.591 137.123 198.747 134.595 199.744 128.483C199.915 127.431 199.948 127.417 201.896 127.57C202.984 127.656 204.033 127.819 204.228 127.933ZM43.2167 135.93C43.6417 136.377 44.8183 138.275 45.8317 140.148C49.4718 146.875 52.1124 149.285 55.7428 149.195C58.669 149.122 61.0046 147.475 63.9797 143.387C65.5403 141.241 67.0624 140.048 68.275 140.018C68.6048 140.009 70.0738 140.498 71.539 141.104C73.9801 142.114 74.667 142.219 79.7257 142.362C84.0007 142.482 85.9592 142.715 88.3968 143.394C94.4642 145.084 95.264 145.248 97.191 145.205C99.6317 145.15 102.82 143.995 106.636 141.785L109.604 140.065L112.141 141.271C115.95 143.083 118.533 145.057 125.59 151.551C132.815 158.201 134.496 159.25 137.761 159.15C141.336 159.04 146.07 156.038 156.733 147.117C159.112 145.128 162.172 142.465 163.533 141.201L166.009 138.902L167.082 140.13C167.673 140.806 168.411 141.863 168.723 142.48C169.035 143.097 169.892 144.158 170.628 144.838C171.778 145.899 172.272 146.088 174.131 146.177C175.762 146.254 176.532 146.116 177.251 145.617C178.298 144.89 178.19 144.852 180.952 146.945C183.229 148.671 187.184 149.731 191.128 149.673L194.556 149.623L195.761 148.238C197.164 146.625 197.832 144.293 197.527 142.073C197.408 141.21 197.415 140.506 197.542 140.507C197.669 140.509 198.862 141.019 200.192 141.642C203.425 143.154 204.067 144.276 203.871 148.077C203.692 151.558 202.855 153.424 200.352 155.922C197.942 158.328 195.299 159.661 191.361 160.461C187.536 161.236 172.635 162.152 157.485 162.541C151.014 162.707 140.552 163.152 134.237 163.53C121.639 164.284 119.437 164.241 91.6359 162.698C58.5679 160.864 51.5 159.753 37.5752 154.201C27.8367 150.318 21.1393 146.43 19.2114 143.538C17.5503 141.048 17.8118 138.797 19.8684 137.881C21.2576 137.262 22.5591 137.716 25.1333 139.717C29.1075 142.806 32.0751 142.264 37.5093 137.458C40.4295 134.876 41.8515 134.495 43.2167 135.93Z" fill="black"/>
<path d="M200.932 54.9609C200.076 53.7258 200.027 52.8995 200.764 52.1225C201.686 51.1498 203.067 51.3674 204.468 52.7061C205.957 54.1286 206.046 54.6483 205.038 56.0036C203.893 57.5426 202.47 57.1812 200.932 54.9609Z" fill="black"/>
<path d="M194.515 40.9822C194.387 39.4852 194.756 38.744 195.781 38.4363C197.065 38.0513 198.154 38.9271 198.704 40.7854C199.288 42.7601 199.107 43.2556 197.558 43.9295C195.799 44.6949 194.745 43.6735 194.515 40.9822Z" fill="black"/>
</svg>
