<svg height="165" viewBox="0 0 116 213" fill="none" xmlns="http://www.w3.org/2000/svg">
<path d="M85 97.5C85.4 100.3 82.8333 101.333 81.5 101.5L75 97.5L74.5 86.5L71.5 80.5L54 86.5L23 92.5L24 98L21.5 101.5L19 101L17.5 93.5H4L2 84.5L8 78L9 71.5L14 68L16.5 60C18.5 58.6667 22.6 55.9 23 55.5C23.4 55.1 25.8333 59.3333 27 61.5L38 60.5L42 54L48 51.5L43 44.5L58 41.5L64.5 44H72L79.5 48.5L82.5 53L86 52.5L90 56.5L97.5 59L102 68L82.5 75.5L80.5 80.5C81.8333 85 84.6 94.7 85 97.5Z" fill="#FF2D32"/>
<mask id="path-2-outside-1_0_1" maskUnits="userSpaceOnUse" x="-17.1565" y="-0.681776" width="170.314" height="224.054" fill="black">
<rect fill="white" x="-17.1565" y="-0.681776" width="170.314" height="224.054"/>
<path fill-rule="evenodd" clip-rule="evenodd" d="M100.227 1.18192C102.093 4.04246 103.013 7.14163 102.421 8.56344C102.276 8.91003 99.6242 9.97789 96.0891 11.1132C80.7178 16.0493 76.0182 18.1119 74.7817 20.4661C74.3591 21.271 73.878 24.0319 73.7131 26.6016C73.5478 29.1715 73.3499 31.726 73.2732 32.2782C73.1964 32.8305 73.1074 34.377 73.0759 35.7147C73.0443 37.0524 72.9065 39.2896 72.7701 40.6858L72.5226 43.2251L75.2211 44.5365C78.2544 46.011 81.6641 49.1915 82.1577 51.0068C82.4187 51.9683 82.7625 52.1976 83.8709 52.1486C85.6417 52.07 87.9676 53.3048 89.0443 54.8942C89.5094 55.5816 90.5551 56.2827 91.3904 56.4678C95.6344 57.4081 99.588 60.7455 101.438 64.949C101.903 66.0062 102.866 67.1635 103.739 67.7161C105.085 68.5673 105.284 68.93 105.663 71.2111C105.895 72.611 106.112 74.7281 106.145 75.9156C106.178 77.1031 106.301 78.919 106.418 79.9509C106.54 81.0161 106.321 82.2518 105.912 82.8095C105.516 83.3497 105.252 84.2904 105.326 84.8999C105.4 85.5095 105.414 86.5642 105.357 87.2441C105.189 89.2564 106.17 100.242 108.013 116.985C108.396 120.471 108.784 124.282 108.874 125.454C108.965 126.627 109.205 129.172 109.408 131.112C110.455 141.115 111.004 148.359 111.579 159.751C111.737 162.886 112.021 166.027 112.21 166.732C112.399 167.436 112.671 169.658 112.815 171.668C113.221 177.344 113.421 179.789 113.774 183.354C114.352 189.206 114.224 190.765 112.924 193.686C111.881 196.029 111.164 196.892 108.896 198.534C104.423 201.771 102.735 202.489 90.7476 206.248C79.0219 209.926 76.9273 210.372 67.4536 211.204C65.26 211.397 62.6013 211.356 61.5459 211.113C60.4901 210.871 58.6949 210.459 57.5565 210.198C53.447 209.258 52.3902 207.829 47.8071 197.012C46.3596 193.596 44.5078 189.525 43.6921 187.964C42.8769 186.405 41.7726 183.832 41.2384 182.247C40.7047 180.662 38.9596 176.561 37.3613 173.135C35.7627 169.708 32.9683 163.388 31.1513 159.089C27.7762 151.103 25.8262 146.756 22.7311 140.319C17.6726 129.799 15.8944 125.745 14.0988 120.639C13.5862 119.181 12.7351 117.125 12.208 116.07C11.6803 115.015 10.9045 113.374 10.4836 112.424C10.0622 111.473 9.02448 110.097 8.1778 109.366C7.10017 108.436 6.09648 106.816 4.83775 103.977C3.84803 101.744 2.65835 99.1417 2.19426 98.193C1.20225 96.1667 1.09541 93.9056 1.9515 93.0676C2.39133 92.637 2.38355 92.133 1.92333 91.2418C1.56148 90.5402 1.31025 88.8408 1.34019 87.2928C1.41369 83.5144 3.27511 80.0241 6.149 78.2762C8.22964 77.011 8.30444 76.8851 8.10786 75.0043C7.85471 72.5862 9.81382 69.0571 11.9912 68.0097C13.105 67.4739 13.4417 67.0096 13.423 66.0329C13.3982 64.718 14.4995 61.5507 15.4478 60.2076C16.5502 58.6468 19.6334 56.0902 21.3314 55.3292C22.6945 54.7184 23.0832 54.2904 23.0682 53.4191C23.0468 52.183 25.484 48.0169 26.9285 46.8206C27.7979 46.1005 27.7861 45.8895 26.6862 42.5628C25.3398 38.4897 25.3212 35.303 26.6238 31.8638C27.0814 30.6555 27.3702 29.3422 27.2652 28.9449C27.0519 28.1364 29.1485 25.8195 29.8899 26.0448C30.877 26.3444 30.6539 27.5318 29.1007 30.2421C28.2192 31.7795 27.3489 33.7291 27.1662 34.5747C26.7311 36.5894 27.2517 40.3947 28.2899 42.7852L29.1189 44.6942L32.8253 44.0027C35.0882 43.581 37.3551 43.4715 38.646 43.7221C39.8086 43.9475 41.5393 43.9232 42.4915 43.6681C43.4437 43.4129 44.9695 43.2694 45.8829 43.3495C47.2515 43.4691 47.5815 43.3652 47.7618 42.7566C47.9211 42.2219 48.9471 41.7652 51.4933 41.096C55.9152 39.9344 59.9458 40.4761 62.3381 42.5535C63.3817 43.4606 63.9043 43.6758 63.9239 43.2075C63.9401 42.8237 64.0777 40.9534 64.2295 39.0518C64.3813 37.1501 64.5341 34.8253 64.5685 33.8856C65.1405 18.3579 65.6682 15.6435 68.6837 12.7179C70.5188 10.938 71.5582 10.3429 74.9254 9.14579C77.1473 8.35565 81.0344 6.9622 83.5635 6.04962C94.041 2.26867 99.8328 0.577079 100.227 1.18192ZM88.914 5.40529C86.4907 6.21945 84.1183 7.04461 83.6423 7.23983C83.1662 7.43459 80.9452 8.25494 78.7069 9.06254L74.6376 10.5309L75.5681 13.48L76.4991 16.4295L78.4944 15.8102C84.7357 13.873 90.6246 11.8518 93.6687 10.6031C95.5726 9.82176 98.1266 8.86771 99.344 8.48205C101.54 7.78741 101.555 7.76826 101.262 6.14197C100.608 2.51706 99.1169 1.83085 95.0719 3.29272C94.1085 3.64076 91.3375 4.59157 88.914 5.40529ZM73.1181 14.8417L74.8275 17.3607L74.3149 14.8971C73.6799 11.8461 73.275 11.2566 72.2276 11.8553C71.4195 12.3169 71.4314 12.3558 73.1181 14.8417ZM68.5958 14.7165C68.6293 14.8414 69.697 15.5351 70.9682 16.2574C73.4175 17.6496 73.4316 17.4351 71.0955 14.3483C70.2152 13.1853 69.9954 13.1123 69.3132 13.7552C68.885 14.159 68.5622 14.5911 68.5958 14.7165ZM67.2709 17.2104C67.3002 17.4684 67.3533 17.8674 67.3884 18.0968C67.4235 18.3267 68.7409 18.9612 70.3164 19.5067C72.3108 20.1977 73.2847 20.3176 73.523 19.9019C73.7615 19.4856 73.0532 18.8619 71.191 17.8489C68.6248 16.4522 67.157 16.2133 67.2709 17.2104ZM66.7609 21.3348C66.7504 21.9356 66.601 23.3353 66.4286 24.4449C66.2562 25.5545 66.0521 28.4369 65.9746 30.8503C65.8974 33.2637 65.7025 37.0852 65.541 39.3432C65.3798 41.6007 65.2639 43.5073 65.2834 43.5799C65.303 43.6529 66.304 43.5582 67.5086 43.3703C68.7131 43.182 70.0508 43.0768 70.4818 43.1368C71.0565 43.2167 71.2889 42.8166 71.3543 41.6322C71.4033 40.7451 71.7262 35.8665 72.0713 30.7915C72.7582 20.7023 72.9029 21.2513 69.3601 20.519C66.8608 20.003 66.7827 20.0273 66.7609 21.3348ZM30.5042 46.4208C30.7531 47.3499 32.7219 49.186 33.3027 49.0304C33.6276 48.9433 34.1502 48.3683 34.4631 47.7527C35.6305 45.4576 36.4324 46.4144 35.3104 48.7641C34.4849 50.4939 30.9156 52.3478 28.8283 52.1309C27.772 52.0209 27.6331 51.8662 27.9553 51.1598C28.2207 50.5767 28.5197 50.4251 28.9316 50.6647C29.7918 51.165 31.7734 50.55 31.293 49.9314C29.009 46.9906 28.5451 46.8597 26.8965 48.6926C24.3956 51.4741 23.9331 54.1304 25.1525 58.7064L25.874 61.4133L29.3235 60.3348C31.9207 59.5224 33.3632 59.3244 35.1651 59.5318L37.5572 59.8073L38.8885 57.3513C40.215 54.9029 43.4639 52.1081 45.6708 51.5168C46.9076 51.1854 46.8146 50.7289 45.1307 48.8628C42.6384 46.1021 38.6925 44.5985 35.2177 45.0858C31.4363 45.6157 30.3694 45.918 30.5042 46.4208ZM49.3863 43.5191C47.5925 44.4314 46.0954 44.9583 45.7369 44.8034C45.1357 44.544 42.5093 44.6218 42.583 44.8969C42.604 44.9754 43.254 45.4078 44.0276 45.8574C44.8014 46.3075 46.1248 47.5451 46.9685 48.6077C48.2438 50.2139 48.8741 50.5893 50.7001 50.8333C52.9425 51.1325 54.0981 52.1096 52.0421 51.9683C51.4365 51.9271 49.5564 52.1698 47.8635 52.5089C43.6735 53.3474 41.5284 54.9527 39.7641 58.5707L38.4084 61.3513L35.8182 61.0012C32.3035 60.5262 27.3697 61.8168 25.6121 63.6712C24.9302 64.3904 24.1515 64.9113 23.8813 64.8295C23.0632 64.5813 23.0108 63.4716 23.793 62.9691C24.4076 62.5743 24.3896 61.9802 23.6824 59.341C22.6863 55.6235 22.4166 55.5706 19.0581 58.4349C16.5178 60.6015 14.6318 64.2584 15.1183 66.074C15.3058 66.7735 15.6729 67.2886 15.9336 67.2187C16.1944 67.1488 16.3422 67.3132 16.262 67.5836C16.1813 67.8542 15.3408 68.2718 14.3936 68.5116C11.4255 69.2629 9.22799 71.9756 9.43418 74.6325C9.50935 75.6013 9.81609 76.3984 10.2001 76.6218C11.3255 77.2763 11.0779 77.7037 9.2958 78.1813C4.43969 79.4824 1.84892 84.6637 3.31618 90.1396L3.94214 92.4757L6.36059 92.6828C11.8311 93.1514 17.4056 92.5345 17.1263 91.4919C17.0325 91.1419 17.245 91.1033 17.8132 91.3668C18.8557 91.8502 19.1081 92.8174 19.1436 96.4685C19.1865 100.803 21.084 102.558 22.8129 99.8612C23.2957 99.1088 23.2537 98.2282 22.624 95.8781C21.9721 93.445 21.9453 92.6585 22.4856 91.8162C23.2427 90.6355 23.9303 90.5078 31.1886 90.2006C34.0664 90.0787 38.1591 89.4524 42.4917 88.4703C49.6865 86.8402 67.0458 81.34 69.3131 79.9721C70.2459 79.4095 70.895 79.2689 71.4242 79.5143C74.1859 80.7943 75.9282 85.8504 75.35 90.9052C75.1015 93.0749 75.214 94.9806 75.6966 96.7819C76.3477 99.2118 76.5815 99.5465 78.3452 100.572C80.9299 102.076 82.3972 101.66 83.8058 99.0265C85.1314 96.5479 84.7411 94.6702 81.7843 89.2957C79.256 84.7011 78.6801 80.8454 80.0835 77.9114L80.9571 76.085L87.7551 73.6729C91.4938 72.3458 95.9445 70.6481 97.6459 69.8998C100.502 68.643 100.734 68.4396 100.678 67.2438C100.604 65.6729 97.5323 60.8004 96.012 59.8427C94.1603 58.6766 91.2502 57.6186 89.8886 57.617C88.921 57.6157 88.4839 57.3196 88.2211 56.4861C87.4093 53.9098 85.5333 53.1262 82.6461 54.1579C81.783 54.4661 81.6009 54.2954 81.1883 52.7896C80.3105 49.5871 76.6653 46.1531 72.8829 44.9658C70.8283 44.3205 67.7243 44.4373 65.2104 45.254C63.7829 45.7177 63.4501 45.6048 61.8403 44.1104C59.8241 42.2391 56.2509 41.3414 52.9729 41.8824C52.6735 41.9317 51.0592 42.6682 49.3863 43.5191ZM53.4632 44.716C54.5789 45.5423 55.2582 47.0448 54.8851 47.8626C54.3814 48.9672 52.7213 49.3211 51.5661 48.5697C50.315 47.7559 50.0882 46.8089 50.8567 45.6101C51.5934 44.461 52.6363 44.1032 53.4632 44.716ZM51.7914 46.9997C52.1084 48.1827 53.0723 48.3261 53.6722 47.2793C54.0851 46.5582 54.0422 46.2816 53.4509 45.86C52.5252 45.1998 51.4983 45.9056 51.7914 46.9997ZM65.2659 51.5823C65.6546 51.9504 65.3811 52.2272 64.5629 52.2942C64.3396 52.3124 63.9883 52.7614 63.7819 53.2923C63.4808 54.0652 63.2634 54.1751 62.6871 53.8452C61.5972 53.2208 60.416 53.7292 60.1361 54.943C59.951 55.7438 59.7181 55.9319 59.2487 55.6588C58.7799 55.3862 58.7841 55.0056 59.2655 54.2105C60.0083 52.9839 64.6153 50.9664 65.2659 51.5823ZM74.9714 52.8497C77.1226 54.1009 76.9735 56.6635 74.7146 57.2688C74.0739 57.4405 73.2423 57.4022 72.8668 57.1838C71.7352 56.5256 71.439 54.411 72.3292 53.3435C73.3686 52.0963 73.6014 52.0528 74.9714 52.8497ZM55.4118 58.7833C56.5405 59.9933 56.4115 61.0961 55.0529 61.8551C54.3106 62.2696 53.6322 62.2812 52.8813 61.8932C51.5204 61.1896 51.3265 60.5271 52.1206 59.2891C53.0073 57.9059 54.3949 57.6927 55.4118 58.7833ZM73.2142 55.254C73.4961 56.3061 73.7757 56.5536 74.473 56.3668C75.1133 56.1952 75.2886 55.8258 75.0872 55.0745C74.767 53.8794 74.3125 53.5096 73.449 53.7409C73.0843 53.8387 72.9927 54.4273 73.2142 55.254ZM53.0251 59.7181C52.7884 60.5143 54.2606 61.4559 54.6579 60.7626C55.0251 60.1219 54.2729 58.8792 53.6235 59.0532C53.3843 59.1173 53.1148 59.4167 53.0251 59.7181ZM22.1953 69.8815C22.7722 69.9536 23.419 70.2559 23.6326 70.553C24.3186 71.5071 23.8508 73.2763 22.7504 73.8907C20.7614 75.0013 18.6997 72.9425 19.8285 70.973C20.5236 69.76 20.6732 69.691 22.1953 69.8815ZM20.5956 71.2909C20.358 72.0907 21.4018 73.4874 22.0977 73.3009C22.7936 73.1144 22.9992 71.383 22.3935 70.8092C22.1727 70.6001 21.7132 70.5037 21.3726 70.595C21.0321 70.6862 20.6823 70.9994 20.5956 71.2909ZM37.0359 68.6017C37.8058 68.7884 38.7745 69.3046 39.1885 69.7491C39.7397 70.34 40.0394 70.3868 40.3045 69.9242C40.8347 68.9991 43.3945 68.4432 44.2655 69.0644C45.2262 69.7496 44.8689 70.4254 43.8062 69.9329C42.5113 69.3324 41.0488 70.2589 40.7538 71.8663C40.5489 72.9837 40.355 73.2063 39.9296 72.8123C39.6236 72.5288 39.2555 71.8937 39.1109 71.4007C38.4796 69.2454 33.3247 68.9726 31.5254 70.999C30.8694 71.7379 30.3692 71.9826 29.9784 71.7553C29.6609 71.5706 29.1274 71.6193 28.7927 71.8632C28.3885 72.1581 28.199 72.0745 28.2288 71.6141C28.2538 71.2197 28.8656 70.7624 29.6489 70.5525C30.4057 70.3497 31.1361 69.9906 31.2718 69.7551C31.6954 69.02 35.5672 68.245 37.0359 68.6017ZM67.74 64.6765C68.7784 64.7627 70.1892 65.1363 70.8749 65.507C71.8408 66.0288 72.7033 66.0249 74.7036 65.4889C76.9603 64.8843 77.496 64.9191 78.9491 65.7643C81.3348 67.1522 81.2804 67.9871 78.8818 66.793C77.1588 65.9351 76.606 65.8884 75.0738 66.4725C74.0881 66.8483 73.0048 67.3831 72.6668 67.6613C72.2386 68.0133 71.7575 67.8508 71.0826 67.1262C70.0492 66.0173 67.596 65.46 65.83 65.9332C64.3163 66.3388 62.9373 68.387 63.0179 70.1094C63.082 71.4761 63.0232 71.5363 62.0906 71.0544C61.173 70.58 61.052 70.6144 60.5494 71.4915C60.2496 72.0146 59.8335 72.3436 59.6246 72.2222C58.9954 71.8562 59.7255 70.238 60.7144 69.8077C61.2232 69.5863 61.7423 68.9585 61.8687 68.4123C62.0804 67.4942 64.6697 64.7664 65.492 64.5949C65.6899 64.5535 66.7011 64.5904 67.74 64.6765ZM13.8808 81.172C14.9273 81.2812 15.495 81.8783 15.877 83.2715C16.2788 84.7391 15.53 86.1781 14.175 86.5412C12.9167 86.8784 10.7925 85.778 10.4848 84.6298C10.015 82.8764 11.8929 80.9641 13.8808 81.172ZM11.8291 84.2696C12.1462 85.453 14.0072 85.8848 14.6785 84.9306C15.3278 84.0074 15.0812 83.1696 13.9695 82.5229C12.8447 81.8687 11.4835 82.9798 11.8291 84.2696ZM90.4002 63.6433C91.5204 64.146 91.6438 64.3682 91.4512 65.5369C91.0625 67.8969 87.6865 68.0397 87.0655 65.7221C86.8144 64.7849 87.6669 63.4656 88.7029 63.188C88.9386 63.1248 89.7023 63.3296 90.4002 63.6433ZM49.0732 74.6125C49.7647 74.8666 50.3066 75.5141 50.532 76.3552C51.0121 78.147 49.4077 79.4421 47.4958 78.8059C45.7621 78.2292 45.2521 77.3852 45.8846 76.1411C46.6231 74.6904 47.7781 74.1363 49.0732 74.6125ZM88.4226 65.4097C88.6708 66.336 89.7203 66.5425 89.967 65.7137C90.0811 65.3293 90.0318 64.8799 89.8573 64.7145C89.3165 64.202 88.239 64.7242 88.4226 65.4097ZM47.4453 77.06C47.5351 77.8252 47.7952 78.0161 48.492 77.8294C49.0929 77.6684 49.3415 77.2895 49.198 76.7542C48.7386 75.0395 47.2397 75.3015 47.4453 77.06ZM28.4295 82.5922C28.9556 82.5841 29.5813 82.7592 29.8201 82.9819C30.1271 83.2674 30.5575 83.1352 31.2879 82.5306C32.0971 81.8599 32.5662 81.7395 33.4541 81.9738C34.5623 82.2666 34.5586 82.285 33.2845 82.7873C32.5677 83.0698 31.6951 83.7401 31.3452 84.2771C30.7473 85.1947 30.6525 85.2032 29.7637 84.4186C28.7781 83.5491 26.4328 83.787 26.1358 84.7864C25.9059 85.5596 25.1624 85.635 24.9669 84.9053C24.8409 84.4349 27.0524 82.3212 27.4136 82.5667C27.4464 82.5888 27.9033 82.6003 28.4295 82.5922ZM65.5977 75.656C66.7307 76.7189 66.8655 77.6287 66.0097 78.4356C64.8363 79.5413 63.9655 79.5769 62.8384 78.5647C61.8585 77.6841 61.8275 77.5541 62.3538 76.5194C63.0752 75.1017 64.5802 74.7013 65.5977 75.656ZM63.3488 76.7951C63.0979 77.6386 64.9217 78.5928 65.3514 77.843C65.5386 77.5163 65.4721 76.9454 65.2035 76.5741C64.6497 75.8085 63.6052 75.9327 63.3488 76.7951ZM2.96662 95.9491C3.19063 96.7529 4.33395 99.4927 5.50803 102.037C7.24238 105.796 7.88448 106.776 8.93477 107.266C11.1473 108.296 16.2909 108.333 22.1525 107.361C23.5701 107.125 26.1183 106.755 27.8142 106.539C38.2475 105.204 43.5725 103.975 57.6157 99.6608C65.3654 97.2803 72.0972 95.0927 72.5759 94.8001C74.1378 93.8445 74.4863 89.5763 73.3488 85.3312C72.8038 83.2972 72.1048 81.495 71.7954 81.326C71.4466 81.1358 68.6333 81.8712 64.3896 83.2621C47.2723 88.8715 44.2064 89.7452 38.0633 90.7638C34.649 91.3301 31.1406 91.9483 30.2668 92.138C29.393 92.3271 27.445 92.6389 25.9377 92.8301L23.1978 93.178L23.9815 95.0615C24.9353 97.3537 24.7131 99.6454 23.394 101.132C22.0812 102.61 21.2688 102.738 19.55 101.738C18.2723 100.996 18.0485 100.619 17.8209 98.8289C17.6769 97.6982 17.6948 96.3255 17.86 95.779C18.3906 94.0238 17.4856 93.5949 13.8515 93.8784C11.95 94.0268 9.29313 94.0736 7.94773 93.9817C6.60246 93.8902 4.84001 93.9661 4.03082 94.151C2.65908 94.4644 2.58735 94.5856 2.96662 95.9491ZM96.3555 71.714C94.5818 72.4884 90.566 74.0362 87.4316 75.1541C82.1945 77.0214 81.6755 77.2996 81.0273 78.5875C80.4216 79.7914 80.457 80.492 81.2803 83.5646C81.8074 85.5318 82.7005 87.9452 83.2654 88.9278L84.2921 90.7143L87.8918 89.6139C89.8716 89.0085 92.6652 87.9878 94.0997 87.3458C95.534 86.7034 97.4243 85.9861 98.2999 85.7515C100.424 85.1824 104.226 82.7083 104.547 81.6854C105.36 79.1036 104.545 70.2823 103.379 69.032C102.635 68.2346 102.502 68.2472 101.085 69.246C100.257 69.8293 98.1292 70.94 96.3555 71.714ZM102.47 85.0145C102.227 85.2802 102.31 88.2458 102.653 91.604C103.356 98.4695 103.487 100.075 103.998 108.151C104.196 111.288 104.584 115.644 104.86 117.829C105.135 120.015 105.623 125.105 105.944 129.14C106.265 133.175 106.74 138.485 107.001 140.941C107.955 149.932 108.161 152.084 108.516 156.727C109.184 165.454 109.423 169.04 109.452 170.736C109.513 174.261 110.014 182.066 110.357 184.843C110.824 188.611 110.511 190.03 108.607 192.782C106.274 196.152 99.8185 199.392 88.8408 202.701C79.1385 205.625 66.4442 207.842 62.5595 207.291C60.6963 207.027 57.5546 205.388 55.6558 203.689C53.9896 202.199 48.1833 191.231 45.1563 183.855C44.37 181.939 43.4602 180.085 43.1347 179.736C42.8094 179.386 41.825 177.257 40.9477 175.005C40.0703 172.752 38.3401 168.788 37.1031 166.195C35.8657 163.602 34.1629 160.035 33.3189 158.267C32.4745 156.499 31.0736 153.286 30.2052 151.126C29.3368 148.966 27.6706 145.171 26.5027 142.692C23.2543 135.799 20.6505 129.514 17.1297 120.069C16.0933 117.289 15.075 114.734 14.866 114.391C14.6569 114.049 14.1572 112.714 13.755 111.426C13.0916 109.302 12.927 109.11 11.9833 109.363C10.7322 109.699 10.7813 109.941 13.151 115.093C14.1309 117.223 15.6575 120.946 16.5435 123.368C18.0976 127.615 19.352 130.556 21.5382 135.08C25.2471 142.755 28.6492 150.088 29.7154 152.707C30.3984 154.385 31.5937 157.327 32.3714 159.246C33.1495 161.164 34.5951 164.475 35.584 166.602C36.573 168.73 37.816 171.442 38.3463 172.629C38.8767 173.816 40.1492 176.629 41.174 178.88C42.1988 181.131 44.5443 186.485 46.3855 190.777C48.2266 195.069 50.6314 200.39 51.7296 202.603C53.5568 206.286 53.9194 206.734 56.0115 207.895C57.2691 208.593 59.3604 209.333 60.6595 209.539C63.8444 210.043 69.6527 209.919 71.9744 209.297C73.0158 209.018 74.5648 208.842 75.4163 208.907C77.3591 209.054 101.728 201.577 103.88 200.174C109.852 196.279 111.778 194.149 112.641 190.483C112.899 189.388 112.327 180.166 111.592 173.546C111.145 169.534 110.383 158.915 109.838 149.123C109.634 145.456 109.143 139.932 108.748 136.847C108.353 133.763 107.779 128.261 107.474 124.621C106.871 117.438 106.059 109.145 105.307 102.484C105.045 100.161 104.664 95.5591 104.462 92.2568C103.983 84.4516 103.752 83.6101 102.47 85.0145ZM95.1088 88.0523C92.5218 89.0336 89.4272 90.2195 88.2317 90.6873C87.0363 91.155 85.81 91.6204 85.5071 91.7214C85.1411 91.8431 85.1667 92.6914 85.5826 94.2436C86.3301 97.0335 85.6718 99.4537 83.6469 101.359C81.7884 103.107 79.9607 103.13 77.304 101.436C75.4043 100.226 75.0571 99.7723 74.5343 97.8213L73.9366 95.5907L70.0972 96.9453C67.9851 97.69 59.4098 100.167 51.0404 102.45C35.6995 106.634 27.6044 108.305 20.4212 108.768C15.3786 109.094 14.792 109.319 15.0196 110.846C15.3165 112.836 18.0709 120.498 20.2892 125.506C21.3948 128.001 22.5665 130.732 22.8937 131.575C23.4891 133.111 24.903 136.408 27.3083 141.87C28.0153 143.476 29.2031 145.932 29.9469 147.328C30.6912 148.724 32.0654 151.836 33.0006 154.244C33.9364 156.651 35.5923 160.449 36.6812 162.683C37.7697 164.917 39.262 168.106 39.997 169.77C40.7324 171.434 42.0527 174.343 42.9308 176.235C43.8089 178.126 45.2594 181.435 46.1538 183.588C47.0481 185.741 48.7803 189.41 50.0029 191.741C51.2258 194.072 52.6175 196.853 53.0958 197.921C55.1198 202.444 59.637 205.812 63.8385 205.933C70.0351 206.11 90.822 201.583 97.0344 198.703C105.073 194.976 108.475 192.422 108.756 189.904C108.841 189.145 109.011 188.171 109.133 187.739C109.256 187.308 108.99 181.397 108.542 174.605C108.094 167.813 107.681 161.29 107.624 160.109C107.567 158.928 107.396 156.798 107.245 155.376C107.094 153.955 106.729 150.246 106.434 147.135C106.139 144.024 105.742 139.997 105.551 138.187C105.36 136.378 105.193 134.138 105.181 133.211C105.169 132.284 104.714 127.403 104.171 122.364C103.627 117.326 102.876 108.935 102.501 103.719C102.126 98.5022 101.671 92.7513 101.489 90.939C101.308 89.1267 101.13 87.1351 101.093 86.5131C101.043 85.6469 100.885 85.4856 100.42 85.8249C100.086 86.0687 97.6958 87.071 95.1088 88.0523Z"/>
</mask>
<path fill-rule="evenodd" clip-rule="evenodd" d="M100.227 1.18192C102.093 4.04246 103.013 7.14163 102.421 8.56344C102.276 8.91003 99.6242 9.97789 96.0891 11.1132C80.7178 16.0493 76.0182 18.1119 74.7817 20.4661C74.3591 21.271 73.878 24.0319 73.7131 26.6016C73.5478 29.1715 73.3499 31.726 73.2732 32.2782C73.1964 32.8305 73.1074 34.377 73.0759 35.7147C73.0443 37.0524 72.9065 39.2896 72.7701 40.6858L72.5226 43.2251L75.2211 44.5365C78.2544 46.011 81.6641 49.1915 82.1577 51.0068C82.4187 51.9683 82.7625 52.1976 83.8709 52.1486C85.6417 52.07 87.9676 53.3048 89.0443 54.8942C89.5094 55.5816 90.5551 56.2827 91.3904 56.4678C95.6344 57.4081 99.588 60.7455 101.438 64.949C101.903 66.0062 102.866 67.1635 103.739 67.7161C105.085 68.5673 105.284 68.93 105.663 71.2111C105.895 72.611 106.112 74.7281 106.145 75.9156C106.178 77.1031 106.301 78.919 106.418 79.9509C106.54 81.0161 106.321 82.2518 105.912 82.8095C105.516 83.3497 105.252 84.2904 105.326 84.8999C105.4 85.5095 105.414 86.5642 105.357 87.2441C105.189 89.2564 106.17 100.242 108.013 116.985C108.396 120.471 108.784 124.282 108.874 125.454C108.965 126.627 109.205 129.172 109.408 131.112C110.455 141.115 111.004 148.359 111.579 159.751C111.737 162.886 112.021 166.027 112.21 166.732C112.399 167.436 112.671 169.658 112.815 171.668C113.221 177.344 113.421 179.789 113.774 183.354C114.352 189.206 114.224 190.765 112.924 193.686C111.881 196.029 111.164 196.892 108.896 198.534C104.423 201.771 102.735 202.489 90.7476 206.248C79.0219 209.926 76.9273 210.372 67.4536 211.204C65.26 211.397 62.6013 211.356 61.5459 211.113C60.4901 210.871 58.6949 210.459 57.5565 210.198C53.447 209.258 52.3902 207.829 47.8071 197.012C46.3596 193.596 44.5078 189.525 43.6921 187.964C42.8769 186.405 41.7726 183.832 41.2384 182.247C40.7047 180.662 38.9596 176.561 37.3613 173.135C35.7627 169.708 32.9683 163.388 31.1513 159.089C27.7762 151.103 25.8262 146.756 22.7311 140.319C17.6726 129.799 15.8944 125.745 14.0988 120.639C13.5862 119.181 12.7351 117.125 12.208 116.07C11.6803 115.015 10.9045 113.374 10.4836 112.424C10.0622 111.473 9.02448 110.097 8.1778 109.366C7.10017 108.436 6.09648 106.816 4.83775 103.977C3.84803 101.744 2.65835 99.1417 2.19426 98.193C1.20225 96.1667 1.09541 93.9056 1.9515 93.0676C2.39133 92.637 2.38355 92.133 1.92333 91.2418C1.56148 90.5402 1.31025 88.8408 1.34019 87.2928C1.41369 83.5144 3.27511 80.0241 6.149 78.2762C8.22964 77.011 8.30444 76.8851 8.10786 75.0043C7.85471 72.5862 9.81382 69.0571 11.9912 68.0097C13.105 67.4739 13.4417 67.0096 13.423 66.0329C13.3982 64.718 14.4995 61.5507 15.4478 60.2076C16.5502 58.6468 19.6334 56.0902 21.3314 55.3292C22.6945 54.7184 23.0832 54.2904 23.0682 53.4191C23.0468 52.183 25.484 48.0169 26.9285 46.8206C27.7979 46.1005 27.7861 45.8895 26.6862 42.5628C25.3398 38.4897 25.3212 35.303 26.6238 31.8638C27.0814 30.6555 27.3702 29.3422 27.2652 28.9449C27.0519 28.1364 29.1485 25.8195 29.8899 26.0448C30.877 26.3444 30.6539 27.5318 29.1007 30.2421C28.2192 31.7795 27.3489 33.7291 27.1662 34.5747C26.7311 36.5894 27.2517 40.3947 28.2899 42.7852L29.1189 44.6942L32.8253 44.0027C35.0882 43.581 37.3551 43.4715 38.646 43.7221C39.8086 43.9475 41.5393 43.9232 42.4915 43.6681C43.4437 43.4129 44.9695 43.2694 45.8829 43.3495C47.2515 43.4691 47.5815 43.3652 47.7618 42.7566C47.9211 42.2219 48.9471 41.7652 51.4933 41.096C55.9152 39.9344 59.9458 40.4761 62.3381 42.5535C63.3817 43.4606 63.9043 43.6758 63.9239 43.2075C63.9401 42.8237 64.0777 40.9534 64.2295 39.0518C64.3813 37.1501 64.5341 34.8253 64.5685 33.8856C65.1405 18.3579 65.6682 15.6435 68.6837 12.7179C70.5188 10.938 71.5582 10.3429 74.9254 9.14579C77.1473 8.35565 81.0344 6.9622 83.5635 6.04962C94.041 2.26867 99.8328 0.577079 100.227 1.18192ZM88.914 5.40529C86.4907 6.21945 84.1183 7.04461 83.6423 7.23983C83.1662 7.43459 80.9452 8.25494 78.7069 9.06254L74.6376 10.5309L75.5681 13.48L76.4991 16.4295L78.4944 15.8102C84.7357 13.873 90.6246 11.8518 93.6687 10.6031C95.5726 9.82176 98.1266 8.86771 99.344 8.48205C101.54 7.78741 101.555 7.76826 101.262 6.14197C100.608 2.51706 99.1169 1.83085 95.0719 3.29272C94.1085 3.64076 91.3375 4.59157 88.914 5.40529ZM73.1181 14.8417L74.8275 17.3607L74.3149 14.8971C73.6799 11.8461 73.275 11.2566 72.2276 11.8553C71.4195 12.3169 71.4314 12.3558 73.1181 14.8417ZM68.5958 14.7165C68.6293 14.8414 69.697 15.5351 70.9682 16.2574C73.4175 17.6496 73.4316 17.4351 71.0955 14.3483C70.2152 13.1853 69.9954 13.1123 69.3132 13.7552C68.885 14.159 68.5622 14.5911 68.5958 14.7165ZM67.2709 17.2104C67.3002 17.4684 67.3533 17.8674 67.3884 18.0968C67.4235 18.3267 68.7409 18.9612 70.3164 19.5067C72.3108 20.1977 73.2847 20.3176 73.523 19.9019C73.7615 19.4856 73.0532 18.8619 71.191 17.8489C68.6248 16.4522 67.157 16.2133 67.2709 17.2104ZM66.7609 21.3348C66.7504 21.9356 66.601 23.3353 66.4286 24.4449C66.2562 25.5545 66.0521 28.4369 65.9746 30.8503C65.8974 33.2637 65.7025 37.0852 65.541 39.3432C65.3798 41.6007 65.2639 43.5073 65.2834 43.5799C65.303 43.6529 66.304 43.5582 67.5086 43.3703C68.7131 43.182 70.0508 43.0768 70.4818 43.1368C71.0565 43.2167 71.2889 42.8166 71.3543 41.6322C71.4033 40.7451 71.7262 35.8665 72.0713 30.7915C72.7582 20.7023 72.9029 21.2513 69.3601 20.519C66.8608 20.003 66.7827 20.0273 66.7609 21.3348ZM30.5042 46.4208C30.7531 47.3499 32.7219 49.186 33.3027 49.0304C33.6276 48.9433 34.1502 48.3683 34.4631 47.7527C35.6305 45.4576 36.4324 46.4144 35.3104 48.7641C34.4849 50.4939 30.9156 52.3478 28.8283 52.1309C27.772 52.0209 27.6331 51.8662 27.9553 51.1598C28.2207 50.5767 28.5197 50.4251 28.9316 50.6647C29.7918 51.165 31.7734 50.55 31.293 49.9314C29.009 46.9906 28.5451 46.8597 26.8965 48.6926C24.3956 51.4741 23.9331 54.1304 25.1525 58.7064L25.874 61.4133L29.3235 60.3348C31.9207 59.5224 33.3632 59.3244 35.1651 59.5318L37.5572 59.8073L38.8885 57.3513C40.215 54.9029 43.4639 52.1081 45.6708 51.5168C46.9076 51.1854 46.8146 50.7289 45.1307 48.8628C42.6384 46.1021 38.6925 44.5985 35.2177 45.0858C31.4363 45.6157 30.3694 45.918 30.5042 46.4208ZM49.3863 43.5191C47.5925 44.4314 46.0954 44.9583 45.7369 44.8034C45.1357 44.544 42.5093 44.6218 42.583 44.8969C42.604 44.9754 43.254 45.4078 44.0276 45.8574C44.8014 46.3075 46.1248 47.5451 46.9685 48.6077C48.2438 50.2139 48.8741 50.5893 50.7001 50.8333C52.9425 51.1325 54.0981 52.1096 52.0421 51.9683C51.4365 51.9271 49.5564 52.1698 47.8635 52.5089C43.6735 53.3474 41.5284 54.9527 39.7641 58.5707L38.4084 61.3513L35.8182 61.0012C32.3035 60.5262 27.3697 61.8168 25.6121 63.6712C24.9302 64.3904 24.1515 64.9113 23.8813 64.8295C23.0632 64.5813 23.0108 63.4716 23.793 62.9691C24.4076 62.5743 24.3896 61.9802 23.6824 59.341C22.6863 55.6235 22.4166 55.5706 19.0581 58.4349C16.5178 60.6015 14.6318 64.2584 15.1183 66.074C15.3058 66.7735 15.6729 67.2886 15.9336 67.2187C16.1944 67.1488 16.3422 67.3132 16.262 67.5836C16.1813 67.8542 15.3408 68.2718 14.3936 68.5116C11.4255 69.2629 9.22799 71.9756 9.43418 74.6325C9.50935 75.6013 9.81609 76.3984 10.2001 76.6218C11.3255 77.2763 11.0779 77.7037 9.2958 78.1813C4.43969 79.4824 1.84892 84.6637 3.31618 90.1396L3.94214 92.4757L6.36059 92.6828C11.8311 93.1514 17.4056 92.5345 17.1263 91.4919C17.0325 91.1419 17.245 91.1033 17.8132 91.3668C18.8557 91.8502 19.1081 92.8174 19.1436 96.4685C19.1865 100.803 21.084 102.558 22.8129 99.8612C23.2957 99.1088 23.2537 98.2282 22.624 95.8781C21.9721 93.445 21.9453 92.6585 22.4856 91.8162C23.2427 90.6355 23.9303 90.5078 31.1886 90.2006C34.0664 90.0787 38.1591 89.4524 42.4917 88.4703C49.6865 86.8402 67.0458 81.34 69.3131 79.9721C70.2459 79.4095 70.895 79.2689 71.4242 79.5143C74.1859 80.7943 75.9282 85.8504 75.35 90.9052C75.1015 93.0749 75.214 94.9806 75.6966 96.7819C76.3477 99.2118 76.5815 99.5465 78.3452 100.572C80.9299 102.076 82.3972 101.66 83.8058 99.0265C85.1314 96.5479 84.7411 94.6702 81.7843 89.2957C79.256 84.7011 78.6801 80.8454 80.0835 77.9114L80.9571 76.085L87.7551 73.6729C91.4938 72.3458 95.9445 70.6481 97.6459 69.8998C100.502 68.643 100.734 68.4396 100.678 67.2438C100.604 65.6729 97.5323 60.8004 96.012 59.8427C94.1603 58.6766 91.2502 57.6186 89.8886 57.617C88.921 57.6157 88.4839 57.3196 88.2211 56.4861C87.4093 53.9098 85.5333 53.1262 82.6461 54.1579C81.783 54.4661 81.6009 54.2954 81.1883 52.7896C80.3105 49.5871 76.6653 46.1531 72.8829 44.9658C70.8283 44.3205 67.7243 44.4373 65.2104 45.254C63.7829 45.7177 63.4501 45.6048 61.8403 44.1104C59.8241 42.2391 56.2509 41.3414 52.9729 41.8824C52.6735 41.9317 51.0592 42.6682 49.3863 43.5191ZM53.4632 44.716C54.5789 45.5423 55.2582 47.0448 54.8851 47.8626C54.3814 48.9672 52.7213 49.3211 51.5661 48.5697C50.315 47.7559 50.0882 46.8089 50.8567 45.6101C51.5934 44.461 52.6363 44.1032 53.4632 44.716ZM51.7914 46.9997C52.1084 48.1827 53.0723 48.3261 53.6722 47.2793C54.0851 46.5582 54.0422 46.2816 53.4509 45.86C52.5252 45.1998 51.4983 45.9056 51.7914 46.9997ZM65.2659 51.5823C65.6546 51.9504 65.3811 52.2272 64.5629 52.2942C64.3396 52.3124 63.9883 52.7614 63.7819 53.2923C63.4808 54.0652 63.2634 54.1751 62.6871 53.8452C61.5972 53.2208 60.416 53.7292 60.1361 54.943C59.951 55.7438 59.7181 55.9319 59.2487 55.6588C58.7799 55.3862 58.7841 55.0056 59.2655 54.2105C60.0083 52.9839 64.6153 50.9664 65.2659 51.5823ZM74.9714 52.8497C77.1226 54.1009 76.9735 56.6635 74.7146 57.2688C74.0739 57.4405 73.2423 57.4022 72.8668 57.1838C71.7352 56.5256 71.439 54.411 72.3292 53.3435C73.3686 52.0963 73.6014 52.0528 74.9714 52.8497ZM55.4118 58.7833C56.5405 59.9933 56.4115 61.0961 55.0529 61.8551C54.3106 62.2696 53.6322 62.2812 52.8813 61.8932C51.5204 61.1896 51.3265 60.5271 52.1206 59.2891C53.0073 57.9059 54.3949 57.6927 55.4118 58.7833ZM73.2142 55.254C73.4961 56.3061 73.7757 56.5536 74.473 56.3668C75.1133 56.1952 75.2886 55.8258 75.0872 55.0745C74.767 53.8794 74.3125 53.5096 73.449 53.7409C73.0843 53.8387 72.9927 54.4273 73.2142 55.254ZM53.0251 59.7181C52.7884 60.5143 54.2606 61.4559 54.6579 60.7626C55.0251 60.1219 54.2729 58.8792 53.6235 59.0532C53.3843 59.1173 53.1148 59.4167 53.0251 59.7181ZM22.1953 69.8815C22.7722 69.9536 23.419 70.2559 23.6326 70.553C24.3186 71.5071 23.8508 73.2763 22.7504 73.8907C20.7614 75.0013 18.6997 72.9425 19.8285 70.973C20.5236 69.76 20.6732 69.691 22.1953 69.8815ZM20.5956 71.2909C20.358 72.0907 21.4018 73.4874 22.0977 73.3009C22.7936 73.1144 22.9992 71.383 22.3935 70.8092C22.1727 70.6001 21.7132 70.5037 21.3726 70.595C21.0321 70.6862 20.6823 70.9994 20.5956 71.2909ZM37.0359 68.6017C37.8058 68.7884 38.7745 69.3046 39.1885 69.7491C39.7397 70.34 40.0394 70.3868 40.3045 69.9242C40.8347 68.9991 43.3945 68.4432 44.2655 69.0644C45.2262 69.7496 44.8689 70.4254 43.8062 69.9329C42.5113 69.3324 41.0488 70.2589 40.7538 71.8663C40.5489 72.9837 40.355 73.2063 39.9296 72.8123C39.6236 72.5288 39.2555 71.8937 39.1109 71.4007C38.4796 69.2454 33.3247 68.9726 31.5254 70.999C30.8694 71.7379 30.3692 71.9826 29.9784 71.7553C29.6609 71.5706 29.1274 71.6193 28.7927 71.8632C28.3885 72.1581 28.199 72.0745 28.2288 71.6141C28.2538 71.2197 28.8656 70.7624 29.6489 70.5525C30.4057 70.3497 31.1361 69.9906 31.2718 69.7551C31.6954 69.02 35.5672 68.245 37.0359 68.6017ZM67.74 64.6765C68.7784 64.7627 70.1892 65.1363 70.8749 65.507C71.8408 66.0288 72.7033 66.0249 74.7036 65.4889C76.9603 64.8843 77.496 64.9191 78.9491 65.7643C81.3348 67.1522 81.2804 67.9871 78.8818 66.793C77.1588 65.9351 76.606 65.8884 75.0738 66.4725C74.0881 66.8483 73.0048 67.3831 72.6668 67.6613C72.2386 68.0133 71.7575 67.8508 71.0826 67.1262C70.0492 66.0173 67.596 65.46 65.83 65.9332C64.3163 66.3388 62.9373 68.387 63.0179 70.1094C63.082 71.4761 63.0232 71.5363 62.0906 71.0544C61.173 70.58 61.052 70.6144 60.5494 71.4915C60.2496 72.0146 59.8335 72.3436 59.6246 72.2222C58.9954 71.8562 59.7255 70.238 60.7144 69.8077C61.2232 69.5863 61.7423 68.9585 61.8687 68.4123C62.0804 67.4942 64.6697 64.7664 65.492 64.5949C65.6899 64.5535 66.7011 64.5904 67.74 64.6765ZM13.8808 81.172C14.9273 81.2812 15.495 81.8783 15.877 83.2715C16.2788 84.7391 15.53 86.1781 14.175 86.5412C12.9167 86.8784 10.7925 85.778 10.4848 84.6298C10.015 82.8764 11.8929 80.9641 13.8808 81.172ZM11.8291 84.2696C12.1462 85.453 14.0072 85.8848 14.6785 84.9306C15.3278 84.0074 15.0812 83.1696 13.9695 82.5229C12.8447 81.8687 11.4835 82.9798 11.8291 84.2696ZM90.4002 63.6433C91.5204 64.146 91.6438 64.3682 91.4512 65.5369C91.0625 67.8969 87.6865 68.0397 87.0655 65.7221C86.8144 64.7849 87.6669 63.4656 88.7029 63.188C88.9386 63.1248 89.7023 63.3296 90.4002 63.6433ZM49.0732 74.6125C49.7647 74.8666 50.3066 75.5141 50.532 76.3552C51.0121 78.147 49.4077 79.4421 47.4958 78.8059C45.7621 78.2292 45.2521 77.3852 45.8846 76.1411C46.6231 74.6904 47.7781 74.1363 49.0732 74.6125ZM88.4226 65.4097C88.6708 66.336 89.7203 66.5425 89.967 65.7137C90.0811 65.3293 90.0318 64.8799 89.8573 64.7145C89.3165 64.202 88.239 64.7242 88.4226 65.4097ZM47.4453 77.06C47.5351 77.8252 47.7952 78.0161 48.492 77.8294C49.0929 77.6684 49.3415 77.2895 49.198 76.7542C48.7386 75.0395 47.2397 75.3015 47.4453 77.06ZM28.4295 82.5922C28.9556 82.5841 29.5813 82.7592 29.8201 82.9819C30.1271 83.2674 30.5575 83.1352 31.2879 82.5306C32.0971 81.8599 32.5662 81.7395 33.4541 81.9738C34.5623 82.2666 34.5586 82.285 33.2845 82.7873C32.5677 83.0698 31.6951 83.7401 31.3452 84.2771C30.7473 85.1947 30.6525 85.2032 29.7637 84.4186C28.7781 83.5491 26.4328 83.787 26.1358 84.7864C25.9059 85.5596 25.1624 85.635 24.9669 84.9053C24.8409 84.4349 27.0524 82.3212 27.4136 82.5667C27.4464 82.5888 27.9033 82.6003 28.4295 82.5922ZM65.5977 75.656C66.7307 76.7189 66.8655 77.6287 66.0097 78.4356C64.8363 79.5413 63.9655 79.5769 62.8384 78.5647C61.8585 77.6841 61.8275 77.5541 62.3538 76.5194C63.0752 75.1017 64.5802 74.7013 65.5977 75.656ZM63.3488 76.7951C63.0979 77.6386 64.9217 78.5928 65.3514 77.843C65.5386 77.5163 65.4721 76.9454 65.2035 76.5741C64.6497 75.8085 63.6052 75.9327 63.3488 76.7951ZM2.96662 95.9491C3.19063 96.7529 4.33395 99.4927 5.50803 102.037C7.24238 105.796 7.88448 106.776 8.93477 107.266C11.1473 108.296 16.2909 108.333 22.1525 107.361C23.5701 107.125 26.1183 106.755 27.8142 106.539C38.2475 105.204 43.5725 103.975 57.6157 99.6608C65.3654 97.2803 72.0972 95.0927 72.5759 94.8001C74.1378 93.8445 74.4863 89.5763 73.3488 85.3312C72.8038 83.2972 72.1048 81.495 71.7954 81.326C71.4466 81.1358 68.6333 81.8712 64.3896 83.2621C47.2723 88.8715 44.2064 89.7452 38.0633 90.7638C34.649 91.3301 31.1406 91.9483 30.2668 92.138C29.393 92.3271 27.445 92.6389 25.9377 92.8301L23.1978 93.178L23.9815 95.0615C24.9353 97.3537 24.7131 99.6454 23.394 101.132C22.0812 102.61 21.2688 102.738 19.55 101.738C18.2723 100.996 18.0485 100.619 17.8209 98.8289C17.6769 97.6982 17.6948 96.3255 17.86 95.779C18.3906 94.0238 17.4856 93.5949 13.8515 93.8784C11.95 94.0268 9.29313 94.0736 7.94773 93.9817C6.60246 93.8902 4.84001 93.9661 4.03082 94.151C2.65908 94.4644 2.58735 94.5856 2.96662 95.9491ZM96.3555 71.714C94.5818 72.4884 90.566 74.0362 87.4316 75.1541C82.1945 77.0214 81.6755 77.2996 81.0273 78.5875C80.4216 79.7914 80.457 80.492 81.2803 83.5646C81.8074 85.5318 82.7005 87.9452 83.2654 88.9278L84.2921 90.7143L87.8918 89.6139C89.8716 89.0085 92.6652 87.9878 94.0997 87.3458C95.534 86.7034 97.4243 85.9861 98.2999 85.7515C100.424 85.1824 104.226 82.7083 104.547 81.6854C105.36 79.1036 104.545 70.2823 103.379 69.032C102.635 68.2346 102.502 68.2472 101.085 69.246C100.257 69.8293 98.1292 70.94 96.3555 71.714ZM102.47 85.0145C102.227 85.2802 102.31 88.2458 102.653 91.604C103.356 98.4695 103.487 100.075 103.998 108.151C104.196 111.288 104.584 115.644 104.86 117.829C105.135 120.015 105.623 125.105 105.944 129.14C106.265 133.175 106.74 138.485 107.001 140.941C107.955 149.932 108.161 152.084 108.516 156.727C109.184 165.454 109.423 169.04 109.452 170.736C109.513 174.261 110.014 182.066 110.357 184.843C110.824 188.611 110.511 190.03 108.607 192.782C106.274 196.152 99.8185 199.392 88.8408 202.701C79.1385 205.625 66.4442 207.842 62.5595 207.291C60.6963 207.027 57.5546 205.388 55.6558 203.689C53.9896 202.199 48.1833 191.231 45.1563 183.855C44.37 181.939 43.4602 180.085 43.1347 179.736C42.8094 179.386 41.825 177.257 40.9477 175.005C40.0703 172.752 38.3401 168.788 37.1031 166.195C35.8657 163.602 34.1629 160.035 33.3189 158.267C32.4745 156.499 31.0736 153.286 30.2052 151.126C29.3368 148.966 27.6706 145.171 26.5027 142.692C23.2543 135.799 20.6505 129.514 17.1297 120.069C16.0933 117.289 15.075 114.734 14.866 114.391C14.6569 114.049 14.1572 112.714 13.755 111.426C13.0916 109.302 12.927 109.11 11.9833 109.363C10.7322 109.699 10.7813 109.941 13.151 115.093C14.1309 117.223 15.6575 120.946 16.5435 123.368C18.0976 127.615 19.352 130.556 21.5382 135.08C25.2471 142.755 28.6492 150.088 29.7154 152.707C30.3984 154.385 31.5937 157.327 32.3714 159.246C33.1495 161.164 34.5951 164.475 35.584 166.602C36.573 168.73 37.816 171.442 38.3463 172.629C38.8767 173.816 40.1492 176.629 41.174 178.88C42.1988 181.131 44.5443 186.485 46.3855 190.777C48.2266 195.069 50.6314 200.39 51.7296 202.603C53.5568 206.286 53.9194 206.734 56.0115 207.895C57.2691 208.593 59.3604 209.333 60.6595 209.539C63.8444 210.043 69.6527 209.919 71.9744 209.297C73.0158 209.018 74.5648 208.842 75.4163 208.907C77.3591 209.054 101.728 201.577 103.88 200.174C109.852 196.279 111.778 194.149 112.641 190.483C112.899 189.388 112.327 180.166 111.592 173.546C111.145 169.534 110.383 158.915 109.838 149.123C109.634 145.456 109.143 139.932 108.748 136.847C108.353 133.763 107.779 128.261 107.474 124.621C106.871 117.438 106.059 109.145 105.307 102.484C105.045 100.161 104.664 95.5591 104.462 92.2568C103.983 84.4516 103.752 83.6101 102.47 85.0145ZM95.1088 88.0523C92.5218 89.0336 89.4272 90.2195 88.2317 90.6873C87.0363 91.155 85.81 91.6204 85.5071 91.7214C85.1411 91.8431 85.1667 92.6914 85.5826 94.2436C86.3301 97.0335 85.6718 99.4537 83.6469 101.359C81.7884 103.107 79.9607 103.13 77.304 101.436C75.4043 100.226 75.0571 99.7723 74.5343 97.8213L73.9366 95.5907L70.0972 96.9453C67.9851 97.69 59.4098 100.167 51.0404 102.45C35.6995 106.634 27.6044 108.305 20.4212 108.768C15.3786 109.094 14.792 109.319 15.0196 110.846C15.3165 112.836 18.0709 120.498 20.2892 125.506C21.3948 128.001 22.5665 130.732 22.8937 131.575C23.4891 133.111 24.903 136.408 27.3083 141.87C28.0153 143.476 29.2031 145.932 29.9469 147.328C30.6912 148.724 32.0654 151.836 33.0006 154.244C33.9364 156.651 35.5923 160.449 36.6812 162.683C37.7697 164.917 39.262 168.106 39.997 169.77C40.7324 171.434 42.0527 174.343 42.9308 176.235C43.8089 178.126 45.2594 181.435 46.1538 183.588C47.0481 185.741 48.7803 189.41 50.0029 191.741C51.2258 194.072 52.6175 196.853 53.0958 197.921C55.1198 202.444 59.637 205.812 63.8385 205.933C70.0351 206.11 90.822 201.583 97.0344 198.703C105.073 194.976 108.475 192.422 108.756 189.904C108.841 189.145 109.011 188.171 109.133 187.739C109.256 187.308 108.99 181.397 108.542 174.605C108.094 167.813 107.681 161.29 107.624 160.109C107.567 158.928 107.396 156.798 107.245 155.376C107.094 153.955 106.729 150.246 106.434 147.135C106.139 144.024 105.742 139.997 105.551 138.187C105.36 136.378 105.193 134.138 105.181 133.211C105.169 132.284 104.714 127.403 104.171 122.364C103.627 117.326 102.876 108.935 102.501 103.719C102.126 98.5022 101.671 92.7513 101.489 90.939C101.308 89.1267 101.13 87.1351 101.093 86.5131C101.043 85.6469 100.885 85.4856 100.42 85.8249C100.086 86.0687 97.6958 87.071 95.1088 88.0523Z" fill="black"/>
<path fill-rule="evenodd" clip-rule="evenodd" d="M100.227 1.18192C102.093 4.04246 103.013 7.14163 102.421 8.56344C102.276 8.91003 99.6242 9.97789 96.0891 11.1132C80.7178 16.0493 76.0182 18.1119 74.7817 20.4661C74.3591 21.271 73.878 24.0319 73.7131 26.6016C73.5478 29.1715 73.3499 31.726 73.2732 32.2782C73.1964 32.8305 73.1074 34.377 73.0759 35.7147C73.0443 37.0524 72.9065 39.2896 72.7701 40.6858L72.5226 43.2251L75.2211 44.5365C78.2544 46.011 81.6641 49.1915 82.1577 51.0068C82.4187 51.9683 82.7625 52.1976 83.8709 52.1486C85.6417 52.07 87.9676 53.3048 89.0443 54.8942C89.5094 55.5816 90.5551 56.2827 91.3904 56.4678C95.6344 57.4081 99.588 60.7455 101.438 64.949C101.903 66.0062 102.866 67.1635 103.739 67.7161C105.085 68.5673 105.284 68.93 105.663 71.2111C105.895 72.611 106.112 74.7281 106.145 75.9156C106.178 77.1031 106.301 78.919 106.418 79.9509C106.54 81.0161 106.321 82.2518 105.912 82.8095C105.516 83.3497 105.252 84.2904 105.326 84.8999C105.4 85.5095 105.414 86.5642 105.357 87.2441C105.189 89.2564 106.17 100.242 108.013 116.985C108.396 120.471 108.784 124.282 108.874 125.454C108.965 126.627 109.205 129.172 109.408 131.112C110.455 141.115 111.004 148.359 111.579 159.751C111.737 162.886 112.021 166.027 112.21 166.732C112.399 167.436 112.671 169.658 112.815 171.668C113.221 177.344 113.421 179.789 113.774 183.354C114.352 189.206 114.224 190.765 112.924 193.686C111.881 196.029 111.164 196.892 108.896 198.534C104.423 201.771 102.735 202.489 90.7476 206.248C79.0219 209.926 76.9273 210.372 67.4536 211.204C65.26 211.397 62.6013 211.356 61.5459 211.113C60.4901 210.871 58.6949 210.459 57.5565 210.198C53.447 209.258 52.3902 207.829 47.8071 197.012C46.3596 193.596 44.5078 189.525 43.6921 187.964C42.8769 186.405 41.7726 183.832 41.2384 182.247C40.7047 180.662 38.9596 176.561 37.3613 173.135C35.7627 169.708 32.9683 163.388 31.1513 159.089C27.7762 151.103 25.8262 146.756 22.7311 140.319C17.6726 129.799 15.8944 125.745 14.0988 120.639C13.5862 119.181 12.7351 117.125 12.208 116.07C11.6803 115.015 10.9045 113.374 10.4836 112.424C10.0622 111.473 9.02448 110.097 8.1778 109.366C7.10017 108.436 6.09648 106.816 4.83775 103.977C3.84803 101.744 2.65835 99.1417 2.19426 98.193C1.20225 96.1667 1.09541 93.9056 1.9515 93.0676C2.39133 92.637 2.38355 92.133 1.92333 91.2418C1.56148 90.5402 1.31025 88.8408 1.34019 87.2928C1.41369 83.5144 3.27511 80.0241 6.149 78.2762C8.22964 77.011 8.30444 76.8851 8.10786 75.0043C7.85471 72.5862 9.81382 69.0571 11.9912 68.0097C13.105 67.4739 13.4417 67.0096 13.423 66.0329C13.3982 64.718 14.4995 61.5507 15.4478 60.2076C16.5502 58.6468 19.6334 56.0902 21.3314 55.3292C22.6945 54.7184 23.0832 54.2904 23.0682 53.4191C23.0468 52.183 25.484 48.0169 26.9285 46.8206C27.7979 46.1005 27.7861 45.8895 26.6862 42.5628C25.3398 38.4897 25.3212 35.303 26.6238 31.8638C27.0814 30.6555 27.3702 29.3422 27.2652 28.9449C27.0519 28.1364 29.1485 25.8195 29.8899 26.0448C30.877 26.3444 30.6539 27.5318 29.1007 30.2421C28.2192 31.7795 27.3489 33.7291 27.1662 34.5747C26.7311 36.5894 27.2517 40.3947 28.2899 42.7852L29.1189 44.6942L32.8253 44.0027C35.0882 43.581 37.3551 43.4715 38.646 43.7221C39.8086 43.9475 41.5393 43.9232 42.4915 43.6681C43.4437 43.4129 44.9695 43.2694 45.8829 43.3495C47.2515 43.4691 47.5815 43.3652 47.7618 42.7566C47.9211 42.2219 48.9471 41.7652 51.4933 41.096C55.9152 39.9344 59.9458 40.4761 62.3381 42.5535C63.3817 43.4606 63.9043 43.6758 63.9239 43.2075C63.9401 42.8237 64.0777 40.9534 64.2295 39.0518C64.3813 37.1501 64.5341 34.8253 64.5685 33.8856C65.1405 18.3579 65.6682 15.6435 68.6837 12.7179C70.5188 10.938 71.5582 10.3429 74.9254 9.14579C77.1473 8.35565 81.0344 6.9622 83.5635 6.04962C94.041 2.26867 99.8328 0.577079 100.227 1.18192ZM88.914 5.40529C86.4907 6.21945 84.1183 7.04461 83.6423 7.23983C83.1662 7.43459 80.9452 8.25494 78.7069 9.06254L74.6376 10.5309L75.5681 13.48L76.4991 16.4295L78.4944 15.8102C84.7357 13.873 90.6246 11.8518 93.6687 10.6031C95.5726 9.82176 98.1266 8.86771 99.344 8.48205C101.54 7.78741 101.555 7.76826 101.262 6.14197C100.608 2.51706 99.1169 1.83085 95.0719 3.29272C94.1085 3.64076 91.3375 4.59157 88.914 5.40529ZM73.1181 14.8417L74.8275 17.3607L74.3149 14.8971C73.6799 11.8461 73.275 11.2566 72.2276 11.8553C71.4195 12.3169 71.4314 12.3558 73.1181 14.8417ZM68.5958 14.7165C68.6293 14.8414 69.697 15.5351 70.9682 16.2574C73.4175 17.6496 73.4316 17.4351 71.0955 14.3483C70.2152 13.1853 69.9954 13.1123 69.3132 13.7552C68.885 14.159 68.5622 14.5911 68.5958 14.7165ZM67.2709 17.2104C67.3002 17.4684 67.3533 17.8674 67.3884 18.0968C67.4235 18.3267 68.7409 18.9612 70.3164 19.5067C72.3108 20.1977 73.2847 20.3176 73.523 19.9019C73.7615 19.4856 73.0532 18.8619 71.191 17.8489C68.6248 16.4522 67.157 16.2133 67.2709 17.2104ZM66.7609 21.3348C66.7504 21.9356 66.601 23.3353 66.4286 24.4449C66.2562 25.5545 66.0521 28.4369 65.9746 30.8503C65.8974 33.2637 65.7025 37.0852 65.541 39.3432C65.3798 41.6007 65.2639 43.5073 65.2834 43.5799C65.303 43.6529 66.304 43.5582 67.5086 43.3703C68.7131 43.182 70.0508 43.0768 70.4818 43.1368C71.0565 43.2167 71.2889 42.8166 71.3543 41.6322C71.4033 40.7451 71.7262 35.8665 72.0713 30.7915C72.7582 20.7023 72.9029 21.2513 69.3601 20.519C66.8608 20.003 66.7827 20.0273 66.7609 21.3348ZM30.5042 46.4208C30.7531 47.3499 32.7219 49.186 33.3027 49.0304C33.6276 48.9433 34.1502 48.3683 34.4631 47.7527C35.6305 45.4576 36.4324 46.4144 35.3104 48.7641C34.4849 50.4939 30.9156 52.3478 28.8283 52.1309C27.772 52.0209 27.6331 51.8662 27.9553 51.1598C28.2207 50.5767 28.5197 50.4251 28.9316 50.6647C29.7918 51.165 31.7734 50.55 31.293 49.9314C29.009 46.9906 28.5451 46.8597 26.8965 48.6926C24.3956 51.4741 23.9331 54.1304 25.1525 58.7064L25.874 61.4133L29.3235 60.3348C31.9207 59.5224 33.3632 59.3244 35.1651 59.5318L37.5572 59.8073L38.8885 57.3513C40.215 54.9029 43.4639 52.1081 45.6708 51.5168C46.9076 51.1854 46.8146 50.7289 45.1307 48.8628C42.6384 46.1021 38.6925 44.5985 35.2177 45.0858C31.4363 45.6157 30.3694 45.918 30.5042 46.4208ZM49.3863 43.5191C47.5925 44.4314 46.0954 44.9583 45.7369 44.8034C45.1357 44.544 42.5093 44.6218 42.583 44.8969C42.604 44.9754 43.254 45.4078 44.0276 45.8574C44.8014 46.3075 46.1248 47.5451 46.9685 48.6077C48.2438 50.2139 48.8741 50.5893 50.7001 50.8333C52.9425 51.1325 54.0981 52.1096 52.0421 51.9683C51.4365 51.9271 49.5564 52.1698 47.8635 52.5089C43.6735 53.3474 41.5284 54.9527 39.7641 58.5707L38.4084 61.3513L35.8182 61.0012C32.3035 60.5262 27.3697 61.8168 25.6121 63.6712C24.9302 64.3904 24.1515 64.9113 23.8813 64.8295C23.0632 64.5813 23.0108 63.4716 23.793 62.9691C24.4076 62.5743 24.3896 61.9802 23.6824 59.341C22.6863 55.6235 22.4166 55.5706 19.0581 58.4349C16.5178 60.6015 14.6318 64.2584 15.1183 66.074C15.3058 66.7735 15.6729 67.2886 15.9336 67.2187C16.1944 67.1488 16.3422 67.3132 16.262 67.5836C16.1813 67.8542 15.3408 68.2718 14.3936 68.5116C11.4255 69.2629 9.22799 71.9756 9.43418 74.6325C9.50935 75.6013 9.81609 76.3984 10.2001 76.6218C11.3255 77.2763 11.0779 77.7037 9.2958 78.1813C4.43969 79.4824 1.84892 84.6637 3.31618 90.1396L3.94214 92.4757L6.36059 92.6828C11.8311 93.1514 17.4056 92.5345 17.1263 91.4919C17.0325 91.1419 17.245 91.1033 17.8132 91.3668C18.8557 91.8502 19.1081 92.8174 19.1436 96.4685C19.1865 100.803 21.084 102.558 22.8129 99.8612C23.2957 99.1088 23.2537 98.2282 22.624 95.8781C21.9721 93.445 21.9453 92.6585 22.4856 91.8162C23.2427 90.6355 23.9303 90.5078 31.1886 90.2006C34.0664 90.0787 38.1591 89.4524 42.4917 88.4703C49.6865 86.8402 67.0458 81.34 69.3131 79.9721C70.2459 79.4095 70.895 79.2689 71.4242 79.5143C74.1859 80.7943 75.9282 85.8504 75.35 90.9052C75.1015 93.0749 75.214 94.9806 75.6966 96.7819C76.3477 99.2118 76.5815 99.5465 78.3452 100.572C80.9299 102.076 82.3972 101.66 83.8058 99.0265C85.1314 96.5479 84.7411 94.6702 81.7843 89.2957C79.256 84.7011 78.6801 80.8454 80.0835 77.9114L80.9571 76.085L87.7551 73.6729C91.4938 72.3458 95.9445 70.6481 97.6459 69.8998C100.502 68.643 100.734 68.4396 100.678 67.2438C100.604 65.6729 97.5323 60.8004 96.012 59.8427C94.1603 58.6766 91.2502 57.6186 89.8886 57.617C88.921 57.6157 88.4839 57.3196 88.2211 56.4861C87.4093 53.9098 85.5333 53.1262 82.6461 54.1579C81.783 54.4661 81.6009 54.2954 81.1883 52.7896C80.3105 49.5871 76.6653 46.1531 72.8829 44.9658C70.8283 44.3205 67.7243 44.4373 65.2104 45.254C63.7829 45.7177 63.4501 45.6048 61.8403 44.1104C59.8241 42.2391 56.2509 41.3414 52.9729 41.8824C52.6735 41.9317 51.0592 42.6682 49.3863 43.5191ZM53.4632 44.716C54.5789 45.5423 55.2582 47.0448 54.8851 47.8626C54.3814 48.9672 52.7213 49.3211 51.5661 48.5697C50.315 47.7559 50.0882 46.8089 50.8567 45.6101C51.5934 44.461 52.6363 44.1032 53.4632 44.716ZM51.7914 46.9997C52.1084 48.1827 53.0723 48.3261 53.6722 47.2793C54.0851 46.5582 54.0422 46.2816 53.4509 45.86C52.5252 45.1998 51.4983 45.9056 51.7914 46.9997ZM65.2659 51.5823C65.6546 51.9504 65.3811 52.2272 64.5629 52.2942C64.3396 52.3124 63.9883 52.7614 63.7819 53.2923C63.4808 54.0652 63.2634 54.1751 62.6871 53.8452C61.5972 53.2208 60.416 53.7292 60.1361 54.943C59.951 55.7438 59.7181 55.9319 59.2487 55.6588C58.7799 55.3862 58.7841 55.0056 59.2655 54.2105C60.0083 52.9839 64.6153 50.9664 65.2659 51.5823ZM74.9714 52.8497C77.1226 54.1009 76.9735 56.6635 74.7146 57.2688C74.0739 57.4405 73.2423 57.4022 72.8668 57.1838C71.7352 56.5256 71.439 54.411 72.3292 53.3435C73.3686 52.0963 73.6014 52.0528 74.9714 52.8497ZM55.4118 58.7833C56.5405 59.9933 56.4115 61.0961 55.0529 61.8551C54.3106 62.2696 53.6322 62.2812 52.8813 61.8932C51.5204 61.1896 51.3265 60.5271 52.1206 59.2891C53.0073 57.9059 54.3949 57.6927 55.4118 58.7833ZM73.2142 55.254C73.4961 56.3061 73.7757 56.5536 74.473 56.3668C75.1133 56.1952 75.2886 55.8258 75.0872 55.0745C74.767 53.8794 74.3125 53.5096 73.449 53.7409C73.0843 53.8387 72.9927 54.4273 73.2142 55.254ZM53.0251 59.7181C52.7884 60.5143 54.2606 61.4559 54.6579 60.7626C55.0251 60.1219 54.2729 58.8792 53.6235 59.0532C53.3843 59.1173 53.1148 59.4167 53.0251 59.7181ZM22.1953 69.8815C22.7722 69.9536 23.419 70.2559 23.6326 70.553C24.3186 71.5071 23.8508 73.2763 22.7504 73.8907C20.7614 75.0013 18.6997 72.9425 19.8285 70.973C20.5236 69.76 20.6732 69.691 22.1953 69.8815ZM20.5956 71.2909C20.358 72.0907 21.4018 73.4874 22.0977 73.3009C22.7936 73.1144 22.9992 71.383 22.3935 70.8092C22.1727 70.6001 21.7132 70.5037 21.3726 70.595C21.0321 70.6862 20.6823 70.9994 20.5956 71.2909ZM37.0359 68.6017C37.8058 68.7884 38.7745 69.3046 39.1885 69.7491C39.7397 70.34 40.0394 70.3868 40.3045 69.9242C40.8347 68.9991 43.3945 68.4432 44.2655 69.0644C45.2262 69.7496 44.8689 70.4254 43.8062 69.9329C42.5113 69.3324 41.0488 70.2589 40.7538 71.8663C40.5489 72.9837 40.355 73.2063 39.9296 72.8123C39.6236 72.5288 39.2555 71.8937 39.1109 71.4007C38.4796 69.2454 33.3247 68.9726 31.5254 70.999C30.8694 71.7379 30.3692 71.9826 29.9784 71.7553C29.6609 71.5706 29.1274 71.6193 28.7927 71.8632C28.3885 72.1581 28.199 72.0745 28.2288 71.6141C28.2538 71.2197 28.8656 70.7624 29.6489 70.5525C30.4057 70.3497 31.1361 69.9906 31.2718 69.7551C31.6954 69.02 35.5672 68.245 37.0359 68.6017ZM67.74 64.6765C68.7784 64.7627 70.1892 65.1363 70.8749 65.507C71.8408 66.0288 72.7033 66.0249 74.7036 65.4889C76.9603 64.8843 77.496 64.9191 78.9491 65.7643C81.3348 67.1522 81.2804 67.9871 78.8818 66.793C77.1588 65.9351 76.606 65.8884 75.0738 66.4725C74.0881 66.8483 73.0048 67.3831 72.6668 67.6613C72.2386 68.0133 71.7575 67.8508 71.0826 67.1262C70.0492 66.0173 67.596 65.46 65.83 65.9332C64.3163 66.3388 62.9373 68.387 63.0179 70.1094C63.082 71.4761 63.0232 71.5363 62.0906 71.0544C61.173 70.58 61.052 70.6144 60.5494 71.4915C60.2496 72.0146 59.8335 72.3436 59.6246 72.2222C58.9954 71.8562 59.7255 70.238 60.7144 69.8077C61.2232 69.5863 61.7423 68.9585 61.8687 68.4123C62.0804 67.4942 64.6697 64.7664 65.492 64.5949C65.6899 64.5535 66.7011 64.5904 67.74 64.6765ZM13.8808 81.172C14.9273 81.2812 15.495 81.8783 15.877 83.2715C16.2788 84.7391 15.53 86.1781 14.175 86.5412C12.9167 86.8784 10.7925 85.778 10.4848 84.6298C10.015 82.8764 11.8929 80.9641 13.8808 81.172ZM11.8291 84.2696C12.1462 85.453 14.0072 85.8848 14.6785 84.9306C15.3278 84.0074 15.0812 83.1696 13.9695 82.5229C12.8447 81.8687 11.4835 82.9798 11.8291 84.2696ZM90.4002 63.6433C91.5204 64.146 91.6438 64.3682 91.4512 65.5369C91.0625 67.8969 87.6865 68.0397 87.0655 65.7221C86.8144 64.7849 87.6669 63.4656 88.7029 63.188C88.9386 63.1248 89.7023 63.3296 90.4002 63.6433ZM49.0732 74.6125C49.7647 74.8666 50.3066 75.5141 50.532 76.3552C51.0121 78.147 49.4077 79.4421 47.4958 78.8059C45.7621 78.2292 45.2521 77.3852 45.8846 76.1411C46.6231 74.6904 47.7781 74.1363 49.0732 74.6125ZM88.4226 65.4097C88.6708 66.336 89.7203 66.5425 89.967 65.7137C90.0811 65.3293 90.0318 64.8799 89.8573 64.7145C89.3165 64.202 88.239 64.7242 88.4226 65.4097ZM47.4453 77.06C47.5351 77.8252 47.7952 78.0161 48.492 77.8294C49.0929 77.6684 49.3415 77.2895 49.198 76.7542C48.7386 75.0395 47.2397 75.3015 47.4453 77.06ZM28.4295 82.5922C28.9556 82.5841 29.5813 82.7592 29.8201 82.9819C30.1271 83.2674 30.5575 83.1352 31.2879 82.5306C32.0971 81.8599 32.5662 81.7395 33.4541 81.9738C34.5623 82.2666 34.5586 82.285 33.2845 82.7873C32.5677 83.0698 31.6951 83.7401 31.3452 84.2771C30.7473 85.1947 30.6525 85.2032 29.7637 84.4186C28.7781 83.5491 26.4328 83.787 26.1358 84.7864C25.9059 85.5596 25.1624 85.635 24.9669 84.9053C24.8409 84.4349 27.0524 82.3212 27.4136 82.5667C27.4464 82.5888 27.9033 82.6003 28.4295 82.5922ZM65.5977 75.656C66.7307 76.7189 66.8655 77.6287 66.0097 78.4356C64.8363 79.5413 63.9655 79.5769 62.8384 78.5647C61.8585 77.6841 61.8275 77.5541 62.3538 76.5194C63.0752 75.1017 64.5802 74.7013 65.5977 75.656ZM63.3488 76.7951C63.0979 77.6386 64.9217 78.5928 65.3514 77.843C65.5386 77.5163 65.4721 76.9454 65.2035 76.5741C64.6497 75.8085 63.6052 75.9327 63.3488 76.7951ZM2.96662 95.9491C3.19063 96.7529 4.33395 99.4927 5.50803 102.037C7.24238 105.796 7.88448 106.776 8.93477 107.266C11.1473 108.296 16.2909 108.333 22.1525 107.361C23.5701 107.125 26.1183 106.755 27.8142 106.539C38.2475 105.204 43.5725 103.975 57.6157 99.6608C65.3654 97.2803 72.0972 95.0927 72.5759 94.8001C74.1378 93.8445 74.4863 89.5763 73.3488 85.3312C72.8038 83.2972 72.1048 81.495 71.7954 81.326C71.4466 81.1358 68.6333 81.8712 64.3896 83.2621C47.2723 88.8715 44.2064 89.7452 38.0633 90.7638C34.649 91.3301 31.1406 91.9483 30.2668 92.138C29.393 92.3271 27.445 92.6389 25.9377 92.8301L23.1978 93.178L23.9815 95.0615C24.9353 97.3537 24.7131 99.6454 23.394 101.132C22.0812 102.61 21.2688 102.738 19.55 101.738C18.2723 100.996 18.0485 100.619 17.8209 98.8289C17.6769 97.6982 17.6948 96.3255 17.86 95.779C18.3906 94.0238 17.4856 93.5949 13.8515 93.8784C11.95 94.0268 9.29313 94.0736 7.94773 93.9817C6.60246 93.8902 4.84001 93.9661 4.03082 94.151C2.65908 94.4644 2.58735 94.5856 2.96662 95.9491ZM96.3555 71.714C94.5818 72.4884 90.566 74.0362 87.4316 75.1541C82.1945 77.0214 81.6755 77.2996 81.0273 78.5875C80.4216 79.7914 80.457 80.492 81.2803 83.5646C81.8074 85.5318 82.7005 87.9452 83.2654 88.9278L84.2921 90.7143L87.8918 89.6139C89.8716 89.0085 92.6652 87.9878 94.0997 87.3458C95.534 86.7034 97.4243 85.9861 98.2999 85.7515C100.424 85.1824 104.226 82.7083 104.547 81.6854C105.36 79.1036 104.545 70.2823 103.379 69.032C102.635 68.2346 102.502 68.2472 101.085 69.246C100.257 69.8293 98.1292 70.94 96.3555 71.714ZM102.47 85.0145C102.227 85.2802 102.31 88.2458 102.653 91.604C103.356 98.4695 103.487 100.075 103.998 108.151C104.196 111.288 104.584 115.644 104.86 117.829C105.135 120.015 105.623 125.105 105.944 129.14C106.265 133.175 106.74 138.485 107.001 140.941C107.955 149.932 108.161 152.084 108.516 156.727C109.184 165.454 109.423 169.04 109.452 170.736C109.513 174.261 110.014 182.066 110.357 184.843C110.824 188.611 110.511 190.03 108.607 192.782C106.274 196.152 99.8185 199.392 88.8408 202.701C79.1385 205.625 66.4442 207.842 62.5595 207.291C60.6963 207.027 57.5546 205.388 55.6558 203.689C53.9896 202.199 48.1833 191.231 45.1563 183.855C44.37 181.939 43.4602 180.085 43.1347 179.736C42.8094 179.386 41.825 177.257 40.9477 175.005C40.0703 172.752 38.3401 168.788 37.1031 166.195C35.8657 163.602 34.1629 160.035 33.3189 158.267C32.4745 156.499 31.0736 153.286 30.2052 151.126C29.3368 148.966 27.6706 145.171 26.5027 142.692C23.2543 135.799 20.6505 129.514 17.1297 120.069C16.0933 117.289 15.075 114.734 14.866 114.391C14.6569 114.049 14.1572 112.714 13.755 111.426C13.0916 109.302 12.927 109.11 11.9833 109.363C10.7322 109.699 10.7813 109.941 13.151 115.093C14.1309 117.223 15.6575 120.946 16.5435 123.368C18.0976 127.615 19.352 130.556 21.5382 135.08C25.2471 142.755 28.6492 150.088 29.7154 152.707C30.3984 154.385 31.5937 157.327 32.3714 159.246C33.1495 161.164 34.5951 164.475 35.584 166.602C36.573 168.73 37.816 171.442 38.3463 172.629C38.8767 173.816 40.1492 176.629 41.174 178.88C42.1988 181.131 44.5443 186.485 46.3855 190.777C48.2266 195.069 50.6314 200.39 51.7296 202.603C53.5568 206.286 53.9194 206.734 56.0115 207.895C57.2691 208.593 59.3604 209.333 60.6595 209.539C63.8444 210.043 69.6527 209.919 71.9744 209.297C73.0158 209.018 74.5648 208.842 75.4163 208.907C77.3591 209.054 101.728 201.577 103.88 200.174C109.852 196.279 111.778 194.149 112.641 190.483C112.899 189.388 112.327 180.166 111.592 173.546C111.145 169.534 110.383 158.915 109.838 149.123C109.634 145.456 109.143 139.932 108.748 136.847C108.353 133.763 107.779 128.261 107.474 124.621C106.871 117.438 106.059 109.145 105.307 102.484C105.045 100.161 104.664 95.5591 104.462 92.2568C103.983 84.4516 103.752 83.6101 102.47 85.0145ZM95.1088 88.0523C92.5218 89.0336 89.4272 90.2195 88.2317 90.6873C87.0363 91.155 85.81 91.6204 85.5071 91.7214C85.1411 91.8431 85.1667 92.6914 85.5826 94.2436C86.3301 97.0335 85.6718 99.4537 83.6469 101.359C81.7884 103.107 79.9607 103.13 77.304 101.436C75.4043 100.226 75.0571 99.7723 74.5343 97.8213L73.9366 95.5907L70.0972 96.9453C67.9851 97.69 59.4098 100.167 51.0404 102.45C35.6995 106.634 27.6044 108.305 20.4212 108.768C15.3786 109.094 14.792 109.319 15.0196 110.846C15.3165 112.836 18.0709 120.498 20.2892 125.506C21.3948 128.001 22.5665 130.732 22.8937 131.575C23.4891 133.111 24.903 136.408 27.3083 141.87C28.0153 143.476 29.2031 145.932 29.9469 147.328C30.6912 148.724 32.0654 151.836 33.0006 154.244C33.9364 156.651 35.5923 160.449 36.6812 162.683C37.7697 164.917 39.262 168.106 39.997 169.77C40.7324 171.434 42.0527 174.343 42.9308 176.235C43.8089 178.126 45.2594 181.435 46.1538 183.588C47.0481 185.741 48.7803 189.41 50.0029 191.741C51.2258 194.072 52.6175 196.853 53.0958 197.921C55.1198 202.444 59.637 205.812 63.8385 205.933C70.0351 206.11 90.822 201.583 97.0344 198.703C105.073 194.976 108.475 192.422 108.756 189.904C108.841 189.145 109.011 188.171 109.133 187.739C109.256 187.308 108.99 181.397 108.542 174.605C108.094 167.813 107.681 161.29 107.624 160.109C107.567 158.928 107.396 156.798 107.245 155.376C107.094 153.955 106.729 150.246 106.434 147.135C106.139 144.024 105.742 139.997 105.551 138.187C105.36 136.378 105.193 134.138 105.181 133.211C105.169 132.284 104.714 127.403 104.171 122.364C103.627 117.326 102.876 108.935 102.501 103.719C102.126 98.5022 101.671 92.7513 101.489 90.939C101.308 89.1267 101.13 87.1351 101.093 86.5131C101.043 85.6469 100.885 85.4856 100.42 85.8249C100.086 86.0687 97.6958 87.071 95.1088 88.0523Z" stroke="black" stroke-width="2" mask="url(#path-2-outside-1_0_1)"/>
</svg>
