<svg height="165" viewBox="0 0 103 231" fill="none" xmlns="http://www.w3.org/2000/svg">
<path d="M12 204.494V114.804C13.3029 109.144 25.0286 105.227 55.4286 110.452C79.7486 114.631 87.2762 122.062 88 125.255C79.8933 152.829 63.4194 208.761 62.3771 211.896C61.0743 215.814 49.3486 215.379 35.0171 214.073C23.552 213.028 14.8952 207.252 12 204.494Z" fill="#F9C510"/>
<path fill-rule="evenodd" clip-rule="evenodd" d="M86.0238 0.543007C85.7865 0.572091 85.2649 0.85129 84.8649 1.16382C84.1252 1.74153 83.789 2.41793 82.402 6.12086C82.0703 7.00669 81.6735 7.99958 81.5203 8.32731C81.3668 8.655 81.1133 9.33461 80.9565 9.83751C80.7997 10.3404 80.587 10.8346 80.4835 10.9358C80.3802 11.0369 80.1482 11.624 79.9679 12.2404C79.7876 12.8568 79.5373 13.5005 79.4117 13.6708C79.286 13.8414 79.0128 14.47 78.8044 15.0678C77.966 17.4746 76.7502 20.5833 76.115 21.9455C75.8672 22.4769 75.6254 23.1632 75.5778 23.4705C75.5302 23.7777 75.3924 24.1046 75.2718 24.1973C75.1509 24.2898 74.8656 24.9119 74.6375 25.5795C73.7947 28.0478 73.2736 29.4208 73.1107 29.603C73.0186 29.7059 72.8088 30.2485 72.6444 30.8088C72.48 31.3691 72.2327 32.0018 72.0951 32.2147C71.9575 32.4277 71.6793 33.0556 71.477 33.61C71.2747 34.1645 70.859 35.2503 70.5531 36.023C70.2472 36.7956 69.7739 38.0163 69.5011 38.7355C68.6605 40.9509 68.2297 42.0112 67.7606 43.0168C67.5129 43.5482 67.271 44.2345 67.2235 44.5417C67.1759 44.849 67.038 45.1761 66.9174 45.2686C66.7966 45.3613 66.5112 45.9832 66.2831 46.6507C65.4404 49.119 64.9193 50.4921 64.7564 50.6743C64.6643 50.7772 64.4544 51.3198 64.29 51.8801C64.1256 52.4404 63.8492 53.1022 63.676 53.351C63.3691 53.7912 63.3117 53.7919 61.5117 53.3765C59.5176 52.9163 53.0432 52.2447 51.5433 52.3426C51.0379 52.3755 50.0959 52.4246 49.4499 52.4517C46.9636 52.5556 44.9904 52.7658 43.7333 53.0604C43.4912 53.117 42.8017 53.2535 42.2012 53.3636C39.9316 53.7792 37.244 54.5899 34.6343 55.6458C31.8202 56.7841 31.7871 56.7992 31.1132 57.2336C30.7837 57.446 30.4573 57.6113 30.3881 57.6005C30.3189 57.5898 30.0455 57.7153 29.7806 57.8792C29.5157 58.0431 28.7913 58.4822 28.1709 58.8547C26.8641 59.6394 23.0923 62.3616 23.0647 62.5401C23.0544 62.6067 22.8031 62.8346 22.5061 63.0466C21.665 63.6474 20.1206 65.1116 20.0849 65.3421C20.0672 65.4563 19.9781 65.5701 19.8866 65.5951C19.6343 65.6638 18.5859 66.8014 18.5478 67.0477C18.5294 67.1667 18.4424 67.2529 18.3546 67.2393C18.2667 67.2257 17.895 67.6233 17.5282 68.1231C17.1617 68.6227 16.8077 69.0712 16.7419 69.1196C16.5903 69.2309 14.6008 72.0902 14.1328 72.8691C13.9398 73.1907 13.6451 73.6722 13.4781 73.9392C13.3114 74.2063 12.8863 75.0031 12.5339 75.71C12.1814 76.4169 11.7876 77.1348 11.6587 77.3055C11.5298 77.4762 11.303 77.9683 11.1546 78.399C11.0062 78.8297 10.7834 79.3217 10.6599 79.4924C10.536 79.6632 10.2514 80.338 10.0275 80.9919C9.80363 81.6461 9.35239 82.9545 9.02488 83.8996C8.69716 84.8446 8.15865 86.5824 7.82784 87.7612C7.08891 90.3947 6.75166 91.0026 6.08718 90.8997C5.43533 90.7988 3.75125 91.6808 3.33016 92.3436C3.14613 92.6333 2.93063 92.9084 2.85153 92.9547C2.77243 93.001 2.44327 93.5731 2.12005 94.2259C1.61259 95.2507 1.43067 96.0694 0.788493 100.217C0.288018 103.45 0.105691 105.129 0.231516 105.349C0.33408 105.53 0.426783 106.038 0.437452 106.479C0.448122 106.92 0.545636 107.295 0.654415 107.311C0.763194 107.328 0.837059 107.46 0.818663 107.603C0.752477 108.115 2.91153 110.856 3.44672 110.939C3.57746 110.959 3.67017 111.067 3.65278 111.179C3.63542 111.292 3.84281 111.477 4.11379 111.592C4.49273 111.752 4.60726 111.98 4.61034 112.578C4.61266 113.006 4.6309 113.79 4.65106 114.32C4.67122 114.85 4.66263 115.808 4.63172 116.447C4.60081 117.087 4.59823 118.045 4.62626 118.576C4.67478 119.5 4.68172 120.086 4.69621 124.444C4.70906 128.312 4.69735 130.447 4.65463 132.106C4.63061 133.039 4.64337 133.952 4.6829 134.134C4.72242 134.316 4.74907 135.374 4.74241 136.486C4.73554 137.598 4.73969 139.372 4.75162 140.428C4.78438 143.308 4.77455 146.193 4.72559 148.092C4.70157 149.025 4.71433 149.938 4.75385 150.12C4.83094 150.474 4.83518 153.426 4.76258 156.191C4.73815 157.125 4.76665 158.088 4.82591 158.331C4.88538 158.575 4.90769 159.68 4.87575 160.788C4.84381 161.896 4.82081 163.666 4.82466 164.721C4.84248 169.623 4.84782 170.606 4.86542 172.502C4.87575 173.616 4.866 175.244 4.84359 176.119C4.82117 176.994 4.82584 177.906 4.85382 178.144C4.88179 178.383 4.90057 179.536 4.89562 180.707C4.89067 181.877 4.89296 183.699 4.90075 184.754C4.90875 185.81 4.89547 187.437 4.87146 188.371C4.84744 189.304 4.87988 190.268 4.9437 190.512C5.00752 190.756 5.01743 191.61 4.96592 192.41C4.91425 193.21 4.89987 194.262 4.93385 194.748C4.96787 195.234 4.98348 196.349 4.96853 197.225C4.94254 198.746 4.94585 200.54 4.98224 204.789C4.99127 205.845 4.94755 207.659 4.885 208.821C4.82245 209.982 4.8257 211.133 4.89221 211.378C4.95873 211.622 5.01208 212.541 5.01101 213.42C5.00994 214.298 5.00834 215.491 5.0077 216.071C5.00685 216.65 5.10837 217.177 5.23294 217.242C5.35769 217.306 5.44638 217.444 5.43015 217.549C5.40042 217.741 6.0204 218.688 6.19341 218.715C6.24459 218.723 6.49127 218.989 6.74188 219.307C7.31013 220.027 10.746 222.463 12.1972 223.174C12.7937 223.467 13.4287 223.809 13.6082 223.936C13.7878 224.062 14.3256 224.288 14.8032 224.439C15.281 224.59 15.7548 224.802 15.8564 224.91C16.032 225.097 16.857 225.39 20.0772 226.407C20.856 226.653 22.1284 227.068 22.9047 227.329C23.8491 227.647 27.1284 228.239 32.8115 229.119C41.0308 230.392 42.9763 230.586 46.9151 230.524C47.5585 230.514 48.7051 230.508 49.4632 230.51C50.2213 230.513 51.0413 230.458 51.2855 230.388C51.5296 230.319 52.1345 230.263 52.6297 230.264C53.1247 230.265 53.5956 230.189 53.6762 230.095C53.7566 230 54.0202 229.953 54.262 229.991C54.7825 230.071 57.5081 229.629 57.6943 229.434C57.7655 229.359 58.0889 229.273 58.4134 229.243C58.7378 229.213 59.015 229.112 59.0294 229.019C59.0438 228.926 59.3448 228.831 59.6984 228.809C60.0519 228.787 60.3529 228.692 60.3673 228.599C60.3817 228.506 60.6191 228.409 60.8946 228.384C61.1702 228.358 61.6863 228.14 62.0413 227.899C62.3964 227.658 62.7332 227.468 62.7898 227.477C62.8928 227.493 63.495 227.035 64.4919 226.182C64.8954 225.836 65.1516 225.266 65.5514 223.821C65.8413 222.773 66.3551 221 66.6932 219.881C67.0314 218.762 67.5322 217.066 67.806 216.113C68.0798 215.16 68.4848 213.833 68.706 213.164C68.9271 212.495 69.3372 211.121 69.617 210.11C69.897 209.099 70.4088 207.309 70.7543 206.133C71.0998 204.956 71.6031 203.213 71.873 202.259C72.1427 201.305 72.517 200.117 72.7046 199.619C72.8923 199.121 73.192 198.113 73.3705 197.379C73.5492 196.645 73.8618 195.591 74.0651 195.037C74.2685 194.483 74.6531 193.2 74.9198 192.187C75.3819 190.433 75.8325 188.896 77.3683 183.833C78.4091 180.402 79.2475 177.522 79.8603 175.273C80.1665 174.149 80.5699 172.822 80.7566 172.324C80.9432 171.825 81.2499 170.771 81.4379 169.98C81.626 169.189 81.9217 168.228 82.0952 167.845C82.2687 167.462 82.627 166.319 82.8916 165.306C83.1561 164.292 83.5478 162.915 83.7616 162.246C83.9756 161.576 84.3068 160.408 84.4978 159.65C84.8408 158.288 84.838 158.262 84.2402 157.348C83.4282 156.107 83.5184 155.849 84.3673 156.985L85.0453 157.893L85.2894 157.141C85.4234 156.728 85.4697 156.208 85.3921 155.986C85.2154 155.48 85.2412 155.279 85.4588 155.466C85.6326 155.615 85.6741 155.503 86.7639 151.954C88.2464 147.128 89.3264 143.469 90.5528 139.122C90.8535 138.055 91.2644 136.729 91.4659 136.175C91.6674 135.62 92.0425 134.384 92.2991 133.428C94.2531 126.157 94.2423 126.179 95.946 125.57C96.666 125.312 97.5116 124.935 97.8251 124.731C98.1386 124.528 98.4383 124.368 98.4911 124.376C98.5871 124.391 99.2083 123.916 100.164 123.098C100.909 122.46 101.558 121.482 101.995 120.339C102.518 118.971 102.623 118.142 102.496 116.37C102.437 115.54 102.49 113.911 102.614 112.749C102.839 110.638 102.675 109.156 102.058 107.722C101.738 106.977 100.319 105.063 100.058 105.023C99.956 105.007 100.015 104.034 100.19 102.86C100.632 99.8833 100.697 96.4159 100.374 92.9309C100.303 92.1584 100.211 91.0658 100.171 90.5032C100.13 89.9405 100.016 89.4675 99.9168 89.4522C99.8179 89.4369 99.7669 89.2319 99.8033 88.9969C99.8397 88.7618 99.7459 88.1002 99.5949 87.5269C99.4439 86.9535 99.2687 86.2847 99.2055 86.0406C98.7939 84.4511 97.6734 81.0446 97.4708 80.7665C97.4227 80.7005 97.2558 80.2561 97.0996 79.7791C96.9437 79.3022 96.7037 78.8473 96.5665 78.7686C96.4294 78.6898 96.3307 78.538 96.3472 78.4313C96.4642 77.6754 92.7071 71.8974 90.5745 69.5535C90.0946 69.026 89.6643 68.5283 89.6185 68.4475C89.4305 68.1163 87.7826 66.4867 87.6084 66.4597C87.5048 66.4437 87.4 66.3557 87.3752 66.2639C87.307 66.0107 86.1749 64.9598 85.9296 64.9218C85.811 64.9035 85.7254 64.8155 85.7392 64.726C85.753 64.6368 85.5255 64.4115 85.2333 64.2255C84.941 64.0397 84.4507 63.6617 84.1434 63.3856C83.1558 62.4987 82.1594 61.7821 81.8466 61.7337C81.6791 61.7078 81.5567 61.593 81.5744 61.4786C81.5921 61.3642 81.5003 61.2541 81.3704 61.234C81.2403 61.2138 80.7352 60.931 80.2478 60.6052C78.9524 59.7399 78.7159 59.6023 77.3066 58.8957C76.6028 58.5427 75.888 58.1483 75.7181 58.0191C75.5482 57.8899 75.0583 57.6628 74.6293 57.5146C74.2003 57.3664 73.7667 57.1621 73.6657 57.0606C73.5647 56.9594 73.2333 56.7745 72.9291 56.6497C72.4812 56.4661 72.4231 56.3604 72.6229 56.0936C72.7587 55.9125 73.0045 55.306 73.1691 54.7458C73.3337 54.1855 73.581 53.5529 73.7186 53.3399C73.8562 53.1269 74.1344 52.499 74.3367 51.9446C74.6809 51.0013 74.9565 50.298 76.3237 46.8747C76.8577 45.5377 77.429 44.0568 78.3207 41.6985C78.5716 41.0345 78.8508 40.4068 78.9411 40.3036C79.0311 40.2004 79.2523 39.6116 79.4326 38.9952C79.6127 38.3788 79.847 37.792 79.9529 37.6913C80.0589 37.5906 80.276 37.097 80.4351 36.5945C80.5943 36.092 80.9279 35.2396 81.1766 34.7003C81.4254 34.1611 81.674 33.4282 81.7293 33.0712C81.7845 32.7145 81.9263 32.3467 82.0445 32.2535C82.1626 32.1607 82.4387 31.5851 82.6577 30.9747C82.8768 30.3643 83.2994 29.2558 83.5967 28.5114C83.8939 27.767 84.3805 26.5484 84.6781 25.8034C85.3783 24.0502 86.1807 21.9444 86.7282 20.4225C86.9679 19.7567 87.2392 19.1278 87.3311 19.0249C87.4232 18.922 87.6387 18.3802 87.8097 17.821C87.9809 17.2617 88.2227 16.6647 88.3469 16.4941C88.4712 16.3234 88.745 15.6948 88.9555 15.0973C89.166 14.4997 89.5965 13.3318 89.9121 12.5021C90.2277 11.6723 90.6888 10.4497 90.9368 9.78523C91.1846 9.12071 91.4663 8.44545 91.5625 8.28462C91.8462 7.81032 92.5237 6.05447 92.7814 5.12545C93.2449 3.45467 92.4935 2.39158 90.4227 1.78809C89.904 1.63707 89.3939 1.4222 89.2896 1.31084C89.0459 1.05117 86.5906 0.473992 86.0238 0.543007ZM88.8836 2.62139C89.6554 2.91235 90.5526 3.28406 90.8774 3.44745C91.3752 3.6979 91.4059 3.75995 91.0725 3.84232C90.215 4.05439 87.1407 2.81737 86.5373 2.01722C86.2413 1.62506 86.2381 1.62413 88.8836 2.62139ZM87.4062 4.04296C87.5137 4.15885 88.2676 4.42106 89.0814 4.62607C90.4977 4.98275 90.5529 5.01834 90.367 5.45965C89.9436 6.46504 89.6055 6.88554 88.9577 7.21209C88.5858 7.39967 88.1845 7.80422 88.0664 8.11097C87.9482 8.41771 87.7592 8.86982 87.6462 9.11601C87.4808 9.47679 87.524 9.57634 87.8694 9.62981C88.1048 9.66626 88.4227 9.54785 88.5757 9.36643C88.7906 9.11173 88.7963 9.22166 88.6015 9.84966C88.4627 10.2968 88.2305 10.8838 88.0853 11.1542C87.9403 11.4246 87.6383 12.1447 87.4145 12.7543C86.8732 14.228 86.1329 16.1615 85.4512 17.8818C85.1448 18.6544 84.698 19.8151 84.458 20.4612C84.1761 21.2195 83.8724 21.6916 83.6008 21.7933C82.5916 22.1712 82.0677 22.6637 81.9642 23.3316C81.9065 23.7048 81.757 24.0534 81.6321 24.1064C81.2458 24.2705 81.3229 24.5911 81.7652 24.6595C81.9969 24.6954 82.2617 24.5926 82.3537 24.4312C82.446 24.2697 82.587 24.1478 82.6674 24.1602C82.8108 24.1824 82.3752 25.5186 81.3125 28.3169C81.0182 29.0914 80.5909 30.2233 80.3625 30.8323C79.7508 32.4648 79.5041 32.8106 78.7493 33.095C78.3733 33.237 77.9798 33.5778 77.8726 33.8547C77.7657 34.1311 77.5483 34.5462 77.3892 34.7774C77.2304 35.0084 77.1349 35.3578 77.1769 35.5539C77.2446 35.8694 77.3131 35.8696 77.7727 35.5563C78.0583 35.3615 78.3202 35.2408 78.3547 35.2879C78.4542 35.4245 76.7854 40.0804 76.5376 40.3575C76.4455 40.4604 76.2357 41.003 76.0713 41.5633C75.9069 42.1236 75.6596 42.7562 75.522 42.9692C75.3844 43.1822 75.1037 43.8097 74.8985 44.3637C73.6841 47.64 73.7115 47.5919 72.8062 48.0534C72.0952 48.4158 71.8887 48.6597 71.6538 49.4141C71.3132 50.5082 71.4163 50.738 72.0582 50.3138C72.6711 49.9088 72.8424 50.1534 72.4292 50.8437C72.2506 51.1419 71.9493 51.7933 71.7591 52.291C71.5692 52.7888 71.1605 53.8277 70.8511 54.5999C70.5414 55.372 70.0981 56.5596 69.866 57.2391C69.4958 58.3218 69.3428 58.5215 68.628 58.856C67.6029 59.3356 67.464 59.4786 67.353 60.1694C67.3037 60.477 67.1611 60.7721 67.0362 60.8251C66.6898 60.9724 66.7087 61.3069 67.0665 61.3623C67.2416 61.3894 67.6231 61.3026 67.9149 61.1695L68.445 60.9276L68.1123 61.6063C67.8496 62.1422 67.6133 62.3079 66.9881 62.3952C66.5526 62.456 65.9023 62.4601 65.5431 62.4045C64.9356 62.3104 64.9055 62.2646 65.1145 61.7524C65.238 61.4494 65.4449 61.1021 65.5744 60.981C65.7038 60.8595 65.7663 60.6573 65.7132 60.5313C65.5989 60.2595 64.526 60.4955 64.2087 60.8621C64.095 60.9934 63.8745 61.0811 63.7189 61.057C63.5631 61.0329 63.3705 61.1228 63.2908 61.257C63.0499 61.663 63.2769 60.5202 63.6296 59.5522C63.8115 59.0532 64.2131 58.0131 64.5219 57.2409C64.8307 56.4687 65.3021 55.2249 65.5692 54.4767C66.0549 53.1171 66.5931 52.5457 67.5487 52.3763C67.7585 52.3389 67.9439 52.2213 67.9605 52.1146C67.977 52.0079 68.1256 51.9414 68.2907 51.967C68.7364 52.036 69.7688 50.926 70.0654 50.0585C70.2735 49.4509 70.2612 49.2901 70.0047 49.2504C69.8286 49.2231 69.6701 49.2944 69.6524 49.4088C69.6347 49.5233 69.5232 49.6018 69.4047 49.5835C69.172 49.5475 67.8425 50.1647 67.5122 50.462C67.4012 50.5619 67.4592 50.0917 67.6413 49.417C67.8234 48.7423 68.0608 48.1081 68.1684 48.0076C68.2762 47.9071 68.4948 47.4138 68.6538 46.9113C68.8131 46.4088 69.1466 45.5564 69.3954 45.0171C69.6442 44.478 69.8928 43.745 69.9481 43.388C70.0033 43.0313 70.1451 42.6633 70.2633 42.5704C70.3814 42.4773 70.6554 41.9015 70.8719 41.2908C71.7993 38.6773 72.0411 38.2434 72.7145 37.9858C73.0731 37.8487 73.3778 37.6665 73.3919 37.5807C73.4058 37.4949 73.5364 37.4433 73.6819 37.4659C74.1924 37.5449 75.4687 36.5082 75.5561 35.9436C75.6026 35.6435 75.7652 35.232 75.9173 35.0289C76.1494 34.7194 76.1251 34.6492 75.766 34.5936C75.5304 34.5571 75.2623 34.6594 75.1703 34.8208C75.078 34.9823 74.887 35.0965 74.7457 35.0746C74.6044 35.0527 74.2447 35.1887 73.9465 35.3769C73.2303 35.8287 72.9512 35.7648 73.2267 35.2122C73.3486 34.9674 73.6708 34.1787 73.9428 33.4593C74.8605 31.032 75.3771 29.7424 75.5498 29.4482C75.6445 29.2871 75.8291 28.8377 75.9602 28.4495C76.2039 27.7281 76.6749 27.3486 78.4673 26.4299C79.0534 26.1296 79.5287 25.7152 79.6393 25.4082C79.7416 25.1241 79.9474 24.6473 80.0967 24.3488C80.4419 23.6585 80.2227 23.4682 79.5222 23.8498C79.2203 24.0142 78.6064 24.3002 78.1574 24.4854L77.3414 24.8221L77.7889 23.7821C78.0351 23.2102 78.2739 22.5006 78.3197 22.2053C78.3654 21.9099 78.4994 21.5922 78.6176 21.4991C78.7357 21.4062 79.0118 20.8306 79.2308 20.2202C79.4499 19.6098 79.8819 18.4786 80.1905 17.7063C80.4994 16.9341 80.9729 15.7134 81.2428 14.9938C81.9985 12.9795 82.4799 11.9903 82.6887 12.0227C82.8663 12.0502 84.2044 11.4484 84.4761 11.2189C84.5432 11.1622 84.7721 11.0802 84.9848 11.0369C85.4149 10.9491 85.7469 10.4382 86.1034 9.31571C86.3072 8.67376 86.2886 8.57737 85.9736 8.64235C85.607 8.71786 84.3391 9.29304 84.1075 9.48891C84.0403 9.54561 83.8284 9.62377 83.6363 9.66282C83.3601 9.71868 83.3233 9.62075 83.4596 9.19392C83.5545 8.89701 83.7441 8.47992 83.881 8.26682C84.1167 7.89968 84.3966 7.18729 85.3608 4.50031L85.7777 3.338L86.4944 3.58526C86.8885 3.72126 87.2988 3.92727 87.4062 4.04296ZM62.934 55.5137C62.8622 55.5662 60.481 55.2732 57.6423 54.862C54.8035 54.451 53.096 54.1509 53.8476 54.1952C55.6029 54.2987 63.1057 55.3873 62.934 55.5137ZM51.8457 54.4661C51.6396 54.4875 51.2663 54.4316 51.0162 54.342C50.7662 54.2524 50.9348 54.2348 51.391 54.3031C51.8472 54.3714 52.0518 54.4448 51.8457 54.4661ZM50.0547 54.3953C49.9056 54.4305 49.6254 54.3908 49.432 54.3067C49.2385 54.2227 49.3605 54.1938 49.7031 54.2426C50.0456 54.2914 50.2038 54.36 50.0547 54.3953ZM48.5399 54.5867C48.3908 54.622 48.1106 54.5822 47.9172 54.4982C47.7237 54.4141 47.8457 54.3853 48.1883 54.4341C48.5308 54.4828 48.689 54.5514 48.5399 54.5867ZM47.0518 54.58C46.7878 54.5898 46.5597 54.6748 46.5452 54.7688C46.5306 54.8629 46.2649 54.9636 45.9545 54.9926C45.6442 55.0217 45.2365 55.1586 45.0483 55.2966C44.8602 55.4349 44.5291 55.6435 44.3126 55.7606C43.8355 56.0181 43.2745 56.7089 43.2114 57.1162C43.0662 58.0544 44.6186 59.9936 45.974 60.5672C46.2836 60.6982 46.7569 60.9681 47.0256 61.1665C47.2944 61.3651 47.7521 61.5648 48.0425 61.6106C48.3329 61.6562 48.6456 61.796 48.737 61.9211C48.8284 62.046 49.7733 62.3879 50.8365 62.6807C55.3691 63.9284 57.4407 64.3616 59.5313 64.4987C60.7088 64.5758 62.071 64.7451 62.5586 64.8747C63.0465 65.0044 63.661 65.0433 63.9243 64.9609C64.1878 64.8788 65.0412 64.8486 65.8204 64.8939C66.5999 64.9392 67.2957 64.9082 67.3666 64.8248C67.4376 64.7417 68.0197 64.6887 68.6601 64.7071C69.3005 64.7256 69.838 64.6537 69.8545 64.5476C69.8709 64.4415 70.08 64.3849 70.3193 64.4219C70.9999 64.5273 72.1412 64.1093 73.1058 63.4016C73.8576 62.8498 73.988 62.6502 73.9844 62.057C73.9796 61.2616 73.3153 60.2804 72.2665 59.5203C71.8095 59.1888 71.5907 58.8823 71.6685 58.6822C71.7362 58.5085 71.904 58.4096 72.0416 58.4625C73.2273 58.9182 74.2623 59.3916 74.7725 59.7115C75.1076 59.9218 75.5776 60.1241 75.8167 60.1611C76.0561 60.1982 76.2383 60.3146 76.222 60.42C76.2057 60.5253 76.4685 60.7187 76.8061 60.85C77.1438 60.9811 77.6499 61.2582 77.9308 61.4657C78.2118 61.6732 78.6048 61.8687 78.804 61.9003C79.0032 61.9318 79.1519 62.0513 79.1342 62.1657C79.1165 62.2802 79.2099 62.3905 79.3421 62.4109C79.5796 62.4477 82.4057 64.3792 82.5733 64.6194C82.621 64.6878 82.8755 64.8944 83.1387 65.0782C83.7446 65.5018 84.2795 65.9761 84.5899 66.3651C84.7231 66.5323 84.9255 66.6834 85.0395 66.701C85.1534 66.7186 85.3503 66.869 85.477 67.035C85.6036 67.2011 85.8942 67.5096 86.1227 67.7207C86.3512 67.9318 86.7551 68.3283 87.0202 68.6017C87.2853 68.8754 87.5844 69.1837 87.6851 69.287C88.9096 70.5444 91.8193 74.422 92.5379 75.7539C92.7562 76.1586 93.1488 76.8032 93.4105 77.1864C93.6722 77.5696 93.8787 77.9307 93.8698 77.9885C93.852 78.1029 94.515 79.4968 94.6817 79.6957C94.7382 79.763 94.8269 79.9685 94.8786 80.1522C94.9304 80.336 95.1165 80.7961 95.2921 81.1747C95.4677 81.5534 95.6836 82.1378 95.7716 82.4737C95.8598 82.8096 96.0048 83.0955 96.0937 83.1093C96.1828 83.1231 96.2378 83.2515 96.2161 83.3945C96.1944 83.5377 96.3686 84.2595 96.6034 84.9987C96.8381 85.7379 97.0166 86.4365 96.9999 86.5511C96.9835 86.6657 97.0581 87.0208 97.1661 87.3404C97.3447 87.8695 97.4534 88.55 97.8256 91.4714C97.894 92.0091 97.9432 92.9273 97.9351 93.5118C97.9269 94.0963 97.9665 94.6775 98.0232 94.8034C98.1566 95.0999 98.1398 98.0765 97.9894 100.762C97.8648 102.988 97.2432 106.137 96.8148 106.711C96.5807 107.026 93.6347 108.013 92.3748 108.199C92.0763 108.243 91.7764 108.33 91.7085 108.392C91.5442 108.542 87.4803 109.252 87.1082 109.196C86.9481 109.172 86.559 109.24 86.2438 109.348C85.9284 109.456 85.2552 109.546 84.7477 109.549C84.2402 109.552 83.7126 109.605 83.575 109.667C83.3379 109.775 82.771 109.82 79.2583 110.011C73.8515 110.306 66.4061 110.101 60.1389 109.485C55.9847 109.076 46.4519 107.599 42.2165 106.708C37.6293 105.743 28.8535 103.418 28.0521 102.955C27.8915 102.862 27.0757 102.581 26.2393 102.331C25.4029 102.08 24.0873 101.636 23.3157 101.344C22.544 101.052 21.3716 100.608 20.7104 100.357C20.0491 100.106 19.424 99.8263 19.3213 99.7365C19.2185 99.6464 18.8185 99.4552 18.4323 99.3115C17.207 98.8553 14.4868 97.5008 13.3797 96.7952C13.045 96.5819 12.622 96.3844 12.4399 96.3562C12.2575 96.328 12.1219 96.2188 12.1382 96.1133C12.1545 96.0081 11.8977 95.8169 11.5675 95.6886C11.2372 95.5604 10.9793 95.3767 10.9942 95.2804C11.0091 95.1841 10.7511 95.0004 10.4209 94.8721C10.0907 94.7439 9.83227 94.5629 9.84667 94.4699C9.86106 94.3769 9.65022 94.2067 9.37803 94.0915C8.71159 93.8094 8.69768 93.3031 9.27623 90.4009C9.88409 87.3518 11.5531 81.8984 12.1002 81.1738C12.2217 81.013 12.4387 80.5674 12.583 80.1835C13.1094 78.7819 14.4596 76.1302 15.093 75.2542C15.2836 74.9909 15.4547 74.6819 15.4736 74.5677C15.4924 74.4534 15.8737 73.8415 16.3211 73.2079C16.7684 72.5742 17.1527 71.939 17.1753 71.7959C17.1979 71.6531 17.2995 71.5489 17.4012 71.5646C17.5028 71.5804 17.6898 71.3467 17.8166 71.0453C17.9435 70.744 18.123 70.4604 18.2153 70.4148C18.476 70.2867 20.303 68.0445 20.3396 67.8078C20.3576 67.6919 20.5204 67.565 20.7016 67.5256C20.8827 67.4863 21.0531 67.3108 21.0802 67.1354C21.1073 66.9603 21.2165 66.8304 21.3228 66.8469C21.4291 66.8633 21.5952 66.7212 21.6919 66.5313C21.7887 66.3414 22.1694 65.927 22.5383 65.611C22.907 65.2949 23.4897 64.7621 23.8334 64.427C24.689 63.5927 28.9688 60.4876 30.0078 59.9475C30.4732 59.7053 30.9645 59.4232 31.0999 59.3204C31.2353 59.2176 31.5046 59.062 31.6987 58.9749C33.7207 58.0673 35.026 57.4651 35.2189 57.3512C35.6299 57.1081 40.1683 55.7068 40.4186 55.7456C40.5512 55.7661 40.6742 55.6893 40.6919 55.5749C40.7096 55.4605 40.8731 55.3899 41.0555 55.4182C41.2376 55.4464 41.701 55.3829 42.0851 55.2768C43.2152 54.9651 45.4769 54.6117 45.9109 54.6789C46.1316 54.7131 46.3844 54.6564 46.4725 54.5529C46.5607 54.4494 46.8351 54.409 47.0824 54.4633C47.5318 54.5618 47.5317 54.562 47.0518 54.58ZM61.8112 57.9927C61.7624 58.1609 61.4778 58.8836 61.1787 59.5988C60.8796 60.3139 60.533 61.2079 60.4084 61.5852L60.1819 62.2713L58.625 61.8795C57.7686 61.6638 56.235 61.3175 55.2169 61.1099C51.898 60.4331 47.1625 59.0036 47.2106 58.6932C47.2237 58.6082 46.9719 58.4367 46.651 58.3118C46.048 58.0777 45.8231 57.6403 46.0767 57.1958C46.2741 56.8502 49.0815 56.4044 51.0657 56.404C52.5427 56.4035 56.7102 56.8338 59.21 57.2447C61.4712 57.6165 61.8856 57.7356 61.8112 57.9927ZM71.1843 61.7115C70.8001 61.9204 70.2563 61.9523 70.2854 61.7642C70.2934 61.7124 70.4392 61.4577 70.609 61.1979C70.895 60.7612 70.943 60.7548 71.2478 61.1117C71.5566 61.4728 71.5526 61.5112 71.1843 61.7115ZM40.9877 57.825C40.797 58.9171 42.3217 61.5023 43.7784 62.5564C44.1832 62.8493 44.5518 63.156 44.5975 63.2377C44.7661 63.5394 48.4548 65.3318 49.7278 65.7306C52.288 66.5326 55.1393 67.2117 56.5488 67.3552L57.9765 67.5004L57.756 68.2199C57.6347 68.6154 57.281 69.5706 56.97 70.3425C56.6589 71.1144 56.2148 72.2437 55.9829 72.8521C55.7512 73.4606 55.4877 74.0428 55.3975 74.146C55.3075 74.2492 55.0862 74.838 54.9059 75.4544C54.7258 76.0708 54.4903 76.6574 54.3827 76.7579C54.2751 76.8583 53.9994 77.4866 53.77 78.154C53.0993 80.1073 52.3919 81.9626 52.1983 82.2771C52.0994 82.4375 51.8538 83.0225 51.6523 83.577C51.0634 85.1973 50.5246 86.5465 50.1921 87.2335C50.0216 87.5852 49.7132 88.3521 49.5067 88.9378C49.2999 89.5235 49.0416 90.2422 48.9324 90.535L48.7337 91.0674L45.9883 90.7768C44.4783 90.6169 42.5297 90.4677 41.658 90.4452C40.7863 90.4229 39.1269 90.3496 37.9704 90.2823C36.8138 90.2153 34.8662 90.1534 33.6423 90.1449C32.4183 90.1365 30.7497 90.1227 29.9342 90.114C29.1187 90.1053 28.3025 90.1353 28.1205 90.1806C27.7952 90.2616 26.0431 90.362 23.518 90.4446C22.8143 90.4677 22.1829 90.5378 22.1148 90.6005C22.0467 90.6634 21.5086 90.7475 20.9189 90.7877C19.1366 90.9092 17.9263 91.0483 17.5626 91.1737C17.3728 91.2389 16.8147 91.2981 16.3222 91.3052C15.8295 91.3124 15.4134 91.4035 15.3972 91.5079C15.3811 91.6123 15.1568 91.6726 14.8991 91.6418C14.6414 91.6111 14.5197 91.641 14.6287 91.7082C14.8228 91.8277 16.2874 91.8044 19.7282 91.627C20.6692 91.5786 22.2513 91.5345 23.244 91.5291C24.2367 91.5237 26.005 91.511 27.1735 91.5009C31.8387 91.4604 35.2721 91.6689 45.5304 92.615L47.9014 92.8336L47.5957 93.8314C47.1005 95.4481 47.0913 95.4529 44.6753 95.3436C43.4822 95.2896 41.5653 95.1553 40.4155 95.045C39.2656 94.9347 37.8918 94.8667 37.3625 94.8936C36.8332 94.9205 35.64 94.9191 34.7109 94.8905C31.2701 94.7848 26.7973 94.854 24.1835 95.0536C23.416 95.1122 22.3057 95.1918 21.7162 95.2305C21.1268 95.2692 20.4688 95.3656 20.2539 95.4446C20.0391 95.5238 19.7048 95.564 19.5113 95.5341C19.3178 95.5041 18.5735 95.5507 17.8573 95.6379C16.7061 95.7777 16.6153 95.8227 17.0731 96.025C17.358 96.1509 17.9623 96.2287 18.4162 96.1982C18.8699 96.1675 20.1893 96.1856 21.348 96.2383C22.5068 96.2909 24.5944 96.3737 25.9873 96.4217C27.3801 96.4699 29.6523 96.5936 31.0367 96.6963C32.4211 96.7993 34.4547 96.9224 35.5559 96.97C36.657 97.0178 39.4179 97.2715 41.691 97.5337L45.824 98.0105L45.5452 98.9258C45.3919 99.4292 45.0613 100.282 44.8109 100.821C44.5603 101.36 44.3154 102.059 44.2665 102.375C44.2176 102.691 44.0754 102.992 43.9505 103.045C43.8256 103.098 43.6931 103.337 43.6562 103.576C43.5893 104.008 43.5607 104.005 38.8964 103.143C33.2717 102.104 33.1696 102.413 38.5965 104.053C39.3768 104.288 40.4207 104.638 40.9162 104.829C43.1816 105.703 57.7277 108.443 60.3977 108.499C61.3281 108.518 62.9914 108.567 64.0938 108.607C65.1962 108.646 66.5198 108.692 67.0349 108.709C67.5501 108.725 68.1208 108.629 68.303 108.495C68.5855 108.288 67.4701 108.071 60.7787 107.035L52.9227 105.819L53.3975 104.561C54.539 101.537 54.7346 101.048 55.1017 100.299L55.4902 99.5071L57.634 99.8377C64.2018 100.851 79.0199 104.189 83.2291 105.605C83.8391 105.81 84.9348 106.133 85.6639 106.323C86.8963 106.644 86.9639 106.641 86.626 106.275C86.4261 106.059 86.012 105.841 85.7059 105.79C85.3999 105.738 85.1103 105.604 85.0625 105.49C85.0148 105.376 84.4965 105.142 83.9109 104.968C83.3252 104.795 82.7638 104.567 82.6633 104.463C82.5629 104.358 81.8926 104.062 81.1738 103.806C80.455 103.549 79.2349 103.105 78.4625 102.818C75.2939 101.641 70.1778 100.09 66.4044 99.164C65.1116 98.8467 63.3173 98.3793 62.417 98.1254C61.5168 97.8714 59.8293 97.5164 58.6671 97.3365L56.5541 97.0093L56.6351 96.486C56.6797 96.1983 56.8899 95.6078 57.102 95.1738C57.5486 94.2612 57.4345 94.2638 60.6694 95.0954C61.8478 95.3984 64.1964 95.9537 65.8886 96.3295C67.5807 96.7054 70.0166 97.3138 71.3016 97.6817C75.8863 98.9941 78.1063 99.6675 78.3942 99.8333C78.5549 99.9259 79.3253 100.191 80.1062 100.423C80.8872 100.655 82.4215 101.138 83.5161 101.495C85.9336 102.285 85.7033 102.219 86.0844 102.237C86.5469 102.258 84.4895 101.231 82.6379 100.516C81.757 100.176 80.8503 99.7921 80.6229 99.6629C80.3955 99.5338 79.7647 99.2915 79.221 99.1247C78.6775 98.9577 78.1505 98.7353 78.05 98.6305C77.9496 98.5257 77.3643 98.2975 76.7494 98.1237C76.1346 97.9497 75.4118 97.6848 75.1432 97.535C74.6477 97.259 73.1688 96.7991 69.6778 95.836C68.6147 95.5426 67.4318 95.1662 67.0492 94.9996C66.6666 94.833 65.064 94.3924 63.4879 94.0205C61.9118 93.6485 60.0648 93.2079 59.3833 93.0413L58.1445 92.7381L58.5598 91.6C58.7885 90.9741 59.0543 90.3302 59.1507 90.1694C59.2471 90.0086 59.519 89.3319 59.7548 88.6655C60.7522 85.8467 61.0698 85.0234 61.2274 84.8465C61.3191 84.7436 61.5445 84.1303 61.7283 83.4836C61.912 82.8368 62.1431 82.2734 62.2416 82.2316C62.3402 82.1896 62.5632 81.6743 62.7368 81.0863C62.9105 80.4983 63.1555 79.8778 63.2812 79.7075C63.4069 79.537 63.682 78.9086 63.8925 78.3112C64.103 77.7135 64.5167 76.5909 64.8121 75.8166C65.1072 75.0423 65.5542 73.8654 65.8053 73.2014C66.0562 72.5374 66.3414 71.9051 66.4387 71.7964C66.5362 71.6875 66.7592 71.099 66.9346 70.4887C67.1099 69.8781 67.3382 69.296 67.4419 69.1949C67.5456 69.0938 67.7563 68.6263 67.9102 68.156C68.2071 67.2496 68.7456 66.9313 70.1309 66.8433C70.4844 66.8207 70.8401 66.7243 70.9215 66.6287C71.0027 66.5331 71.2388 66.4813 71.4462 66.5134C71.6534 66.5455 71.9607 66.4493 72.1292 66.2996C72.3868 66.0707 72.3572 66.0154 71.9425 65.9512C71.6713 65.9092 71.1084 65.9243 70.6913 65.9846C68.276 66.3342 62.7758 65.978 57.039 65.1003C51.6386 64.2739 49.5934 63.7194 46.3492 62.2011C44.4783 61.3257 42.3024 59.4929 41.4291 58.0571C41.1098 57.5323 41.0449 57.4979 40.9877 57.825ZM33.7379 60.0815C33.2023 60.2915 32.9039 60.4621 31.9685 61.0934C31.5802 61.3554 31.1956 61.5608 31.114 61.5496C30.7734 61.5033 26.4076 64.794 25.0572 66.1147C24.7134 66.451 24.3208 66.8203 24.1846 66.9355C23.6254 67.4089 21.2638 70.0606 21.2349 70.2476C21.2177 70.3585 21.1282 70.4377 21.036 70.4234C20.9438 70.4091 20.5613 70.876 20.1858 71.4611C19.8103 72.046 19.4333 72.5148 19.3475 72.5028C19.2618 72.4906 19.1752 72.5876 19.1551 72.718C19.1348 72.8486 18.8808 73.3124 18.5904 73.7488C17.5176 75.3623 17.1668 75.9674 17.1166 76.2919C17.0882 76.475 16.9776 76.611 16.8705 76.5944C16.7636 76.5779 16.5475 76.977 16.3906 77.4812C16.2336 77.9855 16.0205 78.4341 15.9171 78.478C15.814 78.5218 15.597 78.9903 15.4352 79.5188C15.2733 80.0475 15.0352 80.625 14.9064 80.802C14.348 81.568 12.8634 87.4759 13.2154 87.5304C13.3257 87.5474 13.5149 87.2653 13.6361 86.9033C13.994 85.8332 14.7388 84.0554 14.9139 83.8529C15.0034 83.7496 15.1919 83.3475 15.333 82.9593C15.6192 82.1716 16.3193 80.7971 16.9068 79.8693C17.1197 79.5332 17.3086 79.1628 17.3266 79.0463C17.3446 78.9299 17.5312 78.5898 17.741 78.2907C18.4549 77.273 19.0285 76.2759 19.0759 75.9701C19.1018 75.8025 19.2089 75.6785 19.3139 75.6947C19.4188 75.711 19.6095 75.453 19.7377 75.1214C19.8658 74.7897 20.0465 74.5302 20.1391 74.5445C20.2317 74.5588 20.4113 74.324 20.5381 74.0227C20.665 73.7213 20.8397 73.437 20.9263 73.3905C21.013 73.3443 21.4248 72.8319 21.8417 72.2521C22.757 70.9789 23.1214 70.5369 23.5205 70.2162C23.6872 70.0822 23.8429 69.8467 23.8667 69.6928C23.8906 69.5388 23.9847 69.3926 24.0762 69.3676C24.2725 69.314 25.373 68.186 25.4002 68.0102C25.4105 67.9437 25.5314 67.7907 25.669 67.6706C26.5816 66.8723 26.8971 66.564 26.9143 66.4531C26.9251 66.3836 27.18 66.1253 27.4805 65.8792C27.7811 65.6331 28.4692 65.0216 29.0095 64.5206C29.5496 64.0195 30.1231 63.5533 30.2838 63.4844C30.4444 63.4156 30.5887 63.276 30.6044 63.1743C30.6202 63.0726 31.4949 62.3558 32.5483 61.5817C33.6017 60.8076 34.4717 60.1219 34.4816 60.0578C34.5093 59.8787 34.233 59.8877 33.7379 60.0815ZM83.9726 68.7612C84.0131 68.9494 84.1257 69.1155 84.2228 69.1305C84.6348 69.1943 89.2215 75.8038 89.664 76.9716C89.7417 77.176 89.8867 77.4724 89.9864 77.6301C90.426 78.3252 90.5888 78.6245 90.5751 78.713C90.5671 78.765 90.8098 79.3555 91.1145 80.0253C91.4192 80.695 91.6501 81.3621 91.6276 81.5077C91.605 81.6533 91.6561 81.7852 91.7413 81.8009C91.8265 81.8165 92.05 82.3763 92.2382 83.0449C92.4265 83.7134 92.65 84.2733 92.7352 84.2888C92.8204 84.3046 92.8668 84.4666 92.8385 84.6492C92.8103 84.8317 92.8767 85.2494 92.9861 85.5773C93.3356 86.624 93.577 87.7068 93.6215 88.4251C93.6452 88.809 93.7387 89.1346 93.829 89.1486C93.9194 89.1626 93.9948 89.5726 93.9971 90.0596C93.9991 90.5467 94.0515 91.0579 94.1135 91.1959C94.3151 91.645 94.4562 96.762 94.3413 99.4518C94.313 100.117 94.3766 100.52 94.4901 100.392C94.8525 99.9853 95.5242 96.3622 95.5959 94.4276C95.704 91.512 95.4778 87.7723 95.1675 87.343C95.0768 87.2178 95.023 86.9843 95.0478 86.8241C95.0725 86.6642 94.9926 86.1677 94.8702 85.721C94.1397 83.0558 93.6602 81.5523 93.5134 81.4674C93.4215 81.414 93.3629 81.2611 93.3833 81.1278C93.4231 80.8666 92.4461 78.7138 91.5981 77.1948C91.0195 76.1578 88.3467 72.4507 87.6207 71.6779C86.6426 70.6366 85.986 70.0425 85.7782 70.0103C85.6597 69.992 85.5739 69.9046 85.5876 69.8162C85.6079 69.6853 85.0159 69.1881 84.0408 68.5168C83.9629 68.4632 83.9323 68.5731 83.9726 68.7612ZM65.4414 68.1929C64.3758 71.166 64.1732 71.6923 64.0292 71.8615C63.9411 71.965 63.7447 72.4138 63.5928 72.8589C63.4194 73.3677 63.0601 73.8414 62.6249 74.1348C62.2442 74.3913 61.8983 74.817 61.8558 75.0807C61.8135 75.3443 61.6855 75.7722 61.5715 76.0314C61.3869 76.4512 61.4188 76.4943 61.8639 76.4247C62.2926 76.358 62.3317 76.3983 62.1399 76.7096C61.928 77.0532 61.546 77.9943 60.4013 80.9912C59.3379 83.7761 59.0514 84.4031 58.8566 84.3729C58.4122 84.3041 57.7855 84.9451 57.6892 85.5671C57.6335 85.927 57.468 86.3094 57.3214 86.4171C57.1749 86.5248 57.1057 86.7332 57.1676 86.8804C57.2487 87.0732 57.353 87.0944 57.5404 86.9567C57.9434 86.6606 58.2002 86.7856 57.9658 87.1637C57.7551 87.5041 57.2242 88.8556 56.4081 91.1293C56.1692 91.7952 55.8762 92.4725 55.7571 92.6345C55.6381 92.7965 55.393 93.4295 55.2126 94.0412C55.0322 94.6529 54.7993 95.236 54.6952 95.337C54.5913 95.4381 54.3871 95.8857 54.2414 96.3317C53.7645 97.7925 52.9055 99.6394 52.7165 99.6101C52.3485 99.5531 51.6556 100.205 51.4527 100.799C51.3387 101.133 51.1465 101.606 51.0259 101.851C50.7622 102.386 51.0674 102.49 51.6476 102.063C52.032 101.781 52.0422 101.804 51.8243 102.464C51.6972 102.849 51.396 103.684 51.1549 104.321L50.7167 105.477L48.525 105.131C46.1469 104.755 46.1417 104.746 47.8472 103.968C48.8264 103.521 49.2431 103.12 49.3334 102.537C49.383 102.217 49.5528 101.859 49.7108 101.743C49.9342 101.579 49.9498 101.466 49.7808 101.234C49.6341 101.033 49.505 100.999 49.3831 101.13C49.284 101.238 48.8202 101.484 48.3524 101.679C47.8847 101.873 47.4903 102.108 47.4761 102.199C47.4619 102.291 47.2595 102.386 47.0262 102.41C46.6368 102.45 46.6247 102.377 46.8771 101.507C47.0285 100.985 47.2348 100.476 47.336 100.375C47.437 100.273 47.64 99.8252 47.7871 99.3794C48.1211 98.3668 49.059 95.9528 49.4261 95.1602C49.5781 94.8323 49.8306 94.1525 49.9873 93.6496C50.1441 93.1467 50.3618 92.6509 50.4709 92.5477C50.5802 92.4445 50.8115 91.8756 50.9848 91.2837C51.3097 90.1746 51.5492 89.9708 53.7722 88.9107C54.9735 88.338 55.4095 87.958 55.4943 87.4105C55.5427 87.0979 55.7233 86.6779 55.8959 86.4773C56.0685 86.2766 56.1576 86.0412 56.0943 85.9541C55.9534 85.761 54.377 86.4047 54.3356 86.6724C54.3193 86.7774 54.1956 86.8463 54.0603 86.8253C53.9252 86.8044 53.5674 86.9573 53.2651 87.1653L52.7156 87.5434L52.8061 87.0409C52.9069 86.4802 53.2852 85.4073 54.1176 83.3197C54.4258 82.5474 54.8686 81.4179 55.102 80.8097C55.5248 79.7083 56.1337 78.8394 56.449 78.8883C56.6573 78.9205 58.0573 78.2344 58.1829 78.0385C58.2343 77.9585 58.3937 77.9114 58.5375 77.9336C59.2041 78.0368 60.5458 75.9044 60.1533 75.3658C59.9971 75.1514 59.9394 75.144 59.9099 75.3345C59.8887 75.4718 59.7743 75.5691 59.6558 75.5508C59.4105 75.5128 58.0136 76.1722 57.872 76.3929C57.8206 76.4729 57.6467 76.5177 57.4853 76.4927C57.3239 76.4677 57.1763 76.5465 57.1576 76.6676C57.1388 76.7886 57.0504 76.8252 56.9611 76.7485C56.806 76.6155 57.1301 75.6104 57.7547 74.288C57.9117 73.9553 58.1724 73.2289 58.3337 72.6736C58.4952 72.1184 58.71 71.581 58.8112 71.4796C58.9122 71.3781 59.1146 70.9301 59.2608 70.4842C59.4071 70.0382 59.7591 69.1707 60.0433 68.5563L60.5598 67.439L62.0431 67.5289C62.8588 67.5786 63.5907 67.5434 63.6693 67.451C63.7479 67.3586 64.144 67.294 64.5493 67.3074C64.9546 67.3209 65.3902 67.3326 65.5174 67.3335C65.6768 67.3347 65.6532 67.6022 65.4414 68.1929ZM7.57179 94.9635C7.70792 94.9846 7.83885 95.0817 7.86274 95.1796C7.90793 95.3659 9.82246 96.9723 10.6479 97.5167C12.2246 98.5564 12.9796 98.9957 13.2647 99.0399C13.4418 99.0673 13.573 99.1792 13.5561 99.2884C13.5392 99.3976 13.8565 99.6039 14.261 99.7469C14.6655 99.89 15.2188 100.171 15.4903 100.372C15.7618 100.572 16.1752 100.766 16.4085 100.803C16.6422 100.84 16.9084 100.97 17.0002 101.093C17.0922 101.215 17.6184 101.485 18.1697 101.693C18.721 101.901 19.7545 102.317 20.4664 102.618C23.3688 103.844 26.9009 105.1 29.5158 105.834C30.4663 106.101 31.65 106.473 32.1462 106.66C32.6423 106.847 33.9721 107.199 35.1012 107.444C36.2302 107.688 37.4208 108.015 37.747 108.169C38.3308 108.445 49.2887 110.702 51.3172 110.964C55.9663 111.564 64.0331 112.396 64.9896 112.374C65.6371 112.359 67.1138 112.397 68.2712 112.458C71.3 112.619 73.3891 112.669 74.6129 112.608C76.7979 112.501 78.0655 112.452 79.3085 112.428C80.0108 112.414 80.6898 112.345 80.8175 112.274C80.9452 112.203 81.5166 112.149 82.0872 112.154C82.6577 112.159 83.2856 112.112 83.4825 112.049C83.6794 111.986 84.2765 111.892 84.8096 111.841C87.2097 111.61 91.1801 110.887 91.3227 110.655C91.3749 110.57 91.5546 110.522 91.7222 110.548C92.1084 110.608 95.4399 109.726 95.7844 109.473C95.8502 109.425 96.6837 109.128 97.6367 108.814C98.5898 108.501 99.3811 108.168 99.3955 108.075C99.4099 107.982 99.538 107.926 99.68 107.951C99.9242 107.993 100.591 109.947 100.519 110.41C100.501 110.529 100.579 110.641 100.693 110.659C100.812 110.677 100.8 111.335 100.666 112.205C100.402 113.907 100.346 113.968 98.4832 114.577C97.8754 114.776 97.3362 115.004 97.285 115.084C97.2336 115.164 97.0824 115.215 96.9489 115.199C96.8153 115.182 96.3051 115.291 95.815 115.442C95.325 115.592 94.8071 115.7 94.6639 115.682C94.521 115.664 94.3893 115.743 94.3716 115.857C94.3539 115.972 94.1708 116.039 93.9646 116.007C93.7584 115.975 93.3876 116.059 93.1403 116.192C92.8932 116.326 92.5505 116.417 92.3789 116.395C92.2072 116.373 91.7781 116.454 91.4253 116.574C91.0723 116.694 90.631 116.77 90.4446 116.742C90.258 116.714 89.844 116.78 89.5246 116.889C89.2051 116.998 88.581 117.099 88.1377 117.113C87.6944 117.128 87.1675 117.197 86.9667 117.267C86.766 117.337 86.166 117.434 85.6333 117.483C85.1006 117.532 84.1304 117.632 83.4772 117.706C81.5218 117.926 76.9365 118.113 73.6555 118.107C68.9471 118.099 66.911 117.978 57.2571 117.135C53.125 116.774 48.0517 115.989 43.9963 115.083C42.2481 114.692 39.3869 114.056 37.6381 113.669C33.2083 112.689 28.5292 111.364 23.8166 109.756C22.8745 109.435 21.4676 108.964 20.6902 108.709C19.9128 108.455 19.1344 108.14 18.9605 108.01C18.7867 107.88 18.1778 107.636 17.6075 107.468C17.0371 107.301 16.5345 107.077 16.4901 106.972C16.4459 106.867 15.9568 106.648 15.4035 106.485C14.8501 106.322 14.4082 106.118 14.4216 106.031C14.4351 105.944 14.1062 105.757 13.6905 105.614C12.9775 105.37 11.6433 104.713 10.7828 104.183C7.99439 102.464 6.11819 101.141 5.86562 100.717C5.76929 100.555 5.60948 100.411 5.51023 100.395C5.3049 100.363 4.59823 99.5848 3.84352 98.5587C3.37292 97.9188 3.35259 97.7691 3.60488 96.8056C3.86835 95.7987 5.28981 93.6174 5.8376 93.3791C5.97224 93.3207 6.36172 93.6445 6.70319 94.0989C7.04462 94.5534 7.43546 94.9424 7.57179 94.9635ZM36.9025 98.573C36.3526 98.9771 36.3886 99.8394 36.9808 100.442L37.4847 100.956L38.1204 100.619C39.3107 99.9879 39.1616 98.5764 37.8838 98.3786C37.5583 98.3282 37.1166 98.4157 36.9025 98.573ZM73.1412 105.005C72.6539 105.438 72.9771 106.42 73.6095 106.427C73.9977 106.432 74.1044 106.301 74.1966 105.705C74.2864 105.125 74.2232 104.95 73.8863 104.848C73.6537 104.777 73.3186 104.848 73.1412 105.005ZM65.3685 104.142C64.4473 104.505 64.8053 106.381 65.8257 106.539C66.3512 106.62 67.2694 105.91 67.3551 105.357C67.4925 104.469 66.3347 103.761 65.3685 104.142ZM27.4645 99.9463C26.6028 101.096 27.6906 102.364 28.7783 101.478C29.3005 101.053 29.3561 100.617 28.9521 100.117C28.5145 99.5756 27.8038 99.4939 27.4645 99.9463ZM5.87222 98.2148C5.98758 98.4084 6.21033 98.5867 6.36718 98.611C6.52424 98.6353 6.63937 98.7413 6.62304 98.8467C6.60674 98.952 6.86356 99.1432 7.19378 99.2714C7.524 99.3997 7.78198 99.5834 7.76707 99.6797C7.75216 99.776 8.01013 99.9597 8.34035 100.088C8.67057 100.216 8.92855 100.4 8.91364 100.496C8.89873 100.593 9.15671 100.776 9.48693 100.904C9.81714 101.033 10.074 101.224 10.0577 101.329C10.0413 101.435 10.1442 101.542 10.2859 101.568C10.4278 101.594 10.8888 101.854 11.3104 102.145C11.732 102.437 12.1823 102.695 12.3112 102.719C12.4399 102.743 12.7907 102.944 13.0908 103.165C13.3907 103.386 13.7937 103.593 13.9863 103.623C14.1789 103.654 14.3748 103.77 14.4215 103.881C14.4681 103.992 14.8353 104.199 15.2375 104.341C15.6396 104.483 16.1077 104.704 16.2778 104.831C16.5532 105.037 18.2738 105.87 20.2502 106.755C21.053 107.114 22.5973 107.662 24.4735 108.255C25.1966 108.483 26.0547 108.799 26.3804 108.956C26.7061 109.114 28.4027 109.563 30.1508 109.955C31.8989 110.347 33.6322 110.775 34.0028 110.905C34.8211 111.194 40.5866 111.565 40.394 111.316C40.3189 111.219 39.1548 110.862 37.8071 110.521C34.8846 109.784 31.0459 108.685 30.4934 108.427C30.2757 108.326 29.412 108.046 28.574 107.806C25.4976 106.924 21.5421 105.412 17.2567 103.479C16.384 103.086 15.3741 102.672 15.012 102.56C14.65 102.448 14.3651 102.286 14.3786 102.198C14.3921 102.111 14.0354 101.921 13.5861 101.775C13.1367 101.63 12.623 101.403 12.4443 101.27C12.0947 101.011 6.02868 97.9196 5.80035 97.8842C5.72451 97.8725 5.75686 98.0212 5.87222 98.2148ZM4.07179 102.808C5.15488 103.794 6.46971 104.751 8.86409 106.298C9.23538 106.537 10.4247 107.181 11.5071 107.727C12.5894 108.273 13.649 108.829 13.8617 108.963C14.0743 109.096 14.654 109.361 15.1497 109.551C15.6454 109.74 16.6336 110.141 17.3455 110.442C18.0575 110.743 19.2279 111.199 19.9466 111.457C20.6652 111.714 21.4498 112.024 21.6899 112.145C22.1269 112.365 23.3632 112.752 26.6029 113.685C27.5524 113.959 28.6422 114.32 29.0246 114.489C30.0929 114.958 35.9601 116.37 43.6495 118.008C48.9447 119.135 62.1818 120.805 65.5001 120.764C66.2016 120.755 67.6754 120.794 68.7751 120.851C71.9237 121.014 74.0912 121.053 74.9111 120.96C75.3268 120.913 76.3829 120.875 77.2579 120.876C80.2736 120.88 81.402 120.836 81.6339 120.704C81.7619 120.631 82.3662 120.581 82.9769 120.593C83.5875 120.605 84.1458 120.546 84.2173 120.462C84.2889 120.378 84.8235 120.317 85.4052 120.327C85.987 120.336 86.5283 120.267 86.6082 120.173C86.688 120.08 87.0044 120.041 87.3112 120.088C87.6179 120.134 88.1577 120.074 88.5105 119.954C88.8635 119.834 89.3048 119.758 89.4912 119.786C89.6778 119.814 90.1191 119.739 90.4719 119.619C90.8249 119.498 91.2196 119.416 91.349 119.435C91.4786 119.454 91.8362 119.386 92.1438 119.284C92.4514 119.181 93.1958 118.998 93.798 118.877C95.225 118.591 98.015 117.761 99.0247 117.322C99.4625 117.132 100.056 116.94 100.344 116.895L100.867 116.813L100.513 118.279C100.23 119.449 100.002 119.914 99.3795 120.588C98.951 121.052 98.5939 121.475 98.5859 121.526C98.5654 121.659 97.6366 122.327 97.5019 122.306C97.3333 122.28 95.9286 122.997 95.8218 123.164C95.7703 123.244 95.6379 123.295 95.5272 123.278C95.3281 123.247 93.5702 123.676 92.9045 123.917C92.715 123.986 92.2498 124.062 91.8706 124.086C91.4916 124.11 91.1698 124.204 91.1558 124.295C91.1417 124.386 90.7438 124.462 90.2715 124.465C89.7992 124.467 89.2417 124.524 89.0322 124.59C88.5096 124.754 86.6396 125.026 85.732 125.068C85.3206 125.087 84.8798 125.159 84.7524 125.229C84.625 125.298 84.0538 125.35 83.4832 125.345C82.9127 125.339 82.2838 125.393 82.0857 125.464C81.8876 125.535 81.1032 125.605 80.3423 125.621C79.5814 125.636 78.1912 125.674 77.253 125.704C73.2936 125.833 68.005 125.713 63.9333 125.402C62.434 125.288 59.8854 125.099 58.2697 124.983C52.1976 124.547 36.522 121.596 29.2019 119.51C23.0212 117.748 14.8062 114.891 14.101 114.257C13.9978 114.165 13.5516 113.964 13.1094 113.811C12.6673 113.658 12.2235 113.445 12.1234 113.338C12.0232 113.231 11.5877 113.019 11.1553 112.867C10.723 112.714 10.1471 112.425 9.87563 112.225C9.60413 112.024 9.17211 111.827 8.91593 111.787C8.65973 111.746 8.46442 111.62 8.48214 111.505C8.49985 111.391 8.40577 111.28 8.27316 111.26C8.14056 111.239 7.14178 110.588 6.05364 109.812C4.08235 108.406 2.92545 107.152 2.7958 106.281C2.75851 106.028 2.65574 105.757 2.56756 105.679C2.38976 105.52 2.25372 103.894 2.30238 102.508C2.34272 101.358 2.50875 101.386 4.07179 102.808ZM6.53969 108.199C6.6911 108.559 9.05288 110.122 10.9789 111.138C11.5183 111.423 12.0991 111.758 12.2696 111.883C12.4401 112.008 12.9305 112.232 13.3595 112.38C13.7885 112.528 14.2214 112.737 14.3215 112.844C14.501 113.036 15.6513 113.501 17.8157 114.257C18.4245 114.47 19.2353 114.783 19.6172 114.954C20.8811 115.519 27.9635 117.206 28.5422 117.08C28.8828 117.006 28.8699 116.951 28.4398 116.635C28.1697 116.437 27.4188 116.079 26.7713 115.84C26.1238 115.602 25.0082 115.181 24.2925 114.905C23.5767 114.629 22.36 114.163 21.5886 113.869C20.8173 113.575 19.5797 113.092 18.8384 112.795C15.4756 111.446 14.8112 111.18 13.5432 110.681C12.8005 110.389 11.6045 109.941 10.8854 109.686C10.1664 109.432 9.4937 109.151 9.39059 109.064C9.28749 108.976 8.83984 108.784 8.39579 108.637C7.95174 108.49 7.32861 108.275 7.01118 108.159C6.61804 108.015 6.46777 108.028 6.53969 108.199ZM8.64644 114.555C8.63385 114.636 8.95467 114.82 9.35921 114.963C9.76371 115.106 10.317 115.387 10.5885 115.588C10.86 115.788 11.333 115.991 11.6396 116.04C11.9461 116.088 12.2363 116.221 12.2844 116.335C12.3327 116.45 12.7577 116.67 13.2289 116.825C13.7003 116.98 14.1676 117.196 14.2674 117.305C14.3672 117.414 14.9 117.673 15.4514 117.879C16.9834 118.454 18.3797 119.013 19.1474 119.359C19.5292 119.531 20.4339 119.854 21.1579 120.077C21.8819 120.3 23.3378 120.763 24.3933 121.106C25.4488 121.448 27.1365 121.956 28.1438 122.233C29.151 122.511 30.4271 122.902 30.9794 123.103C32.1027 123.512 35.8119 124.364 42.2479 125.69C46.9906 126.667 55.8498 127.928 59.4768 128.142C60.7494 128.217 62.8308 128.344 64.1019 128.424C67.5405 128.642 69.8681 128.724 71.0653 128.67C71.6528 128.644 72.8025 128.618 73.6201 128.613C76.1711 128.597 78.2473 128.532 79.6966 128.421C80.4641 128.362 81.5747 128.281 82.1644 128.24C82.7542 128.2 83.4356 128.115 83.6787 128.052C84.0886 127.947 84.6835 127.877 86.9201 127.671C87.3936 127.628 87.8834 127.518 88.0082 127.427C88.1333 127.336 88.4268 127.29 88.6604 127.326C88.8942 127.361 89.3557 127.298 89.6863 127.185C90.0167 127.072 90.5641 126.962 90.9027 126.941L91.5183 126.902L91.1627 128.186C90.967 128.892 90.7255 129.649 90.6258 129.868C90.5264 130.087 90.2188 131.093 89.9423 132.105C89.6659 133.116 89.1665 134.86 88.833 135.98C88.4992 137.1 87.9914 138.842 87.7043 139.852C87.4173 140.862 87.0016 142.236 86.7807 142.904C86.5599 143.573 86.1626 144.901 85.8979 145.856C85.6332 146.811 85.1264 148.553 84.7719 149.729C84.4173 150.904 83.838 152.888 83.4847 154.139C83.1316 155.389 82.7686 156.499 82.6786 156.604C82.5884 156.71 82.7411 157.034 83.0178 157.323L83.5209 157.848L82.9431 157.619L82.3654 157.389L82.3021 158.474C82.2673 159.072 82.1592 159.548 82.062 159.533C81.9648 159.518 81.8344 159.834 81.7721 160.237C81.7099 160.638 81.543 161.116 81.4012 161.297C81.2594 161.479 80.9111 162.502 80.627 163.571C79.4496 168.001 79.0358 169.433 78.7428 170.095C78.5731 170.479 78.2259 171.575 77.9718 172.531C77.335 174.927 76.5871 177.504 76.108 178.952C75.8869 179.621 75.4897 180.949 75.2254 181.904C74.9611 182.859 74.4565 184.602 74.1044 185.778C73.7522 186.953 73.1738 188.924 72.8192 190.158C72.4646 191.392 72.0781 192.626 71.9603 192.901C71.8426 193.175 71.5226 194.228 71.2495 195.24C70.9761 196.252 70.4606 198.089 70.1037 199.322C69.7471 200.556 69.2127 202.438 68.9166 203.505C68.6205 204.572 68.2398 205.759 68.0709 206.143C67.902 206.527 67.5389 207.669 67.2641 208.681C66.9895 209.693 66.4858 211.484 66.145 212.661C65.804 213.838 65.2629 215.767 64.9424 216.948C64.6217 218.128 64.233 219.362 64.0785 219.689C63.9241 220.017 63.6053 221.1 63.3703 222.096C63.0556 223.429 62.8011 224.06 62.4062 224.484C61.8008 225.136 59.6235 226.256 58.8106 226.334C58.5158 226.363 58.2168 226.444 58.1463 226.514C58.076 226.585 57.2853 226.752 56.3895 226.884C55.4938 227.017 54.6126 227.159 54.4315 227.198C53.9432 227.306 51.9522 227.472 50.1326 227.557C41.1928 227.976 25.6356 225.572 17.7048 222.545C14.0706 221.158 9.96161 218.988 9.79443 218.367C9.76957 218.275 9.63086 218.182 9.48562 218.159C9.34058 218.137 8.85391 217.734 8.40399 217.263C7.49915 216.317 7.56755 216.825 7.58233 211.155C7.5849 210.101 7.57826 208.375 7.56737 207.319C7.52583 203.306 7.52522 201.293 7.5646 199.651C7.58717 198.717 7.57956 197.777 7.54756 197.561C7.5158 197.346 7.49972 196.241 7.51182 195.106C7.52416 193.971 7.52459 192.131 7.51281 191.016C7.47017 186.965 7.46957 185.121 7.51037 183.561C7.53319 182.686 7.52001 181.582 7.48104 181.107C7.44187 180.632 7.43618 179.721 7.46792 179.081C7.49986 178.442 7.50326 177.484 7.47523 176.953C7.4474 176.421 7.42158 175.315 7.41815 174.494C7.4145 173.674 7.40707 172.139 7.40155 171.084C7.39604 170.029 7.40356 168.784 7.41826 168.317C7.44636 167.436 7.43774 164.638 7.3998 162.244C7.38771 161.481 7.37609 160.017 7.37387 158.991C7.37185 157.966 7.36004 156.238 7.34772 155.153C7.3354 154.068 7.35204 152.418 7.38476 151.485C7.41748 150.553 7.4186 149.547 7.38726 149.249C7.35591 148.952 7.33273 147.869 7.33569 146.844C7.33864 145.82 7.33159 144.093 7.31989 143.008C7.27947 139.205 7.28576 136.972 7.34186 135.291C7.37312 134.359 7.36432 133.447 7.32272 133.264C7.28092 133.082 7.25157 132.023 7.2574 130.911C7.26826 128.901 7.26478 126.898 7.24415 123.028C7.23838 121.915 7.25207 120.239 7.27505 119.306C7.29782 118.372 7.27656 117.314 7.22776 116.955C7.17875 116.596 7.1697 115.722 7.20749 115.012L7.27607 113.72L7.97269 114.064C8.35587 114.253 8.65901 114.474 8.64644 114.555ZM9.0027 118.501C9.19776 118.704 9.47376 118.89 9.61556 118.916C9.75753 118.942 9.86019 119.049 9.84386 119.154C9.82757 119.259 10.0904 119.453 10.428 119.584C10.7656 119.715 11.2718 119.992 11.5526 120.2C11.8337 120.407 12.1693 120.594 12.2986 120.615C12.4278 120.635 12.779 120.834 13.0791 121.055C13.379 121.276 13.8343 121.491 14.0904 121.531C14.3466 121.571 14.5432 121.69 14.5271 121.794C14.5109 121.899 14.8839 122.111 15.3557 122.266C15.8275 122.421 16.2986 122.642 16.4021 122.755C16.5058 122.869 16.9453 123.114 17.3788 123.299C17.8124 123.484 18.7028 123.875 19.3577 124.167C21.6306 125.183 25.3368 126.615 27.265 127.224C27.9881 127.452 28.8926 127.777 29.2748 127.946C29.6571 128.115 30.8413 128.483 31.9063 128.764C32.9713 129.045 34.5755 129.476 35.471 129.721C39.7634 130.898 55.5233 133.221 59.3255 133.238C60.1418 133.242 61.6643 133.274 62.709 133.31C66.3046 133.433 67.7805 133.448 68.1109 133.363C68.2931 133.317 69.1128 133.265 69.9324 133.247C70.7519 133.229 72.0973 133.173 72.922 133.122C73.7467 133.071 74.9981 133.005 75.7028 132.976C76.4075 132.947 77.0883 132.865 77.2159 132.795C77.3434 132.725 77.8779 132.665 78.4035 132.661C78.9292 132.658 79.4638 132.597 79.5914 132.526C79.7191 132.455 80.2294 132.393 80.7257 132.387C81.2217 132.382 81.6934 132.301 81.774 132.206C81.8544 132.112 82.0981 132.062 82.3152 132.095C82.5323 132.129 83.1298 132.088 83.6427 132.005C84.1557 131.921 84.8167 131.836 85.1116 131.816C85.4065 131.795 85.8467 131.675 86.0897 131.548C86.4767 131.347 86.3672 131.315 85.2072 131.295C84.4788 131.283 83.7987 131.309 83.6958 131.352C83.593 131.396 82.7092 131.458 81.7319 131.49C80.7546 131.522 79.2344 131.577 78.3538 131.612C77.4732 131.647 76.0857 131.667 75.2706 131.656C74.4555 131.645 73.6398 131.672 73.458 131.716C72.8049 131.874 65.6484 131.659 59.7309 131.305C54.2887 130.978 40.5736 128.853 35.4892 127.548C27.5793 125.518 23.9067 124.335 16.1905 121.328C15.4202 121.028 14.2475 120.585 13.5847 120.344C12.9218 120.104 12.3427 119.835 12.2978 119.749C12.2529 119.662 11.8168 119.458 11.3286 119.297C10.8404 119.135 10.1516 118.825 9.79783 118.607C8.95736 118.091 8.55492 118.038 9.0027 118.501ZM12.8017 124.926C12.2431 125.278 11.9755 126.285 12.3166 126.753C12.4321 126.912 12.8832 127.096 13.3191 127.164C13.9844 127.267 14.1584 127.204 14.4036 126.771C14.7314 126.193 14.6987 125.619 14.3073 125.082C13.9527 124.595 13.414 124.539 12.8017 124.926ZM10.0467 125.379C10.0001 126.016 9.88483 127.388 9.79048 128.428C9.69633 129.468 9.60617 130.988 9.58992 131.805C9.57388 132.623 9.51792 134.243 9.46573 135.407C9.347 138.058 9.24932 141.524 9.21172 144.42C9.19564 145.647 9.16125 147.415 9.13495 148.348C9.10866 149.282 9.09283 150.381 9.09983 150.792C9.10683 151.204 9.08405 152.237 9.04928 153.089C9.01449 153.942 9.01504 155.092 9.05069 155.646C9.08611 156.199 9.10191 157.417 9.08576 158.352C9.05772 159.962 9.05837 161.156 9.08975 165.755C9.0971 166.839 9.08376 168.49 9.06016 169.424C9.03656 170.357 9.04951 171.27 9.08883 171.451C9.16176 171.788 9.193 174.411 9.15618 177.106C9.14511 177.925 9.17089 178.743 9.21394 178.926C9.28683 179.236 9.30052 181.484 9.24881 184.682C9.23665 185.442 9.26661 186.405 9.31546 186.822C9.36453 187.24 9.40339 188.252 9.40206 189.072C9.40073 189.892 9.42018 191.381 9.44553 192.38C9.47067 193.38 9.50837 195.015 9.52936 196.014C9.55016 197.013 9.58764 198.601 9.61252 199.542C9.6372 200.483 9.66283 201.829 9.66927 202.532C9.67571 203.236 9.71641 203.962 9.75945 204.144C9.83892 204.479 9.90687 205.758 10.0224 209.083C10.1558 212.931 10.6191 211.036 10.8499 205.697C10.8903 204.766 10.9783 203.055 11.0458 201.894C11.1134 200.733 11.1476 199.3 11.1216 198.71C11.0755 197.654 11.1448 195.556 11.3567 191.611C11.4158 190.508 11.4385 189.409 11.4068 189.17C11.3753 188.93 11.3714 187.732 11.3985 186.506C11.4255 185.28 11.4554 183.272 11.4646 182.043C11.4741 180.815 11.4969 179.141 11.5154 178.324C11.5341 177.506 11.5278 176.355 11.5013 175.765C11.4751 175.176 11.4723 173.881 11.4952 172.889C11.5569 170.212 11.5545 167.751 11.4837 161.332C11.4718 160.246 11.4757 158.69 11.4921 157.872C11.5086 157.055 11.4977 156.143 11.4676 155.845C11.4377 155.547 11.4108 154.489 11.4077 153.493C11.4047 152.496 11.3802 150.863 11.3532 149.863C11.3264 148.863 11.2875 147.276 11.2668 146.335C11.246 145.395 11.209 143.808 11.1842 142.808C11.1595 141.809 11.1423 140.272 11.1461 139.394C11.1499 138.516 11.0959 137.693 11.0264 137.565C10.9568 137.437 10.9323 136.692 10.9719 135.909C11.0115 135.125 10.9761 134.426 10.8935 134.355C10.8107 134.284 10.7723 133.607 10.8081 132.851C10.8438 132.095 10.7954 131.409 10.7007 131.328C10.6057 131.246 10.5846 130.814 10.6538 130.367C10.723 129.92 10.7122 129.134 10.6298 128.619C10.5472 128.104 10.4934 127.236 10.51 126.689C10.5266 126.142 10.4484 125.363 10.3359 124.958L10.1317 124.221L10.0467 125.379ZM83.7744 140.841C83.0939 142.593 82.9356 143.043 82.3175 144.982C80.7755 149.82 80.4591 150.822 79.8165 152.902C79.0227 155.472 78.0217 158.778 77.6215 160.152C77.3926 160.938 77.4096 161.217 77.7235 161.818C77.9308 162.216 78.2095 162.557 78.3429 162.578C78.7004 162.633 79.3215 160.145 79.018 159.874C78.848 159.721 78.8547 159.632 79.0422 159.545C79.1841 159.479 79.4088 159.058 79.5414 158.61C79.674 158.162 79.9877 157.108 80.2385 156.269C80.4894 155.429 80.7945 154.125 80.9164 153.37C81.0383 152.616 81.269 151.741 81.4289 151.426C81.589 151.111 82.0362 149.465 82.4227 147.767C82.8091 146.07 83.3579 143.807 83.6423 142.738C84.2979 140.272 84.3641 139.323 83.7744 140.841ZM49.7335 135.108C49.2261 135.522 49.0808 136.403 49.4391 136.895C50.081 137.775 51.578 137.371 51.7483 136.272C51.9132 135.206 50.5673 134.429 49.7335 135.108ZM68.606 138.013C68.0855 138.437 68.0398 138.704 68.3643 139.421C68.6945 140.151 69.5633 140.3 70.2679 139.748C70.9071 139.247 70.9549 139.026 70.536 138.508C70.0063 137.852 69.0916 137.618 68.606 138.013ZM79.0221 141.237C78.3003 141.803 78.257 142.429 78.8958 143.053C79.4761 143.621 79.8664 143.768 79.9173 143.439C79.935 143.325 80.0714 143.25 80.2203 143.273C80.3693 143.296 80.6257 143.072 80.7904 142.775C81.0303 142.343 81.0296 142.111 80.7863 141.603C80.4121 140.823 79.7308 140.682 79.0221 141.237ZM34.1939 135.546C33.8474 135.725 33.5415 136.017 33.5141 136.194C33.4303 136.735 34.1935 137.451 34.8957 137.49C35.4679 137.522 35.5548 137.446 35.7182 136.767C35.8758 136.112 35.8272 135.955 35.3623 135.614C34.8717 135.254 34.768 135.248 34.1939 135.546ZM16.6398 134.966C16.5227 135.149 16.3964 135.801 16.3588 136.414C16.3212 137.027 16.1714 138.948 16.0263 140.682C15.8812 142.417 15.7634 144.46 15.7642 145.221C15.7654 145.983 15.6997 147.698 15.6184 149.033C15.4567 151.686 15.2962 155.288 15.1565 159.398C15.1069 160.855 15.0172 162.997 14.9567 164.16C14.8965 165.322 14.862 166.515 14.8803 166.81C14.9161 167.392 14.8297 171.13 14.7137 174.026C14.6742 175.016 14.6791 176.167 14.7249 176.584C14.7706 177.001 14.7741 178.248 14.7324 179.354C14.6495 181.56 14.6066 184.512 14.6114 187.642C14.6133 188.756 14.6044 190.384 14.5919 191.26C14.5792 192.137 14.5994 193.003 14.6369 193.184C14.7042 193.51 14.7281 196.255 14.6875 198.943C14.6757 199.703 14.6933 200.76 14.7261 201.292C14.8275 202.933 14.8819 204.557 14.8839 205.995C14.8885 209.288 15.4501 207.503 15.6482 203.565C15.6981 202.577 15.8392 200.49 15.9618 198.927C16.0843 197.365 16.1689 195.605 16.1493 195.016C16.1297 194.427 16.192 192.759 16.2877 191.31C16.4756 188.46 16.631 184.806 16.7285 180.941C16.7623 179.599 16.8395 177.55 16.9 176.388C16.9605 175.226 16.9721 173.934 16.9257 173.517C16.8796 173.1 16.8999 172.087 16.9709 171.267C17.0421 170.447 17.0861 169.208 17.0688 168.513C17.0516 167.819 17.0579 166.487 17.0828 165.554C17.1078 164.62 17.1345 162.899 17.1424 161.729C17.15 160.559 17.1751 158.885 17.1979 158.01C17.221 157.135 17.2022 156.078 17.1564 155.661C17.1107 155.244 17.0975 154.091 17.1271 153.1C17.1568 152.109 17.1742 150.434 17.1662 149.379C17.158 148.323 17.1576 146.742 17.1653 145.864C17.1728 144.987 17.1294 144.07 17.0687 143.826C17.008 143.582 16.9631 142.665 16.9692 141.787C16.9818 139.897 16.9445 136.949 16.8906 135.598C16.8624 134.889 16.7958 134.722 16.6398 134.966ZM21.0515 137.296C19.9236 137.402 19.8567 139.293 20.9701 139.6C22.0189 139.889 22.8821 138.852 22.3661 137.923C22.094 137.433 21.6821 137.237 21.0515 137.296ZM52.1702 149.204C51.7431 149.832 51.7316 149.913 51.9879 150.48C52.2238 151.001 52.4059 151.107 53.3029 151.246C54.4149 151.418 54.9477 151.148 55.0715 150.349C55.1908 149.578 54.7236 149.068 53.645 148.793C52.6473 148.539 52.6167 148.547 52.1702 149.204ZM64.1021 154.669C63.8379 155.28 63.9405 156.088 64.2888 156.142C64.4475 156.167 64.5628 156.28 64.545 156.395C64.4965 156.709 65.0788 156.733 65.7117 156.444C66.8482 155.926 66.4037 154.553 65.0304 154.34C64.4438 154.249 64.2548 154.316 64.1021 154.669ZM76.941 162.663C76.8573 163.203 76.8988 163.641 77.0415 163.727C77.1751 163.806 77.0732 163.846 76.8155 163.816C76.4505 163.772 76.3243 163.886 76.2452 164.33C76.093 165.184 75.2958 168.046 73.1883 175.305C72.8303 176.539 72.2999 178.421 72.0098 179.489C71.7197 180.557 71.3016 181.978 71.0807 182.647C70.6944 183.817 70.3587 185.093 69.0349 190.424C68.6989 191.778 68.2718 193.293 68.0858 193.792C67.8998 194.29 67.565 195.532 67.3413 196.552C67.1179 197.572 66.7633 198.906 66.5536 199.518C66.3439 200.13 65.9011 201.787 65.5696 203.2C65.238 204.613 64.5904 207.335 64.1302 209.249C63.6699 211.163 63.3331 212.926 63.3815 213.166C63.4464 213.486 63.5585 213.309 63.8043 212.497C64.389 210.566 64.8149 209.212 65.4922 207.128C67.4024 201.254 68.4695 197.79 69.1567 195.235C69.4443 194.167 69.8049 193.025 69.9584 192.697C70.1118 192.369 70.4026 191.408 70.6046 190.561C70.8069 189.713 71.1194 188.659 71.2992 188.219C71.4791 187.778 71.836 186.635 72.0922 185.679C72.8971 182.674 73.5763 180.31 73.9965 179.051C74.2194 178.383 74.6371 176.914 74.9249 175.787C75.5228 173.444 76.5904 169.547 77.2479 167.307C78.268 163.832 78.3434 163.262 77.8825 162.5C77.3077 161.549 77.108 161.584 76.941 162.663ZM24.4813 155.693C23.8653 156.195 23.7946 157.213 24.3413 157.707C24.9731 158.279 25.4786 158.314 26.0962 157.83C26.7731 157.299 26.8539 156.714 26.3414 156.055C25.8415 155.412 25.022 155.253 24.4813 155.693ZM63.5189 164.393C62.8284 164.615 62.4773 165.699 62.9053 166.287C63.2649 166.78 64.1279 166.919 64.6136 166.562C65.0015 166.277 65.2657 165.089 65.0123 164.769C64.7079 164.384 64.0549 164.22 63.5189 164.393ZM39.9596 161.367C39.3924 161.891 39.3298 162.403 39.7608 162.994C40.4989 164.007 42.2026 163.519 42.0932 162.327C42.0152 161.476 41.7635 161.174 41.0413 161.066C40.625 161.003 40.2376 161.111 39.9596 161.367ZM27.3125 171.639C26.5016 172.236 26.4016 172.914 27.0261 173.586C28.2648 174.919 30.2471 173.156 29.0462 171.789C28.46 171.122 28.0633 171.088 27.3125 171.639ZM61.6108 181.856C61.403 181.88 61.2121 182.033 61.1869 182.196C61.1616 182.359 61.0477 182.478 60.9337 182.46C60.8198 182.443 60.6997 182.602 60.6668 182.814C60.5917 183.299 61.3436 184.441 61.7831 184.509C62.2331 184.579 63.2765 183.783 63.3396 183.322C63.453 182.493 62.5727 181.747 61.6108 181.856ZM41.8704 183.264C41.3595 183.439 41.2363 183.612 41.1297 184.3C41.0376 184.895 41.0888 185.139 41.3128 185.174C41.4837 185.2 41.6091 185.315 41.5913 185.43C41.5428 185.743 42.1251 185.768 42.758 185.479C43.5498 185.118 43.6608 184.206 42.9927 183.552C42.5326 183.102 42.4236 183.074 41.8704 183.264ZM19.0285 185.081C18.8901 185.146 18.6344 185.391 18.4603 185.627C18.2045 185.973 18.1928 186.163 18.3997 186.621C18.8574 187.633 19.8739 187.781 20.3693 186.907C20.9458 185.89 20.014 184.621 19.0285 185.081ZM55.0763 199.395C54.5433 199.428 54.3568 200.734 54.8334 201.094C55.3038 201.449 56.1491 201.031 56.2476 200.394C56.3274 199.879 55.7131 199.355 55.0763 199.395ZM19.5807 207.825C19.1664 208.184 19.1384 208.29 19.3259 208.786C19.6574 209.662 20.0719 209.923 20.7535 209.682C21.2597 209.503 21.3494 209.358 21.4089 208.622C21.4741 207.813 21.4407 207.76 20.7619 207.596C20.2267 207.466 19.9288 207.524 19.5807 207.825ZM34.3619 212.254C33.7108 212.503 33.5209 212.762 33.5654 213.34C33.6468 214.389 34.7465 215.135 35.4502 214.618C36.2569 214.026 36.3729 212.524 35.621 212.408C35.4633 212.384 35.2169 212.3 35.0736 212.222C34.9301 212.145 34.6099 212.159 34.3619 212.254ZM8.66492 213.1C8.62624 213.35 9.24241 214.075 9.53166 214.12C9.6651 214.14 9.76254 214.233 9.74817 214.326C9.7038 214.612 12.8678 216.783 14.7348 217.747C16.7629 218.794 17.2313 219.016 17.9958 219.295C18.4375 219.457 19.5218 219.854 20.4052 220.178C21.2886 220.501 22.7434 220.971 23.6382 221.221C24.533 221.471 25.8544 221.878 26.5747 222.125C28.2802 222.709 38.0866 224.227 39.5266 224.129C40.1152 224.089 41.4032 224.089 42.3889 224.129C44.3293 224.208 46.5731 224.14 48.7839 223.935C49.5535 223.864 50.6419 223.771 51.2025 223.73C51.7631 223.689 52.2345 223.574 52.2499 223.474C52.2653 223.375 52.4878 223.326 52.7442 223.365C53.0007 223.404 53.4626 223.35 53.7706 223.245C54.0786 223.139 54.8714 222.952 55.5324 222.828C56.1934 222.704 56.7896 222.553 56.8574 222.492C56.9251 222.432 57.1287 222.35 57.3098 222.311C58.0035 222.162 56.3276 222.018 55.2076 222.131C54.5604 222.195 53.4611 222.229 52.7647 222.205C52.0682 222.181 51.3961 222.205 51.2711 222.259C50.6373 222.532 42.7498 222.068 36.3855 221.384C29.9784 220.695 20.717 218.089 12.7608 214.738C12.1035 214.461 11.1026 214.04 10.5364 213.802C9.97023 213.564 9.4479 213.289 9.3758 213.19C9.19763 212.946 8.69861 212.883 8.66492 213.1Z" fill="black"/>
</svg>
