<svg viewBox="0 0 226 165" fill="none" xmlns="http://www.w3.org/2000/svg">
<rect x="225.809" y="26" width="138.578" height="204.808" transform="rotate(90 225.809 26)" fill="#FAD008"/>
<path fill-rule="evenodd" clip-rule="evenodd" d="M47.2018 8.54239C22.5371 13.2959 2.05901 17.3451 1.69523 17.5411C1.33114 17.7371 0.800885 18.2546 0.51672 18.6909C0.0421684 19.4199 0 24.4761 0 80.7501C0 118.919 0.113288 142.316 0.300528 142.812C0.466055 143.249 0.962635 143.845 1.40446 144.137C2.22391 144.677 91.7229 162.014 93.6198 162C94.6595 161.992 95.7156 161.275 96.2582 160.207C96.491 159.749 96.6097 156.676 96.6097 151.109V144.697C96.6097 143.595 97.5014 142.701 98.6036 142.697L124.853 142.618L152.596 142.533C152.924 142.532 153.248 142.45 153.537 142.295L154.416 141.822C155.883 141.033 157.074 139.6 157.616 137.972C158.128 136.433 158.128 25.4474 157.616 23.908C157.074 22.2804 155.883 20.8475 154.416 20.058L153.537 19.5855C153.248 19.4298 152.924 19.3478 152.596 19.3468L124.867 19.2625L98.6108 19.183C97.5168 19.1797 96.6285 18.298 96.617 17.204L96.5448 10.3252C96.4552 1.73088 96.4325 1.45316 95.7704 0.787529C95.3025 0.316961 94.612 0.0705942 93.5676 0.0012441C92.5367 -0.067156 77.6037 2.68373 47.2018 8.54239ZM90.0012 80.9613C90.0012 151.1 89.9738 154.758 89.4505 154.611C89.1478 154.525 70.3841 150.919 47.7541 146.597L8.2333 139.049C7.29044 138.869 6.60848 138.045 6.60848 137.085V80.9398V24.7928C6.60848 23.8337 7.28932 23.0097 8.23119 22.8287L48.0688 15.1763C70.8722 10.7958 89.6352 7.19941 89.7652 7.18421C89.8951 7.16901 90.0012 40.3687 90.0012 80.9613ZM151.366 80.9401V134.04C151.366 135.145 150.47 136.04 149.366 136.04H123.988H98.6097C97.5051 136.04 96.6097 135.145 96.6097 134.04V127.965V121.89C96.6097 120.786 97.5051 119.89 98.6097 119.89H103.061H107.512C108.617 119.89 109.512 118.995 109.512 117.89V116.565V115.24C109.512 114.136 108.617 113.24 107.512 113.24H103.061H98.6097C97.5051 113.24 96.6097 112.345 96.6097 111.24V103.582V95.9235C96.6097 94.8189 97.5051 93.9235 98.6097 93.9235H103.061H107.512C108.617 93.9235 109.512 93.0281 109.512 91.9235V90.5985V89.2735C109.512 88.1689 108.617 87.2735 107.512 87.2735H103.061H98.6097C97.5051 87.2735 96.6097 86.378 96.6097 85.2735V79.3568V73.4401C96.6097 72.3355 97.5051 71.4401 98.6097 71.4401H103.061H107.512C108.617 71.4401 109.512 70.5447 109.512 69.4401V68.1218V66.7764C109.512 65.6823 108.633 64.7913 107.539 64.7766L103.139 64.7176L98.7195 64.6581C97.6337 64.6434 96.7579 63.7651 96.7465 62.6793L96.683 56.6359L96.6202 50.6611C96.6085 49.5484 97.5073 48.6401 98.6201 48.6401H103.055H107.512C108.617 48.6401 109.512 47.7446 109.512 46.6401V45.3151V43.9901C109.512 42.8855 108.617 41.9901 107.512 41.9901H103.061H98.6097C97.5051 41.9901 96.6097 41.0946 96.6097 39.9901V33.915V27.84C96.6097 26.7355 97.5051 25.84 98.6097 25.84H123.988H149.366C150.47 25.84 151.366 26.7355 151.366 27.84V80.9401ZM115.806 45.3151V46.6401C115.806 47.7446 116.701 48.6401 117.806 48.6401H128.865H139.925C141.03 48.6401 141.925 47.7446 141.925 46.6401V45.3151V43.9901C141.925 42.8855 141.03 41.9901 139.925 41.9901H128.865H117.806C116.701 41.9901 115.806 42.8855 115.806 43.9901V45.3151ZM21.7136 50.8238C21.7136 50.9853 25.6101 57.8516 30.3723 66.0821L38.4237 79.9973C38.7968 80.642 38.7806 81.4406 38.3818 82.0697L31.9885 92.1555C28.1156 98.2659 23.7949 105.084 22.3873 107.308L21.7953 108.243C20.9473 109.583 21.9203 111.329 23.5056 111.313L28.0467 111.266L35.0796 111.194C35.8106 111.187 36.4792 110.781 36.8234 110.136L41.4204 101.524C44.2557 96.2114 46.8906 90.8898 47.2755 89.6979L47.4411 89.1853C47.5952 88.7082 48.2778 88.7306 48.4002 89.2169C48.6337 90.1444 51.2431 95.5014 54.1987 101.122L59.0104 110.271C59.3561 110.929 60.0377 111.34 60.7805 111.34H67.7029H72.2815C73.8403 111.34 74.7999 109.636 73.9916 108.303L72.4248 105.719C70.5499 102.628 66.4212 95.8279 63.2498 90.6083C60.0783 85.3884 57.4834 80.9639 57.4834 80.7758C57.4834 80.5877 61.417 73.8918 66.2248 65.8959C71.0323 57.9004 75.0374 51.1715 75.1243 50.9435C75.2526 50.6072 73.8422 50.5448 67.6693 50.6135L61.2378 50.6852C60.5086 50.6934 59.8417 51.0977 59.4973 51.7405L55.4741 59.2484C52.9544 63.9509 50.3723 69.1842 49.7367 70.8777L49.3681 71.8597C49.1069 72.5554 48.1156 72.534 47.8847 71.8277C47.5017 70.6567 45.1576 65.4234 42.675 60.1984L38.698 51.8272C38.3699 51.1366 37.6767 50.6934 36.9121 50.6856L29.9377 50.6139C25.0254 50.5635 21.7136 50.6481 21.7136 50.8238ZM115.873 68.0359L115.909 69.337C115.939 70.4197 116.826 71.2818 117.909 71.2818H128.865H139.822C140.905 71.2818 141.791 70.4197 141.821 69.337L141.857 68.0359L141.89 66.8453C141.921 65.7196 141.017 64.7901 139.891 64.7901H128.865H117.84C116.714 64.7901 115.809 65.7196 115.84 66.8453L115.873 68.0359ZM116.016 87.4847C115.9 87.6006 115.806 89.0968 115.806 90.8097V91.9235C115.806 93.0281 116.701 93.9235 117.806 93.9235H128.865H139.925C141.03 93.9235 141.925 93.0281 141.925 91.9235V90.5985V89.2735C141.925 88.1689 141.03 87.2735 139.925 87.2735H129.075C122.008 87.2735 116.131 87.3685 116.016 87.4847ZM115.806 116.565V117.89C115.806 118.995 116.701 119.89 117.806 119.89H128.865H139.925C141.03 119.89 141.925 118.995 141.925 117.89V116.565V115.24C141.925 114.136 141.03 113.24 139.925 113.24H128.865H117.806C116.701 113.24 115.806 114.136 115.806 115.24V116.565Z" fill="black"/>
</svg>
