<svg viewBox="0 0 882 644" fill="none" xmlns="http://www.w3.org/2000/svg">
<path d="M244.5 27.9991L121.5 87.9991L101 212.999L251 410.999L561.5 559.498L622 711.999L935.5 680.15L737.5 360.499L705.5 168.499L244.5 27.9991Z" fill="white"/>
<path d="M212.5 89.5001C213 91.5001 216 120 232 129.5C244.8 137.1 259.833 141 265.5 142.5C273 139.333 289.3 133.1 296.5 129.5C305.5 125 318.5 118.5 331 121.5C343.5 124.5 363 131.5 365.5 148.5C368 165.5 370 179.5 382.5 184C395 188.5 411.5 185.5 434 171C456.5 156.5 484.5 167.5 485.5 168.5C486.5 169.5 503 187 509.5 204.5C516 222 564.5 225.572 581 218.5C598.52 210.992 593.833 211.667 607.5 204.5" stroke="#FAD008" stroke-width="29" stroke-linecap="round"/>
<path fill-rule="evenodd" clip-rule="evenodd" d="M642.522 152.574C651.444 156.263 658.066 159.806 668.981 166.729C684.128 176.336 688.756 180.384 694.596 189.134C703.027 201.769 705.759 218.64 702.084 235.384L700.863 240.949L704.095 244.046C711.496 251.141 717.406 260.959 719.177 269.103C721.608 280.285 719.535 293.147 713.711 303.01C711.406 306.914 705.836 312.972 701.854 315.906C696.836 319.604 688.829 323.479 682.443 325.299C676.136 327.097 663.868 329.005 658.543 329.016L654.906 329.024L651.731 339.092C649.255 346.947 647.941 350.176 645.753 353.779C644.211 356.318 642.988 358.44 643.036 358.493C643.084 358.546 649.87 362.706 658.115 367.736C666.36 372.766 678.026 379.923 684.039 383.641C690.071 387.37 698.28 391.878 702.353 393.699C722.329 402.632 738.989 415.39 752.651 432.218C757.018 437.596 758.66 440.197 766.089 453.502C768.406 457.651 770.041 459.903 770.625 459.749C771.161 459.608 771.3 459.719 770.962 460.016C770.266 460.627 775.532 470.24 798.338 509.979C800.414 513.596 803.832 519.572 805.933 523.26C810.834 531.86 813.601 536.687 826.645 559.404C832.534 569.659 839.44 581.788 841.994 586.357C848.218 597.492 853.931 607.539 860.878 619.565C864.05 625.055 867.486 631.037 868.514 632.858C869.542 634.679 872.859 640.471 875.885 645.728C885.418 662.289 885.341 662.089 883.257 664.758C882.194 666.119 879.376 666.126 877.999 664.772C877.367 664.149 874.573 659.508 871.791 654.457C869.009 649.405 863.948 640.284 860.545 634.187C857.142 628.089 852.069 618.999 849.271 613.985C846.472 608.971 842.091 601.148 839.533 596.599C836.976 592.05 832.688 584.421 830.007 579.646C827.325 574.87 821.342 564.257 816.711 556.06C812.08 547.864 806.101 537.233 803.423 532.435C751.898 440.127 752.554 441.261 746.501 433.983C729.195 413.168 705.929 398.217 680.859 391.798C662.518 387.103 646.62 386.584 621.259 389.854C612.078 391.037 611.437 391.218 613.022 392.176C613.967 392.748 617.334 394.8 620.505 396.736C637.036 406.828 645.069 410.754 656.061 414.117C662.812 416.183 670.771 417.667 676.023 417.838C682.759 418.059 683.176 418.109 681.911 418.549C681.28 418.768 678.301 418.944 675.292 418.94C659.229 418.92 640.629 413.706 621.726 403.927C617.178 401.574 609.847 398.365 605.435 396.795C599.694 394.753 597.193 393.589 596.64 392.703C595.976 391.636 591.113 390.054 561.793 381.365C528.194 371.407 518.647 369.016 508.261 367.961C503.247 367.452 502.818 367.538 498.781 369.876C493.099 373.165 489.619 376.695 487.701 381.114C486.839 383.101 485.926 384.664 485.673 384.586C485.083 384.406 485.902 379.35 487.22 375.041C487.784 373.199 489.25 370.396 490.478 368.813C491.706 367.23 492.636 365.792 492.543 365.618C492.101 364.785 483.19 359.763 477.039 356.881C468.697 352.972 456.936 349.792 447.023 348.764L440.391 348.076L436.157 350.558C432.082 352.946 430.385 354.822 426.661 361.053C425.47 363.046 425.458 363.004 425.936 358.543C426.392 354.306 428.176 348.899 429.787 346.877C430.394 346.116 429.559 345.652 423.548 343.413C404.769 336.417 355.607 315.702 333.364 305.412C318.469 298.522 299.208 288.92 288.839 283.215C256.778 265.578 248.324 261.762 237.06 259.847C231.76 258.946 224.557 259.77 222.253 261.542L220.532 262.865L224.517 265.977C226.709 267.689 230.988 271.53 234.026 274.514C243.244 283.569 246.433 291.289 244.584 300.075C243.654 304.494 243.681 304.7 245.342 305.74C247.093 306.837 288.407 331.466 305.813 341.79C320.372 350.426 324.055 353.192 336.135 364.564C342.271 370.34 349.332 376.444 351.826 378.131C356.087 381.011 387.112 400.992 410.129 415.679C415.796 419.296 422.486 423.595 424.995 425.233C427.505 426.871 435.738 432.164 443.292 436.994C450.846 441.825 457.647 446.193 458.405 446.701C460.419 448.051 460.78 449.954 459.184 450.803C457.776 451.552 458.193 451.784 437.323 438.612C427.025 432.111 400.724 415.6 393.701 411.227C370.214 396.602 349.979 383.836 346.959 381.741C344.941 380.341 338.474 374.809 332.588 369.447C326.702 364.086 321.402 359.269 320.811 358.742C318.687 356.85 313.802 353.837 297.788 344.538C288.84 339.342 279.432 333.865 276.88 332.367C264.521 325.114 246.455 314.562 244.372 313.38C243.09 312.653 240.007 311.155 237.522 310.052C232.932 308.016 226.777 303.812 219.439 297.704C210.449 290.219 205.215 283.294 204.357 277.749C203.835 274.377 205.38 268.075 207.549 264.736C208.726 262.923 208.685 262.796 205.665 258.854C201.9 253.939 198.99 251.365 193.741 248.307C190.333 246.322 189.04 245.886 185.119 245.394C179.942 244.746 178.847 244.858 174.688 246.463C169.881 248.319 169.579 249.001 172.101 252.314C175.877 257.274 183.75 270.023 184.977 273.163C187.551 279.748 187.587 282.058 185.239 289.71L183.091 296.709L184.68 298.245C186.505 300.009 192.147 305.716 205.846 319.656C222.355 336.455 228.38 342.547 233.542 347.663C236.285 350.381 247.977 361.982 259.523 373.442C275.758 389.553 281.803 395.145 286.189 398.105C292.814 402.577 311.599 413.807 341.718 431.299C367.6 446.332 375.896 451.315 390.652 460.697C408.283 471.906 420.765 481.36 420.922 483.622C421.04 485.319 420.065 485.398 418.156 483.843C405.92 473.88 387.018 461.756 359.979 446.53C336.632 433.381 327.953 428.508 316.771 422.265C301.055 413.492 286.509 404.865 280.592 400.808C277.995 399.027 267.115 389.09 255.174 377.593C222.763 346.383 199.814 324.06 195.063 319.12C193.778 317.784 192.923 317.058 193.162 317.507C194.055 319.18 198.909 326.911 205.811 337.655C209.727 343.749 215.224 352.382 218.027 356.839C222.94 364.651 225.75 368.862 245.27 397.666L254.226 410.883L267.642 418.471C282.734 427.008 302.009 438.042 308.981 442.135C311.533 443.634 320.933 449.138 329.87 454.367C360.457 472.263 387.795 489.142 402.385 499.135C416.034 508.485 419.602 510.408 434.985 516.702C460.802 527.265 515.775 543.066 567.056 554.663C597.471 561.542 595.946 561.089 605.636 566.103C631.758 579.618 652.152 594.604 667.482 611.549C672.028 616.574 682.298 629.322 682.75 630.5C682.855 630.773 684.269 632.773 685.893 634.947C697.922 651.048 723.627 693.695 722.844 696.253C722.657 696.866 721.861 697.493 721.074 697.648C719.824 697.895 718.647 696.197 711.699 684.123C698.779 661.675 684.039 638.754 682.742 639.095C682.381 639.191 682.242 639.035 682.433 638.75C682.623 638.465 681.32 636.206 679.538 633.732C677.755 631.256 676.23 629.431 676.151 629.673C676.07 629.916 675.894 629.737 675.759 629.275C675.416 628.101 667.883 618.607 663.418 613.722C649.707 598.718 631.059 584.897 607.508 572.284C596.05 566.149 593.702 565.343 575.309 561.235C511.02 546.877 453.832 530.314 426.348 518.093C416.148 513.557 410.689 510.431 398.694 502.255C393.089 498.435 386.435 494.016 383.909 492.435C370.11 483.804 364.964 480.663 347.008 469.916C321.49 454.64 307.42 446.444 276.26 428.704L250.721 414.164L247.354 409.094C245.503 406.306 240.164 398.424 235.49 391.579C226.45 378.34 217.264 364.213 196.414 331.478C189.296 320.303 182.037 308.919 180.283 306.18C178.529 303.442 176.327 300.769 175.389 300.24C173.689 299.282 169.528 293.525 166.034 287.296C164.874 285.229 163.85 284.106 163.265 284.26C162.66 284.419 162.573 284.297 163.016 283.907C163.429 283.545 162.346 280.553 160.259 276.285C158.37 272.421 156.096 266.839 155.206 263.88C154.316 260.922 151.645 254.864 149.271 250.419C139.416 231.97 135.01 212.993 136.469 195.285C137.325 184.886 141.454 172.262 146.683 164.053C148.066 161.882 149.159 160.047 149.114 159.973C149.068 159.9 146.458 158.241 143.315 156.287C125.328 145.108 114.242 128.317 113.525 111.166C113.367 107.37 113.718 105.421 115.751 98.8356C118.419 90.1945 120.608 86.5354 126.145 81.4642C127.726 80.0156 128.937 78.5109 128.834 78.1199C128.732 77.7291 128.857 77.5532 129.114 77.7297C129.37 77.9053 131.634 76.8727 134.143 75.4341C148.701 67.0908 166.202 67.0235 185.691 75.236C189.923 77.0189 190.422 77.1077 190.72 76.1333C191.333 74.1276 195.545 67.5853 198.675 63.7746C207.02 53.6168 220.726 45.9314 234.826 43.5039C244.955 41.7605 253.557 41.9289 267.56 44.1457C280.394 46.1774 315.294 57.1509 349.014 69.7563C363.535 75.1845 381.219 81.7925 388.312 84.4405C405.76 90.9546 477.932 113.038 496.236 117.464C513.828 121.718 535.362 126.428 564.977 132.5C605.599 140.827 628.381 146.725 642.522 152.574ZM595.304 147.007C589.865 145.718 574.985 142.525 562.237 139.911C504.225 128.016 486.275 123.518 438.952 109.015C398.324 96.5646 392.338 94.4928 343.364 75.9236C319.119 66.7313 278.785 54.0111 267.859 52.112C238.658 47.0368 218.243 52.5007 204.432 69.0873C200.936 73.2854 196.941 79.8475 197.734 80.0901C198.024 80.1789 198.625 79.7257 199.068 79.0834C200.61 76.8487 204.978 74.7769 213.858 72.0679C224.681 68.7658 229.207 67.9536 237.75 67.7775C257.972 67.3615 284.645 74.3749 335.591 93.5042C388.775 113.475 406.17 119.424 443.954 130.564C482.806 142.02 504.394 147.352 546.088 155.795C580.44 162.751 588.627 164.639 606.296 169.683C626.204 175.366 635.264 178.72 647.009 184.756C675.199 199.243 687.452 211.207 692.692 229.359L694.343 235.077L694.955 231.514C696.654 221.622 696.096 213.115 693.219 205.051C688.272 191.191 682.513 184.499 667.17 174.78C647.321 162.207 628.079 154.77 595.304 147.007ZM597.699 175.092C590.213 173.189 573.213 169.378 559.921 166.623C534.069 161.265 517.565 157.752 506.244 155.198C499.435 153.661 499.267 153.659 501.137 155.116C502.201 155.945 504.836 158.345 506.992 160.449C509.627 163.021 511.183 164.133 511.737 163.838C513.404 162.951 517.313 164.759 518.48 166.957C519.426 168.739 519.418 169.461 518.426 171.906C517.301 174.68 517.343 174.94 519.792 180.335L522.319 185.902L528.096 187.45C533.636 188.934 533.862 188.939 533.589 187.551C533.141 185.275 531.741 184.601 529.958 185.804C528.421 186.841 528.381 186.834 528.76 185.596C529.515 183.127 531.381 181.467 533.81 181.104C538.234 180.442 541.875 184.181 541.241 188.733C540.876 191.356 540.896 191.386 543.242 191.699C544.545 191.874 547.776 192.675 550.421 193.48C555.155 194.921 555.241 194.919 555.936 193.345C556.324 192.465 557.551 191.421 558.662 191.024C561.605 189.974 564.115 191.56 564.586 194.767C564.926 197.079 565.138 197.291 567.999 198.166C571.1 199.115 571.207 199.093 578.111 196.123C579.134 195.683 582.682 193.467 585.995 191.2C593.176 186.284 596.396 184.945 601.779 184.631C606.757 184.341 610.86 185.546 615.365 188.621C618.112 190.496 619.3 190.98 621.147 190.978C625.603 190.973 628.592 196.157 626.537 200.325C625.971 201.47 625.309 202.962 625.066 203.641C624.616 204.888 623.857 211.881 624.117 212.371C624.194 212.517 630.717 214.084 638.612 215.854C654.833 219.489 675.617 225.72 680.792 228.499C682.693 229.52 684.393 230.278 684.57 230.184C685.19 229.854 681.707 222.31 679.054 218.235C670.61 205.269 645.205 190.121 614.098 179.505C612.565 178.982 605.185 176.996 597.699 175.092ZM256.125 76.9501C249.507 75.9245 240.399 75.2176 236.799 75.4497C235.136 75.5563 235.148 75.5943 237.19 76.6634C242.344 79.3635 241.797 87.1653 236.335 88.8429L234.06 89.5413L234.36 92.4052L234.661 95.2685L249.053 100.472C267.893 107.283 271.082 108.339 271.741 107.988C272.045 107.826 271.948 107.589 271.526 107.46C271.104 107.331 271.047 106.973 271.399 106.663C271.83 106.285 271.562 106.106 270.58 106.116C268.799 106.136 269.101 104.389 271.156 102.784C274.358 100.282 279.204 103.12 278.744 107.229C278.604 108.479 278.236 109.725 277.925 109.997C277.588 110.294 278.911 111.062 281.208 111.904L285.056 113.315L290.28 110.775C296.743 107.631 302.637 105.53 308.344 104.333C310.748 103.829 313.91 102.676 315.37 101.77C317.868 100.22 318.262 100.191 322.025 101.264C324.226 101.892 328.57 102.643 331.68 102.933C340.165 103.726 352.928 108.257 359.453 112.794C370.325 120.354 377.594 130.042 380.349 140.641L381.321 144.382L400.639 150.292L419.958 156.202L425.958 152.607C430.934 149.625 431.794 148.883 430.999 148.261C430.367 147.767 429.523 147.86 428.527 148.532C426.406 149.964 425.951 149.593 427.133 147.397C429.141 143.67 434.482 142.442 437.124 145.1C438.107 146.089 438.892 146.065 442.895 144.922C445.444 144.195 449.156 143.313 451.144 142.963L454.76 142.326L430.678 134.939C406.012 127.372 388.629 121.449 361.59 111.399C344.302 104.973 314.63 94.0354 308.096 91.6808C297.053 87.7018 262.736 77.9743 256.125 76.9501ZM296.132 89.7455C297.867 91.0509 298.364 94.3886 297.127 96.4387C295.899 98.4762 292.998 99.1918 290.857 97.9848C289.051 96.9665 288.287 94.7831 289.91 95.2798C290.416 95.4345 290.916 95.2792 291.021 94.9348C291.126 94.5904 290.914 94.2173 290.55 94.1059C290.186 93.9945 290.148 93.6746 290.466 93.3953C291.275 92.6842 290.174 92.4494 288.988 93.0802C287.356 93.9489 288.763 90.5082 290.482 89.4271C292.375 88.2366 294.269 88.3434 296.132 89.7455ZM575.95 178.752C579.034 181.217 578.527 185.898 575.029 187.255C572.769 188.132 571.09 187.836 569.555 186.291C568.353 185.081 568.527 183.946 569.851 184.352C570.368 184.509 570.876 184.357 570.982 184.012C571.087 183.668 570.875 183.295 570.511 183.184C570.146 183.072 570.108 182.752 570.426 182.473C570.744 182.194 570.706 181.874 570.342 181.762C569.978 181.651 569.576 181.898 569.449 182.311C569.288 182.838 569.083 182.805 568.762 182.2C568.236 181.211 569.682 178.499 571.015 177.971C572.592 177.348 574.587 177.663 575.95 178.752ZM656.936 206.546C658.198 208.163 658.403 212.088 657.303 213.571C654.874 216.847 650.489 217.094 648.144 214.087C646.809 212.376 646.986 211.382 648.463 212.293C649.801 213.118 650.587 212.502 650.667 210.566C650.74 208.794 649.258 208.198 647.655 209.354C646.552 210.15 646.507 210.133 646.823 209.032C648.166 204.358 654.093 202.901 656.936 206.546ZM226.463 76.6784C226.242 76.7956 226.608 77.3726 227.277 77.9593C228.333 78.8856 228.751 78.8117 230.454 77.398L232.415 75.7704L229.641 76.1172C228.115 76.3078 226.685 76.5606 226.463 76.6784ZM464.323 150.025C449.297 149.323 438.759 153.074 419.856 165.853C403.312 177.038 397.163 179.346 388.933 177.456C384.176 176.365 380.807 174.451 378.396 171.472C376.202 168.762 375.284 165.589 374.912 159.436C374.169 147.116 373.172 142.331 369.948 135.599C361.385 117.722 337.607 107.26 314.34 111.133C302.4 113.121 294.854 116.369 282.01 125.049C269.404 133.568 264.907 134.697 256.59 131.433C247.639 127.921 235.175 117.599 231.137 110.353C228.396 105.436 227.414 101.995 226.906 95.5208C226.461 89.8527 225.189 86.7819 222.161 84.0681C218.113 80.4395 211.938 79.8742 207.061 82.6862C201.779 85.7315 199.957 91.1596 201.563 99.0666C204.956 115.776 213.172 127.992 227.618 137.805C231.083 140.16 232.979 140.865 249.213 145.831C268.998 151.885 268.009 151.768 275.857 148.973C281.088 147.109 282.322 146.45 292.065 140.316C306.992 130.919 316.723 128.308 330.129 130.103C341.796 131.665 352.493 140.787 353.532 150.058C353.71 151.644 353.999 156.201 354.175 160.184C354.35 164.168 355.016 169.633 355.654 172.327C356.793 177.136 360.494 184.328 362.698 186.016C363.313 186.486 372.482 189.74 383.075 193.246L402.336 199.622L407.108 198.26C412.583 196.696 424.171 190.718 432.954 184.926C448.916 174.4 456.488 172.391 468.619 175.462C475.819 177.286 480.304 179.754 483.803 183.82C486.049 186.43 485.922 186.176 491.359 198.896C495.706 209.065 499.598 214.944 506.067 221.114L510.419 225.263L523.207 227.712C530.239 229.059 542.046 231.513 549.443 233.167C556.84 234.82 564.414 236.183 566.274 236.195C568.134 236.208 572.755 235.475 576.543 234.567C593.439 230.514 609.726 221.368 614.898 213.028C619.386 205.791 615.348 195.532 607.005 192.979C601.832 191.397 598.585 192.346 590.261 197.872C583.593 202.298 574.303 206.554 568.515 207.833C556.178 210.56 546.839 210.868 538.524 208.822C525.054 205.508 520.829 201.375 512.639 183.497C506.213 169.472 499.885 162.418 488.149 156.196C482.563 153.236 471.456 150.358 464.323 150.025ZM262.717 87.3146C264.455 89.1264 264.863 90.9789 264.083 93.5275C262.783 97.7751 256.583 98.4469 254.077 94.6115L252.977 92.9284L254.667 93.4223C256.747 94.0308 257.58 93.3822 257.2 91.4497C256.844 89.6384 255.466 89.1334 254.166 90.3361C253.356 91.0872 253.291 90.9085 253.776 89.2654C254.94 85.3245 259.79 84.2663 262.717 87.3146ZM404.456 134.567C405.326 136.611 405.333 137.479 404.491 139.201C403.29 141.659 400.056 143.36 397.86 142.688C397.038 142.436 395.799 141.334 395.107 140.238L393.849 138.245L395.328 138.764C397.07 139.377 397.991 138.118 397.286 136.089C396.836 134.791 396.691 134.734 395.48 135.378C393.566 136.396 393.184 136.034 394.267 134.227C396.921 129.798 402.507 129.985 404.456 134.567ZM230.335 80.2105C230.06 80.3566 230.46 81.4416 231.223 82.6222C232.867 85.1652 233.804 85.0239 233.027 82.3488C232.496 80.5239 231.393 79.6474 230.335 80.2105ZM160.733 76.8615C145.985 76.3541 132.043 83.3112 125.671 94.3569C121.778 101.107 120.477 110.371 122.308 118.315C125.02 130.087 134.916 142.082 148.878 150.52C152.063 152.445 154.77 153.944 154.894 153.851C155.017 153.757 156.263 152.605 157.662 151.291C168.136 141.445 186.554 135.455 203.943 136.239L211.167 136.565L207.275 131.306C198.439 119.368 191.574 99.1196 193.372 90.3009C193.912 87.6589 193.807 87.096 192.702 86.7031C191.981 86.447 188.692 84.9976 185.392 83.4827C177.782 79.9873 166.935 77.0749 160.733 76.8615ZM634.36 222.862C627.49 221.331 621.393 219.942 620.809 219.778C620.227 219.613 619.366 220.053 618.896 220.757C618.427 221.461 615.318 224.285 611.987 227.032C605.728 232.195 594.837 238.464 588.288 240.675L584.573 241.929L590.606 244.28C631.996 260.41 654.135 285.401 655.075 317.056L655.202 321.346L659.71 321.151C680.176 320.267 696.491 313.296 705.172 301.729C707.844 298.168 708.58 296.61 710.384 290.693C713.019 282.06 713.126 276.407 710.807 268.374C706.958 255.044 693.437 242.494 673.727 233.961C667.518 231.272 650.264 226.408 634.36 222.862ZM238.096 106.901C240.287 110.405 245.834 115.654 252.023 120.076C256.127 123.009 257.96 123.942 261.07 124.68C265.538 125.742 267.415 125.248 273.24 121.478L276.978 119.058L270.31 116.517C260.506 112.78 244.503 106.946 240.221 105.548L236.488 104.329L238.096 106.901ZM535.329 197.671L528.639 196.054L531.328 197.815C534.636 199.983 544.427 202.538 548.932 202.409L552.038 202.321L547.028 200.804C544.273 199.97 539.008 198.56 535.329 197.671ZM382.512 153.717C382.136 154.945 382.812 162.459 383.485 164.532C384.776 168.506 390.064 170.952 395.529 170.101C398.447 169.648 405.548 166.225 409.714 163.264L411.567 161.947L397.132 157.531C388.3 154.829 382.624 153.349 382.512 153.717ZM321.329 139.498C314.934 139.536 306.9 141.506 301.613 144.331C299.326 145.553 293.941 148.766 289.645 151.472L281.835 156.392L285.617 157.945C287.697 158.8 301.152 163.856 315.516 169.182C329.88 174.508 343.645 179.64 346.103 180.588C351.009 182.478 350.928 182.553 349.126 177.769C347.632 173.805 346.648 167.247 346.345 159.234C345.993 149.895 345.988 149.88 342.702 146.805C337.381 141.826 330.413 139.443 321.329 139.498ZM460.482 184.007C452.57 183.725 447.195 185.627 436.047 192.65C431.781 195.339 425.867 198.916 422.905 200.602L417.52 203.665L429.224 206.783C443.791 210.664 467.622 216.35 481.194 219.182C486.854 220.363 492.16 221.534 492.984 221.785C494.275 222.178 494.071 221.541 491.503 217.175C489.864 214.389 486.805 208.05 484.707 203.088C482.608 198.127 480.32 193.381 479.623 192.542C475.852 188.005 467.443 184.255 460.482 184.007ZM694.073 261.841C695.658 262.722 697.863 267.451 697.747 269.718C697.7 270.639 697.982 271.494 698.372 271.619C698.764 271.744 699.677 272.217 700.401 272.669C701.126 273.122 701.737 273.228 701.76 272.905C701.783 272.581 702.09 271.942 702.441 271.485C702.793 271.027 703.391 270.208 703.77 269.665C704.709 268.317 707.41 269.241 708.494 271.282C709.64 273.44 708.589 276.772 706.249 278.401C704.834 279.385 704.105 280.64 702.995 284.003C702.208 286.387 701.744 288.392 701.963 288.459C702.182 288.526 702.521 289.671 702.717 291.004C703.123 293.771 701.458 296.753 699.263 297.186C697.503 297.533 694.829 293.582 695.45 291.553C695.833 290.299 695.603 289.937 694.131 289.486C693.149 289.186 691.591 288.008 690.668 286.868L688.99 284.795L685.316 285.915C683.295 286.531 681.383 286.956 681.065 286.859C680.749 286.762 680.381 285.857 680.249 284.847C679.861 281.893 682.726 278.468 686.143 277.798C687.743 277.484 689.014 276.797 689.217 276.136C689.408 275.517 690.248 274.31 691.084 273.454C691.99 272.526 692.338 271.818 691.946 271.698C691.584 271.587 690.122 269.241 688.697 266.485C686.501 262.236 686.276 261.382 687.227 260.876C688.465 260.217 692.067 260.726 694.073 261.841ZM546.286 237.691C540.414 236.479 527.636 233.962 517.892 232.099C428.796 215.066 389.113 203.699 292.422 167.512C271.257 159.591 231.863 147.341 221.822 145.558C192.411 140.336 173.088 144.992 158.627 160.785C152.251 167.748 150.344 171.244 147.04 182.026C143.958 192.083 143.374 196.482 143.836 206.163C144.358 217.135 148.204 231.212 153.714 242.316L157.159 249.258L158.593 247.76C160.497 245.77 162.135 245.196 164.147 245.812C165.36 246.183 166.734 245.719 169.258 244.088C172.469 242.013 172.684 241.73 172.332 240.063C171.741 237.269 173.859 231.058 176.074 229.087C177.099 228.176 178.363 227.562 178.884 227.722C179.649 227.956 179.534 228.17 178.292 228.831C176.361 229.858 175.953 232.477 177.184 235.924C178.315 239.087 179.658 240.431 181.795 240.54C183.216 240.613 183.511 240.341 183.628 238.859C183.705 237.887 183.322 235.645 182.777 233.877C182.232 232.11 181.996 230.728 182.253 230.807C182.511 230.885 183.996 233.149 185.554 235.837C188.232 240.459 188.594 240.812 192.204 242.335C198.504 244.992 204.369 249.693 209.394 256.114C212.442 260.007 212.508 260.052 214.794 259.709C216.067 259.518 218.596 258.528 220.413 257.509C227.539 253.512 236.447 253.779 249.229 258.37C257.929 261.495 265.568 265.23 283.749 275.251C315.958 293.004 355.859 311.377 405.194 331.172C413.238 334.4 420.975 337.544 422.386 338.158C424.031 338.874 425.028 339.027 425.163 338.584C425.305 338.121 425.608 338.248 426.079 338.967C427.142 340.586 431.232 340.99 435.382 339.884L439.032 338.913L437.413 337.935C436.521 337.398 434.007 336.601 431.825 336.165L427.857 335.371L433.29 334.192C439.371 332.872 443.1 333.5 445.363 336.222C446.881 338.049 447.247 340.976 446.179 342.748C445.444 343.967 445.481 343.983 449.898 344.445C452.352 344.701 458.097 345.847 462.664 346.991C472.171 349.371 479.734 352.519 489.167 358.019C493.516 360.555 496.061 361.696 497.59 361.795C498.796 361.873 500.145 362.128 500.589 362.362C501.033 362.595 502.94 362.902 504.828 363.043C511.066 363.51 510.74 363.636 509.565 361.208C507.573 357.091 508.241 349.717 510.543 350.422C510.901 350.531 510.919 350.862 510.583 351.157C509.236 352.34 509.848 355.015 511.925 357.026C513.862 358.9 520.247 361.645 521.33 361.07C522.143 360.636 519.5 355.771 517.18 353.431C515.069 351.302 514.989 351.103 516.549 351.862C517.532 352.341 519.545 353.309 521.022 354.015C526.073 356.425 528.642 360.418 527.513 364.107L526.913 366.069L560.923 376.23C589.652 384.813 595.204 386.315 596.674 385.906C600.978 384.709 611.293 379.456 616.844 375.635C633.05 364.478 643.057 350.866 647.326 334.173C649.714 324.835 650.011 318.085 648.452 308.585C644.46 284.256 625.464 264.525 592.673 250.65C587.528 248.473 556.447 239.79 546.286 237.691ZM573.581 257.142C579.643 260.387 581.003 261.293 582.031 262.773C583.839 265.377 583.696 268.81 581.688 271.011C576.745 276.428 567.035 272.444 564.484 263.954C563.372 260.251 563.951 255.728 565.593 255.297C566.003 255.189 566.154 255.7 565.93 256.432C564.827 260.038 567.347 263.024 572.935 264.734C575.064 265.385 576.805 265.615 576.914 265.26C577.278 264.071 574.763 260 572.338 257.853C570.097 255.868 570.631 255.562 573.581 257.142ZM388.007 217.772C393.239 220.579 395.241 223.93 394.037 227.865C391.483 236.214 378.304 232.756 375.636 223.037C374.641 219.411 375.463 214.467 377.133 214.028C377.69 213.881 377.682 214.209 377.108 215.041C375.973 216.686 376.8 219.305 379.124 221.428C381.417 223.524 387.869 225.661 388.24 224.448C388.629 223.176 386.316 219.509 383.632 217.144L381.207 215.007L383.38 215.732C384.575 216.131 386.657 217.049 388.007 217.772ZM510.884 261.974C512.58 264.099 512.718 264.791 511.955 267.325C511.114 270.117 509.367 271.491 506.029 271.983C501.309 272.68 492.021 268.655 491.164 265.541C490.729 263.961 491.184 263.551 491.892 264.886C492.74 266.482 493.725 266.797 496.89 266.482C500.998 266.073 504.117 264.822 503.326 263.9C502.388 262.805 497.808 261.463 495.53 261.615C491.818 261.863 493.377 261.051 498.768 259.928C504.894 258.652 508.754 259.303 510.884 261.974ZM270.576 190.888C274.081 195.24 271.643 200.251 265.67 200.97C259.901 201.665 250.727 197.104 250.729 193.542C250.73 192.718 250.844 192.721 251.32 193.557C252.31 195.297 255.529 195.795 259.675 194.85C264.643 193.718 264.295 192.63 258.526 191.26C256.217 190.711 254.347 190.206 254.368 190.136C254.389 190.066 255.989 189.618 257.923 189.139C265.455 187.277 267.945 187.622 270.576 190.888ZM624.233 304.46C626.473 305.932 627.799 309.16 627.102 311.438C626.427 313.646 623.436 315.707 620.481 316.001C617.642 316.283 611.012 314.251 608.419 312.304C606.53 310.886 604.826 307.362 606.239 307.794C606.625 307.912 606.86 308.272 606.762 308.593C606.454 309.597 608.605 310.64 610.705 310.505C611.811 310.434 614.168 310.033 615.942 309.615C618.354 309.045 618.993 308.649 618.475 308.046C617.519 306.931 612.329 305.398 610.03 305.552C608.365 305.663 608.267 305.591 609.223 304.962C609.822 304.568 610.54 304.316 610.819 304.402C611.098 304.487 612.935 304.149 614.9 303.65C619.096 302.585 621.729 302.813 624.233 304.46ZM210.228 178.114C213.566 180.937 213.273 185.322 209.587 187.71C206.701 189.58 203.344 189.564 198.405 187.657C193.841 185.895 190.75 183.291 191.322 181.689C191.551 181.045 191.731 180.971 191.777 181.503C191.819 181.987 192.747 182.649 193.839 182.975C196.022 183.627 203.527 182.524 203.693 181.527C203.751 181.182 201.558 180.227 198.821 179.402L193.844 177.904L198.916 176.824C204.897 175.551 207.556 175.853 210.228 178.114ZM316.289 220.408C314.628 222.06 314.385 223.943 315.427 227.061C316.47 230.185 319.783 234.219 321.034 233.89C322.004 233.635 322.167 230.959 321.475 226.651C320.793 222.403 321.68 223.056 324.8 229.099C326.512 232.413 326.791 233.666 326.349 236.035C324.988 243.317 316.83 243.724 312.642 236.719C309.493 231.45 310.415 223.822 314.625 220.318C316.413 218.829 317.8 218.905 316.289 220.408ZM537.723 297.75C536.751 298.16 535.815 298.956 535.642 299.521C534.897 301.954 536.793 306.72 539.988 310.452C541.192 311.857 541.453 311.957 542.019 311.233C543.054 309.906 542.946 305.115 541.821 302.469C540 298.187 541.637 299.376 544.473 304.396C547.855 310.379 548.259 313.015 546.277 316.177C545.282 317.766 544.217 318.567 542.741 318.836C534.069 320.421 528.31 308.736 533.515 300.118C534.35 298.736 535.75 297.373 536.625 297.088C538.929 296.339 539.811 296.87 537.723 297.75ZM435.249 266.774C442.146 270.643 444.06 273.861 442.06 278.223C440.57 281.47 438.424 282.541 434.769 281.858C430.358 281.034 428.025 279.539 425.881 276.161C422.823 271.342 422.429 266.043 425.001 264.316C426.302 263.441 426.342 263.449 425.647 264.452C424.49 266.121 424.789 267.842 426.59 269.896C428.545 272.125 434.296 274.766 435.966 274.201C436.925 273.877 436.789 273.273 435.123 270.474C434.029 268.637 432.523 266.766 431.777 266.315C431.03 265.864 430.496 265.244 430.59 264.937C430.795 264.267 430.748 264.249 435.249 266.774ZM216.996 207.176C216.9 207.49 216.487 207.834 216.078 207.942C214.992 208.227 214.323 210.945 214.755 213.318C215.207 215.806 218.426 220.645 219.936 221.107C221.622 221.622 222.152 216.705 220.842 212.706C220.247 210.894 219.929 209.462 220.133 209.525C220.337 209.587 221.699 211.545 223.158 213.874C227.517 220.834 227.399 225.854 222.821 228.29C220.57 229.487 220.048 229.496 217.358 228.382C215.722 227.704 213.808 226.457 213.105 225.61C209.518 221.294 209.665 213.105 213.406 208.841C215.102 206.908 217.405 205.841 216.996 207.176ZM360.625 274.776C364.058 278.275 361.299 283.99 355.752 284.871C350.829 285.652 341.705 281.723 340.798 278.43C340.298 276.617 341.079 275.63 341.642 277.364C341.943 278.294 342.662 279.199 343.239 279.375C344.626 279.8 353.277 278.345 353.489 277.651C353.795 276.65 350.639 275.275 347.067 274.854C343.271 274.406 342.577 273.624 345.737 273.355C346.8 273.265 349.125 272.867 350.904 272.472C354.573 271.657 358.471 272.581 360.625 274.776ZM489.002 315.762C494.532 318.534 496.623 321.946 495.346 326.117C493.363 332.602 482.956 331.841 478.418 324.88C477.181 322.982 476.092 317.927 476.514 316.042C477.224 312.873 477.588 312.664 478.061 315.156C478.702 318.537 481.265 320.917 485.742 322.288C487.72 322.894 489.413 323.146 489.505 322.848C489.907 321.534 487.902 318.108 485.339 315.731C482.836 313.409 482.742 313.209 484.413 313.77C485.437 314.114 487.502 315.011 489.002 315.762ZM291.139 255.305C297.96 258.698 300.311 263.845 296.919 267.961C295.164 270.091 293.161 270.699 289.561 270.198C285.572 269.642 282.222 266.836 280.197 262.355C278.099 257.713 278.59 252.354 281.118 252.291C281.722 252.276 281.823 252.49 281.39 252.87C279.984 254.104 280.535 256.75 282.618 258.766C285.077 261.145 291.47 263.431 291.884 262.079C292.273 260.808 289.96 257.141 287.276 254.776C284.557 252.38 285.526 252.513 291.139 255.305ZM634.496 368.656C630.58 372.767 621.046 380.499 617.165 382.712C609.994 386.8 610.004 386.765 616.393 385.687C631.779 383.089 648.196 382.194 660.544 383.281C669.232 384.045 669.997 384.031 668.455 383.139C667.816 382.77 661.08 378.621 653.486 373.921C645.892 369.22 639.337 365.248 638.919 365.093C638.501 364.939 636.51 366.542 634.496 368.656ZM579.342 347.575C582.385 349.349 584.415 351.69 584.683 353.732C585.06 356.617 583.818 359.469 581.628 360.743C576.057 363.984 567.267 358.802 565.611 351.302C564.9 348.078 565.695 344.399 567.268 343.635C568.154 343.206 568.208 343.303 567.568 344.168C566.267 345.925 566.701 347.693 568.973 349.891C571.417 352.255 576.155 354.418 577.825 353.931C578.759 353.659 578.735 353.193 577.679 351.054C576.987 349.65 575.45 347.646 574.265 346.601L572.109 344.701L574.606 345.485C575.979 345.916 578.111 346.857 579.342 347.575ZM391.219 301.371C389.436 302.462 388.968 303.79 389.452 306.389C390.056 309.629 393.364 314.571 395.333 315.173C397.082 315.708 396.926 308.135 395.107 304.178C393.951 301.664 398.521 308.54 400.026 311.58C402.184 315.939 401.362 320.116 397.958 322.084C393.145 324.868 386.442 320.054 385.417 313.078C384.871 309.356 386.742 303.408 388.975 301.77C389.933 301.067 391.16 300.487 391.704 300.481C392.431 300.472 392.304 300.707 391.219 301.371ZM212.764 272.445C211.613 276.21 211.634 276.402 213.578 279.883C215.956 284.14 222.775 290.816 230.598 296.546L236.277 300.705L236.976 298.419C237.929 295.304 237.068 290.463 235.004 287.33C231.968 282.719 218.142 269.994 215.032 268.946C214.112 268.636 213.766 269.171 212.764 272.445ZM162.643 256.268C162.096 257.24 161.811 258.716 161.989 259.663C162.572 262.785 167.815 274.25 172.343 282.306L176.848 290.321L177.991 287.309C179.587 283.101 179.451 279.977 177.48 275.615C175.324 270.845 165.204 255.111 164.024 254.696C163.797 254.616 163.175 255.324 162.643 256.268ZM707.449 470.02C707.611 470.323 705.883 470.854 703.611 471.2C694.279 472.622 689.562 476.633 679.197 491.962C673.356 500.601 668.391 506.114 664.13 508.694L661.124 510.513L662.108 508.76C662.649 507.795 665.696 501.948 668.88 495.766C672.064 489.584 675.729 483.07 677.025 481.291C683.129 472.911 690.081 468.314 697.329 467.869C701.016 467.642 706.845 468.882 707.449 470.02Z" fill="black"/>
</svg>
