<svg width="145" viewBox="0 0 240 227" fill="none" xmlns="http://www.w3.org/2000/svg">
<path d="M156 67L80.5 65L76.5 56V44.5L84 33L96 27L99.5 12.5L107.5 4C111.667 3 120.1 1 120.5 1C120.9 1 134.333 5.33333 141 7.5L148 17L147 30.5L157.5 37.5L161.5 49.5L160 55.5L156 67Z" fill="#FFE681"/>
<path d="M48.5 124L25 137.5L15.5 118L17.5 101.5L5 93L2 78C3.66667 74.6667 7 67.9 7 67.5C7 67.1 3.33333 60.3333 1.5 57L6.5 47.5L21 40.5L27.5 42.5C29.8333 46 34.6 53 35 53C35.4 53 45.5 57 50.5 59L56.5 71L55 80C56.1667 80.3333 60.2 82 67 86C73.8 90 80.5 100.333 83 105L48.5 124Z" fill="#FB97A9"/>
<path d="M213 139.5C213 139.1 173 116.333 153 105L155.5 91L168 77L185 70.5L210 66L214 61.5L219.5 48L232.5 72.5L238 94L235.5 111L226 129L216.5 139C215.333 139.333 213 139.9 213 139.5Z" fill="#FBB68B"/>
<path fill-rule="evenodd" clip-rule="evenodd" d="M113.973 0.551765C108.618 1.89387 105.778 3.69978 101.429 8.52902C97.4721 12.924 95.3579 18.0718 95.3579 23.3119C95.3579 25.1609 94.7208 25.7602 91.8348 26.6241C87.0538 28.0541 80.1316 34.2972 77.0416 39.9662C74.816 44.049 74.5401 45.3794 74.8366 50.6124C75.0586 54.5382 75.8726 57.9293 77.206 60.4835C78.7074 63.3597 79.0866 65.1746 78.6598 67.4461C78.0219 70.8399 79.3256 73.1895 81.8469 73.1895C82.9952 73.1895 83.6843 74.5119 84.5343 78.348C85.1633 81.1847 88.5103 92.1862 91.9723 102.795C95.4342 113.403 99.8532 127.937 101.792 135.091C107.766 157.125 116.101 181.924 118.351 184.354C119.798 185.918 119.705 186.137 125.796 166.939C128.301 159.045 132.207 147.337 134.476 140.923C136.745 134.508 139.987 124.012 141.682 117.597C143.376 111.183 146.882 98.7845 149.476 90.0447C153.434 76.7008 154.479 74.1144 155.997 73.8964C157.446 73.6892 157.91 72.7481 158.333 69.1524C158.623 66.6853 159.726 62.8501 160.784 60.6297C162.928 56.1288 163.373 48.1148 161.794 42.4386C160.622 38.2221 156.334 33.2503 151.942 31.0128L148.604 29.3128L149.045 23.1674C149.567 15.8729 147.709 11.2985 142.471 6.98686C136.355 1.95308 121.64 -1.36898 113.973 0.551765ZM127.058 3.63609C139.326 6.23237 146.59 12.619 146.561 20.7865C146.536 28.0227 146.766 27.8729 135.519 27.9841C127.932 28.0586 124.243 28.5215 120.516 29.8654L115.575 31.6471L112.29 29.4778C110.483 28.2856 106.541 26.8412 103.529 26.2706C97.4451 25.116 97.2178 24.6971 99.0454 18.0161C101.001 10.8687 107.703 4.75929 115.203 3.2898C120.692 2.21414 120.279 2.20248 127.058 3.63609ZM112.042 6.5984C109.605 7.94409 107.431 9.60019 107.212 10.2784C106.993 10.9566 107.168 11.3415 107.6 11.1334C108.032 10.9252 110.9 9.56341 113.972 8.10558C117.045 6.64864 119.572 5.15403 119.588 4.78351C119.648 3.42437 116.358 4.21563 112.042 6.5984ZM111.927 10.8104C110.604 11.8107 110.508 12.1319 111.531 12.1444C113.851 12.1723 116.922 11.1136 116.922 10.2856C116.922 9.03769 113.848 9.36066 111.927 10.8104ZM114.227 13.0819C114.227 13.5754 114.809 13.9791 115.522 13.9791C116.234 13.9791 117.066 13.5754 117.372 13.0819C117.677 12.5885 117.094 12.1848 116.077 12.1848C115.06 12.1848 114.227 12.5885 114.227 13.0819ZM104.619 29.2805C106.691 29.8017 109.377 30.9751 110.589 31.8875L112.791 33.5472L109.579 37.098C104.066 43.1904 102.061 53.5747 104.766 62.0158C105.337 63.793 105.006 63.854 94.1817 63.9616C83.0581 64.072 83.0015 64.0621 81.2511 61.6784C76.4315 55.1115 76.0694 46.9072 80.3077 40.2811C86.7231 30.2503 94.4944 26.7335 104.619 29.2805ZM149.308 33.0969C157.269 36.8827 160.577 42.7984 159.842 51.9374C159.583 55.1626 158.54 59.2087 157.387 61.4658L155.382 65.389L141.319 64.8067C133.584 64.4865 123.176 64.2227 118.19 64.2209C109.362 64.2182 109.097 64.159 108.087 61.9458C105.074 55.3438 106.185 46.2694 110.781 39.9339C117.338 30.8953 137.249 27.3615 149.308 33.0969ZM115.32 37.8077C113.331 39.1982 110.633 43.5313 110.633 45.3337C110.633 47.2634 112.25 46.1833 113.357 43.5152C113.987 41.9964 115.451 40.133 116.611 39.375C118.66 38.0337 119.433 36.4073 118.021 36.4073C117.637 36.4073 116.421 37.037 115.32 37.8077ZM115.676 41.9174C113.812 44.5747 114.609 45.2 117.126 43.0559C118.811 41.6196 118.937 41.5998 117.902 42.933C116.582 44.6339 117.071 45.9473 118.659 44.9668C120.002 44.1387 119.852 42.2045 118.351 40.9602C117.346 40.1276 116.793 40.3259 115.676 41.9174ZM80.4416 53.6743C81.0463 56.6922 84.0941 60.5122 85.0977 59.5101C85.4131 59.1961 84.8174 57.7427 83.7751 56.2813C82.7328 54.8199 81.8801 52.9799 81.8801 52.1931C81.8801 51.4054 81.4255 50.7613 80.8693 50.7613C80.208 50.7613 80.0606 51.7697 80.4416 53.6743ZM86.3727 52.9512C86.3727 53.6626 86.777 54.4933 87.2712 54.7984C87.7654 55.1034 88.1697 54.5212 88.1697 53.5056C88.1697 52.4901 87.7654 51.6584 87.2712 51.6584C86.777 51.6584 86.3727 52.2398 86.3727 52.9512ZM83.6771 53.7218C83.6771 55.0047 85.4293 57.0412 86.5335 57.0412C86.9181 57.0412 86.7725 56.0319 86.2092 54.7984C85.1175 52.4048 83.6771 51.793 83.6771 53.7218ZM148.875 56.3773C147.918 58.4694 146.975 60.4844 146.779 60.854C146.583 61.2236 146.867 61.5268 147.41 61.5268C148.673 61.5268 151.956 56.1862 151.961 54.1255C151.967 51.4673 150.699 52.3923 148.875 56.3773ZM151.923 58.0155C150.592 60.4996 151.63 61.4129 153.293 59.2185C154.831 57.1892 155.001 56.1441 153.793 56.1441C153.317 56.1441 152.475 56.9865 151.923 58.0155ZM152.189 68.3854C154.357 68.7415 155.559 69.4233 155.559 70.2989C155.559 71.4455 154.483 71.5675 148.684 71.0785C144.903 70.7592 128.325 70.4981 111.845 70.4981H81.8801V68.5585V66.6189L115.35 67.2254C133.759 67.5582 150.336 68.0803 152.189 68.3854ZM92.6138 78.0501C94.3174 79.8175 96.2546 81.2636 96.9204 81.2636C97.5862 81.2636 100.076 79.447 102.453 77.2266L106.775 73.1895H114.082H121.388L126.119 77.6572C128.721 80.1153 131.184 82.1338 131.592 82.1428C131.999 82.1527 134.727 80.3217 137.652 78.0743C142.489 74.3585 143.358 74.0131 147.243 74.2616L151.515 74.5352L143.204 78.9553C138.632 81.3865 134.893 83.877 134.893 84.4906C134.893 85.1033 136.922 87.8216 139.402 90.531C142.341 93.7418 143.514 95.6177 142.772 95.9173C141.871 96.2815 141.889 96.5579 142.851 97.2316C143.664 97.8004 143.751 98.2812 143.114 98.6742C142.589 98.998 142.387 99.8566 142.666 100.581C142.943 101.305 142.681 101.898 142.081 101.898C141.481 101.898 141.218 102.492 141.498 103.22C141.778 103.947 141.316 104.948 140.471 105.446C139.247 106.167 139.177 106.509 140.123 107.131C141.012 107.717 140.279 108.819 137.203 111.523C134.944 113.508 133.096 115.625 133.096 116.226C133.096 116.828 133.949 118.517 134.992 119.979C136.831 122.558 136.837 122.675 135.216 123.875C133.736 124.972 133.687 125.351 134.786 127.187C136.001 129.214 135.972 129.211 133.512 127.017C132.129 125.784 130.256 124.068 129.351 123.204C128.445 122.34 127.236 121.634 126.661 121.634C125.33 121.634 112.43 131.296 112.43 132.293C112.43 132.971 123.838 142.709 126.621 144.405C127.266 144.799 128.366 144.631 129.092 144.03C130.013 143.267 130.4 143.243 130.4 143.953C130.4 144.507 129.953 144.96 129.405 144.96C128.858 144.96 128.643 145.565 128.928 146.305C129.249 147.141 128.923 147.651 128.065 147.651C127.184 147.651 126.842 148.219 127.12 149.221C127.431 150.346 126.01 151.938 122.108 154.834C114.347 160.596 114.158 161.083 117.739 166.062C120.219 169.51 120.64 170.762 120.212 173.4C119.646 176.881 119.049 177.884 118.106 176.942C117.768 176.605 117.97 175.851 118.555 175.267C120.072 173.753 119.869 172.483 118.212 173.118C117.132 173.531 116.937 173.241 117.373 171.868C117.713 170.799 117.532 170.079 116.922 170.079C116.288 170.079 116.134 169.351 116.516 168.15C117.011 166.59 116.839 166.331 115.619 166.798C114.426 167.255 114.229 167.002 114.678 165.588C114.99 164.604 114.862 163.799 114.392 163.799C113.27 163.799 112.443 159.412 113.449 158.791C114.736 157.996 114.327 156.773 112.668 156.455C111.553 156.239 112.715 154.92 116.757 151.816C119.863 149.428 122.283 147.144 122.135 146.738C121.985 146.332 119.034 143.739 115.575 140.975C110.849 137.2 108.782 136.07 107.263 136.434C106.152 136.702 105.242 136.509 105.242 136.005C105.242 135.503 105.646 135.091 106.14 135.091C106.634 135.091 107.039 134.498 107.039 133.773C107.039 132.907 106.501 132.645 105.466 133.009C104.182 133.459 104.1 133.339 105.017 132.352C106.555 130.697 106.43 129.405 104.792 130.033C103.174 130.653 103.026 129.588 104.523 128.094C105.361 127.257 105.261 127.017 104.073 127.017C103.233 127.017 102.546 126.647 102.546 126.194C102.546 125.741 102.283 124.63 101.962 123.726C101.578 122.649 102.467 123.109 104.542 125.063L107.706 128.043L114.521 123.269C118.268 120.643 121.346 117.889 121.358 117.149C121.383 115.639 110.978 104.589 109.53 104.589C109.019 104.589 106.733 105.922 104.45 107.551C98.3302 111.918 97.3113 112.471 98.8369 110.593C99.5153 109.757 99.6842 109.075 99.2125 109.075C98.7399 109.075 98.4146 108.245 98.4901 107.23C98.571 106.129 100.231 104.325 102.608 102.754C104.798 101.306 106.589 99.7759 106.589 99.3533C106.589 98.9308 104.219 96.0286 101.323 92.9048C96.2941 87.4816 95.9392 87.2699 93.4647 88.202C91.9246 88.7825 90.6658 88.8444 90.363 88.3545C90.0827 87.9015 90.4852 87.3318 91.2579 87.0887C95.4989 85.7538 95.7245 85.3653 92.4377 85.0585C88.9712 84.7346 87.6531 83.0579 90.8653 83.0579C91.8537 83.0579 92.6623 82.6542 92.6623 82.1608C92.6623 81.6673 91.6515 81.2636 90.416 81.2636C89.1806 81.2636 88.1697 80.8599 88.1697 80.3665C88.1697 79.8731 88.5741 79.4694 89.0682 79.4694C89.5624 79.4694 89.9668 79.0657 89.9668 78.5723C89.9668 78.0788 89.2794 77.6751 88.4393 77.6751C87.2766 77.6751 87.1616 77.4257 87.9586 76.63C88.7556 75.8342 88.6379 75.287 87.4644 74.3378C86.0591 73.2002 86.0816 73.1671 87.7205 73.9637C88.7088 74.4437 90.9111 76.2828 92.6138 78.0501ZM100.749 75.8809C99.0193 77.3342 97.1747 78.5346 96.649 78.548C96.1234 78.5615 94.5321 77.3611 93.1116 75.8809L90.5292 73.1895L97.2115 73.2137L103.894 73.2379L100.749 75.8809ZM136.129 76.5008C134.213 78.1192 132.22 79.4487 131.699 79.4559C131.179 79.4631 129.364 78.0385 127.666 76.29L124.579 73.1105L132.096 73.3339L139.612 73.5582L136.129 76.5008ZM106.422 78.6862C102.871 81.1748 100.17 83.6814 100.419 84.2556C101.031 85.664 111.224 94.2074 112.669 94.5232C114.163 94.8488 125.009 86.8061 125.009 85.3716C125.009 84.4448 114.029 74.0131 113.169 74.1243C113.009 74.144 109.973 76.1976 106.422 78.6862ZM118.186 81.1775L122.526 85.5779L118.151 88.7816C115.746 90.5435 113.373 91.9924 112.879 92.0014C111.555 92.0256 103.32 84.7768 103.629 83.8608C103.89 83.0893 112.422 76.9233 113.362 76.8273C113.627 76.8004 115.798 78.758 118.186 81.1775ZM147.857 85.4164C146.694 89.1808 145.55 92.4535 145.314 92.6886C144.619 93.3829 137.587 85.5797 138.125 84.7113C138.799 83.6213 147.679 78.5911 148.946 78.5803C149.619 78.5749 149.244 80.9308 147.857 85.4164ZM121.64 92.6213C118.551 94.8363 116.024 97.1338 116.024 97.7268C116.024 99.1757 127.89 110.869 129.36 110.869C130.819 110.869 141.182 101.83 141.182 100.557C141.182 99.1102 129.947 88.4308 128.518 88.5178C127.823 88.5609 124.729 90.4072 121.64 92.6213ZM103.219 99.7095C102.602 100.267 100.609 101.609 98.7902 102.691L95.4837 104.658L93.4189 98.257C91.3855 91.952 91.3801 91.8363 93.0927 90.5866C94.684 89.4248 95.2348 89.7146 99.5863 94.0064C103.292 97.6595 104.094 98.9191 103.219 99.7095ZM133.994 95.7101L138.936 100.207L134.153 104.767L129.37 109.327L124.876 104.94C118.089 98.3144 118.049 98.0866 122.998 94.3778C125.34 92.6222 127.66 91.1921 128.154 91.2002C128.648 91.2074 131.276 93.2367 133.994 95.7101ZM118.719 116.863C118.719 117.479 117.81 118.467 116.698 119.057C115.585 119.648 113.149 121.353 111.284 122.845L107.892 125.559L103.422 121.163C100.964 118.746 98.9519 116.127 98.9519 115.344C98.9519 114.561 101.277 112.26 104.118 110.233L109.285 106.545L114.002 111.143C116.596 113.672 118.719 116.246 118.719 116.863ZM138.986 116.746C138.39 119.923 138.323 119.97 136.619 118.43C134.882 116.862 134.885 116.825 136.829 114.758C139.285 112.148 139.767 112.593 138.986 116.746ZM133.628 130.563C135.616 133.014 130.812 142.095 127.453 142.239C127.067 142.255 124.145 140.06 120.957 137.36L115.162 132.452L120.73 127.953L126.298 123.455L129.435 126.358C131.16 127.954 133.047 129.846 133.628 130.563ZM114.316 142.785L119.659 146.89L115.371 150.344C113.012 152.243 110.771 153.497 110.391 153.13C110.011 152.762 108.911 149.706 107.947 146.339C105.331 137.204 106.327 136.648 114.316 142.785ZM124.305 161.407L121.984 168.433L120.366 166.341C118.013 163.296 117.538 161.255 118.883 159.978C121.445 157.545 126.146 153.871 126.379 154.118C126.515 154.262 125.581 157.542 124.305 161.407Z" fill="black"/>
<path fill-rule="evenodd" clip-rule="evenodd" d="M218.656 46.0911C218.317 46.679 217.705 48.9511 217.297 51.1396C216.34 56.269 212.82 62.3368 209.607 64.3961C208.218 65.2862 202.476 66.5448 196.846 67.1921C183.619 68.713 174.592 71.486 168.089 76.0263C159.261 82.1906 152.657 91.8509 152.331 99.0783C152.214 101.659 152.015 101.986 150.444 102.155C149.279 102.281 148.257 103.29 147.409 105.15C146.417 107.328 146.493 108.293 147.751 109.473C149.149 110.784 149.07 112.092 147.178 119.033C145.972 123.456 143.291 135.195 141.22 145.119C139.149 155.044 135.709 169.855 133.577 178.034C127.315 202.045 123.099 224.864 124.749 225.817C125.275 226.121 127.558 224.523 129.824 222.266C132.088 220.01 141.927 211.109 151.685 202.486C161.443 193.863 178.047 178.487 188.582 168.317C199.117 158.146 208.24 149.339 208.857 148.745C209.473 148.151 210.941 147.94 212.119 148.276C213.91 148.786 214.54 148.403 215.959 145.946C216.893 144.329 217.507 142.448 217.324 141.766C217.1 140.929 218.415 139.34 221.357 136.888C224.979 133.871 226.633 131.656 231.067 123.894C235.62 115.92 236.627 113.461 237.874 107.265C240.858 92.4526 238.681 82.0219 228.055 60.2023C221.223 46.1732 219.823 44.0708 218.656 46.0911ZM227.496 65.9328C238.86 89.6445 239.157 103.97 228.659 122.152C224.917 128.635 222.765 131.485 219.219 134.658L214.627 138.768L184.886 121.597L155.146 104.427L154.999 101.817C154.762 97.6452 156.656 92.9019 160.852 87.1479C168.1 77.2105 178.131 72.0746 193.446 70.4606C203.692 69.3807 208.775 68.2226 211.861 66.2664C214.413 64.6491 218.105 58.9159 219.574 54.2895C220.577 51.1277 219.982 50.2532 227.496 65.9328ZM224.167 77.658C224.091 81.2616 224.675 83.8922 225.501 83.6707C226.514 83.4 226.035 76.922 224.957 76.2993C224.474 76.0205 224.191 76.5072 224.167 77.658ZM221.118 75.9494C220.652 76.7574 221.367 79.4108 222.176 79.8782C222.522 80.078 222.772 79.2892 222.732 78.1254C222.657 75.9879 221.779 74.8039 221.118 75.9494ZM176.512 77.4326C174.564 78.2651 172.276 79.5958 171.428 80.3889C169.182 82.4909 171.151 83.1662 173.631 81.1443C174.757 80.2266 176.557 79.1929 177.63 78.8474C178.704 78.5011 179.689 77.7009 179.819 77.0686C179.956 76.3974 178.58 76.5486 176.512 77.4326ZM174.461 83.4132C171.75 85.7515 172.466 87.6604 175.214 85.4208C177.635 83.4468 178.215 82.4923 177.307 81.9684C176.921 81.7457 175.641 82.3958 174.461 83.4132ZM177.33 84.7468C176.057 85.0872 174.775 87.7643 175.643 88.2658C176.071 88.5128 176.606 88.3936 176.833 88.0009C177.06 87.6082 177.777 86.8559 178.428 86.3293C179.606 85.3746 178.882 84.3302 177.33 84.7468ZM212.796 121.104C211.082 124.096 209.199 126.801 208.613 127.117C207.966 127.466 208.036 127.791 208.792 127.946C210.594 128.315 214.221 124.294 215.874 120.091C218.088 114.462 216.258 115.065 212.796 121.104ZM216.612 123.264C215.886 124.522 215.517 125.969 215.792 126.48C216.089 127.034 216.939 126.289 217.89 124.642C218.769 123.12 219.138 121.672 218.71 121.426C218.283 121.179 217.339 122.005 216.612 123.264ZM219.696 125.105C218.956 126.388 218.699 127.64 219.127 127.887C219.555 128.134 220.511 127.286 221.252 126.003C221.992 124.72 222.249 123.468 221.821 123.221C221.393 122.974 220.437 123.822 219.696 125.105ZM156.929 109.904C156.673 110.349 157.076 110.553 157.932 110.412C159.72 110.119 165.402 113.615 165.583 115.119C165.668 115.818 166.259 115.966 167.169 115.516C168.458 114.878 168.631 114.978 168.724 116.414C168.797 117.539 169.156 117.868 169.911 117.5C171.143 116.899 173.642 118.389 174.7 120.356C175.164 121.218 175.73 121.397 176.325 120.869C177.046 120.23 177.248 120.336 177.278 121.368C177.303 122.189 177.858 122.653 178.768 122.612C180.725 122.522 184.079 124.354 184.698 125.85C185.006 126.594 185.618 126.84 186.275 126.487C187.06 126.064 187.384 126.307 187.479 127.391C187.585 128.582 187.803 128.722 188.595 128.102C189.4 127.473 189.697 127.644 190.218 129.039C190.738 130.434 191.023 130.599 191.773 129.937C192.502 129.295 192.814 129.461 193.29 130.746C193.765 132.031 194.138 132.231 195.09 131.718C195.95 131.256 196.302 131.409 196.327 132.257C196.347 132.908 196.9 133.426 197.556 133.406C199.284 133.355 202.483 135.164 202.035 135.94C201.825 136.304 202.481 136.784 203.494 137.006C204.59 137.248 205.13 137.764 204.828 138.287C204.548 138.772 204.889 139.145 205.594 139.124C207.882 139.056 211.789 141.224 211.859 142.602C211.912 143.656 212.241 143.791 213.367 143.225C214.574 142.617 214.67 142.741 213.96 143.994C213.138 145.445 212.358 145.03 185.997 129.148C171.082 120.162 156.855 111.64 154.38 110.209C150.663 108.061 150.151 107.524 151.446 107.13C153.236 106.584 157.578 108.781 156.929 109.904ZM166.975 121.238C166.553 121.97 153.798 129.57 153.389 129.334C153.066 129.148 154.253 114.539 154.646 113.859C154.738 113.699 157.614 115.184 161.035 117.159C164.457 119.135 167.13 120.97 166.975 121.238ZM170.475 130.645C169.356 142.037 169.324 143.2 170.116 143.657C170.515 143.888 173.295 142.68 176.291 140.972C188.856 133.812 188.684 133.886 189.253 135.426C189.55 136.23 189.281 140.787 188.655 145.554C188.029 150.321 187.941 154.467 188.461 154.768C188.982 155.068 193.214 153.079 197.865 150.347C202.517 147.615 206.613 145.547 206.967 145.751C207.32 145.955 206.551 146.657 205.256 147.31C203.961 147.963 202.916 148.993 202.935 149.599C202.953 150.205 202.422 150.385 201.755 150C200.325 149.175 199.199 150.583 200.603 151.442C201.192 151.802 200.813 152.122 199.621 152.274C198.554 152.408 197.785 152.908 197.913 153.384C198.04 153.86 197.438 154.283 196.576 154.324C195.199 154.39 195.095 154.575 195.731 155.839C196.351 157.071 196.259 157.167 195.088 156.504C193.513 155.613 192.538 156.696 193.643 158.109C194.088 158.679 193.826 158.771 192.992 158.338C191.464 157.545 190.134 158.844 191.605 159.693C192.937 160.462 191.354 160.695 189.58 159.991C188.605 159.603 185.464 161.111 180.823 164.192L173.587 168.998L173.304 174.158C173.149 176.997 172.606 179.365 172.097 179.42C171.588 179.474 170.647 180.151 170.005 180.921C169.364 181.691 168.708 182.359 168.549 182.407C168.39 182.453 168.503 179.821 168.801 176.557C169.185 172.345 168.957 170.687 168.015 170.849C167.284 170.974 163.702 173.09 160.052 175.552L153.419 180.027L152.609 188.698C152.164 193.466 151.426 197.308 150.969 197.234C150.513 197.16 149.863 198.067 149.525 199.251C148.343 203.401 147.986 200.785 148.509 191.798C148.803 186.752 148.564 182.743 147.97 182.761C147.383 182.778 144.424 184.588 141.393 186.782C138.309 189.016 135.397 190.49 134.776 190.132C134.161 189.776 134.128 189.244 134.701 188.935C135.27 188.63 135.501 187.946 135.216 187.415C134.898 186.824 136.993 185.167 140.625 183.137C143.885 181.314 146.958 179.123 147.453 178.269C148.56 176.359 149.206 160.862 148.223 159.807C147.831 159.387 145.79 160.284 143.686 161.799C141.583 163.314 140.373 164.048 141 163.43C141.625 162.811 141.919 161.899 141.651 161.401C141.384 160.904 141.525 160.303 141.966 160.066C142.406 159.829 142.535 159.206 142.254 158.68C141.922 158.064 142.499 157.371 143.882 156.727C145.061 156.177 146.382 155.111 146.817 154.357C148.144 152.059 148.79 135.931 147.563 135.737C146.944 135.638 146.55 134.845 146.688 133.974C146.826 133.103 147.38 132.48 147.92 132.59C149.39 132.891 149.891 131.462 148.581 130.706C147.885 130.304 147.877 129.692 148.56 129.138C149.177 128.638 149.256 127.985 148.737 127.685C148.218 127.385 148.287 126.74 148.89 126.251C149.493 125.763 149.782 124.981 149.531 124.515C149.28 124.048 149.568 123.266 150.172 122.778C150.774 122.289 150.866 121.656 150.374 121.372C149.881 121.088 149.802 120.46 150.199 119.975C150.595 119.491 151.087 117.844 151.291 116.314C151.497 114.786 151.862 113.481 152.104 113.417C152.534 113.301 152.161 117.919 150.984 127.26C150.638 130.002 150.873 132.035 151.55 132.174C152.186 132.304 155.087 131.022 157.998 129.324C165.283 125.074 170.31 122.514 170.805 122.8C171.034 122.932 170.885 126.462 170.475 130.645ZM179.78 136.535C176.287 138.654 172.981 140.509 172.432 140.657C171.6 140.884 171.832 137.739 173.464 126.668C173.596 125.772 175.202 126.375 179.885 129.079L186.131 132.685L179.78 136.535ZM203.646 143.925C203.015 145.018 192.139 151.505 190.873 151.543C190.343 151.559 190.069 150.356 190.264 148.868C190.46 147.381 190.881 143.864 191.199 141.055L191.779 135.946L197.956 139.512C201.888 141.782 203.957 143.386 203.646 143.925ZM159.632 130.594L152.356 135.482L151.737 143.936C151.396 148.585 151.546 152.636 152.07 152.939C153.157 153.566 166.021 146.27 167.009 144.465C167.907 142.823 168.394 127.296 167.574 126.419C167.207 126.028 163.634 127.907 159.632 130.594ZM179.241 141.289C175.493 143.835 172.058 146.557 171.607 147.338C170.779 148.772 169.547 164.585 170.233 164.981C170.709 165.256 176.466 162.218 181.853 158.849L186.063 156.215L186.577 147.398C186.859 142.549 186.857 138.149 186.573 137.62C186.276 137.07 183.147 138.635 179.241 141.289ZM165.848 136.602L165.433 143.695L159.752 147.08C156.627 148.941 153.93 150.384 153.759 150.285C153.241 149.986 154.081 138.183 154.697 137.118C155.388 135.924 165.317 128.963 165.873 129.284C166.088 129.408 166.077 132.701 165.848 136.602ZM184.516 148.236L184.014 155.098L178.022 158.668L172.03 162.238L172.421 155.352L172.811 148.466L178.438 144.644C181.532 142.543 184.279 140.947 184.541 141.099C184.803 141.25 184.792 144.462 184.516 148.236ZM160.564 152.117C156.878 154.539 153.551 157.061 153.17 157.721C152.248 159.317 151.376 174.831 152.181 175.296C152.528 175.496 156.167 173.667 160.269 171.232L167.728 166.804L168.258 157.699C168.549 152.691 168.445 148.395 168.026 148.154C167.608 147.912 164.25 149.696 160.564 152.117ZM145.989 146.691C145.556 152.614 145.21 153.785 143.74 154.329C142.242 154.884 142.242 153.858 143.74 146.868C145.706 137.694 145.605 138.03 146.118 138.983C146.328 139.375 146.27 142.843 145.989 146.691ZM187.433 164.863C186.463 166.617 176.006 176.609 175.466 176.297C175.17 176.126 175.222 174.572 175.581 172.844C176.165 170.033 176.81 169.315 181.686 166.058C186.598 162.776 188.846 162.308 187.433 164.863ZM166.195 158.538L165.683 165.537L161.851 167.871C159.744 169.155 157.012 170.633 155.782 171.154C153.587 172.085 153.558 171.977 154.271 165.381L154.998 158.657L160.329 154.797C163.261 152.673 165.895 151.071 166.183 151.237C166.472 151.404 166.476 154.689 166.195 158.538ZM146.35 170.379L145.64 177.751L140.719 180.607C138.012 182.178 135.605 183.352 135.371 183.217C135.136 183.081 135.87 179.554 137.001 175.378L139.059 167.786L142.806 165.25C144.867 163.855 146.667 162.78 146.807 162.861C146.946 162.941 146.741 166.324 146.35 170.379ZM166.5 180.315C166.082 185.677 165.831 186.332 163.327 188.593C160.303 191.322 154.173 195.51 154.092 194.904C154.063 194.689 154.311 191.563 154.643 187.957L155.248 181.4L160.588 177.65C163.525 175.587 166.158 174.034 166.441 174.197C166.722 174.359 166.749 177.113 166.5 180.315ZM146.386 193.651L145.989 200.606L140.072 203.981L134.154 207.356L134.605 200.92C134.853 197.38 135.267 194.117 135.526 193.668C136.111 192.656 145.91 186.191 146.416 186.483C146.618 186.6 146.605 189.825 146.386 193.651ZM132.803 199.102C132.708 200.9 132.359 202.211 132.029 202.017C131.387 201.637 131.616 196.85 132.336 195.602C132.921 194.589 133.008 195.241 132.803 199.102ZM143.504 205.799C142.655 206.592 141.157 207.515 140.176 207.849C139.192 208.183 138.466 208.744 138.56 209.095C138.654 209.446 137.617 210.442 136.255 211.309C134.892 212.176 132.588 214.429 131.133 216.316C128.652 219.535 128.476 219.61 128.293 217.527C128.186 216.305 128.563 215.055 129.131 214.749C129.698 214.445 129.984 213.794 129.766 213.304C129.013 211.611 129.434 207.696 130.425 207.162C130.973 206.867 131.118 206.062 130.746 205.373C130.375 204.682 130.534 204.01 131.1 203.878C131.666 203.746 132.034 204.159 131.917 204.798C131.8 205.436 131.879 207.057 132.092 208.402C132.477 210.83 132.518 210.825 138.509 207.473C144.981 203.852 145.929 203.534 143.504 205.799Z" fill="black"/>
<path fill-rule="evenodd" clip-rule="evenodd" d="M5.48212 46.647C-0.2455 52.0742 -1.12991 58.7604 3.15064 64.2781C5.51966 67.3326 5.52629 67.4769 3.454 71.3298C-2.95301 83.2398 1.60484 96.0784 14.3021 101.888C15.6353 102.498 15.78 103.562 15.0947 107.734C13.7631 115.837 14.7575 121.379 19.0585 129.818C22.281 136.14 22.6577 137.408 21.6461 138.517C20.0327 140.284 22.3061 144.125 25.1161 144.378C26.6462 144.516 31.6218 148.777 42.7416 159.472C83.7149 198.883 107.814 221.084 113.834 224.965C117.862 227.562 118.484 225.795 116.123 218.459C112.315 206.632 107.638 188.957 103.806 171.913C101.763 162.827 97.4178 145.039 94.1498 132.384C89.8427 115.707 88.45 108.85 89.0904 107.468C90.3655 104.718 87.8049 101.575 84.9849 102.428C82.9871 103.032 82.6567 102.761 80.699 98.9126C76.5497 90.756 68.9187 83.8424 61.1179 81.1711C56.822 79.6999 56.4203 79.234 57.3315 76.7804C58.5131 73.6045 57.3586 67.3127 54.7743 62.8365C51.5542 57.2592 47.1634 54.1942 40.4697 52.8496L35.1146 51.7742L32.8247 46.9353C29.9604 40.884 26.2653 38.6325 20.1717 39.2287C15.8954 39.6467 9.41766 42.918 5.48212 46.647ZM19.3454 42.1922C24.3714 41.5695 27.2873 42.9851 29.7446 47.2412C30.9326 49.2989 31.8173 51.3108 31.7094 51.7111C31.6019 52.1122 29.7108 52.7769 27.5063 53.188C23.056 54.0175 12.7814 59.595 9.56501 62.9264C7.61708 64.9437 7.39378 64.9503 5.6528 63.0429C3.32612 60.4928 2.72054 56.161 4.26321 53.1022C6.61049 48.4488 14.4161 42.8026 19.3454 42.1922ZM19.7861 47.0537C20.8084 48.8244 22.7434 50.2237 23.5366 49.7657C24.6712 49.1107 22.6853 46.4685 20.8197 46.15C19.4129 45.9098 19.2222 46.077 19.7861 47.0537ZM22.8641 45.1439C23.8856 46.9939 25.8268 48.4435 26.6472 47.9698C27.7094 47.3565 26.4006 45.632 24.1531 44.6827C22.4163 43.9498 22.239 44.0127 22.8641 45.1439ZM4.44776 59.2801C5.04143 61.3626 6.42562 62.661 6.7531 61.4413C7.12339 60.0569 5.42098 56.0773 4.64799 56.5236C4.18218 56.7926 4.0917 58.033 4.44776 59.2801ZM7.2183 58.4541C7.32816 59.413 7.76298 60.29 8.18293 60.4032C9.42873 60.7364 9.42538 59.2597 8.17651 57.9371C7.0702 56.7644 7.02777 56.7879 7.2183 58.4541ZM33.47 55.3874C47.2339 54.476 56.5023 63.6907 54.535 76.3295L54.1131 79.0397L49.0717 80.0021C41.8622 81.3774 22.3923 92.5645 19.5646 96.9551L17.6514 99.9271L14.6457 98.7582C10.2415 97.0456 7.08791 93.8894 5.05726 89.16C0.472976 78.4882 6.72398 66.3044 20.4062 59.2407C25.8554 56.4274 28.1972 55.7369 33.47 55.3874ZM5.59567 81.0592C4.88949 84.3743 5.29545 86.9954 6.52099 87.0313C7.55717 87.0624 7.83994 79.8029 6.83759 78.9144C6.47429 78.5923 5.91543 79.5567 5.59567 81.0592ZM8.6069 83.9617C8.29224 85.1335 9.01514 86.145 9.83011 85.6744C10.2119 85.454 10.4229 84.6323 10.299 83.8484C10.0697 82.4006 9.00546 82.4718 8.6069 83.9617ZM12.4973 84.7142C12.882 85.3806 13.4255 85.5013 13.7053 84.982C13.9847 84.462 13.8247 83.8275 13.3483 83.5717C12.0592 82.8779 11.7084 83.3479 12.4973 84.7142ZM48.7284 67.6335C48.8601 68.4668 49.5778 69.8805 50.3222 70.7748C51.6293 72.3437 51.6642 72.3018 51.3148 69.5899C51.0723 67.7081 50.5445 66.67 49.7202 66.4492C48.8947 66.228 48.567 66.6194 48.7284 67.6335ZM43.5151 71.9904C43.8998 72.6568 44.4401 72.7845 44.7152 72.2731C44.9903 71.7618 45.0255 71.0146 44.7929 70.6118C44.5603 70.209 44.0205 70.0821 43.5928 70.329C43.1651 70.576 43.1303 71.3239 43.5151 71.9904ZM47.0481 70.9262C47.4185 71.5678 48.0715 71.8907 48.4993 71.6437C48.927 71.3968 48.9738 70.6698 48.6034 70.0283C48.233 69.3867 47.58 69.0638 47.1523 69.3108C46.7246 69.5577 46.6777 70.2847 47.0481 70.9262ZM45.1123 84.3722C54.3748 81.3823 61.4088 82.7668 69.195 89.1087C73.2746 92.4323 80.1233 101.908 79.8738 103.884C79.7709 104.702 71.1842 109.863 52.4147 120.389L25.1043 135.703L21.568 128.799C19.0959 123.973 17.8799 120.423 17.5269 117.002C16.8663 110.607 19.7358 101.129 23.5894 96.9799C27.3384 92.9439 38.1198 86.628 45.1123 84.3722ZM20.4978 111.136C20.111 112.783 20.167 114.23 20.622 114.352C21.5182 114.591 23.4634 109.096 22.8555 108.043C22.1699 106.855 21.2051 108.121 20.4978 111.136ZM23.279 112.981C22.9972 114.292 23.2167 115.335 23.7802 115.352C25.0283 115.389 25.6385 112.285 24.5694 111.337C24.1041 110.924 23.5769 111.597 23.279 112.981ZM26.1348 114.694C26.1156 115.313 26.3953 115.898 26.7551 115.995C27.6342 116.23 28.584 114.373 28.0542 113.456C27.4804 112.462 26.1764 113.303 26.1348 114.694ZM60.7678 103.669C62.4762 106.628 64.2687 108.161 65.3131 107.558C65.7929 107.281 65.2364 106.1 63.8744 104.501C60.933 101.046 58.9463 100.514 60.7678 103.669ZM64.652 103.213C65.2837 104.307 66.1508 105.001 66.5786 104.754C67.0063 104.507 66.9643 103.626 66.4847 102.796C66.0052 101.965 65.1385 101.272 64.5582 101.254C63.9597 101.236 64.0005 102.084 64.652 103.213ZM67.7891 101.463C68.1595 102.104 68.8125 102.427 69.2402 102.18C69.6679 101.933 69.7148 101.206 69.3444 100.565C68.9739 99.9233 68.3209 99.6005 67.8932 99.8474C67.4655 100.094 67.4187 100.821 67.7891 101.463ZM66.214 116.018C77.3702 109.955 86.3723 105.415 86.2205 105.93C86.068 106.445 72.173 114.533 55.3429 123.905C38.5129 133.277 25.6541 140.098 26.7675 139.063C29.5806 136.452 42.3993 128.963 66.214 116.018ZM33.1115 141.86C32.1234 144.434 30.7015 144.979 29.6643 143.183C29.2625 142.487 29.9199 141.643 31.5491 140.763L34.0516 139.412L33.1115 141.86ZM63.6364 123.042C63.8419 123.436 50.8378 149.894 47.7348 155.395L46.1325 158.237L47.039 155.512C48.0882 152.356 46.7474 151.418 45.2392 154.253C44.0035 156.576 42.9269 156.553 43.7895 154.222C44.6663 151.853 43.7887 150.832 42.2879 152.476C40.3477 154.602 39.9154 152.641 41.6472 149.571C43.1824 146.849 43.1956 145.213 41.6753 146.09C41.232 146.346 40.3336 147.619 39.6786 148.918C38.6112 151.034 38.4136 151.153 37.7873 150.069C37.4025 149.402 37.5435 147.877 38.1021 146.681C39.3256 144.055 38.0781 143.392 36.5484 145.856C35.2164 148.001 34.7073 148.326 34.1604 147.378C33.9278 146.976 35.125 144.301 36.8217 141.435L39.906 136.225L51.6679 129.434C58.1364 125.699 63.5223 122.823 63.6364 123.042ZM85.0439 111.594C85.2607 111.97 84.6397 113.319 83.6632 114.59C82.6867 115.862 82.0872 117.249 82.3306 117.67C82.5739 118.091 83.1078 118.005 83.5159 117.478C86.2605 113.935 86.3656 113.857 86.5759 115.182C86.6923 115.92 86.1038 117.738 85.2675 119.221C83.0167 123.21 84.2422 124.787 86.6683 121.024C90.4939 115.088 84.1162 128.571 75.0809 145.521C70.9744 153.224 66.2886 162.342 64.6682 165.781C61.8541 171.753 59.9856 173.66 60.6266 169.908C60.8802 168.422 60.6419 168.313 59.0623 169.189C57.2854 170.175 57.2612 170.047 58.553 166.394C60.0559 162.144 58.9833 160.775 57.0904 164.527C55.6182 167.446 55.2292 167.708 54.426 166.316C54.0821 165.721 54.2092 164.729 54.7084 164.112C56.0954 162.4 54.8364 161.056 53.3597 162.674C52.6357 163.467 51.8852 163.712 51.614 163.242C51.3523 162.788 51.5861 161.577 52.1331 160.549C52.6801 159.521 52.8497 158.199 52.5103 157.611C52.0187 156.759 51.6482 157.028 50.6847 158.938C50.02 160.256 49.3283 161.059 49.1484 160.722C48.9685 160.385 53.2958 151.112 58.7655 140.115L68.7101 120.119L76.6797 115.515C81.0624 112.982 84.8266 111.218 85.0439 111.594ZM88.0729 129.861C86.3043 134.41 86.7597 136.783 88.6735 132.99C90.7788 128.815 91.1659 130.533 89.1974 135.318C88.1783 137.796 87.2611 140.015 87.1581 140.25C87.0559 140.484 87.3233 140.769 87.7514 140.884C88.1807 140.999 89.101 139.964 89.7974 138.584C91.5988 135.011 92.8371 135.862 91.3537 139.654C90.6711 141.397 90.5154 142.933 91.0066 143.067C91.4978 143.201 92.2086 142.482 92.5875 141.47C93.2068 139.809 93.2814 139.832 93.3454 141.703C93.3844 142.843 92.7931 144.78 92.0311 146.007C89.8264 149.557 91.1569 150.658 93.4984 147.221C94.4682 145.797 94.4998 146.05 93.6529 148.428C91.8917 153.369 74.2305 184.59 73.3326 184.35C72.8763 184.228 72.9148 183.434 73.4191 182.587C74.6584 180.506 73.7263 179.132 72.2054 180.797C70.0938 183.111 69.1472 181.308 70.5838 177.708C71.97 174.235 70.8557 173.887 68.8241 177.159C67.046 180.022 66.0057 178.708 67.3434 175.291C68.7135 171.789 67.7195 170.632 65.8827 173.589C64.3665 176.031 63.0084 175.663 64.1282 173.113C64.6032 172.032 69.9858 161.614 76.0897 149.962C82.1936 138.31 87.4293 128.031 87.7246 127.12C88.0207 126.209 88.572 125.548 88.9494 125.65C89.3277 125.752 88.9337 127.647 88.0729 129.861ZM94.987 155.36C93.3741 159.36 93.9979 161.482 95.7592 157.99C96.4239 156.672 97.1583 155.924 97.3904 156.326C97.623 156.728 97.0239 158.525 96.0598 160.317C94.2571 163.667 95.1422 165.894 97.0539 162.817C98.4302 160.6 99.0925 161.842 97.8146 164.244C97.2676 165.272 97.0324 166.481 97.2915 166.93C97.551 167.379 97.9885 167.329 98.2635 166.817C99.3229 164.849 99.4042 167.236 98.3775 170.158C97.3673 173.032 97.3963 173.14 98.834 171.845C101.244 169.674 100.623 171.575 96.5937 178.709C94.5446 182.338 91.6174 187.868 90.089 190.996C88.1988 194.866 86.9107 196.577 86.0582 196.349C85.207 196.12 85.1424 195.38 85.8593 194.034C87.2956 191.333 86.5003 190.349 84.4708 192.315C82.5125 194.212 82.0142 193.719 82.6579 190.522C83.1106 188.273 83.0754 188.242 81.6302 189.64C79.723 191.485 79.0703 190.41 80.3852 187.591C81.6101 184.963 80.3608 184.304 78.8289 186.77C77.1154 189.53 75.8507 187.95 77.3115 184.875C78.0227 183.379 81.9434 176.219 86.0242 168.965C90.1049 161.711 93.8394 154.846 94.3232 153.711C95.8202 150.199 96.4425 151.748 94.987 155.36ZM101.189 179.517C99.9431 182.702 100.216 184.423 101.681 182.614C103.151 180.799 103.543 182.757 102.23 185.36C100.918 187.96 101.345 189.999 102.82 188.178C104.145 186.542 104.547 187.877 103.387 190.059C102.163 192.36 102.97 194.141 104.423 192.346C105.21 191.377 105.298 191.785 104.78 193.992C104.343 195.851 104.49 196.846 105.18 196.705C105.78 196.583 105.017 199.172 103.488 202.459C100.632 208.597 98.6117 211.197 100.335 206.517C101.433 203.535 100.469 202.672 98.8861 205.22C97.3153 207.749 96.1752 206.871 96.9174 203.707C97.5753 200.908 96.2228 199.212 95.4961 201.924C94.9728 203.876 94.0017 204.333 93.2268 202.991C92.8771 202.385 93.1485 200.634 93.8292 199.099C95.3462 195.68 93.7839 194.894 92.1018 198.23C90.6994 201.011 90.2339 201.399 89.6062 200.312C89.2376 199.673 95.7585 185.913 100.17 178.021C101.724 175.24 102.448 176.301 101.189 179.517ZM108.206 201.997C108.444 202.409 108.14 203.551 107.529 204.534C106.647 205.954 106.738 206.437 107.971 206.894C108.852 207.22 109.612 208.206 109.729 209.176C109.843 210.116 110.686 212.437 111.603 214.334C112.52 216.232 113.23 218.622 113.18 219.645C113.099 221.343 113.057 221.352 112.703 219.739C112.486 218.749 111.697 217.915 110.91 217.844C109.796 217.743 109.658 217.517 110.249 216.76C111.452 215.215 110.312 214.296 108.494 215.346C106.92 216.255 106.846 216.182 107.284 214.148C107.899 211.294 107.367 210.527 105.891 212.144C105.15 212.956 104.28 213.114 103.595 212.561C102.876 211.979 103.22 209.991 104.582 206.85C106.798 201.739 107.508 200.789 108.206 201.997Z" fill="black"/>
</svg>
