<svg  viewBox="0 0 250 171" fill="none" xmlns="http://www.w3.org/2000/svg">
<rect x="242.809" width="138.578" height="204.808" transform="rotate(90 242.809 0)" fill="#FAD008"/>
<path d="M61.5607 114.527L12.4378 107.162C10.1787 106.823 8.43648 104.997 8.20491 102.724L3.14334 53.0529C2.92104 50.8714 4.14607 48.7996 6.16467 47.9431L52.7611 28.1731M61.5607 114.527L52.7611 28.1731M61.5607 114.527L120.547 105.182M52.7611 28.1731L112.294 32.491C114.716 32.6666 116.661 34.5559 116.907 36.971L120.181 69.0963M120.181 69.0963L70.7601 74.1324M120.181 69.0963C129.889 71.8119 151.815 78.9882 161.847 85.9685C174.387 94.6939 163.45 118.038 169.95 127.379C175.15 134.851 247.085 129.999 246.693 134.563M70.7601 74.1324C83.4534 77.0995 110.647 85.5173 117.873 95.4511C119.776 98.0669 120.425 101.427 120.547 105.182M70.7601 74.1324L71.0976 77.4447C71.328 79.7059 73.047 81.5182 75.2819 81.9322C91.8834 85.0077 119.303 92.9683 120.547 105.182M137.968 145.643C162.192 152.511 190.28 149.019 201.296 146.414M137.968 145.643C114.066 138.866 121.005 119.252 120.547 105.182M137.968 145.643C149.079 150.29 185.152 151.394 201.8 151.364M201.296 146.414L246.693 134.563M201.296 146.414L201.8 151.364M246.693 134.563V134.563C246.92 136.792 245.518 138.862 243.364 139.478L201.8 151.364M80.576 39.7879L106.768 40.4493C109.284 40.5129 111.361 42.4369 111.616 44.9409L111.842 47.1608" stroke="black" stroke-width="5" stroke-linejoin="round"/>
<path d="M121.622 76.0124L116.241 76.5606" stroke="black" stroke-linecap="round" stroke-linejoin="round"/>
<path d="M106.459 77.5582L101.079 78.1064" stroke="black" stroke-linecap="round" stroke-linejoin="round"/>
<path d="M140.667 83.4623L135.286 84.0106" stroke="black" stroke-width="3" stroke-linecap="round" stroke-linejoin="round"/>
<path d="M167.673 135.073L162.376 136.165" stroke="black" stroke-width="3" stroke-linecap="round" stroke-linejoin="round"/>
<path d="M155.758 95.7604L151.845 96.1592" stroke="black" stroke-width="7" stroke-linecap="round" stroke-linejoin="round"/>
<path d="M125.504 85.0081L120.123 85.5564" stroke="black" stroke-width="3" stroke-linecap="round" stroke-linejoin="round"/>
<path d="M152.743 138.151L147.446 139.243" stroke="black" stroke-width="3" stroke-linecap="round" stroke-linejoin="round"/>
<path d="M134.437 99.9108L130.523 100.31" stroke="black" stroke-width="7" stroke-linecap="round" stroke-linejoin="round"/>
<path d="M134.573 120.655L133.595 120.754" stroke="black" stroke-width="10" stroke-linecap="round" stroke-linejoin="round"/>
<path d="M155.796 115.528L154.818 115.627" stroke="black" stroke-width="10" stroke-linecap="round" stroke-linejoin="round"/>
</svg>
