<svg viewBox="0 0 242 139" fill="none" xmlns="http://www.w3.org/2000/svg">
<rect x="241.809" width="138.578" height="204.808" transform="rotate(90 241.809 0)" fill="#FAD008"/>
<path d="M57.9998 61.4865L29.6149 66.2842C27.931 66.5688 26.7966 68.1646 27.0813 69.8486C27.3659 71.5325 28.9617 72.6669 30.6456 72.3822L59.0305 67.5846C60.7145 67.2999 61.8488 65.7041 61.5642 64.0202C61.2796 62.3363 59.6838 61.2019 57.9998 61.4865Z" fill="black"/>
<path d="M55.6815 47.7658L27.2966 52.5634C25.6127 52.8481 24.4783 54.4439 24.7629 56.1278C25.0475 57.8117 26.6433 58.9461 28.3273 58.6615L56.7122 53.8638C58.3961 53.5792 59.5305 51.9834 59.2459 50.2994C58.9612 48.6155 57.3654 47.4811 55.6815 47.7658Z" fill="black"/>
<path d="M60.3187 75.2095L31.9338 80.0071C30.2499 80.2917 29.1155 81.8876 29.4001 83.5715C29.6847 85.2554 31.2806 86.3898 32.9645 86.1052L61.3494 81.3075C63.0333 81.0229 64.1677 79.427 63.8831 77.7431C63.5984 76.0592 62.0026 74.9248 60.3187 75.2095Z" fill="black"/>
<path d="M15.2336 115.161C15.7858 118.428 18.8822 120.629 22.1496 120.077L82.7316 109.837C85.999 109.285 88.2 106.189 87.6478 102.921L73.4141 18.7094C72.8619 15.442 69.7655 13.241 66.4981 13.7932L5.9161 24.0329C2.64873 24.5851 0.447692 27.6816 0.999947 30.9489L15.2336 115.161ZM6.62837 36.2698C6.07612 33.0025 8.27715 29.9061 11.5445 29.3538L62.9311 20.6684C66.1984 20.1161 69.2948 22.3171 69.8471 25.5845L82.0193 97.6003C82.5716 100.868 80.3706 103.964 77.1032 104.516L25.7166 113.202C22.4493 113.754 19.3529 111.553 18.8006 108.286L6.62837 36.2698Z" fill="black"/>
<path d="M174.477 69.6745L146.592 62.5213C144.938 62.097 143.253 63.094 142.829 64.7483C142.404 66.4025 143.401 68.0875 145.056 68.5119L172.94 75.665C174.595 76.0894 176.28 75.0924 176.704 73.4381C177.128 71.7839 176.131 70.0988 174.477 69.6745Z" fill="black"/>
<path d="M177.933 56.1968L150.049 49.0436C148.394 48.6193 146.709 49.6163 146.285 51.2705C145.861 52.9248 146.858 54.6098 148.512 55.0342L176.396 62.1873C178.051 62.6117 179.736 61.6146 180.16 59.9604C180.584 58.3062 179.587 56.6211 177.933 56.1968Z" fill="black"/>
<path d="M171.018 83.1543L143.133 76.0012C141.479 75.5769 139.794 76.5739 139.37 78.2281C138.945 79.8824 139.942 81.5674 141.597 81.9918L169.481 89.1449C171.136 89.5692 172.821 88.5722 173.245 86.918C173.669 85.2637 172.672 83.5787 171.018 83.1543Z" fill="black"/>
<path d="M113.586 101.333C112.763 104.543 114.697 107.812 117.907 108.636L177.421 123.903C180.631 124.726 183.901 122.792 184.724 119.582L205.946 36.8541C206.769 33.6443 204.835 30.3748 201.625 29.5514L142.111 14.2844C138.901 13.4611 135.631 15.3956 134.808 18.6054L113.586 101.333ZM137.788 25.7546C138.611 22.5448 141.881 20.6103 145.091 21.4337L195.572 34.3833C198.781 35.2067 200.716 38.4762 199.892 41.686L181.744 112.433C180.921 115.642 177.651 117.577 174.441 116.754L123.961 103.804C120.751 102.981 118.816 99.711 119.64 96.5012L137.788 25.7546Z" fill="black"/>
<path d="M83.4902 41.3969L100.599 44.0972L94.3831 27.9305L83.4902 41.3969ZM125.236 41.3969L114.343 27.9305L108.127 44.0972L125.236 41.3969ZM96.4917 37.9977C99.2456 37.2327 102.002 36.7124 104.363 36.7124V33.7124C101.614 33.7124 98.5613 34.3092 95.6887 35.1071L96.4917 37.9977ZM104.363 36.7124C106.724 36.7124 109.48 37.2327 112.234 37.9977L113.037 35.1071C110.165 34.3092 107.112 33.7124 104.363 33.7124V36.7124Z" fill="black"/>
</svg>
