<svg
  width="165"
  viewBox="0 0 340 205"
  fill="none"
  xmlns="http://www.w3.org/2000/svg"
>
  <path d="M177 1L321 42.5385V46L177 5.61538" stroke="black" />
  <path d="M321 59.931L287.006 74L127 40" stroke="black" />
  <path
    d="M44.8676 145.419L43.727 147.062C44.3384 147.486 45.1351 147.536 45.7946 147.191C46.4542 146.846 46.8676 146.163 46.8676 145.419H44.8676ZM44.8676 43.2586L42.8681 43.2157C42.8677 43.23 42.8676 43.2443 42.8676 43.2586H44.8676ZM87.3144 3.69643L87.6479 1.72444L87.3144 3.69643ZM93.3069 197H91.3069C91.3069 197.596 91.5726 198.161 92.0317 198.541C92.4908 198.921 93.0954 199.076 93.6808 198.965L93.3069 197ZM93.3069 192.493H95.3069C95.3069 191.942 95.0794 191.415 94.6783 191.037C94.2771 190.659 93.7378 190.464 93.1877 190.496L93.3069 192.493ZM148.798 18.3963C149.878 18.6253 150.94 17.935 151.169 16.8545C151.398 15.7739 150.708 14.7123 149.627 14.4832L148.798 18.3963ZM324.179 153.058L323.805 151.093L324.179 153.058ZM46.8676 145.419V43.2586H42.8676V145.419H46.8676ZM46.8671 43.3014C47.0279 35.8045 49.2854 24.9603 55.387 16.745C58.4165 12.666 62.3753 9.25666 67.4917 7.18212C72.6059 5.10846 79.0001 4.31846 86.9808 5.66842L87.6479 1.72444C79.0495 0.269995 71.8898 1.08251 65.9887 3.47524C60.0897 5.86709 55.5716 9.78796 52.1758 14.36C45.4268 23.447 43.0402 35.1883 42.8681 43.2157L46.8671 43.3014ZM336 70.1108V136.357H340V70.1108H336ZM323.805 151.093L92.9329 195.035L93.6808 198.965L324.553 155.022L323.805 151.093ZM95.3069 197V192.493H91.3069V197H95.3069ZM93.1877 190.496C86.3941 190.902 75.8688 190.188 66.4753 186.77C57.0798 183.351 49.188 177.383 46.8123 167.488L42.9228 168.421C45.7407 180.159 55.0773 186.879 65.1074 190.529C75.1395 194.18 86.2371 194.919 93.426 194.489L93.1877 190.496ZM46.8123 167.488C44.2192 156.685 43.7622 150.982 44.094 148.252C44.2703 146.8 44.605 146.74 44.3649 146.907C43.8789 147.244 43.5024 146.906 43.727 147.062L46.0082 143.776C45.1508 143.181 43.5842 142.58 42.0838 143.621C40.8293 144.492 40.3255 146.103 40.1231 147.769C39.6975 151.273 40.3225 157.589 42.9228 168.421L46.8123 167.488ZM86.9808 5.66842C98.4867 7.61466 117.501 11.7628 148.798 18.3963L149.627 14.4832C118.408 7.86605 99.2612 3.68885 87.6479 1.72444L86.9808 5.66842ZM320.087 55.3507C321.767 55.723 323.419 56.0895 325.042 56.4497L325.909 52.5447C324.285 52.1844 322.633 51.8179 320.953 51.4454L320.087 55.3507ZM336 136.357C336 143.56 330.88 149.746 323.805 151.093L324.553 155.022C333.515 153.316 340 145.481 340 136.357H336ZM340 70.1108C340 61.6768 334.144 54.3722 325.909 52.5447L325.042 56.4497C331.445 57.8706 336 63.5505 336 70.1108H340Z"
    fill="black"
  />
  <path
    d="M177 69V119H181.217V69M222.783 74.814V119H227V75.9767"
    stroke="black"
  />
  <path
    d="M158.047 80L140 97.3023M158.047 90.6047L149.897 98.4186M255.85 90.6047L243.042 102.884M264 98.4186L258.178 104"
    stroke="black"
    stroke-width="0.5"
  />
  <path
    d="M220.809 75.0345V119H176V68M284 119V83.8276"
    stroke="black"
    stroke-width="0.5"
  />
  <path
    d="M54 22C44.5439 30.5599 24.1263 48.847 18.1053 53.516C12.0842 58.1851 10.193 67.134 10 71.0249V117.132V146.313C10.193 149.62 12.0842 157.169 18.1053 160.904C24.1263 164.639 43 179.191 51.6842 186"
    stroke="black"
    stroke-width="3"
  />
  <path
    d="M287 119H122V61L287 83.7451V119Z"
    stroke="black"
    stroke-width="2"
  />
  <path
    d="M309 170.951L142 204V198.689L309 168V170.951Z"
    stroke="black"
  />
  <path
    d="M174.521 11L122 34.301C174.716 46.534 288.084 71 289.484 71C290.885 71 315.551 60.9029 328 55.2718L174.521 11Z"
    stroke="black"
    stroke-width="3"
    stroke-linejoin="round"
  />
  <path
    d="M177 17.6L127 38V35L177 14V17.6Z"
    stroke="black"
    stroke-width="2"
  />
  <path
    d="M268.681 161.125L258.042 190.556L272.791 163.228L279.808 156.534L275.602 168.379L278.31 171.217L286.428 163.472L281.091 176.398"
    stroke="white"
    stroke-width="4"
  />
  <path
    d="M281.129 107L244 125.489L283.146 112.778H296L281.129 120.289V125.489H296L279.056 133"
    stroke="white"
    stroke-width="4"
  />
  <path
    d="M42.7796 159.74L53.6748 141.572L42.2179 153.86L38.4744 153.669L42.8385 146.286L42.8616 141.021L34.2692 142.338L43.4987 133.447"
    stroke="white"
    stroke-width="4"
  />
  <path
    d="M15.263 164.052L26.1582 145.885L14.7013 158.173L10.9578 157.982L15.3219 150.598L15.345 145.334L6.75259 146.651L15.9821 137.76"
    stroke="white"
    stroke-width="4"
  />
  <path
    d="M264.152 56.1799L247.864 94.274L269.442 59.3375L279.238 51.0823L272.783 66.4211L276.16 70.4285L297.499 50.1616L279.458 77.5485"
    stroke="white"
    stroke-width="4"
  />
</svg>