<svg width="165" viewBox="0 0 247 137" fill="none" xmlns="http://www.w3.org/2000/svg">
<path d="M18 110.601C31.4545 119.611 58.3636 131.487 58.3636 131.487C58.3636 131.487 71.0998 135.566 79.157 133.33C125.636 120.43 192.298 90.9435 228.992 73.7432C240 68.5831 240 59 240 59" stroke="black" stroke-width="4" stroke-linecap="round" stroke-linejoin="round"/>
<path d="M84.5 125.5C84.5 124 84.7 120.3 85.5 117.5C95 117.5 114.2 117.7 115 118.5C116 119.5 90.5 134 89.5 134.5C88.7 134.9 85.8333 128.667 84.5 125.5Z" fill="white"/>
<path d="M174 89.9996C174 88.4996 174.2 84.7996 175 81.9996C184.5 81.9996 189.7 80.2 190.5 81C191.5 82 180 98.4996 179 98.9996C178.2 99.3996 175.333 93.1663 174 89.9996Z" fill="white"/>
<path d="M146 98.9996C146.8 99.3996 103.167 126.666 90 133.499L85 124.5L61 117L59 102.999C59 102.999 88.5 99.9984 99 99.9988C109.5 99.9991 145.2 98.5996 146 98.9996Z" fill="#FAD008"/>
<path d="M8 114.519L6 108.5L8 95.9997C8 95.9997 7 85.5189 17.5 85.5192C28 85.5196 45.7 107.1 46.5 107.5C47.3 107.9 22.5 104.5 8 114.519Z" fill="#FAD008"/>
<path d="M177.5 62.5193C188 62.5196 225.5 59.4999 225.5 59.4999L195.5 74.9999L180.5 100.5L172.5 91.4999L160.5 88.9999L137 61.0193C137 61.0193 167 62.5189 177.5 62.5193Z" fill="#FAD008"/>
<path d="M58.9774 118.265C64.6761 118.06 79.9811 121.457 83.4003 124.404C86.8195 127.352 89.093 132.863 89.5 134.5L143.847 101.683M154.227 93.0865C158.094 91.449 166.926 88.7881 171.323 91.2443C175.719 93.7005 178.853 98.4097 179.871 100.457L195.745 74.667L222 63M36.9968 109.668C32.1122 107.212 22.3431 106.598 16.2374 109.668C11.3528 112.124 8.09643 113.557 7.07881 113.967C6.26471 111.509 5.12498 105.611 7.07881 101.683C9.03264 97.755 13.9986 91.4512 16.2374 88.7903" stroke="black" stroke-width="4" stroke-linecap="round" stroke-linejoin="round"/>
<path d="M23.8517 101.23C29.6803 101.23 35.0098 100.607 38.9275 99.5696C40.8753 99.054 42.5594 98.4144 43.7922 97.6429C44.9472 96.92 46.1292 95.8059 46.1292 94.2305C46.1292 92.6552 44.9472 91.5411 43.7922 90.8182C42.5594 90.0467 40.8753 89.4071 38.9275 88.8915C35.0098 87.8544 29.6803 87.2306 23.8517 87.2306C18.0232 87.2306 12.6937 87.8544 8.77597 88.8915C6.82816 89.4071 5.14402 90.0467 3.91126 90.8182C2.75622 91.5411 1.57422 92.6552 1.57422 94.2305C1.57422 95.8059 2.75622 96.92 3.91126 97.6429C5.14402 98.4144 6.82816 99.054 8.77597 99.5696C12.6937 100.607 18.0232 101.23 23.8517 101.23Z" fill="white" stroke="black" stroke-width="3"/>
<path d="M23.8517 96.3417C29.6803 96.3417 35.0098 95.7179 38.9275 94.6808C40.8753 94.1652 42.5594 93.5256 43.7922 92.7541C44.9472 92.0312 46.1292 90.917 46.1292 89.3417C46.1292 87.7664 44.9472 86.6522 43.7922 85.9294C42.5594 85.1579 40.8753 84.5182 38.9275 84.0026C35.0098 82.9656 29.6803 82.3418 23.8517 82.3418C18.0232 82.3418 12.6937 82.9656 8.77597 84.0026C6.82816 84.5182 5.14402 85.1579 3.91126 85.9294C2.75622 86.6522 1.57422 87.7664 1.57422 89.3417C1.57422 90.917 2.75622 92.0312 3.91126 92.7541C5.14402 93.5256 6.82816 94.1652 8.77597 94.6808C12.6937 95.7179 18.0232 96.3417 23.8517 96.3417Z" fill="white" stroke="black" stroke-width="3"/>
<path d="M137.516 101.23C143.344 101.23 148.674 100.607 152.592 99.5696C154.539 99.054 156.223 98.4144 157.456 97.6429C158.611 96.92 159.793 95.8059 159.793 94.2305C159.793 92.6552 158.611 91.5411 157.456 90.8182C156.223 90.0467 154.539 89.4071 152.592 88.8915C148.674 87.8544 143.344 87.2306 137.516 87.2306C131.687 87.2306 126.358 87.8544 122.44 88.8915C120.492 89.4071 118.808 90.0467 117.575 90.8182C116.42 91.5411 115.238 92.6552 115.238 94.2305C115.238 95.8059 116.42 96.92 117.575 97.6429C118.808 98.4144 120.492 99.054 122.44 99.5696C126.358 100.607 131.687 101.23 137.516 101.23Z" fill="white" stroke="black" stroke-width="3"/>
<path d="M137.516 96.3417C143.344 96.3417 148.674 95.7179 152.592 94.6808C154.539 94.1652 156.223 93.5256 157.456 92.7541C158.611 92.0312 159.793 90.917 159.793 89.3417C159.793 87.7664 158.611 86.6522 157.456 85.9294C156.223 85.1579 154.539 84.5182 152.592 84.0026C148.674 82.9656 143.344 82.3418 137.516 82.3418C131.687 82.3418 126.358 82.9656 122.44 84.0026C120.492 84.5182 118.808 85.1579 117.575 85.9294C116.42 86.6522 115.238 87.7664 115.238 89.3417C115.238 90.917 116.42 92.0312 117.575 92.7541C118.808 93.5256 120.492 94.1652 122.44 94.6808C126.358 95.7179 131.687 96.3417 137.516 96.3417Z" fill="white" stroke="black" stroke-width="3"/>
<path d="M164.404 81.6758C170.233 81.6758 175.562 81.052 179.48 80.015C181.428 79.4994 183.112 78.8597 184.345 78.0882C185.5 77.3653 186.682 76.2512 186.682 74.6759C186.682 73.1006 185.5 71.9864 184.345 71.2635C183.112 70.492 181.428 69.8524 179.48 69.3368C175.562 68.2997 170.233 67.6759 164.404 67.6759C158.576 67.6759 153.246 68.2997 149.329 69.3368C147.381 69.8524 145.697 70.492 144.464 71.2635C143.309 71.9864 142.127 73.1006 142.127 74.6759C142.127 76.2512 143.309 77.3653 144.464 78.0882C145.697 78.8597 147.381 79.4994 149.329 80.015C153.246 81.052 158.576 81.6758 164.404 81.6758Z" fill="white" stroke="black" stroke-width="3"/>
<path d="M164.404 76.787C170.233 76.787 175.562 76.1632 179.48 75.1261C181.428 74.6105 183.112 73.9709 184.345 73.1994C185.5 72.4765 186.682 71.3623 186.682 69.787C186.682 68.2117 185.5 67.0976 184.345 66.3747C183.112 65.6032 181.428 64.9635 179.48 64.4479C175.562 63.4109 170.233 62.7871 164.404 62.7871C158.576 62.7871 153.246 63.4109 149.329 64.4479C147.381 64.9635 145.697 65.6032 144.464 66.3747C143.309 67.0976 142.127 68.2117 142.127 69.787C142.127 71.3623 143.309 72.4765 144.464 73.1994C145.697 73.9709 147.381 74.6105 149.329 75.1261C153.246 76.1632 158.576 76.787 164.404 76.787Z" fill="white" stroke="black" stroke-width="3"/>
<path d="M215.736 63.3418C221.565 63.3418 226.895 62.718 230.812 61.681C232.76 61.1654 234.444 60.5257 235.677 59.7542C236.832 59.0314 238.014 57.9172 238.014 56.3419C238.014 54.7666 236.832 53.6524 235.677 52.9295C234.444 52.158 232.76 51.5184 230.812 51.0028C226.895 49.9657 221.565 49.3419 215.736 49.3419C209.908 49.3419 204.578 49.9657 200.661 51.0028C198.713 51.5184 197.029 52.158 195.796 52.9295C194.641 53.6524 193.459 54.7666 193.459 56.3419C193.459 57.9172 194.641 59.0314 195.796 59.7542C197.029 60.5257 198.713 61.1654 200.661 61.681C204.578 62.718 209.908 63.3418 215.736 63.3418Z" fill="white" stroke="black" stroke-width="3"/>
<path d="M215.736 58.453C221.565 58.453 226.895 57.8292 230.812 56.7921C232.76 56.2766 234.444 55.6369 235.677 54.8654C236.832 54.1425 238.014 53.0284 238.014 51.4531C238.014 49.8778 236.832 48.7636 235.677 48.0407C234.444 47.2692 232.76 46.6296 230.812 46.114C226.895 45.0769 221.565 44.4531 215.736 44.4531C209.908 44.4531 204.578 45.0769 200.661 46.114C198.713 46.6296 197.029 47.2692 195.796 48.0407C194.641 48.7636 193.459 49.8778 193.459 51.4531C193.459 53.0284 194.641 54.1425 195.796 54.8654C197.029 55.6369 198.713 56.2766 200.661 56.7921C204.578 57.8292 209.908 58.453 215.736 58.453Z" fill="white" stroke="black" stroke-width="3"/>
<path d="M98.4045 108.564C104.233 108.564 109.562 107.941 113.48 106.904C115.428 106.388 117.112 105.748 118.345 104.977C119.5 104.254 120.682 103.14 120.682 101.565C120.682 99.9892 119.5 98.8751 118.345 98.1522C117.112 97.3807 115.428 96.741 113.48 96.2254C109.562 95.1884 104.233 94.5646 98.4045 94.5646C92.5759 94.5646 87.2464 95.1884 83.3287 96.2254C81.3809 96.741 79.6968 97.3807 78.464 98.1522C77.309 98.8751 76.127 99.9892 76.127 101.565C76.127 103.14 77.309 104.254 78.464 104.977C79.6968 105.748 81.3809 106.388 83.3287 106.904C87.2464 107.941 92.5759 108.564 98.4045 108.564Z" fill="white" stroke="black" stroke-width="3"/>
<path d="M98.4045 103.676C104.233 103.676 109.562 103.052 113.48 102.015C115.428 101.499 117.112 100.86 118.345 100.088C119.5 99.3652 120.682 98.251 120.682 96.6757C120.682 95.1004 119.5 93.9862 118.345 93.2634C117.112 92.4919 115.428 91.8522 113.48 91.3366C109.562 90.2996 104.233 89.6758 98.4045 89.6758C92.5759 89.6758 87.2464 90.2996 83.3287 91.3366C81.3809 91.8522 79.6968 92.4919 78.464 93.2634C77.309 93.9862 76.127 95.1004 76.127 96.6757C76.127 98.251 77.309 99.3652 78.464 100.088C79.6968 100.86 81.3809 101.499 83.3287 102.015C87.2464 103.052 92.5759 103.676 98.4045 103.676Z" fill="white" stroke="black" stroke-width="3"/>
<path d="M59.2951 118.342C65.1236 118.342 70.4531 117.718 74.3708 116.681C76.3186 116.165 78.0028 115.526 79.2355 114.754C80.3906 114.031 81.5726 112.917 81.5726 111.342C81.5726 109.767 80.3906 108.652 79.2355 107.93C78.0028 107.158 76.3186 106.518 74.3708 106.003C70.4531 104.966 65.1236 104.342 59.2951 104.342C53.4665 104.342 48.137 104.966 44.2193 106.003C42.2715 106.518 40.5874 107.158 39.3546 107.93C38.1996 108.652 37.0176 109.767 37.0176 111.342C37.0176 112.917 38.1996 114.031 39.3546 114.754C40.5874 115.526 42.2715 116.165 44.2193 116.681C48.137 117.718 53.4665 118.342 59.2951 118.342Z" fill="white" stroke="black" stroke-width="3"/>
<path d="M59.2951 113.453C65.1236 113.453 70.4531 112.829 74.3708 111.792C76.3186 111.277 78.0028 110.637 79.2355 109.865C80.3906 109.143 81.5726 108.028 81.5726 106.453C81.5726 104.878 80.3906 103.764 79.2355 103.041C78.0028 102.269 76.3186 101.63 74.3708 101.114C70.4531 100.077 65.1236 99.4531 59.2951 99.4531C53.4665 99.4531 48.137 100.077 44.2193 101.114C42.2715 101.63 40.5874 102.269 39.3546 103.041C38.1996 103.764 37.0176 104.878 37.0176 106.453C37.0176 108.028 38.1996 109.143 39.3546 109.865C40.5874 110.637 42.2715 111.277 44.2193 111.792C48.137 112.829 53.4665 113.453 59.2951 113.453Z" fill="white" stroke="black" stroke-width="3"/>
<path d="M3.11424 71.0111C3.72416 68.5802 11.0432 66.1493 13.4829 66.1493L229.395 23C230.615 23.4052 233.543 24.4586 235.495 25.4309C237.934 26.6464 237.934 26.6464 239.764 28.4696C241.594 30.2928 240.984 30.2928 241.594 30.9005C242.204 31.5083 242.204 31.5083 244.034 35.7624C245.863 40.0165 244.644 37.5856 244.034 39.4088C243.424 41.232 243.424 41.8397 244.034 44.2706C244.644 46.7016 244.034 46.7016 242.204 48.5248C240.374 50.3479 241.594 49.7402 237.934 50.956C234.275 52.1717 235.495 52.7792 234.275 55.8175C233.055 58.8559 230.005 56.4255 227.566 53.9943C225.126 51.5631 226.956 52.7792 222.076 50.956C217.197 49.1328 214.757 50.956 214.147 52.7792C213.537 54.6024 217.197 55.2101 217.807 56.4255C218.295 57.3979 208.251 60.4771 203.169 61.8951C200.932 62.7055 196.216 64.5692 195.24 65.5415C194.02 66.757 194.63 66.1493 186.091 69.1879C182.431 69.1879 184.261 67.3647 179.992 71.6189C177.552 73.4421 177.552 72.2266 176.942 71.6189C176.332 71.0111 175.722 71.0111 171.453 69.7957C168.037 68.8233 168.403 70.2008 169.013 71.0111L162.914 73.4421C159.864 74.6575 162.914 74.6575 160.474 75.873C158.035 77.0884 157.425 77.0884 153.765 84.3812C153.765 89.2431 151.935 84.989 147.056 84.3812C142.177 83.7735 145.226 84.3812 142.787 89.8508C142.787 92.8895 141.567 91.0663 139.127 91.674C136.687 92.2817 137.297 91.0663 134.858 89.8508C132.418 88.6354 131.808 89.8508 130.588 89.2431C129.368 88.6354 126.319 92.2817 123.879 92.8895C121.439 93.4972 122.659 93.4972 122.049 93.4972C121.439 93.4972 120.219 96.5359 116.56 97.1436C112.9 97.7513 114.73 96.5359 111.071 98.9668C109.851 101.398 109.851 98.9668 107.411 98.9668H104.361C103.752 98.9668 103.142 97.7513 101.922 96.5359C100.702 95.3204 100.092 95.9281 98.8721 95.3204C97.6523 94.7127 95.8225 97.1436 93.3828 98.9668C90.9431 100.79 90.9431 100.79 89.7233 102.613C88.5035 104.436 88.5035 105.652 87.8935 106.867C87.2836 108.083 86.0638 108.083 79.3546 109.298C72.6455 110.514 75.6951 109.906 73.8653 109.298C72.0356 108.691 65.9363 107.475 65.3264 107.475C64.7165 107.475 62.2768 109.906 60.447 109.906C58.9832 109.906 56.9908 107.88 56.1776 106.867C55.3644 106.26 53.3719 104.558 51.9081 102.613C50.0784 100.182 45.8089 99.5745 44.5891 98.9668C43.3692 98.3591 37.27 100.182 33.6105 101.398C29.9509 102.613 27.5112 101.398 26.9013 100.79C26.2914 100.182 26.2914 95.3204 26.9013 93.4972C27.5112 91.674 23.2418 91.0663 22.6319 91.0663C22.0219 91.0663 13.4829 88.6354 12.2632 88.0276C11.0435 87.4199 5.55294 84.3812 4.94302 83.7735C4.3331 83.1658 1.28447 80.7348 4.33408 78.3039C7.38369 75.873 2.50431 73.4421 3.11424 71.0111Z" fill="white" stroke="black" stroke-width="4" stroke-linecap="round" stroke-linejoin="round"/>
<path d="M23.781 47.2854C11.0657 51.2059 16.0377 62.3957 14 67.5006C14.6113 67.5006 16.5675 67.133 19.5018 65.6627C21.947 63.8248 20.7244 66.2753 21.947 67.5006C23.1696 68.7258 23.781 69.3382 26.2262 71.1759C28.1824 72.6461 27.0413 73.0137 26.2262 73.0137C27.0413 73.2179 28.7937 73.8713 29.2827 74.8514C29.8941 76.0766 30.5054 75.464 31.728 76.6892C32.9506 77.9143 34.1732 77.3017 38.4524 76.6892C40.8976 76.0766 41.5089 78.5269 43.3429 80.3646C45.1768 82.2024 44.5655 80.3646 48.8447 77.3017C50.0673 75.464 51.2899 77.3017 51.9012 78.5269C52.5125 79.7521 53.1238 80.3646 53.7351 80.9772C54.3464 81.5898 54.9577 82.2024 56.1804 82.2024C57.403 82.2024 59.8482 80.9772 61.0708 82.2024C62.0489 83.1825 62.2935 84.2443 62.2935 84.6527C63.9236 84.8569 67.9175 85.3878 70.8518 85.8779C73.7861 86.3679 79.0026 85.2653 81.2441 84.6527L86.1345 82.2024C86.7458 82.2024 89.8024 84.0401 91.025 82.2024C92.2476 80.3646 91.6363 80.9772 92.2476 79.1395C92.8589 77.3017 94.0816 79.7521 94.6929 80.3646C95.3042 80.9772 97.1381 79.7521 99.5834 79.1395C102.029 78.5269 100.195 77.9143 98.972 76.6892C97.7494 75.464 99.5834 75.464 100.806 73.6263C101.784 72.1561 103.659 73.0137 104.474 73.6263H111.198C114.255 73.6263 113.032 72.4011 115.477 69.3382C115.966 68.3581 115.681 67.7047 115.477 67.5006C117.108 67.5006 121.346 66.5204 125.258 62.5998C127.092 60.7621 130.149 65.6627 131.983 64.4375C131.983 63.825 131.983 62.5998 134.428 60.1495C135.651 60.7621 134.428 61.3746 135.651 62.5998C136.873 63.825 139.93 61.9872 142.375 60.7621C144.82 59.5369 142.375 58.9243 142.986 56.474C143.475 54.5137 143.801 55.2488 143.598 55.8614C144.82 56.6782 147.755 58.3117 149.711 58.3117C152.156 58.3117 150.322 57.0866 149.711 56.474C149.099 55.8614 150.933 52.7985 151.545 53.4111C152.156 54.0237 155.824 54.0237 158.269 54.6363C160.714 55.2488 158.269 53.4111 155.824 51.5733C153.868 50.1032 156.639 50.9608 158.269 51.5733L161.937 49.7356C164.79 49.3272 171.229 48.2654 174.163 47.2854C177.22 47.8981 174.774 46.0601 179.665 43.6098C181.132 43.6098 180.276 42.3846 179.665 41.7721C180.684 41.9762 183.577 41.6495 187.001 38.7092C187.612 36.8714 189.446 39.9343 193.114 41.7721C196.782 43.6098 194.948 41.1595 194.336 37.484C193.725 33.8085 202.283 35.6462 201.672 35.0337C201.183 34.5436 203.506 32.7875 204.729 31.9708C205.747 32.3792 208.152 33.1959 209.619 33.1959H210.842C211.249 32.7875 212.187 31.4807 212.676 29.5204C213.287 27.0701 215.121 29.5204 216.344 29.5204C217.566 29.5204 217.566 30.133 218.177 28.9079C217.566 28.2953 220.011 28.2953 220.623 27.6827C221.112 27.1926 222.457 28.7037 223.068 29.5204C225.106 28.7037 234.805 25.8452 235.294 25.8452C235.905 25.8452 236.517 19.7191 235.294 17.2688C234.071 14.8185 231.015 12.3685 212.676 4.40499C198.004 -1.96585 165.605 6.03829 155.824 8.69281C121.183 19.9235 36.4962 43.3649 23.781 47.2854Z" fill="white" stroke="black" stroke-width="4" stroke-linejoin="round"/>
<path d="M27.0872 95.6009C26.6799 93.3054 27.6996 87.2118 30.1431 86.2101M62.5191 110C65.3698 108.539 71.1935 104.992 71.6822 102.487M97.9499 95.6009C98.5607 95.6009 105.28 94.3488 104.059 89.3404M97.9499 79.3236C99.1716 78.0715 104.059 75.5673 107.724 78.0715C110.656 80.0748 111.796 84.332 112 86.2101" stroke="black" stroke-width="4" stroke-linecap="round"/>
<path d="M129 65C130.836 66.1765 135.119 66.1765 136.955 69.7059C138.791 73.2353 145.522 71.4706 143.686 75" stroke="black" stroke-width="4" stroke-linecap="round"/>
<path d="M180 70C180.663 69.374 181.99 68.1219 183.981 65.6177C185.971 63.1135 189.288 51.8447 184.644 53.0968" stroke="black" stroke-width="4" stroke-linecap="round"/>
<path d="M207 34.0464C207.6 34.0464 211.8 33.4783 215.4 36.3188C218.28 38.5912 219 41.0531 219 42" stroke="black" stroke-width="4" stroke-linecap="round"/>
</svg>
