<svg viewBox="0 0 121 110" fill="none" xmlns="http://www.w3.org/2000/svg">
<path fill-rule="evenodd" clip-rule="evenodd" d="M20.3439 2.27541C19.7811 3.57113 19.1512 6.03071 18.9445 7.74109C18.4862 11.5313 19.6166 14.2753 23.1393 17.9243C25.8444 20.7266 29.3731 23.2042 29.9013 22.6724C30.1042 22.468 29.0257 19.9191 27.5041 17.0078C24.5322 11.3215 22.4754 5.35779 22.4754 2.42688C22.4754 -0.304045 21.4948 -0.373789 20.3439 2.27541ZM45.5994 3.75966C43.4999 6.00074 41.3424 9.02591 40.2579 11.249L38.4387 14.9782L38.4825 23.6989C38.5215 31.4351 38.7179 33.2599 40.2239 39.8557C42.6795 50.6132 43.4035 56.6428 42.5026 58.8343C41.2461 61.8878 37.4333 62.3374 36.7298 59.5149C36.5317 58.721 37.0133 54.1549 37.8028 49.3344C39.4273 39.417 39.3267 38.2276 36.4608 33.4256C33.6773 28.7609 24.8677 20.8394 23.7335 21.9815C23.5316 22.1842 24.201 24.2487 25.2211 26.5683C26.7984 30.1574 27.0739 31.3948 27.069 34.8722C27.0631 38.7387 26.8926 39.3113 23.905 45.4973C16.7134 60.3872 15.1079 68.665 18.0917 75.4656C19.7248 79.1872 24.8882 82.9577 29.332 83.6731C31.345 83.9973 31.5609 83.8704 35.5496 80.0099C40.6957 75.0292 42.6108 72.6007 51.5935 59.6642C55.5475 53.9702 59.7651 48.17 60.9664 46.7751L63.1499 44.2387L61.7478 38.6406C59.0974 28.0569 59.454 19.7349 62.8479 12.9697C64.5362 9.60348 63.7392 9.2128 60.3268 11.7356C54.5075 16.0363 53.0275 19.6265 52.08 31.7392C51.8668 34.4646 49.218 30.6565 47.9452 25.7951C46.9057 21.824 47.127 11.656 48.3413 7.56945C48.9301 5.58936 49.6823 3.45997 50.0129 2.83772C50.8343 1.29245 50.7683 0 49.8679 0C49.4577 0 47.5367 1.69184 45.5994 3.75966ZM112.482 6.61264C112.061 7.13573 112.039 8.40366 112.406 10.8976C113.576 18.8561 112.02 26.4985 108.047 32.3135L106.386 34.7442L101.092 34.9768C97.0029 35.1566 95.2751 35.4836 93.4986 36.4142C92.2339 37.0768 91.1988 37.8298 91.1988 38.0881C91.1988 38.3458 92.3552 38.8498 93.7691 39.2078C97.5743 40.1717 102.406 42.9571 104.124 45.178C104.955 46.2525 106.205 48.4195 106.901 49.9926C107.597 51.5657 108.363 52.8532 108.604 52.8532C109.613 52.8532 111.813 48.4947 112.119 45.8869C112.385 43.6344 112.228 42.7343 111.293 41.1383C109.741 38.4902 109.835 37.5574 111.815 35.956C114.043 34.1546 117.554 29.3804 118.893 26.334C120.757 22.0904 120.754 8.83629 118.888 6.9581C118.02 6.08357 113.119 5.8193 112.482 6.61264ZM78.387 40.7863C75.4086 41.8227 71.1678 44.8582 67.7327 48.4119C65.5227 50.6977 63.8127 53.0167 57.8273 61.8437C51.1898 71.6313 44.9041 79.75 40.8218 83.8056C31.6058 92.9628 18.1939 100.003 5.83023 102.174C3.29991 102.619 1.01797 102.982 0.759306 102.982C0.500646 102.982 0.289062 103.345 0.289062 103.79C0.289062 104.235 1.46981 105.201 2.91246 105.937C11.8433 110.494 28.8509 111.331 42.2747 107.873C48.0518 106.386 59.2364 101.808 68.2127 97.2575C87.1598 87.6529 100.393 76.2029 104.419 65.9303C105.84 62.3047 105.776 56.5257 104.279 53.1692C101.616 47.1995 96.2156 42.6057 89.7328 40.7956C85.2003 39.5298 82.005 39.5277 78.387 40.7863ZM89.4401 44.8135C90.7648 45.8804 90.0754 47.3047 87.1636 49.5185C85.5396 50.7532 83.9774 51.7634 83.6922 51.7634C83.1045 51.7634 78.7528 46.9336 78.7528 46.282C78.7528 45.8368 82.9271 44.3526 85.2463 43.9733C86.8302 43.7145 88.4877 44.0463 89.4401 44.8135ZM74.6272 54.8218L77.1278 57.8803L74.9806 60.4624C73.7998 61.8824 72.4411 63.3726 71.9616 63.7736C71.4816 64.1747 68.6689 67.3372 65.7105 70.8015C62.7521 74.2658 58.7689 78.6848 56.8592 80.6218L53.3868 84.1434L52.0005 82.6373C51.238 81.8086 50.6141 80.9384 50.6141 80.703C50.6141 80.4682 51.7705 78.7883 53.1844 76.9706C54.5984 75.1529 58.1358 69.9825 61.046 65.4807C65.9702 57.8639 70.7089 51.7634 71.7019 51.7634C71.9356 51.7634 73.2517 53.1398 74.6272 54.8218ZM46.5437 87.5113C47.0735 88.3253 47.2656 89.1356 46.9934 89.4096C46.1406 90.2684 37.9906 94.2645 37.1216 94.2498C36.2206 94.2351 43.9414 86.33 45.0053 86.1785C45.3429 86.13 46.0356 86.7299 46.5437 87.5113Z" fill="white"/>
</svg>
