<svg
  width="155"
  viewBox="0 0 273 223"
  fill="none"
  xmlns="http://www.w3.org/2000/svg"
>
  <path
    fill-rule="evenodd"
    clip-rule="evenodd"
    d="M80.9791 1.3981C78.6854 2.21137 75.6359 3.46265 74.2023 4.17819C72.7688 4.89373 69.4263 6.14866 66.774 6.96665C64.1217 7.78463 61.9521 8.64599 61.9521 8.88067C61.9521 9.59934 62.8367 9.39655 71.3071 6.73458C75.8095 5.31971 80.329 4.00518 81.3497 3.81284C83.2821 3.44958 84.3232 4.10972 83.1888 4.98049C82.4705 5.53191 23.445 24.4647 22.4447 24.4647C21.1498 24.4647 21.8801 23.5479 23.9032 22.6327C26.812 21.3177 26.1234 21.0621 22.503 22.1137C18.6163 23.2427 18.1638 23.6514 18.1638 26.0327C18.1638 28.3445 18.8207 29.0213 21.2937 29.2565L23.1161 29.4301L23.5639 33.7897C23.8136 36.2196 23.8136 38.3291 23.5639 38.5559C23.3178 38.7801 19.7147 39.7304 15.5574 40.668C11.4001 41.6062 6.23937 42.9892 4.08906 43.7419L0.179397 45.1102L0.0230106 47.2459C-0.0718639 48.5484 0.131439 49.5864 0.544299 49.9063C0.91702 50.1943 5.53876 50.7117 10.8147 51.0551C16.0907 51.399 20.6342 51.8203 20.911 51.9922C21.2113 52.1783 21.2806 53.9089 21.0825 56.286C20.9001 58.476 20.9762 72.9347 21.2514 88.4173C21.6831 112.699 21.8634 116.69 22.5646 117.466C23.3882 118.379 23.6499 120.188 23.0462 120.794C22.8643 120.976 22.7032 138.167 22.6886 158.996C22.6688 186.761 22.8216 197.059 23.26 197.589C23.5889 197.987 26.5065 199.466 29.7427 200.876C32.9789 202.287 36.2135 204.058 36.9302 204.812C37.6751 205.596 39.7963 206.697 41.8825 207.384C47.9956 209.395 72.419 218.718 76.0461 220.425C80.0825 222.325 84.5786 223.253 88.2365 222.941C89.6924 222.817 95.8097 221.981 101.831 221.085C107.852 220.189 118.759 218.738 126.071 217.861C133.382 216.984 146.635 215.207 155.523 213.912C183.005 209.91 213.987 205.882 223.812 205.035C231.957 204.333 239.799 203.303 243.742 202.419C245.719 201.976 246.527 199.467 247.081 192.061L247.595 185.186L246.082 183.88C245.249 183.161 243.827 182.172 242.921 181.683L241.275 180.792L241.277 173.059C241.279 164.824 242.078 152.197 242.758 149.628C243.139 148.19 243.423 148.034 246.637 147.501C251.042 146.769 251.797 146.154 251.597 143.47C251.372 140.471 249.948 139.641 243.1 138.52L237.366 137.581L237.011 135.25C236.815 133.968 236.66 118.607 236.667 101.114L236.678 69.3089L238.372 66.05C240.608 61.749 240.751 61.0564 240.197 57.2393C239.567 52.8965 239.929 52.6362 248.66 51.1419C264.367 48.4543 271.621 47.0373 272.092 46.5648C272.366 46.2899 272.726 45.2268 272.892 44.2018C273.147 42.6286 272.998 42.2099 271.936 41.5121C270.192 40.3659 260.244 38.7451 250.635 38.0406C246.204 37.716 241.757 37.2816 240.754 37.0752L238.929 36.7004V31.5464V26.3923L243.038 24.9126C245.298 24.0988 247.479 23.1564 247.886 22.8182C248.856 22.0107 248.593 18.1764 247.531 17.6501C247.101 17.4368 243.582 16.887 239.711 16.4286C235.841 15.9697 228.921 15.125 224.333 14.5511C219.746 13.9778 205.789 12.5514 193.317 11.3822C166.789 8.89531 151.051 7.14906 104.225 1.4974C87.8507 -0.478821 86.2921 -0.485615 80.9791 1.3981ZM110.953 5.29462C113.964 5.72896 120.063 6.34362 124.507 6.66088C133.703 7.31683 148.117 8.7845 148.443 9.09758C149.196 9.82409 147.022 9.82514 139.015 9.10176C134.046 8.65279 125.289 8.04439 119.554 7.74908C113.82 7.4543 104.672 6.74608 99.2242 6.17532C93.7767 5.60456 89.0267 5.1352 88.6681 5.13154C88.31 5.12841 88.0165 4.85819 88.0165 4.53099C88.0165 3.71981 103.65 4.24039 110.953 5.29462ZM112.256 8.52944C121.853 9.05838 125.028 9.39289 125.028 9.87427C125.028 10.1372 123.151 10.3525 120.858 10.3525C118.564 10.3525 116.687 10.5375 116.687 10.7633C116.687 11.2625 135.356 13.2387 135.806 12.7871C135.981 12.6115 135.739 12.3193 135.268 12.1385C133.423 11.4282 134.451 10.7456 136.887 11.0628C138.249 11.24 143.938 11.7407 149.529 12.1751C163.471 13.2581 166.195 13.5643 166.516 14.0849C166.668 14.3316 165.723 14.5339 164.416 14.5339C161.419 14.5339 161.304 15.4261 164.255 15.7841C170.137 16.4976 173.182 16.5896 173.805 16.0711C174.754 15.2813 184.551 16.3957 187.843 17.6678C189.85 18.4435 194.348 18.986 207.392 20.0256C224.888 21.4201 234.923 22.5904 235.652 23.3216C236.428 24.0998 237.331 35.423 236.67 36.0863C236.054 36.7041 236.401 36.7297 203.482 33.6182C171.369 30.5825 126.699 27.0425 100.527 25.4593C94.9366 25.1211 90.0417 24.5896 89.6502 24.2786C89.0783 23.8249 89.0101 22.3693 89.3041 16.9021C89.5053 13.1561 89.8327 9.91975 90.0313 9.71015C90.2299 9.50056 94.3465 9.56694 99.1788 9.85807C104.011 10.1487 108.09 10.261 108.243 10.1084C108.778 9.57112 107.973 9.30665 104.786 8.97266C103.017 8.78711 101.57 8.40661 101.57 8.12698C101.57 7.82278 102.668 7.74386 104.307 7.92993C105.812 8.10137 109.389 8.37107 112.256 8.52944ZM152.656 9.82984C152.656 10.1173 152.187 10.3525 151.614 10.3525C151.04 10.3525 150.571 10.1173 150.571 9.82984C150.571 9.54237 151.04 9.30717 151.614 9.30717C152.187 9.30717 152.656 9.54237 152.656 9.82984ZM172.205 10.572C176.218 11.0283 183.021 11.8693 187.322 12.4411C191.623 13.0129 201.358 14.0708 208.955 14.7916C223.85 16.2054 241.016 18.051 243.751 18.5329C244.737 18.7069 245.446 19.1454 245.446 19.5813C245.446 20.1354 245.004 20.2582 243.751 20.0533C242.819 19.9002 239.242 19.5259 235.802 19.2207C232.361 18.916 222.626 17.8576 214.168 16.8697C205.71 15.8819 189.172 14.1199 177.417 12.9539C165.662 11.7883 155.7 10.7137 155.277 10.5658C154.602 10.3285 154.602 10.2339 155.277 9.77653C156.197 9.15298 162.193 9.4347 172.205 10.572ZM86.4135 17.0354C86.8686 20.9669 86.9692 23.6331 86.6736 23.9294C86.401 24.2028 84.1115 24.2786 81.4212 24.104L76.6519 23.7941L76.2088 20.3397C75.7959 17.1196 75.6724 16.8749 74.3775 16.7249C73.6138 16.6361 69.1568 17.856 64.473 19.4355C59.7892 21.0145 52.377 23.2594 48.0008 24.4239C40.0934 26.5282 36.656 27.872 35.4466 29.3334C34.9691 29.9099 34.9509 30.708 35.3721 32.5912C35.6786 33.9627 35.7443 35.2511 35.5175 35.4533C34.8654 36.0361 30.1503 37.0684 29.6254 36.7433C29.3424 36.5677 29.3528 35.9159 29.652 35.1267C29.9278 34.3996 30.1535 32.414 30.1535 30.7148C30.1535 28.08 30.3265 27.515 31.3264 26.8778C33.5502 25.4624 83.2029 10.2997 84.8888 10.5219C85.4888 10.6008 85.8438 12.1176 86.4135 17.0354ZM132.326 10.8752C132.326 11.1627 131.636 11.3979 130.793 11.3979C129.949 11.3979 129.115 11.1627 128.938 10.8752C128.746 10.5642 129.367 10.3525 130.471 10.3525C131.491 10.3525 132.326 10.5877 132.326 10.8752ZM111.509 14.2302C111.056 14.7775 110.981 16.197 111.244 19.2186C111.772 25.2962 113.064 25.6433 114.15 20C114.48 18.2872 114.901 16.7124 115.086 16.5002C115.272 16.288 119.051 16.4511 123.484 16.8634C127.917 17.2753 134.359 17.8712 137.8 18.1874C141.24 18.5036 146.635 19.1021 149.789 19.5181C155.224 20.2342 164.487 21.1075 180.285 22.3917C192.972 23.4235 216.359 26.0525 217.289 26.5517C217.88 26.8684 218.321 27.9634 218.548 29.6726C219.12 33.9977 220.92 32.8081 220.938 28.0925C220.951 24.7678 220.881 24.7448 206.349 23.2244C199.038 22.4592 189.303 21.5994 184.715 21.313C180.128 21.0265 172.387 20.2237 167.513 19.5291C162.639 18.8344 155.602 17.9997 151.874 17.6741C148.147 17.3485 141.462 16.7296 137.018 16.299C132.574 15.8683 126.005 15.2897 122.422 15.0137C118.838 14.7372 115.436 14.3802 114.863 14.2198C114.289 14.0593 113.443 13.8241 112.982 13.6966C112.52 13.569 111.858 13.8095 111.509 14.2302ZM153.699 14.5339C153.699 14.8214 154.285 15.0566 155.002 15.0566C155.719 15.0566 156.305 14.8214 156.305 14.5339C156.305 14.2464 155.719 14.0112 155.002 14.0112C154.285 14.0112 153.699 14.2464 153.699 14.5339ZM171.944 14.5339C171.944 14.8214 171.02 15.0566 169.89 15.0566C168.759 15.0566 167.69 14.8214 167.513 14.5339C167.316 14.2145 168.116 14.0112 169.567 14.0112C170.874 14.0112 171.944 14.2464 171.944 14.5339ZM57.2605 16.3565C57.2605 16.8457 53.2716 18.282 43.3259 21.3752C32.884 24.6225 28.5896 25.6663 28.5896 24.9575C28.5896 24.1636 38.9846 20.7699 51.5263 17.4692C56.9435 16.0439 57.2605 15.9822 57.2605 16.3565ZM74.3311 21.6302C75.1188 24.7474 74.8957 25.51 73.1963 25.51C72.4821 25.51 71.4776 25.9407 70.9646 26.467C70.3573 27.0906 68.5776 27.6409 65.8617 28.046C63.5681 28.3878 56.7861 29.947 50.7913 31.5108C44.7959 33.0741 39.6941 34.2313 39.4533 34.0824C38.761 33.6532 38.944 29.3558 39.6811 28.7427C40.047 28.4385 43.2722 27.3383 46.8488 26.2977C50.4248 25.2576 56.7522 23.3205 60.9095 21.993C68.0918 19.6995 72.0046 18.7289 73.1598 18.9552C73.4465 19.0111 73.9735 20.2148 74.3311 21.6302ZM106.783 27.4026C110.94 27.8281 118.617 28.5112 123.842 28.9204C129.066 29.3297 133.875 29.7865 134.528 29.935C135.181 30.0839 143.573 30.8031 153.178 31.5333C162.782 32.2635 175.098 33.4416 180.545 34.1508C193.893 35.8892 221.986 38.4655 234.486 39.0974C257.648 40.2682 268.382 41.2566 268.382 42.2188C268.382 42.4446 267.385 42.5382 266.167 42.4268C264.949 42.315 256.327 41.7562 247.009 41.1855C212.867 39.0937 191.957 37.4306 185.08 36.2598C174.492 34.4576 159.758 33.1227 132.82 31.5249C125.493 31.0906 115.406 30.3855 110.404 29.9585C105.402 29.5315 99.1981 29.1604 96.6177 29.1342C90.2486 29.0689 84.6818 28.0664 84.4665 26.9458C84.3179 26.1717 85.0358 26.1137 91.763 26.3583C95.8666 26.5073 102.626 26.9772 106.783 27.4026ZM79.9365 27.8479C79.9365 28.9905 79.4204 29.1546 62.734 33.3245C49.9103 36.5285 9.22271 45.8942 8.12539 45.8942C7.73078 45.8942 7.78499 45.635 8.27813 45.162C9.10802 44.3654 32.5118 38.0609 54.9147 32.599C62.6558 30.7116 69.4586 28.9607 70.032 28.7072C71.3123 28.1422 78.6964 26.6338 79.4152 26.79C79.7019 26.8528 79.9365 27.3284 79.9365 27.8479ZM97.3997 31.2369C102.575 31.712 111.35 32.218 134.15 33.3543C139.598 33.6255 149.333 34.4378 155.784 35.1596C168.353 36.5651 193.521 39.1465 207.131 40.4266C211.718 40.8578 221.688 41.4322 229.286 41.7029C249.226 42.4132 267.699 43.9896 268.779 45.0731C269.696 45.9914 266.826 46.4456 253.526 47.4868C239.184 48.61 232.869 48.6377 220.293 47.6342C217.96 47.4481 216.253 47.514 216.253 47.791C216.253 48.0544 220.67 48.7637 226.068 49.3674C231.466 49.9706 236.392 50.7384 237.015 51.0723C238.066 51.6368 238.148 52.0706 238.148 57.1191C238.148 60.1104 237.966 62.6704 237.745 62.8079C237.522 62.9454 233.242 62.8539 228.231 62.6046C223.22 62.3558 209.62 61.7824 198.008 61.3314C186.397 60.8803 172.674 60.1705 167.513 59.7539C162.352 59.3374 149.685 58.7379 139.363 58.4216C105.108 57.3711 91.028 56.5651 90.3347 55.6138C88.886 53.6277 89.1758 41.6318 90.7173 39.7696C91.0222 39.4011 92.2989 39.0995 93.5536 39.0995C94.8089 39.0995 95.8358 38.8789 95.8358 38.6087C95.8358 37.3527 84.4988 37.1907 83.2634 38.4294C82.8088 38.8852 83.0924 39.1444 84.4269 39.4894L86.192 39.9462L86.6398 47.6791C87.0036 53.9601 86.9546 55.5391 86.3791 56.0895C84.3044 58.072 39.2453 65.4636 37.5964 64.0916C36.6956 63.3415 36.6602 52.1234 37.5558 51.2255C37.8998 50.8805 38.7573 50.5983 39.4616 50.5983C40.1659 50.5983 43.2269 49.9063 46.2644 49.0606C49.302 48.2149 54.3386 46.8126 57.457 45.9449C60.5759 45.0773 63.2542 44.2405 63.4085 44.0853C64.4068 43.0849 61.7498 43.5861 51.201 46.3887C44.65 48.1292 38.7954 49.5529 38.1902 49.5529C37.5855 49.5529 36.3459 49.9251 35.4362 50.3803C34.0115 51.0927 33.0065 51.1304 28.1882 50.6506C25.1121 50.3443 19.8382 49.9486 16.4697 49.7719C6.32851 49.2388 5.16865 49.6554 43.7325 39.9833C59.0574 36.1396 73.5898 32.5122 76.0269 31.9222C81.0953 30.6944 88.8073 30.4472 97.3997 31.2369ZM101.57 39.0995C101.57 39.387 102.626 39.6222 103.916 39.6222C105.206 39.6222 106.262 39.387 106.262 39.0995C106.262 38.812 105.206 38.5768 103.916 38.5768C102.626 38.5768 101.57 38.812 101.57 39.0995ZM75.6359 40.241C73.557 40.8243 71.8565 41.4844 71.8565 41.7076C71.8565 42.3761 79.3011 40.7443 80.1539 39.8892C81.2173 38.823 80.4844 38.8805 75.6359 40.241ZM109.911 39.5417C109.911 39.9154 116.85 40.5624 129.72 41.3883C142.791 42.2266 150.868 42.8727 153.959 43.3269C155.966 43.6216 160.893 44.0826 164.907 44.3513C168.92 44.6205 177.365 45.3198 183.673 45.9057C199.68 47.3922 206.349 47.7377 206.349 47.0802C206.349 46.7702 204.19 46.3976 201.266 46.2026C195.071 45.7897 181.536 44.5593 171.683 43.5135C162.635 42.5528 141.534 40.9497 124.068 39.8966C108.506 38.9578 109.911 38.9929 109.911 39.5417ZM208.955 47.4622C208.955 47.7497 209.894 47.9849 211.041 47.9849C212.187 47.9849 213.126 47.7497 213.126 47.4622C213.126 47.1748 212.187 46.9396 211.041 46.9396C209.894 46.9396 208.955 47.1748 208.955 47.4622ZM33.3667 59.9452C33.6008 65.7845 33.767 66.1138 37.7831 68.6948C40.0147 70.1295 40.5193 70.7452 40.8175 72.3979C41.014 73.4877 41.1803 88.7141 41.1871 106.234C41.2011 142.045 41.5796 138.83 37.2008 140.082C34.3279 140.903 33.8025 141.406 33.8025 143.337C33.8025 145.562 34.7002 146.666 37.1976 147.513C38.4102 147.924 39.5367 148.74 39.9016 149.471C40.6079 150.885 41.0515 185.144 40.3723 185.836C40.158 186.053 39.2437 186.486 38.3398 186.796C36.325 187.489 36.0075 188.491 35.9398 194.377C35.9111 196.844 35.7537 198.997 35.5895 199.162C35.4258 199.326 33.3787 198.559 31.0412 197.458C27.6138 195.843 26.7057 195.169 26.3528 193.979C26.1119 193.168 26.0436 189.089 26.2011 184.915C26.3757 180.271 26.2735 176.551 25.9368 175.329C25.6344 174.23 25.5693 172.941 25.7924 172.464C26.0155 171.987 26.211 149.253 26.2271 121.943C26.2428 94.6334 26.4664 69.3815 26.7239 65.8274C27.131 60.2076 27.351 59.1758 28.4124 57.912C29.0833 57.1123 29.6322 56.0806 29.6322 55.6191C29.6322 55.0138 30.1243 54.7797 31.3962 54.7797H33.1597L33.3667 59.9452ZM126.456 59.5187C130.252 59.8015 142.45 60.3806 153.563 60.8055C181.953 61.8917 197.662 62.5382 209.737 63.1173C215.471 63.3922 223.741 63.7722 228.113 63.9614C236.174 64.3111 239.212 65.2352 232.283 65.2305C224.95 65.2258 197.594 64.1731 185.237 63.4205C178.356 63.0018 162.052 62.5236 149.007 62.3584C126.719 62.0767 106.849 61.4317 98.8332 60.7308C96.404 60.5181 95.3145 60.2076 95.3145 59.7267C95.3145 59.3436 95.9599 58.9417 96.7481 58.834C99.1178 58.5084 119.062 58.9689 126.456 59.5187ZM118.251 63.1461C125.276 63.443 139.036 64.0341 148.831 64.4595C158.624 64.885 172.23 65.2357 179.065 65.2389C185.9 65.242 197.474 65.6136 204.785 66.0652C212.096 66.5168 221.562 67.0436 225.821 67.2355L233.564 67.5851L233.795 99.9908C233.922 117.814 234.074 133.451 234.132 134.74L234.238 137.083L230.068 137.706C227.774 138.049 223.488 138.347 220.543 138.368C217.599 138.389 204.345 138.978 191.09 139.677C177.836 140.376 163.708 141.095 159.694 141.277C155.68 141.458 149.815 141.84 146.661 142.124C143.508 142.41 135.297 142.971 128.416 143.372C121.535 143.772 111.036 144.393 105.084 144.751C97.5952 145.201 94.0957 145.234 93.7204 144.858C92.4219 143.556 92.1112 133.114 92.3609 99.2073L92.6169 64.4501L95.1388 63.2496C97.3038 62.2189 98.2134 62.0887 101.57 62.3276C103.72 62.4812 111.227 62.8492 118.251 63.1461ZM87.4843 63.1367C88.739 63.8099 88.9084 66.0406 89.584 90.844C90.1496 111.587 89.522 143.379 88.5273 144.376C87.9331 144.972 84.1334 144.57 62.4525 141.619C53.625 140.416 46.9244 139.256 45.9751 138.763L44.3753 137.934L44.0359 122.621C43.021 76.8861 43.0017 70.741 43.8691 70.0192C44.3257 69.6392 52.0794 68.1872 61.2718 66.7603C70.3907 65.3444 79.2588 63.8548 80.9791 63.4492C84.8382 62.5398 86.2457 62.4718 87.4843 63.1367ZM64.0372 64.1465C64.0372 64.6874 60.9872 65.485 60.5592 65.0564C60.408 64.9043 60.4382 64.5291 60.6275 64.2228C61.0471 63.5412 64.0372 63.4743 64.0372 64.1465ZM58.8243 65.139C58.8243 65.3753 55.5991 65.9915 51.6566 66.5089C47.7146 67.0264 43.7263 67.5647 42.7947 67.7053C39.8406 68.1507 40.9395 66.9098 44.0979 66.2335C49.7471 65.0235 58.8243 64.3493 58.8243 65.139ZM75.5056 66.8539C71.9217 67.4069 64.0633 68.758 58.0424 69.8567L47.0953 71.8543L47.1042 78.9972C47.1386 107.565 47.3742 116.803 48.0926 117.788C48.7869 118.74 49.6189 118.801 62.5583 118.843C72.7964 118.877 76.7004 119.066 77.9108 119.589C80.266 120.605 84.2413 119.459 84.9779 117.551C85.2855 116.753 85.6233 106.121 85.7958 91.7775C86.0293 72.4151 85.9527 67.1952 85.4257 66.5586C84.6047 65.5671 83.6695 65.5948 75.5056 66.8539ZM96.8002 67.2982C96.6944 67.6154 96.8007 70.7499 97.0358 74.2633C97.2714 77.7772 97.346 85.5912 97.2021 91.6281C96.9498 102.184 97.4294 119.273 97.9934 119.838C98.143 119.988 100.944 119.874 104.218 119.585C107.492 119.295 111.813 119.002 113.82 118.933L117.469 118.807L117.336 116.978C117.262 115.972 117.185 104.621 117.164 91.7545C117.126 68.6906 117.11 68.3529 116.052 67.7853C114.547 66.9778 97.0535 66.5351 96.8002 67.2982ZM109.771 68.6676C112.152 68.8934 113.786 69.3194 114.202 69.8227C114.712 70.4379 114.863 75.5851 114.863 92.3614C114.863 110.734 114.74 114.346 114.074 115.671L113.285 117.239H106.515H99.7455L99.796 113.842C99.8242 111.973 99.6162 102.095 99.3347 91.8894C99.0245 80.6587 99.0094 72.4141 99.2961 71.0029C99.8263 68.3968 100.922 67.7472 104.176 68.1078C105.18 68.2186 107.698 68.4705 109.771 68.6676ZM122.664 68.344C120.135 69.3716 120.158 69.1139 120.83 89.7987C121.175 100.43 121.297 111.196 121.1 113.725C120.81 117.436 120.887 118.442 121.501 118.953C122.089 119.443 124.377 119.46 131.595 119.032C136.728 118.727 147.144 118.387 154.741 118.277C182.398 117.876 207.672 117.053 209.086 116.51L210.519 115.958V97.2055C210.519 75.4869 210.303 72.2285 208.814 71.4294C208.214 71.1069 201.321 70.6955 192.311 70.4436C183.802 70.2058 168.585 69.6011 158.496 69.0993C148.408 68.597 139.995 68.3451 139.802 68.539C139.002 69.3413 140.537 69.6523 147.075 70.0119C150.861 70.2199 157.244 70.6391 161.257 70.9433C165.271 71.247 171.605 71.5005 175.332 71.5057C184.498 71.5193 207.481 72.9535 208.075 73.5493C208.8 74.2758 208.313 114.172 207.57 114.917C206.486 116.004 193.392 116.41 158.62 116.433C131.852 116.45 123.992 116.31 123.32 115.802C122.543 115.215 122.441 112.917 122.308 93.1469C122.187 75.1043 122.29 70.9898 122.876 70.28C123.466 69.5671 124.638 69.4145 129.523 69.4145C132.785 69.4145 135.454 69.2132 135.454 68.9676C135.454 68.0534 124.672 67.5276 122.664 68.344ZM68.2075 69.876C68.2075 70.13 67.68 70.499 67.0346 70.6955C66.2715 70.9281 66.101 71.1508 66.5467 71.3337C66.9231 71.4879 70.1399 71.1032 73.6946 70.4781C77.2498 69.853 80.8123 69.4166 81.6114 69.5086L83.0642 69.6758L83.2165 74.3757C83.3004 76.9608 83.5939 79.3013 83.8681 79.5763C84.491 80.2009 84.5239 83.1461 83.915 83.8141C83.6616 84.0927 83.6408 91.4294 83.8681 100.513C84.0912 109.425 84.2361 116.736 84.1902 116.759C84.1444 116.782 81.0573 116.626 77.3301 116.412C73.6029 116.198 66.5358 116.002 61.6247 115.978C54.4533 115.941 52.5715 115.781 52.0617 115.166C50.9336 113.802 50.026 73.8802 51.0988 72.8051C51.2297 72.6739 53.1882 72.1831 55.4511 71.7137C58.3807 71.1059 59.6214 71.0285 59.7595 71.444C60.0228 72.2353 60.9428 72.1904 60.7792 71.3938C60.6989 71.0034 61.8489 70.5241 63.7766 70.1441C67.827 69.3465 68.2075 69.3235 68.2075 69.876ZM63.5159 71.5052C63.5159 71.7926 63.8537 72.0278 64.2671 72.0278C64.6805 72.0278 65.1632 71.7926 65.3404 71.5052C65.5177 71.2177 65.1794 70.9825 64.5893 70.9825C63.9992 70.9825 63.5159 71.2177 63.5159 71.5052ZM214.361 71.6149C213.651 72.7669 213.528 79.7864 213.901 97.7647L214.287 116.31L220.874 116.628C224.497 116.803 227.908 117.012 228.454 117.093C229.156 117.196 229.563 116.814 229.847 115.785C230.067 114.985 230.516 105.033 230.844 93.668C231.491 71.2904 231.512 71.5052 228.732 71.5052C226.849 71.5052 226.275 72.4298 227.587 73.3507C228.54 74.0203 228.627 74.9402 228.905 87.2904C229.126 97.1077 229.011 102.084 228.461 106.612C228.053 109.966 227.778 113.259 227.851 113.929C227.982 115.143 227.957 115.148 221.988 115.148H215.993V94.9742C215.993 78.6433 216.129 74.636 216.708 73.9366C217.192 73.3523 218.236 73.0732 219.935 73.0732C222.592 73.0732 223.898 72.227 221.879 71.8146C218.904 71.2072 214.682 71.0949 214.361 71.6149ZM215.346 120.244C214.807 120.93 214.014 126.71 213.961 130.346C213.943 131.564 214.331 133.09 214.866 133.91L215.803 135.342L221.893 134.978C225.242 134.778 228.158 134.513 228.373 134.389C228.589 134.266 228.764 133.705 228.764 133.143C228.764 132.262 228.498 132.162 226.81 132.408C221.089 133.242 218.037 133.557 217.687 133.35C217.001 132.944 217.225 122.31 217.928 121.875C218.276 121.659 220.53 121.379 222.938 121.252C226.287 121.076 227.422 121.191 227.771 121.744C228.022 122.141 228.231 124.171 228.235 126.255C228.239 128.34 228.443 130.044 228.687 130.044C229.172 130.044 229.917 120.715 229.488 120.019C229.037 119.288 215.934 119.497 215.346 120.244ZM191.128 121.139C181.518 121.584 181.685 121.43 181.928 129.635C182.089 135.096 182.233 135.889 183.243 136.902L184.377 138.039L193.669 137.161C211.442 135.482 210.187 136.17 210.436 127.98C210.558 123.957 210.418 121.927 209.981 121.399C209.292 120.567 204.818 120.506 191.128 121.139ZM48.0076 122.252C46.9718 123.339 47.1058 135.98 48.1624 136.86C48.6191 137.24 52.744 137.949 57.6759 138.496C62.465 139.027 68.6115 139.92 71.3353 140.482C79.4324 142.153 82.8708 142.341 84.2872 141.191C85.4319 140.261 85.4877 139.876 85.5769 132.22C85.6613 125.017 85.5742 124.133 84.7021 123.343C83.8623 122.582 82.3063 122.465 72.9731 122.457C67.055 122.453 59.1632 122.251 55.436 122.009C50.0834 121.662 48.5221 121.713 48.0076 122.252ZM161.518 122.157C160.228 122.342 158.879 122.677 158.521 122.902C157.796 123.357 157.551 137.628 158.26 138.062C158.981 138.503 176.357 137.474 177.808 136.905L179.242 136.343V129.012V121.682L177.808 121.734C177.02 121.763 175.788 121.964 175.072 122.183L173.768 122.58L175.147 123.143C176.371 123.642 176.563 124.073 176.863 127.005C177.048 128.82 177.322 131.147 177.47 132.176C177.643 133.377 177.495 134.244 177.057 134.597C176.67 134.91 172.876 135.232 168.296 135.341L160.216 135.533L159.793 132.011C159.56 130.073 159.564 127.502 159.802 126.296C160.324 123.649 161.004 123.381 168.408 122.9C171.194 122.719 173.35 122.371 173.199 122.127C172.89 121.625 165.094 121.645 161.518 122.157ZM206.219 122.845C206.906 123.407 207.027 128.989 206.414 131.874C206.088 133.403 205.971 133.456 201.653 134.044C199.218 134.375 194.495 134.818 191.158 135.029C185.354 135.396 185.063 135.365 184.511 134.331C183.691 132.795 183.757 124.57 184.595 123.873C185.32 123.27 190.656 122.289 194.359 122.077C198.511 121.84 205.547 122.295 206.219 122.845ZM107.565 122.858C103.264 123.104 99.3936 123.496 98.9635 123.727C98.3145 124.076 98.1816 125.693 98.1816 133.237V142.327L100.208 142.494C102.765 142.704 117.304 141.135 117.847 140.59C118.342 140.093 118.804 123.322 118.329 123.059C117.325 122.503 114.616 122.453 107.565 122.858ZM134.932 122.585C120.877 122.764 121.9 121.99 121.9 132.436C121.9 139.431 121.972 139.977 122.954 140.504C123.723 140.917 126.44 140.854 132.989 140.272C155.424 138.278 155.101 138.345 154.476 135.85C154.293 135.12 154.429 132.11 154.777 129.16C155.59 122.284 155.507 122.162 150.117 122.324C147.929 122.39 141.097 122.508 134.932 122.585ZM24.9406 127.954C24.9406 130.393 24.7232 132.135 24.4193 132.135C24.1154 132.135 23.898 130.393 23.898 127.954C23.898 125.514 24.1154 123.772 24.4193 123.772C24.7232 123.772 24.9406 125.514 24.9406 127.954ZM151.028 126.309C151.572 128.032 151.635 129.619 151.289 132.842L150.832 137.101L144.316 137.105C140.732 137.107 134.985 137.221 131.544 137.358L125.289 137.606L124.666 135.785C124.324 134.784 124.031 132.136 124.015 129.901C123.986 126.008 124.042 125.816 125.322 125.327C126.058 125.047 130.339 124.797 134.836 124.772C139.333 124.747 144.185 124.539 145.619 124.31C149.853 123.634 150.228 123.773 151.028 126.309ZM51.3334 125.471C51.1609 126.118 51.016 126.941 51.0123 127.3C51.0081 127.66 50.7704 127.954 50.4837 127.954C49.9056 127.954 49.7607 125.194 50.3101 124.644C51.0597 123.892 51.6321 124.355 51.3334 125.471ZM72.1172 125.34C72.1172 125.946 73.2468 126.244 77.0694 126.647L82.0217 127.17L82.1708 132.275C82.2901 136.342 82.1671 137.439 81.5676 137.67C81.1537 137.829 78.1641 137.59 74.9233 137.138C68.2372 136.206 61.6487 136.063 61.1701 136.839C60.9929 137.127 60.0249 137.362 59.0193 137.362C57.4841 137.362 57.2391 137.208 57.493 136.405C57.7447 135.61 57.3851 135.368 55.363 134.968C52.1393 134.331 51.7578 133.6 52.3489 129.19L52.8295 125.602L55.7863 125.337C57.4127 125.192 58.9249 124.891 59.1465 124.669C59.3686 124.447 62.3774 124.33 65.8336 124.411C71.0068 124.531 72.1172 124.695 72.1172 125.34ZM114.606 125.607C115.532 126.724 115.056 137.137 114.035 138.138C113.51 138.652 111.432 138.906 106.783 139.025L100.267 139.191L100.458 132.919C100.563 129.47 100.873 126.367 101.148 126.025C101.796 125.216 103.397 124.991 109.195 124.896C112.873 124.836 114.102 124.997 114.606 125.607ZM50.4837 132.135C50.4837 133.678 49.8154 134.21 49.1774 133.176C48.7583 132.495 49.364 130.567 49.9974 130.567C50.2648 130.567 50.4837 131.273 50.4837 132.135ZM237.062 139.767C237.575 140.26 236.339 140.412 227.2 140.984C221.896 141.316 212.63 141.927 206.61 142.342C194.185 143.198 179.335 143.914 158.13 144.681C150.102 144.971 137.669 145.677 130.501 146.249C108.117 148.038 93.2539 148.898 90.4519 148.567C88.9694 148.392 83.768 147.688 78.8939 147.001C67.117 145.342 46.2154 142.589 45.3996 142.589C45.042 142.589 44.7495 142.353 44.7495 142.066C44.7495 141.185 49.0189 141.473 60.8146 143.151C71.9577 144.736 85.6889 146.611 89.9265 147.126C91.1202 147.272 97.4555 146.893 104.005 146.285C110.554 145.678 120.016 144.959 125.032 144.688C130.047 144.417 138.695 143.83 144.25 143.384C149.805 142.938 161.182 142.357 169.532 142.092C177.883 141.828 192.457 141.128 201.918 140.537C211.379 139.946 221.114 139.38 223.551 139.278C228.113 139.087 236.676 139.397 237.062 139.767ZM247.82 142.634C248.012 142.947 247.956 143.417 247.695 143.678C247.052 144.323 235.825 145.015 205.828 146.256C191.922 146.831 176.931 147.456 172.513 147.643C167.089 147.874 164.587 147.811 164.809 147.45C165.239 146.753 172.335 146.211 200.875 144.694C206.323 144.405 212.891 143.915 215.471 143.605C225.322 142.422 247.282 141.763 247.82 142.634ZM55.1284 145.447C62.1267 146.433 72.5655 147.763 78.3257 148.4C84.0854 149.038 89.0919 149.785 89.45 150.059C90.2413 150.663 90.307 152.331 89.5574 152.795C88.6212 153.375 53.4014 147.998 46.4333 146.211C44.2689 145.656 41.8314 145.202 41.0171 145.202C40.0486 145.202 39.5367 144.931 39.5367 144.418C39.5367 143.325 40.5386 143.39 55.1284 145.447ZM163.91 147.685C163.696 147.9 159.493 148.337 154.57 148.655C149.647 148.974 139.989 149.611 133.108 150.072C96.5974 152.517 94.5326 152.593 94.5326 151.474C94.5326 150.815 96.576 150.59 107.304 150.065C114.329 149.722 123.861 149.072 128.488 148.622C133.114 148.171 137.219 147.914 137.61 148.049C138.001 148.185 141.488 148.106 145.358 147.873C154.867 147.301 164.386 147.205 163.91 147.685ZM239.43 158.791C239.405 172.317 238.608 181.042 237.277 182.36C236.471 183.158 233.086 183.63 215.471 185.398C204.003 186.548 190.046 187.867 184.455 188.329C178.864 188.79 166.894 189.971 157.856 190.954C140.761 192.813 102.285 196.222 95.0763 196.516C91.1004 196.678 90.9013 196.631 90.2622 195.378C89.2863 193.465 89.2843 159.166 90.2601 158.354C92.0346 156.877 129.174 153.291 150.832 152.505C158.573 152.225 168.191 151.76 172.205 151.475C176.218 151.188 190.059 150.47 202.961 149.88C215.862 149.289 228.295 148.61 230.589 148.372C232.883 148.133 235.815 147.969 237.105 148.008L239.451 148.077L239.43 158.791ZM53.3633 150.684C57.3705 151.399 66.1615 152.944 72.8991 154.118C79.6368 155.292 85.3047 156.412 85.494 156.607C85.9954 157.124 86.2561 194.473 85.764 195.248C85.2302 196.087 84.0959 196.044 81.5004 195.085C80.3535 194.662 71.6741 192.667 62.2127 190.652C52.7513 188.637 44.4821 186.765 43.8373 186.491C42.6873 186.003 42.6644 185.821 42.6628 177.227C42.6613 167.721 43.5933 152.451 44.2903 150.559C44.8246 149.11 44.5233 149.106 53.3633 150.684ZM230.328 185.97C230.328 186.258 229.507 186.493 228.504 186.493C227.5 186.493 226.679 186.258 226.679 185.97C226.679 185.683 227.5 185.448 228.504 185.448C229.507 185.448 230.328 185.683 230.328 185.97ZM223.551 186.493C223.551 186.781 223.2 187.016 222.77 187.016C222.339 187.016 221.988 186.781 221.988 186.493C221.988 186.206 222.339 185.97 222.77 185.97C223.2 185.97 223.551 186.206 223.551 186.493ZM244.664 192.61C244.664 196.035 244.434 198.694 244.112 199.017C243.601 199.528 239.226 200.157 225.915 201.632C223.058 201.949 215.083 203.142 208.192 204.284C193.132 206.778 146.447 211.948 125.81 213.408C123.23 213.59 114.111 214.561 105.545 215.566C96.9806 216.571 89.6497 217.269 89.2551 217.117C88.6921 216.9 88.5378 215.216 88.5378 209.276C88.5378 205.116 88.7578 201.576 89.0262 201.41C89.2947 201.243 92.9891 200.886 97.2365 200.617C108.192 199.921 127.634 197.832 127.634 197.351C127.634 197.128 127.283 196.947 126.852 196.947C126.422 196.947 126.071 196.711 126.071 196.424C126.071 195.609 128.474 195.81 129.198 196.685C129.918 197.555 133.369 197.771 133.369 196.947C133.369 196.659 132.899 196.424 132.326 196.424C131.753 196.424 131.283 196.189 131.283 195.901C131.283 195.081 134.21 195.29 134.932 196.162C135.652 197.032 139.103 197.249 139.103 196.424C139.103 196.136 138.516 195.901 137.8 195.901C137.083 195.901 136.496 195.666 136.496 195.378C136.496 195.091 136.743 194.856 137.045 194.856C137.966 194.856 186.462 190.683 191.753 190.149C194.477 189.874 203.742 189.279 212.344 188.828C220.945 188.377 231.032 187.693 234.759 187.306C238.486 186.92 242.24 186.638 243.1 186.679L244.664 186.754V192.61ZM52.316 194.799C58.3328 196.493 64.8973 198.024 66.9043 198.201C71.6345 198.62 80.5741 201.274 81.9742 202.676C82.9355 203.638 83.0846 204.507 83.2384 210.026L83.4119 216.285H82.1556C80.0741 216.285 70.4569 213.392 60.3111 209.714C55.0492 207.807 48.4304 205.454 45.6024 204.485C42.7744 203.517 40.1351 202.454 39.7379 202.124C39.2161 201.69 39.0154 200.161 39.0154 196.621C39.0154 191.877 39.0534 191.72 40.1961 191.72C40.8456 191.72 46.2999 193.106 52.316 194.799ZM70.1785 195.395C82.1348 198.124 83.3249 198.455 83.3249 199.058C83.3249 199.923 81.3638 199.624 72.9659 197.478C64.6768 195.36 61.2124 194.289 60.5717 193.646C60.0191 193.092 60.3402 193.151 70.1785 195.395ZM141.709 195.901C141.709 196.189 142.178 196.424 142.752 196.424C143.325 196.424 143.794 196.189 143.794 195.901C143.794 195.614 143.325 195.378 142.752 195.378C142.178 195.378 141.709 195.614 141.709 195.901ZM122.422 196.947C122.422 197.234 122.187 197.469 121.9 197.469C121.614 197.469 121.379 197.234 121.379 196.947C121.379 196.659 121.614 196.424 121.9 196.424C122.187 196.424 122.422 196.659 122.422 196.947ZM141.709 213.672C141.709 213.959 141.416 214.197 141.058 214.2C140.699 214.204 139.527 214.352 138.451 214.53C137.208 214.736 136.496 214.65 136.496 214.295C136.496 213.987 137.376 213.643 138.451 213.53C139.527 213.417 140.699 213.286 141.058 213.237C141.416 213.189 141.709 213.385 141.709 213.672ZM127.634 214.717C127.634 215.005 127.4 215.24 127.113 215.24C126.826 215.24 126.592 215.005 126.592 214.717C126.592 214.43 126.826 214.195 127.113 214.195C127.4 214.195 127.634 214.43 127.634 214.717ZM122.943 215.24C122.943 215.527 122.708 215.763 122.422 215.763C122.135 215.763 121.9 215.527 121.9 215.24C121.9 214.953 122.135 214.717 122.422 214.717C122.708 214.717 122.943 214.953 122.943 215.24ZM118.772 215.763C118.772 216.05 118.421 216.285 117.991 216.285C117.561 216.285 117.209 216.05 117.209 215.763C117.209 215.475 117.561 215.24 117.991 215.24C118.421 215.24 118.772 215.475 118.772 215.763ZM114.602 216.285C114.602 216.573 114.25 216.808 113.82 216.808C113.39 216.808 113.038 216.573 113.038 216.285C113.038 215.998 113.39 215.763 113.82 215.763C114.25 215.763 114.602 215.998 114.602 216.285Z"
    fill="black"
  />
</svg>