<svg width="145" viewBox="0 0 179 177" fill="none" xmlns="http://www.w3.org/2000/svg">
<path d="M167 43.5C167.496 44.2442 168.667 47.667 155.5 54.5004L141.5 54.0004L133.5 51.5004L138.5 39.0004L126.5 28.5004L133.5 13C133.5 13 143 17.9998 155.5 15.5C168 13.0002 160 33.0004 167 43.5Z" fill="#FAD008"/>
<path fill-rule="evenodd" clip-rule="evenodd" d="M140.238 0.199766C138.196 0.704175 136.394 1.74664 134.337 3.6139L132.452 5.32413L130.352 4.68932C125.749 3.29843 122.695 2.85081 117.746 2.84239C114.123 2.83643 112.205 3.00013 110.393 3.47019C106.556 4.46569 102.566 6.54817 99.8537 8.97066C95.7594 12.627 5.91006 102.61 4.63099 104.335C1.73214 108.243 0.28815 112.798 0.0328949 118.837C-0.444351 130.138 4.27909 142.474 13.7011 154.531C22.6823 166.025 31.8851 171.36 43.5737 171.847L48.1829 172.039L48.4042 173.22C48.6984 174.789 49.5846 175.306 53.5258 176.207C57.787 177.181 64.556 177.273 67.7084 176.399C70.3411 175.669 72.4854 174.717 74.3664 173.442C75.1577 172.906 94.5021 153.855 117.355 131.106L158.904 89.7434L161.435 89.0217C168.128 87.1127 173.556 82.6733 176.411 76.7739C178.635 72.1781 179.025 70.2222 178.996 63.8044C178.965 56.7963 178.187 52.9201 175.657 47.1543C174.684 44.9372 173.711 42.6967 173.495 42.1751C173.127 41.2858 173.238 41.0863 175.286 38.9509C178.141 35.9749 178.983 34.0979 179 30.6774C179.01 28.4985 178.846 27.706 178.044 26.0645C176.127 22.1424 172.749 20.0508 168.249 19.9986L165.529 19.9667L164.83 18.5523C163.095 15.0425 158.971 12.3217 155.341 12.2926L153.368 12.2768L153.201 9.99841C152.903 5.95543 150.673 2.64785 147.158 1.03823C145.114 0.101619 142.109 -0.262229 140.238 0.199766ZM144.643 5.83485C147.072 7.08448 148.256 9.4281 147.697 11.8804C147.396 13.2043 145.755 15.6076 144.976 15.8676C144.761 15.9395 144.175 15.2959 143.672 14.4375C142.453 12.354 139.727 9.84979 138.091 9.30927L136.765 8.87111L137.897 7.70211C139.913 5.62032 142.717 4.84426 144.643 5.83485ZM123.216 8.57246C124.298 8.74983 125.859 9.07722 126.684 9.29981L128.185 9.70432L126.556 11.335L124.927 12.9653L119.236 13.6726L113.545 14.38L112.844 13.6046C111.241 11.8292 109.134 12.5857 105.318 16.3065C101.143 20.3775 99.6807 27.6457 101.439 35.5869C103.134 43.2372 108.308 52.7617 114.647 59.8984C120.924 66.9651 121.846 68.1446 123.318 70.9902C125.247 74.7208 126.242 78.0074 126.633 81.9442C127.463 90.2829 124.846 98.502 119.371 104.751C116.301 108.256 65.1264 159.078 63.2104 160.525C54.3766 167.196 41.7911 168.321 31.7097 163.339C28.3168 161.662 26.3564 160.227 23.3696 157.235C14.5037 148.352 8.12192 137.239 6.05012 127.075C5.24969 123.15 5.24409 117.13 6.03751 114.105C7.48641 108.582 4.81692 111.462 55.6897 60.5515C81.3472 34.875 103.169 13.2436 104.182 12.4822C106.474 10.7591 109.238 9.43371 111.873 8.7947C114.22 8.22544 120.365 8.10521 123.216 8.57246ZM137.841 15.7919C139.854 18.0875 141.257 21.5216 142.304 26.7214C143.443 32.3775 143.084 44.3848 141.644 48.7853C141.219 50.0844 141.132 50.1422 139.279 50.3676C138.22 50.4959 136.728 50.7006 135.963 50.8222L134.572 51.0434L137.401 48.1351C140.613 44.8335 141.242 43.798 141.645 41.1463C142.661 34.4736 138.321 29.1509 131.457 28.6517L129.061 28.4775L129.293 26.9289C129.96 22.48 131.885 17.6448 133.767 15.6945C135.251 14.1557 136.431 14.1837 137.841 15.7919ZM157.692 18.4286C160.252 20.0133 160.662 21.8322 159.821 27.8753C159.451 30.5323 159.331 30.8446 158.71 30.7619C154.49 30.1993 154.336 30.2074 153.45 31.0409C151.685 32.7007 152.821 35.2245 155.566 35.7397C159.379 36.4559 162.547 39.5924 163.221 43.3195C163.433 44.49 163.369 44.6046 162.199 45.1633C161.512 45.4914 159.463 47.1995 157.646 48.9599L154.341 52.1602L153.026 51.2492C151.61 50.2684 149.054 49.2575 147.99 49.2575C147.249 49.2575 147.212 48.9806 147.685 46.9324C147.869 46.1357 148.181 43.3437 148.379 40.7284C148.78 35.4523 148.437 29.6928 147.433 24.805L146.838 21.91L148.72 20.0025C150.281 18.4205 150.846 18.0728 152.031 17.9638C155.568 17.6389 156.545 17.7191 157.692 18.4286ZM125.41 19.2874C125.388 19.673 125.046 21.2503 124.65 22.7927C124.253 24.335 123.834 26.1717 123.718 26.8742L123.506 28.1519L121.501 26.1472C119.163 23.8092 117.148 22.9679 113.885 22.9679C111.343 22.9679 109.904 23.3994 107.813 24.7886L106.282 25.8054L106.527 24.8247C106.81 23.6876 107.597 21.9963 108.233 21.1582C108.572 20.7119 110.48 20.3278 116.362 19.5219C120.59 18.9428 124.364 18.4952 124.749 18.5274C125.212 18.5664 125.436 18.824 125.41 19.2874ZM170.799 26.0708C173.292 27.3968 174.363 30.6592 173.095 33.0631C172.342 34.4908 167.59 38.9993 167.394 38.4721C167.303 38.2274 166.613 37.2064 165.86 36.2031C165.107 35.1999 164.494 34.2171 164.497 34.019C164.501 33.821 164.733 32.0816 165.012 30.1537C165.291 28.2258 165.524 26.5251 165.53 26.3744C165.547 25.9457 166.993 25.4682 168.348 25.4437C169.025 25.4318 170.128 25.7136 170.799 26.0708ZM116.879 29.1628C119.248 30.5635 119.896 34.4835 118.14 36.7885C116.735 38.6319 116.6 39.904 117.691 40.997C119.41 42.717 120.341 42.3437 124.535 38.2537C127.217 35.6388 128.643 34.5083 129.588 34.2472C133.479 33.1714 137.056 36.4275 136.317 40.3716C136.112 41.4681 135.338 42.4569 132.158 45.6874C128.678 49.2217 128.145 49.6353 127.289 49.4657C126.069 49.2245 122.799 49.8327 122.225 50.4079C121.985 50.6477 121.692 51.3291 121.573 51.9215C121.408 52.7491 121.549 53.2205 122.18 53.9549C122.949 54.8505 123.199 54.9153 126.151 54.9858C128.714 55.0468 129.672 55.2329 131.288 55.9834C136.746 58.5177 139.885 64.4918 138.593 69.8829L138.174 71.632L136.714 70.9681C135.031 70.2032 132.24 70.1118 130.702 70.7711L129.651 71.2215L128.202 68.5151C126.367 65.0862 124.702 62.8569 121.017 58.8938C116.064 53.5665 112.9 49.0924 110.11 43.4738C108.59 40.4133 106.717 35.1239 106.717 33.8935C106.717 33.0593 110.905 28.9746 112.167 28.5781C113.472 28.1683 115.655 28.439 116.879 29.1628ZM168.728 49.6557C169.382 49.8748 170.322 50.4279 170.815 50.8853C171.867 51.8598 172.687 54.6724 172.344 56.1296C172.18 56.8264 169.24 60.0288 162.967 66.3457L153.829 75.547H152.221C150.283 75.547 147.105 75.0009 144.671 74.2501L142.883 73.6984L143.362 72.7386C144.115 71.2275 144.621 67.8284 144.378 65.9089C144.044 63.2582 142.855 59.9521 141.523 57.9712C140.867 56.9957 140.331 56.0766 140.331 55.9291C140.331 55.7815 142.06 55.4611 144.174 55.2175C148.533 54.7148 149.649 54.9511 150.844 56.6312C151.65 57.7641 151.682 58.5969 151.116 63.6919C150.698 67.4513 150.7 67.4712 151.527 68.3525C152.599 69.4952 154.284 69.5379 155.301 68.4489C155.866 67.8445 156.167 66.7348 156.588 63.7048C156.89 61.5291 157.138 59.148 157.138 58.4133C157.138 57.1794 157.414 56.8085 160.77 53.5395C164.97 49.4492 166.247 48.8256 168.728 49.6557ZM173.785 65.6446C173.151 71.863 171.575 75.5428 168.032 79.0747C165.403 81.6963 163.079 82.94 158.771 84.0323C156.323 84.6527 155.239 84.7288 151.229 84.5609C146.642 84.3695 146.529 84.3824 145.714 85.1981C144.899 86.0141 144.667 87.1961 145.1 88.3255C145.437 89.2046 147.136 89.9187 148.892 89.9187C149.768 89.9187 150.485 90.0431 150.485 90.1952C150.485 90.7305 72.2911 168.273 70.8068 169.21C68.0921 170.923 65.9818 171.416 61.3732 171.416C59.0623 171.416 56.5412 171.279 55.7709 171.11L54.3703 170.804L56.6463 170.022C60.8042 168.593 65.0462 166.194 68.026 163.586C71.5488 160.503 123.541 108.428 125.015 106.507C130.138 99.8295 132.575 91.9395 132.14 83.4339C132.022 81.1204 131.831 78.6499 131.716 77.9439C131.535 76.8289 131.628 76.5811 132.425 76.0585C133.318 75.4727 133.416 75.4896 136.049 76.6873C142.015 79.4014 146.177 80.5543 151.535 80.9778C156.582 81.3763 161.756 79.8722 164.795 77.1237C165.948 76.0816 166.241 75.5751 166.241 74.6301C166.241 73.9244 165.976 73.1953 165.587 72.8305C164.955 72.2374 165.08 72.0677 169.346 67.7478C171.773 65.2899 173.819 63.2786 173.893 63.2786C173.966 63.2786 173.918 64.3431 173.785 65.6446ZM94.9044 72.8305C93.0675 74.8148 94.3739 78.0007 97.0242 78.0007C99.6657 78.0007 101.054 74.7538 99.2045 72.9023C98.0522 71.7484 95.9384 71.7133 94.9044 72.8305ZM57.6697 75.8706C56.078 77.4641 56.4908 79.6177 58.5784 80.6094C60.0542 81.3101 61.7108 80.7832 62.4342 79.3822C63.1677 77.9622 63.0763 77.1546 62.0423 75.9246C60.8067 74.4544 59.1053 74.4334 57.6697 75.8706ZM36.0823 86.3135C35.6527 86.3945 34.9832 86.8652 34.5942 87.3605C32.2734 90.3141 36.1685 94.0587 38.9129 91.5129C41.2175 89.3746 39.2291 85.7225 36.0823 86.3135ZM63.5252 98.4898C61.4706 100.396 62.7976 103.729 65.6107 103.729C66.5739 103.729 67.0967 103.49 67.7213 102.763C70.2473 99.8235 66.3575 95.8622 63.5252 98.4898ZM29.4054 113.063C27.2846 115.041 28.5717 118.311 31.4709 118.311C32.4965 118.311 32.9674 118.081 33.6807 117.233C34.9489 115.724 34.7679 113.994 33.2171 112.802C32.3298 112.12 30.265 112.262 29.4054 113.063ZM17.8073 121.322C15.3731 123.373 17.3514 127.348 20.4218 126.576C22.8119 125.976 23.5002 122.919 21.6049 121.322C21.0125 120.823 20.1581 120.415 19.7061 120.415C19.2541 120.415 18.3997 120.823 17.8073 121.322ZM51.7173 121.79C50.4942 123.014 50.3773 124.474 51.3983 125.773C53.5006 128.449 57.723 126.111 56.6018 122.891C55.8297 120.675 53.3826 120.123 51.7173 121.79ZM28.432 131.428C26.376 132.324 26.0542 135.134 27.8459 136.544C29.1323 137.557 30.5935 137.436 31.813 136.215C33.492 134.534 33.0704 132.337 30.8939 131.426C29.5021 130.844 29.7706 130.844 28.432 131.428Z" fill="black"/>
</svg>
